M48
; DRILL file {KiCad (5.1.6-0-10_14)} date Saturday, January 02, 2021 at 04:53:17 PM
; FORMAT={-:-/ absolute / inch / decimal}
; #@! TF.CreationDate,2021-01-02T16:53:17+01:00
; #@! TF.GenerationSoftware,Kicad,Pcbnew,(5.1.6-0-10_14)
; #@! TF.FileFunction,Plated,1,2,PTH
FMAT,2
INCH
T1C0.0157
T2C0.0315
T3C0.0394
T4C0.1260
%
G90
G05
T1
X1.062Y-1.6535
X1.122Y-1.9685
X1.2598Y-2.5394
X1.3583Y-2.5787
X1.3583Y-2.6378
X1.3745Y-2.0472
X1.3976Y-1.9291
X1.437Y-2.5197
X1.4488Y-2.311
X1.4488Y-2.3425
X1.4488Y-2.374
X1.4498Y-2.6703
X1.5305Y-2.437
X1.5551Y-2.815
X1.5748Y-1.1024
X1.5748Y-1.1417
X1.588Y-2.1982
X1.5945Y-2.6772
X1.6142Y-1.1024
X1.6142Y-1.1417
X1.6339Y-2.2638
X1.6535Y-1.1024
X1.6535Y-1.1417
X1.689Y-2.5197
X1.7498Y-2.2738
X1.8307Y-1.7717
X1.8307Y-2.1457
X1.8504Y-2.3228
X1.8898Y-2.0472
X1.8898Y-2.0866
X1.8898Y-2.126
X1.8898Y-2.1654
X1.9291Y-2.0472
X1.9291Y-2.0866
X1.9291Y-2.126
X1.9291Y-2.1654
X1.9685Y-2.0472
X1.9685Y-2.0866
X1.9685Y-2.126
X1.9685Y-2.1654
T3
X1.2205Y-2.0669
X1.2205Y-2.1669
X1.2205Y-2.2669
X1.2205Y-2.3669
X1.2205Y-2.4669
X1.2205Y-1.5551
X1.2205Y-1.6551
X1.2205Y-1.7551
X1.2205Y-1.8551
X1.4094Y-0.8071
X1.6063Y-0.8071
T4
X0.9843Y-2.7559
X1.9685Y-0.7874
X0.9843Y-0.7874
X1.9685Y-2.7559
T2
G00X1.1299Y-1.1575
M15
G01X1.1299Y-1.2441
M16
G05
G00X1.1969Y-1.3898
M15
G01X1.2835Y-1.3898
M16
G05
G00X1.3583Y-1.1496
M15
G01X1.3583Y-1.252
M16
G05
T0
M30
