%TF.GenerationSoftware,KiCad,Pcbnew,(5.1.6-0-10_14)*%
%TF.CreationDate,2021-01-02T16:58:20+01:00*%
%TF.ProjectId,driver-v2,64726976-6572-42d7-9632-2e6b69636164,rev?*%
%TF.SameCoordinates,Original*%
%TF.FileFunction,Copper,L2,Bot*%
%TF.FilePolarity,Positive*%
%FSLAX46Y46*%
G04 Gerber Fmt 4.6, Leading zero omitted, Abs format (unit mm)*
G04 Created by KiCad (PCBNEW (5.1.6-0-10_14)) date 2021-01-02 16:58:20*
%MOMM*%
%LPD*%
G01*
G04 APERTURE LIST*
%TA.AperFunction,ComponentPad*%
%ADD10C,6.400000*%
%TD*%
%TA.AperFunction,ComponentPad*%
%ADD11R,2.000000X2.000000*%
%TD*%
%TA.AperFunction,ComponentPad*%
%ADD12C,2.000000*%
%TD*%
%TA.AperFunction,ComponentPad*%
%ADD13O,4.000000X1.800000*%
%TD*%
%TA.AperFunction,ComponentPad*%
%ADD14O,1.800000X4.000000*%
%TD*%
%TA.AperFunction,ComponentPad*%
%ADD15R,1.800000X4.400000*%
%TD*%
%TA.AperFunction,ComponentPad*%
%ADD16R,1.700000X1.700000*%
%TD*%
%TA.AperFunction,ComponentPad*%
%ADD17O,1.700000X1.700000*%
%TD*%
%TA.AperFunction,ViaPad*%
%ADD18C,0.800000*%
%TD*%
%TA.AperFunction,Conductor*%
%ADD19C,1.000000*%
%TD*%
%TA.AperFunction,Conductor*%
%ADD20C,2.000000*%
%TD*%
%TA.AperFunction,Conductor*%
%ADD21C,0.500000*%
%TD*%
%TA.AperFunction,Conductor*%
%ADD22C,0.254000*%
%TD*%
G04 APERTURE END LIST*
D10*
%TO.P,REF\u002A\u002A,1*%
%TO.N,N/C*%
X25000000Y-70000000D03*
%TD*%
%TO.P,REF\u002A\u002A,1*%
%TO.N,N/C*%
X25000000Y-20000000D03*
%TD*%
%TO.P,REF\u002A\u002A,1*%
%TO.N,N/C*%
X50000000Y-70000000D03*
%TD*%
%TO.P,REF\u002A\u002A,1*%
%TO.N,N/C*%
X50000000Y-20000000D03*
%TD*%
D11*
%TO.P,C1,1*%
%TO.N,VIN*%
X35800000Y-20500000D03*
D12*
%TO.P,C1,2*%
%TO.N,GND*%
X40800000Y-20500000D03*
%TD*%
%TO.P,C2,2*%
%TO.N,GND*%
%TA.AperFunction,SMDPad,CuDef*%
G36*
G01*
X50850000Y-61950001D02*
X50850000Y-61049999D01*
G75*
G02*
X51099999Y-60800000I249999J0D01*
G01*
X51750001Y-60800000D01*
G75*
G02*
X52000000Y-61049999I0J-249999D01*
G01*
X52000000Y-61950001D01*
G75*
G02*
X51750001Y-62200000I-249999J0D01*
G01*
X51099999Y-62200000D01*
G75*
G02*
X50850000Y-61950001I0J249999D01*
G01*
G37*
%TD.AperFunction*%
%TO.P,C2,1*%
%TO.N,Net-(C2-Pad1)*%
%TA.AperFunction,SMDPad,CuDef*%
G36*
G01*
X48800000Y-61950001D02*
X48800000Y-61049999D01*
G75*
G02*
X49049999Y-60800000I249999J0D01*
G01*
X49700001Y-60800000D01*
G75*
G02*
X49950000Y-61049999I0J-249999D01*
G01*
X49950000Y-61950001D01*
G75*
G02*
X49700001Y-62200000I-249999J0D01*
G01*
X49049999Y-62200000D01*
G75*
G02*
X48800000Y-61950001I0J249999D01*
G01*
G37*
%TD.AperFunction*%
%TD*%
%TO.P,C4,1*%
%TO.N,Net-(C4-Pad1)*%
%TA.AperFunction,SMDPad,CuDef*%
G36*
G01*
X46800000Y-59450001D02*
X46800000Y-58549999D01*
G75*
G02*
X47049999Y-58300000I249999J0D01*
G01*
X47700001Y-58300000D01*
G75*
G02*
X47950000Y-58549999I0J-249999D01*
G01*
X47950000Y-59450001D01*
G75*
G02*
X47700001Y-59700000I-249999J0D01*
G01*
X47049999Y-59700000D01*
G75*
G02*
X46800000Y-59450001I0J249999D01*
G01*
G37*
%TD.AperFunction*%
%TO.P,C4,2*%
%TO.N,GND*%
%TA.AperFunction,SMDPad,CuDef*%
G36*
G01*
X48850000Y-59450001D02*
X48850000Y-58549999D01*
G75*
G02*
X49099999Y-58300000I249999J0D01*
G01*
X49750001Y-58300000D01*
G75*
G02*
X50000000Y-58549999I0J-249999D01*
G01*
X50000000Y-59450001D01*
G75*
G02*
X49750001Y-59700000I-249999J0D01*
G01*
X49099999Y-59700000D01*
G75*
G02*
X48850000Y-59450001I0J249999D01*
G01*
G37*
%TD.AperFunction*%
%TD*%
D13*
%TO.P,J1,3*%
%TO.N,N/C*%
X31500000Y-35300000D03*
D14*
%TO.P,J1,2*%
%TO.N,GND*%
X28700000Y-30500000D03*
D15*
%TO.P,J1,1*%
%TO.N,VIN*%
X34500000Y-30500000D03*
%TD*%
D16*
%TO.P,LS1,1*%
%TO.N,Vout*%
X31000000Y-52500000D03*
D17*
%TO.P,LS1,2*%
%TO.N,LS1-*%
X31000000Y-55040000D03*
%TO.P,LS1,3*%
%TO.N,LS2-*%
X31000000Y-57580000D03*
%TO.P,LS1,4*%
%TO.N,LS3-*%
X31000000Y-60120000D03*
%TO.P,LS1,5*%
%TO.N,LS4-*%
X31000000Y-62660000D03*
%TD*%
%TO.P,R1,2*%
%TO.N,GND*%
%TA.AperFunction,SMDPad,CuDef*%
G36*
G01*
X43350001Y-62525000D02*
X42449999Y-62525000D01*
G75*
G02*
X42200000Y-62275001I0J249999D01*
G01*
X42200000Y-61624999D01*
G75*
G02*
X42449999Y-61375000I249999J0D01*
G01*
X43350001Y-61375000D01*
G75*
G02*
X43600000Y-61624999I0J-249999D01*
G01*
X43600000Y-62275001D01*
G75*
G02*
X43350001Y-62525000I-249999J0D01*
G01*
G37*
%TD.AperFunction*%
%TO.P,R1,1*%
%TO.N,Net-(R1-Pad1)*%
%TA.AperFunction,SMDPad,CuDef*%
G36*
G01*
X43350001Y-64575000D02*
X42449999Y-64575000D01*
G75*
G02*
X42200000Y-64325001I0J249999D01*
G01*
X42200000Y-63674999D01*
G75*
G02*
X42449999Y-63425000I249999J0D01*
G01*
X43350001Y-63425000D01*
G75*
G02*
X43600000Y-63674999I0J-249999D01*
G01*
X43600000Y-64325001D01*
G75*
G02*
X43350001Y-64575000I-249999J0D01*
G01*
G37*
%TD.AperFunction*%
%TD*%
%TO.P,R2,1*%
%TO.N,Net-(C2-Pad1)*%
%TA.AperFunction,SMDPad,CuDef*%
G36*
G01*
X48025000Y-61049999D02*
X48025000Y-61950001D01*
G75*
G02*
X47775001Y-62200000I-249999J0D01*
G01*
X47124999Y-62200000D01*
G75*
G02*
X46875000Y-61950001I0J249999D01*
G01*
X46875000Y-61049999D01*
G75*
G02*
X47124999Y-60800000I249999J0D01*
G01*
X47775001Y-60800000D01*
G75*
G02*
X48025000Y-61049999I0J-249999D01*
G01*
G37*
%TD.AperFunction*%
%TO.P,R2,2*%
%TO.N,Net-(R2-Pad2)*%
%TA.AperFunction,SMDPad,CuDef*%
G36*
G01*
X45975000Y-61049999D02*
X45975000Y-61950001D01*
G75*
G02*
X45725001Y-62200000I-249999J0D01*
G01*
X45074999Y-62200000D01*
G75*
G02*
X44825000Y-61950001I0J249999D01*
G01*
X44825000Y-61049999D01*
G75*
G02*
X45074999Y-60800000I249999J0D01*
G01*
X45725001Y-60800000D01*
G75*
G02*
X45975000Y-61049999I0J-249999D01*
G01*
G37*
%TD.AperFunction*%
%TD*%
%TO.P,R3,1*%
%TO.N,Net-(Q1-Pad3)*%
%TA.AperFunction,SMDPad,CuDef*%
G36*
G01*
X34150000Y-53425001D02*
X34150000Y-50574999D01*
G75*
G02*
X34399999Y-50325000I249999J0D01*
G01*
X35425001Y-50325000D01*
G75*
G02*
X35675000Y-50574999I0J-249999D01*
G01*
X35675000Y-53425001D01*
G75*
G02*
X35425001Y-53675000I-249999J0D01*
G01*
X34399999Y-53675000D01*
G75*
G02*
X34150000Y-53425001I0J249999D01*
G01*
G37*
%TD.AperFunction*%
%TO.P,R3,2*%
%TO.N,GND*%
%TA.AperFunction,SMDPad,CuDef*%
G36*
G01*
X40125000Y-53425001D02*
X40125000Y-50574999D01*
G75*
G02*
X40374999Y-50325000I249999J0D01*
G01*
X41400001Y-50325000D01*
G75*
G02*
X41650000Y-50574999I0J-249999D01*
G01*
X41650000Y-53425001D01*
G75*
G02*
X41400001Y-53675000I-249999J0D01*
G01*
X40374999Y-53675000D01*
G75*
G02*
X40125000Y-53425001I0J249999D01*
G01*
G37*
%TD.AperFunction*%
%TD*%
%TO.P,R4,2*%
%TO.N,Net-(R4-Pad2)*%
%TA.AperFunction,SMDPad,CuDef*%
G36*
G01*
X36325000Y-62350001D02*
X36325000Y-61449999D01*
G75*
G02*
X36574999Y-61200000I249999J0D01*
G01*
X37225001Y-61200000D01*
G75*
G02*
X37475000Y-61449999I0J-249999D01*
G01*
X37475000Y-62350001D01*
G75*
G02*
X37225001Y-62600000I-249999J0D01*
G01*
X36574999Y-62600000D01*
G75*
G02*
X36325000Y-62350001I0J249999D01*
G01*
G37*
%TD.AperFunction*%
%TO.P,R4,1*%
%TO.N,Vout*%
%TA.AperFunction,SMDPad,CuDef*%
G36*
G01*
X34275000Y-62350001D02*
X34275000Y-61449999D01*
G75*
G02*
X34524999Y-61200000I249999J0D01*
G01*
X35175001Y-61200000D01*
G75*
G02*
X35425000Y-61449999I0J-249999D01*
G01*
X35425000Y-62350001D01*
G75*
G02*
X35175001Y-62600000I-249999J0D01*
G01*
X34524999Y-62600000D01*
G75*
G02*
X34275000Y-62350001I0J249999D01*
G01*
G37*
%TD.AperFunction*%
%TD*%
%TO.P,R5,1*%
%TO.N,Net-(R4-Pad2)*%
%TA.AperFunction,SMDPad,CuDef*%
G36*
G01*
X38300000Y-62350001D02*
X38300000Y-61449999D01*
G75*
G02*
X38549999Y-61200000I249999J0D01*
G01*
X39200001Y-61200000D01*
G75*
G02*
X39450000Y-61449999I0J-249999D01*
G01*
X39450000Y-62350001D01*
G75*
G02*
X39200001Y-62600000I-249999J0D01*
G01*
X38549999Y-62600000D01*
G75*
G02*
X38300000Y-62350001I0J249999D01*
G01*
G37*
%TD.AperFunction*%
%TO.P,R5,2*%
%TO.N,GND*%
%TA.AperFunction,SMDPad,CuDef*%
G36*
G01*
X40350000Y-62350001D02*
X40350000Y-61449999D01*
G75*
G02*
X40599999Y-61200000I249999J0D01*
G01*
X41250001Y-61200000D01*
G75*
G02*
X41500000Y-61449999I0J-249999D01*
G01*
X41500000Y-62350001D01*
G75*
G02*
X41250001Y-62600000I-249999J0D01*
G01*
X40599999Y-62600000D01*
G75*
G02*
X40350000Y-62350001I0J249999D01*
G01*
G37*
%TD.AperFunction*%
%TD*%
D16*
%TO.P,REMOTE1,1*%
%TO.N,VIN*%
X31000000Y-39500000D03*
D17*
%TO.P,REMOTE1,2*%
%TO.N,EN*%
X31000000Y-42040000D03*
%TO.P,REMOTE1,3*%
%TO.N,PWM*%
X31000000Y-44580000D03*
%TO.P,REMOTE1,4*%
%TO.N,GND*%
X31000000Y-47120000D03*
%TD*%
%TO.P,Ren1,1*%
%TO.N,Net-(Ren1-Pad1)*%
%TA.AperFunction,SMDPad,CuDef*%
G36*
G01*
X26400000Y-42450001D02*
X26400000Y-41549999D01*
G75*
G02*
X26649999Y-41300000I249999J0D01*
G01*
X27300001Y-41300000D01*
G75*
G02*
X27550000Y-41549999I0J-249999D01*
G01*
X27550000Y-42450001D01*
G75*
G02*
X27300001Y-42700000I-249999J0D01*
G01*
X26649999Y-42700000D01*
G75*
G02*
X26400000Y-42450001I0J249999D01*
G01*
G37*
%TD.AperFunction*%
%TO.P,Ren1,2*%
%TO.N,EN*%
%TA.AperFunction,SMDPad,CuDef*%
G36*
G01*
X28450000Y-42450001D02*
X28450000Y-41549999D01*
G75*
G02*
X28699999Y-41300000I249999J0D01*
G01*
X29350001Y-41300000D01*
G75*
G02*
X29600000Y-41549999I0J-249999D01*
G01*
X29600000Y-42450001D01*
G75*
G02*
X29350001Y-42700000I-249999J0D01*
G01*
X28699999Y-42700000D01*
G75*
G02*
X28450000Y-42450001I0J249999D01*
G01*
G37*
%TD.AperFunction*%
%TD*%
%TO.P,Riset1,1*%
%TO.N,Net-(Riset1-Pad1)*%
%TA.AperFunction,SMDPad,CuDef*%
G36*
G01*
X41000000Y-64949999D02*
X41000000Y-65850001D01*
G75*
G02*
X40750001Y-66100000I-249999J0D01*
G01*
X40099999Y-66100000D01*
G75*
G02*
X39850000Y-65850001I0J249999D01*
G01*
X39850000Y-64949999D01*
G75*
G02*
X40099999Y-64700000I249999J0D01*
G01*
X40750001Y-64700000D01*
G75*
G02*
X41000000Y-64949999I0J-249999D01*
G01*
G37*
%TD.AperFunction*%
%TO.P,Riset1,2*%
%TO.N,GND*%
%TA.AperFunction,SMDPad,CuDef*%
G36*
G01*
X38950000Y-64949999D02*
X38950000Y-65850001D01*
G75*
G02*
X38700001Y-66100000I-249999J0D01*
G01*
X38049999Y-66100000D01*
G75*
G02*
X37800000Y-65850001I0J249999D01*
G01*
X37800000Y-64949999D01*
G75*
G02*
X38049999Y-64700000I249999J0D01*
G01*
X38700001Y-64700000D01*
G75*
G02*
X38950000Y-64949999I0J-249999D01*
G01*
G37*
%TD.AperFunction*%
%TD*%
%TO.P,Rpwm1,2*%
%TO.N,PWM*%
%TA.AperFunction,SMDPad,CuDef*%
G36*
G01*
X28450000Y-44950001D02*
X28450000Y-44049999D01*
G75*
G02*
X28699999Y-43800000I249999J0D01*
G01*
X29350001Y-43800000D01*
G75*
G02*
X29600000Y-44049999I0J-249999D01*
G01*
X29600000Y-44950001D01*
G75*
G02*
X29350001Y-45200000I-249999J0D01*
G01*
X28699999Y-45200000D01*
G75*
G02*
X28450000Y-44950001I0J249999D01*
G01*
G37*
%TD.AperFunction*%
%TO.P,Rpwm1,1*%
%TO.N,Net-(Rpwm1-Pad1)*%
%TA.AperFunction,SMDPad,CuDef*%
G36*
G01*
X26400000Y-44950001D02*
X26400000Y-44049999D01*
G75*
G02*
X26649999Y-43800000I249999J0D01*
G01*
X27300001Y-43800000D01*
G75*
G02*
X27550000Y-44049999I0J-249999D01*
G01*
X27550000Y-44950001D01*
G75*
G02*
X27300001Y-45200000I-249999J0D01*
G01*
X26649999Y-45200000D01*
G75*
G02*
X26400000Y-44950001I0J249999D01*
G01*
G37*
%TD.AperFunction*%
%TD*%
D18*
%TO.N,VIN*%
X44445000Y-57755010D03*
X46500000Y-45000000D03*
X46500000Y-54500000D03*
%TO.N,GND*%
X36800000Y-60300000D03*
X36800000Y-59500000D03*
X36800000Y-58700000D03*
X48000000Y-55000000D03*
X48000000Y-54000000D03*
X48000000Y-53000000D03*
X48000000Y-52000000D03*
X50000000Y-52000000D03*
X50000000Y-53000000D03*
X50000000Y-54000000D03*
X50000000Y-55000000D03*
X49000000Y-55000000D03*
X49000000Y-54000000D03*
X49000000Y-53000000D03*
X49000000Y-52000000D03*
X42000000Y-29000000D03*
X41000000Y-29000000D03*
X41000000Y-28000000D03*
X40000000Y-28000000D03*
X40000000Y-29000000D03*
X42000000Y-28000000D03*
%TO.N,Net-(C4-Pad1)*%
X47000000Y-59000000D03*
%TO.N,LS2-*%
X36500000Y-64000000D03*
%TO.N,LS3-*%
X34500000Y-65500000D03*
X32000000Y-64500000D03*
%TO.N,LS4-*%
X34500000Y-67000000D03*
%TO.N,Net-(Q1-Pad1)*%
X35500000Y-49000000D03*
X28500000Y-50000000D03*
%TO.N,Net-(Q1-Pad3)*%
X34912500Y-52000000D03*
%TO.N,Net-(R1-Pad1)*%
X42900000Y-64000000D03*
%TO.N,Net-(R2-Pad2)*%
X41500000Y-57500000D03*
%TO.N,Net-(R4-Pad2)*%
X38875000Y-61900000D03*
%TO.N,Net-(Ren1-Pad1)*%
X40500000Y-68000000D03*
X39500000Y-71500000D03*
X26975000Y-42000000D03*
%TO.N,Net-(Riset1-Pad1)*%
X36825000Y-67825000D03*
%TO.N,Net-(Rpwm1-Pad1)*%
X40335000Y-55835000D03*
%TD*%
D19*
%TO.N,VIN*%
X31000000Y-39500000D02*
X39000000Y-39500000D01*
X44500000Y-57700010D02*
X44445000Y-57755010D01*
X39000000Y-39500000D02*
X44500000Y-45000000D01*
X44500000Y-45000000D02*
X46500000Y-45000000D01*
X44445000Y-57755010D02*
X44445000Y-56555000D01*
X44445000Y-56555000D02*
X46500000Y-54500000D01*
D20*
%TO.N,GND*%
X40887500Y-52000000D02*
X49000000Y-52000000D01*
X49000000Y-52000000D02*
X49000000Y-55000000D01*
D19*
%TO.N,Net-(C2-Pad1)*%
X49375000Y-61500000D02*
X47450000Y-61500000D01*
%TO.N,Net-(C4-Pad1)*%
X47375000Y-59000000D02*
X47000000Y-59000000D01*
%TO.N,Vout*%
X33449990Y-54949990D02*
X31000000Y-52500000D01*
X33449990Y-60499990D02*
X33449990Y-54949990D01*
X34850000Y-61900000D02*
X33449990Y-60499990D01*
D21*
%TO.N,LS2-*%
X32499980Y-61314946D02*
X32499980Y-59079980D01*
X32499980Y-59079980D02*
X31000000Y-57580000D01*
X35185034Y-64000000D02*
X32499980Y-61314946D01*
X36500000Y-64000000D02*
X35185034Y-64000000D01*
%TO.N,LS3-*%
X34500000Y-65500000D02*
X32500000Y-65500000D01*
X32500000Y-65500000D02*
X32500000Y-65000000D01*
X32500000Y-65000000D02*
X32000000Y-64500000D01*
%TO.N,LS4-*%
X34500000Y-67000000D02*
X32000000Y-67000000D01*
X32000000Y-67000000D02*
X30500000Y-65500000D01*
X31000000Y-65000000D02*
X31000000Y-62660000D01*
X30500000Y-65500000D02*
X31000000Y-65000000D01*
D19*
%TO.N,Net-(Q1-Pad1)*%
X35500000Y-49000000D02*
X34631480Y-49000000D01*
X34631480Y-49000000D02*
X29500000Y-49000000D01*
X29500000Y-49000000D02*
X28500000Y-50000000D01*
%TO.N,Net-(R2-Pad2)*%
X45400000Y-61500000D02*
X45400000Y-61400000D01*
X45400000Y-61400000D02*
X41500000Y-57500000D01*
%TO.N,Net-(R4-Pad2)*%
X36900000Y-61900000D02*
X38875000Y-61900000D01*
D21*
%TO.N,EN*%
X30960000Y-42000000D02*
X31000000Y-42040000D01*
X29025000Y-42000000D02*
X30960000Y-42000000D01*
%TO.N,PWM*%
X30920000Y-44500000D02*
X31000000Y-44580000D01*
X29025000Y-44500000D02*
X30920000Y-44500000D01*
%TO.N,Net-(Ren1-Pad1)*%
X39724990Y-68775010D02*
X39724990Y-70775010D01*
X40500000Y-68000000D02*
X39724990Y-68775010D01*
X39500000Y-71000000D02*
X39500000Y-71500000D01*
X39724990Y-70775010D02*
X39500000Y-71000000D01*
D19*
%TO.N,Net-(Riset1-Pad1)*%
X38700000Y-67825000D02*
X36825000Y-67825000D01*
X40425000Y-66100000D02*
X38700000Y-67825000D01*
X40425000Y-65400000D02*
X40425000Y-66100000D01*
D21*
%TO.N,Net-(Rpwm1-Pad1)*%
X33500000Y-53656484D02*
X35678516Y-55835000D01*
X35678516Y-55835000D02*
X40335000Y-55835000D01*
X33500000Y-52489998D02*
X33500000Y-53656484D01*
X28356483Y-51199999D02*
X32210001Y-51199999D01*
X32210001Y-51199999D02*
X33500000Y-52489998D01*
X26975000Y-49818516D02*
X28356483Y-51199999D01*
X26975000Y-44500000D02*
X26975000Y-49818516D01*
%TD*%
D22*
%TO.N,GND*%
G36*
X53873000Y-65873000D02*
G01*
X46000000Y-65873000D01*
X45975224Y-65875440D01*
X45951399Y-65882667D01*
X45929443Y-65894403D01*
X45910197Y-65910197D01*
X45894403Y-65929443D01*
X45882667Y-65951399D01*
X45875440Y-65975224D01*
X45873000Y-66000000D01*
X45873000Y-73873000D01*
X29127000Y-73873000D01*
X29127000Y-66000000D01*
X29124560Y-65975224D01*
X29117333Y-65951399D01*
X29105597Y-65929443D01*
X29089803Y-65910197D01*
X29070557Y-65894403D01*
X29048601Y-65882667D01*
X29024776Y-65875440D01*
X29000000Y-65873000D01*
X21127000Y-65873000D01*
X21127000Y-41549999D01*
X25761928Y-41549999D01*
X25761928Y-42450001D01*
X25778992Y-42623255D01*
X25829528Y-42789851D01*
X25911595Y-42943387D01*
X26022038Y-43077962D01*
X26156613Y-43188405D01*
X26271849Y-43250000D01*
X26156613Y-43311595D01*
X26022038Y-43422038D01*
X25911595Y-43556613D01*
X25829528Y-43710149D01*
X25778992Y-43876745D01*
X25761928Y-44049999D01*
X25761928Y-44950001D01*
X25778992Y-45123255D01*
X25829528Y-45289851D01*
X25911595Y-45443387D01*
X26022038Y-45577962D01*
X26090000Y-45633737D01*
X26090001Y-49775037D01*
X26085719Y-49818516D01*
X26102805Y-49992006D01*
X26153412Y-50158829D01*
X26235590Y-50312575D01*
X26318468Y-50413562D01*
X26318471Y-50413565D01*
X26346184Y-50447333D01*
X26379951Y-50475045D01*
X27699953Y-51795048D01*
X27727666Y-51828816D01*
X27761434Y-51856529D01*
X27761436Y-51856531D01*
X27832935Y-51915209D01*
X27862424Y-51939410D01*
X28016170Y-52021588D01*
X28132386Y-52056842D01*
X28182992Y-52072194D01*
X28197789Y-52073651D01*
X28313006Y-52084999D01*
X28313014Y-52084999D01*
X28356483Y-52089280D01*
X28399952Y-52084999D01*
X29511928Y-52084999D01*
X29511928Y-53350000D01*
X29524188Y-53474482D01*
X29560498Y-53594180D01*
X29619463Y-53704494D01*
X29698815Y-53801185D01*
X29795506Y-53880537D01*
X29905820Y-53939502D01*
X29978380Y-53961513D01*
X29846525Y-54093368D01*
X29684010Y-54336589D01*
X29572068Y-54606842D01*
X29515000Y-54893740D01*
X29515000Y-55186260D01*
X29572068Y-55473158D01*
X29684010Y-55743411D01*
X29846525Y-55986632D01*
X30053368Y-56193475D01*
X30227760Y-56310000D01*
X30053368Y-56426525D01*
X29846525Y-56633368D01*
X29684010Y-56876589D01*
X29572068Y-57146842D01*
X29515000Y-57433740D01*
X29515000Y-57726260D01*
X29572068Y-58013158D01*
X29684010Y-58283411D01*
X29846525Y-58526632D01*
X30053368Y-58733475D01*
X30227760Y-58850000D01*
X30053368Y-58966525D01*
X29846525Y-59173368D01*
X29684010Y-59416589D01*
X29572068Y-59686842D01*
X29515000Y-59973740D01*
X29515000Y-60266260D01*
X29572068Y-60553158D01*
X29684010Y-60823411D01*
X29846525Y-61066632D01*
X30053368Y-61273475D01*
X30227760Y-61390000D01*
X30053368Y-61506525D01*
X29846525Y-61713368D01*
X29684010Y-61956589D01*
X29572068Y-62226842D01*
X29515000Y-62513740D01*
X29515000Y-62806260D01*
X29572068Y-63093158D01*
X29684010Y-63363411D01*
X29846525Y-63606632D01*
X30053368Y-63813475D01*
X30115000Y-63854656D01*
X30115000Y-64633422D01*
X29904955Y-64843467D01*
X29871183Y-64871183D01*
X29843468Y-64904954D01*
X29760590Y-65005941D01*
X29678412Y-65159687D01*
X29627805Y-65326510D01*
X29610719Y-65500000D01*
X29627805Y-65673490D01*
X29678412Y-65840313D01*
X29760590Y-65994059D01*
X29871183Y-66128817D01*
X29904954Y-66156532D01*
X31343470Y-67595049D01*
X31371183Y-67628817D01*
X31404951Y-67656530D01*
X31404953Y-67656532D01*
X31455606Y-67698102D01*
X31505941Y-67739411D01*
X31659687Y-67821589D01*
X31826510Y-67872195D01*
X31956523Y-67885000D01*
X31956533Y-67885000D01*
X31999999Y-67889281D01*
X32043465Y-67885000D01*
X33961546Y-67885000D01*
X34009744Y-67917205D01*
X34198102Y-67995226D01*
X34398061Y-68035000D01*
X34601939Y-68035000D01*
X34801898Y-67995226D01*
X34990256Y-67917205D01*
X35128250Y-67825000D01*
X35684509Y-67825000D01*
X35706423Y-68047499D01*
X35771324Y-68261447D01*
X35876716Y-68458623D01*
X36018551Y-68631449D01*
X36191377Y-68773284D01*
X36388553Y-68878676D01*
X36602501Y-68943577D01*
X36769248Y-68960000D01*
X38644249Y-68960000D01*
X38700000Y-68965491D01*
X38755751Y-68960000D01*
X38755752Y-68960000D01*
X38839990Y-68951703D01*
X38839991Y-70409191D01*
X38760589Y-70505942D01*
X38678411Y-70659688D01*
X38627805Y-70826511D01*
X38615000Y-70956524D01*
X38615000Y-70956531D01*
X38614421Y-70962413D01*
X38582795Y-71009744D01*
X38504774Y-71198102D01*
X38465000Y-71398061D01*
X38465000Y-71601939D01*
X38504774Y-71801898D01*
X38582795Y-71990256D01*
X38696063Y-72159774D01*
X38840226Y-72303937D01*
X39009744Y-72417205D01*
X39198102Y-72495226D01*
X39398061Y-72535000D01*
X39601939Y-72535000D01*
X39801898Y-72495226D01*
X39990256Y-72417205D01*
X40159774Y-72303937D01*
X40303937Y-72159774D01*
X40417205Y-71990256D01*
X40495226Y-71801898D01*
X40535000Y-71601939D01*
X40535000Y-71398061D01*
X40497154Y-71207793D01*
X40546579Y-71115323D01*
X40597185Y-70948500D01*
X40609990Y-70818487D01*
X40609990Y-70818479D01*
X40614271Y-70775010D01*
X40609990Y-70731541D01*
X40609990Y-69141588D01*
X40745044Y-69006535D01*
X40801898Y-68995226D01*
X40990256Y-68917205D01*
X41159774Y-68803937D01*
X41303937Y-68659774D01*
X41417205Y-68490256D01*
X41495226Y-68301898D01*
X41535000Y-68101939D01*
X41535000Y-67898061D01*
X41495226Y-67698102D01*
X41417205Y-67509744D01*
X41303937Y-67340226D01*
X41159774Y-67196063D01*
X41024474Y-67105658D01*
X41188140Y-66941991D01*
X41231449Y-66906449D01*
X41373284Y-66733623D01*
X41478676Y-66536447D01*
X41543577Y-66322498D01*
X41553517Y-66221571D01*
X41570472Y-66189851D01*
X41621008Y-66023255D01*
X41638072Y-65850001D01*
X41638072Y-64949999D01*
X41621008Y-64776745D01*
X41570472Y-64610149D01*
X41488405Y-64456613D01*
X41377962Y-64322038D01*
X41243387Y-64211595D01*
X41089851Y-64129528D01*
X40923255Y-64078992D01*
X40750001Y-64061928D01*
X40099999Y-64061928D01*
X39926745Y-64078992D01*
X39760149Y-64129528D01*
X39606613Y-64211595D01*
X39472038Y-64322038D01*
X39466658Y-64328594D01*
X39401185Y-64248815D01*
X39304494Y-64169463D01*
X39194180Y-64110498D01*
X39074482Y-64074188D01*
X38950000Y-64061928D01*
X38660750Y-64065000D01*
X38502000Y-64223750D01*
X38502000Y-65273000D01*
X38522000Y-65273000D01*
X38522000Y-65527000D01*
X38502000Y-65527000D01*
X38502000Y-65547000D01*
X38248000Y-65547000D01*
X38248000Y-65527000D01*
X37323750Y-65527000D01*
X37165000Y-65685750D01*
X37161928Y-66100000D01*
X37174188Y-66224482D01*
X37210498Y-66344180D01*
X37269463Y-66454494D01*
X37348815Y-66551185D01*
X37445506Y-66630537D01*
X37555820Y-66689502D01*
X37557462Y-66690000D01*
X36769248Y-66690000D01*
X36602501Y-66706423D01*
X36388553Y-66771324D01*
X36191377Y-66876716D01*
X36018551Y-67018551D01*
X35876716Y-67191377D01*
X35771324Y-67388553D01*
X35706423Y-67602501D01*
X35684509Y-67825000D01*
X35128250Y-67825000D01*
X35159774Y-67803937D01*
X35303937Y-67659774D01*
X35417205Y-67490256D01*
X35495226Y-67301898D01*
X35535000Y-67101939D01*
X35535000Y-66898061D01*
X35495226Y-66698102D01*
X35417205Y-66509744D01*
X35303937Y-66340226D01*
X35213711Y-66250000D01*
X35303937Y-66159774D01*
X35417205Y-65990256D01*
X35495226Y-65801898D01*
X35535000Y-65601939D01*
X35535000Y-65398061D01*
X35495226Y-65198102D01*
X35417205Y-65009744D01*
X35333854Y-64885000D01*
X35961546Y-64885000D01*
X36009744Y-64917205D01*
X36198102Y-64995226D01*
X36398061Y-65035000D01*
X36601939Y-65035000D01*
X36801898Y-64995226D01*
X36990256Y-64917205D01*
X37159774Y-64803937D01*
X37162677Y-64801034D01*
X37165000Y-65114250D01*
X37323750Y-65273000D01*
X38248000Y-65273000D01*
X38248000Y-64223750D01*
X38089250Y-64065000D01*
X37800000Y-64061928D01*
X37675518Y-64074188D01*
X37555820Y-64110498D01*
X37530618Y-64123969D01*
X37535000Y-64101939D01*
X37535000Y-63898061D01*
X37495226Y-63698102D01*
X37417205Y-63509744D01*
X37303937Y-63340226D01*
X37201783Y-63238072D01*
X37225001Y-63238072D01*
X37398255Y-63221008D01*
X37564851Y-63170472D01*
X37718387Y-63088405D01*
X37783461Y-63035000D01*
X37991539Y-63035000D01*
X38056613Y-63088405D01*
X38210149Y-63170472D01*
X38376745Y-63221008D01*
X38549999Y-63238072D01*
X39200001Y-63238072D01*
X39373255Y-63221008D01*
X39539851Y-63170472D01*
X39693387Y-63088405D01*
X39827962Y-62977962D01*
X39833342Y-62971406D01*
X39898815Y-63051185D01*
X39995506Y-63130537D01*
X40105820Y-63189502D01*
X40225518Y-63225812D01*
X40350000Y-63238072D01*
X40639250Y-63235000D01*
X40798000Y-63076250D01*
X40798000Y-62027000D01*
X40778000Y-62027000D01*
X40778000Y-61773000D01*
X40798000Y-61773000D01*
X40798000Y-60723750D01*
X41052000Y-60723750D01*
X41052000Y-61773000D01*
X41673750Y-61773000D01*
X41723750Y-61823000D01*
X42773000Y-61823000D01*
X42773000Y-60898750D01*
X42614250Y-60740000D01*
X42200000Y-60736928D01*
X42075518Y-60749188D01*
X41976213Y-60779312D01*
X41951185Y-60748815D01*
X41854494Y-60669463D01*
X41744180Y-60610498D01*
X41624482Y-60574188D01*
X41500000Y-60561928D01*
X41210750Y-60565000D01*
X41052000Y-60723750D01*
X40798000Y-60723750D01*
X40639250Y-60565000D01*
X40350000Y-60561928D01*
X40225518Y-60574188D01*
X40105820Y-60610498D01*
X39995506Y-60669463D01*
X39898815Y-60748815D01*
X39833342Y-60828594D01*
X39827962Y-60822038D01*
X39693387Y-60711595D01*
X39539851Y-60629528D01*
X39373255Y-60578992D01*
X39200001Y-60561928D01*
X38549999Y-60561928D01*
X38376745Y-60578992D01*
X38210149Y-60629528D01*
X38056613Y-60711595D01*
X37991539Y-60765000D01*
X37783461Y-60765000D01*
X37718387Y-60711595D01*
X37564851Y-60629528D01*
X37398255Y-60578992D01*
X37225001Y-60561928D01*
X36574999Y-60561928D01*
X36401745Y-60578992D01*
X36235149Y-60629528D01*
X36081613Y-60711595D01*
X35947038Y-60822038D01*
X35875000Y-60909816D01*
X35802962Y-60822038D01*
X35668387Y-60711595D01*
X35514851Y-60629528D01*
X35348255Y-60578992D01*
X35175001Y-60561928D01*
X35117060Y-60561928D01*
X34584990Y-60029859D01*
X34584990Y-55993053D01*
X35021986Y-56430049D01*
X35049699Y-56463817D01*
X35083467Y-56491530D01*
X35083469Y-56491532D01*
X35160805Y-56555000D01*
X35184457Y-56574411D01*
X35338203Y-56656589D01*
X35505026Y-56707195D01*
X35635039Y-56720000D01*
X35635047Y-56720000D01*
X35678516Y-56724281D01*
X35721985Y-56720000D01*
X39796546Y-56720000D01*
X39844744Y-56752205D01*
X40033102Y-56830226D01*
X40233061Y-56870000D01*
X40436939Y-56870000D01*
X40570557Y-56843422D01*
X40551717Y-56866378D01*
X40446324Y-57063554D01*
X40381423Y-57277502D01*
X40359509Y-57500000D01*
X40381423Y-57722498D01*
X40446324Y-57936446D01*
X40551717Y-58133622D01*
X40658012Y-58263143D01*
X43160309Y-60765441D01*
X43027000Y-60898750D01*
X43027000Y-61823000D01*
X43047000Y-61823000D01*
X43047000Y-62077000D01*
X43027000Y-62077000D01*
X43027000Y-62097000D01*
X42773000Y-62097000D01*
X42773000Y-62077000D01*
X42026250Y-62077000D01*
X41976250Y-62027000D01*
X41052000Y-62027000D01*
X41052000Y-63076250D01*
X41210750Y-63235000D01*
X41500000Y-63238072D01*
X41624482Y-63225812D01*
X41700256Y-63202826D01*
X41629528Y-63335149D01*
X41578992Y-63501745D01*
X41561928Y-63674999D01*
X41561928Y-64325001D01*
X41578992Y-64498255D01*
X41629528Y-64664851D01*
X41711595Y-64818387D01*
X41822038Y-64952962D01*
X41956613Y-65063405D01*
X42110149Y-65145472D01*
X42276745Y-65196008D01*
X42449999Y-65213072D01*
X43350001Y-65213072D01*
X43523255Y-65196008D01*
X43689851Y-65145472D01*
X43843387Y-65063405D01*
X43977962Y-64952962D01*
X44088405Y-64818387D01*
X44170472Y-64664851D01*
X44221008Y-64498255D01*
X44238072Y-64325001D01*
X44238072Y-63674999D01*
X44221008Y-63501745D01*
X44170472Y-63335149D01*
X44088405Y-63181613D01*
X43977962Y-63047038D01*
X43971406Y-63041658D01*
X44051185Y-62976185D01*
X44130537Y-62879494D01*
X44189502Y-62769180D01*
X44225812Y-62649482D01*
X44238072Y-62525000D01*
X44235000Y-62235750D01*
X44076252Y-62077002D01*
X44199436Y-62077002D01*
X44203992Y-62123255D01*
X44254528Y-62289851D01*
X44336595Y-62443387D01*
X44447038Y-62577962D01*
X44581613Y-62688405D01*
X44735149Y-62770472D01*
X44901745Y-62821008D01*
X45074999Y-62838072D01*
X45725001Y-62838072D01*
X45898255Y-62821008D01*
X46064851Y-62770472D01*
X46218387Y-62688405D01*
X46352962Y-62577962D01*
X46425000Y-62490184D01*
X46497038Y-62577962D01*
X46631613Y-62688405D01*
X46785149Y-62770472D01*
X46951745Y-62821008D01*
X47124999Y-62838072D01*
X47775001Y-62838072D01*
X47948255Y-62821008D01*
X48114851Y-62770472D01*
X48268387Y-62688405D01*
X48333461Y-62635000D01*
X48491539Y-62635000D01*
X48556613Y-62688405D01*
X48710149Y-62770472D01*
X48876745Y-62821008D01*
X49049999Y-62838072D01*
X49700001Y-62838072D01*
X49873255Y-62821008D01*
X50039851Y-62770472D01*
X50193387Y-62688405D01*
X50327962Y-62577962D01*
X50333342Y-62571406D01*
X50398815Y-62651185D01*
X50495506Y-62730537D01*
X50605820Y-62789502D01*
X50725518Y-62825812D01*
X50850000Y-62838072D01*
X51139250Y-62835000D01*
X51298000Y-62676250D01*
X51298000Y-61627000D01*
X51552000Y-61627000D01*
X51552000Y-62676250D01*
X51710750Y-62835000D01*
X52000000Y-62838072D01*
X52124482Y-62825812D01*
X52244180Y-62789502D01*
X52354494Y-62730537D01*
X52451185Y-62651185D01*
X52530537Y-62554494D01*
X52589502Y-62444180D01*
X52625812Y-62324482D01*
X52638072Y-62200000D01*
X52635000Y-61785750D01*
X52476250Y-61627000D01*
X51552000Y-61627000D01*
X51298000Y-61627000D01*
X51278000Y-61627000D01*
X51278000Y-61373000D01*
X51298000Y-61373000D01*
X51298000Y-60323750D01*
X51552000Y-60323750D01*
X51552000Y-61373000D01*
X52476250Y-61373000D01*
X52635000Y-61214250D01*
X52638072Y-60800000D01*
X52625812Y-60675518D01*
X52589502Y-60555820D01*
X52530537Y-60445506D01*
X52451185Y-60348815D01*
X52354494Y-60269463D01*
X52244180Y-60210498D01*
X52124482Y-60174188D01*
X52000000Y-60161928D01*
X51710750Y-60165000D01*
X51552000Y-60323750D01*
X51298000Y-60323750D01*
X51139250Y-60165000D01*
X50850000Y-60161928D01*
X50725518Y-60174188D01*
X50605820Y-60210498D01*
X50495506Y-60269463D01*
X50398815Y-60348815D01*
X50333342Y-60428594D01*
X50327962Y-60422038D01*
X50193387Y-60311595D01*
X50185408Y-60307330D01*
X50244180Y-60289502D01*
X50354494Y-60230537D01*
X50451185Y-60151185D01*
X50530537Y-60054494D01*
X50589502Y-59944180D01*
X50625812Y-59824482D01*
X50638072Y-59700000D01*
X50635000Y-59285750D01*
X50476250Y-59127000D01*
X49552000Y-59127000D01*
X49552000Y-59147000D01*
X49298000Y-59147000D01*
X49298000Y-59127000D01*
X49278000Y-59127000D01*
X49278000Y-58873000D01*
X49298000Y-58873000D01*
X49298000Y-57823750D01*
X49552000Y-57823750D01*
X49552000Y-58873000D01*
X50476250Y-58873000D01*
X50635000Y-58714250D01*
X50638072Y-58300000D01*
X50625812Y-58175518D01*
X50589502Y-58055820D01*
X50530537Y-57945506D01*
X50451185Y-57848815D01*
X50354494Y-57769463D01*
X50244180Y-57710498D01*
X50124482Y-57674188D01*
X50000000Y-57661928D01*
X49710750Y-57665000D01*
X49552000Y-57823750D01*
X49298000Y-57823750D01*
X49139250Y-57665000D01*
X48850000Y-57661928D01*
X48725518Y-57674188D01*
X48605820Y-57710498D01*
X48495506Y-57769463D01*
X48398815Y-57848815D01*
X48333342Y-57928594D01*
X48327962Y-57922038D01*
X48193387Y-57811595D01*
X48039851Y-57729528D01*
X47873255Y-57678992D01*
X47700001Y-57661928D01*
X47049999Y-57661928D01*
X46876745Y-57678992D01*
X46710149Y-57729528D01*
X46556613Y-57811595D01*
X46422038Y-57922038D01*
X46311595Y-58056613D01*
X46273448Y-58127981D01*
X46193551Y-58193551D01*
X46051716Y-58366377D01*
X45946324Y-58563553D01*
X45881423Y-58777501D01*
X45859509Y-59000000D01*
X45881423Y-59222499D01*
X45946324Y-59436447D01*
X46051716Y-59633623D01*
X46193551Y-59806449D01*
X46273448Y-59872019D01*
X46311595Y-59943387D01*
X46422038Y-60077962D01*
X46556613Y-60188405D01*
X46709349Y-60270044D01*
X46631613Y-60311595D01*
X46497038Y-60422038D01*
X46425000Y-60509816D01*
X46352962Y-60422038D01*
X46218387Y-60311595D01*
X46064851Y-60229528D01*
X45898255Y-60178992D01*
X45771655Y-60166523D01*
X44495645Y-58890513D01*
X44667498Y-58873587D01*
X44881446Y-58808686D01*
X44890194Y-58804010D01*
X45078623Y-58703294D01*
X45251449Y-58561459D01*
X45286996Y-58518145D01*
X45341988Y-58463153D01*
X45448284Y-58333632D01*
X45553676Y-58136456D01*
X45618577Y-57922508D01*
X45640491Y-57700010D01*
X45618577Y-57477511D01*
X45580000Y-57350341D01*
X45580000Y-57025131D01*
X47341988Y-55263144D01*
X47448284Y-55133623D01*
X47553676Y-54936447D01*
X47618577Y-54722499D01*
X47640491Y-54500000D01*
X47618577Y-54277501D01*
X47553676Y-54063554D01*
X47448284Y-53866378D01*
X47306449Y-53693551D01*
X47133622Y-53551716D01*
X46936446Y-53446324D01*
X46722499Y-53381423D01*
X46500000Y-53359509D01*
X46277501Y-53381423D01*
X46063553Y-53446324D01*
X45866377Y-53551716D01*
X45736856Y-53658012D01*
X43681860Y-55713009D01*
X43638552Y-55748551D01*
X43496717Y-55921377D01*
X43391324Y-56118553D01*
X43347200Y-56264010D01*
X43326423Y-56332502D01*
X43304509Y-56555000D01*
X43310000Y-56610751D01*
X43310000Y-57699259D01*
X43309497Y-57704366D01*
X42263143Y-56658012D01*
X42133622Y-56551717D01*
X41936446Y-56446324D01*
X41722498Y-56381423D01*
X41500000Y-56359509D01*
X41277502Y-56381423D01*
X41198704Y-56405326D01*
X41252205Y-56325256D01*
X41330226Y-56136898D01*
X41370000Y-55936939D01*
X41370000Y-55733061D01*
X41330226Y-55533102D01*
X41252205Y-55344744D01*
X41138937Y-55175226D01*
X40994774Y-55031063D01*
X40825256Y-54917795D01*
X40636898Y-54839774D01*
X40436939Y-54800000D01*
X40233061Y-54800000D01*
X40033102Y-54839774D01*
X39844744Y-54917795D01*
X39796546Y-54950000D01*
X36045095Y-54950000D01*
X35408167Y-54313072D01*
X35425001Y-54313072D01*
X35598255Y-54296008D01*
X35764851Y-54245472D01*
X35918387Y-54163405D01*
X36052962Y-54052962D01*
X36163405Y-53918387D01*
X36245472Y-53764851D01*
X36272727Y-53675000D01*
X39486928Y-53675000D01*
X39499188Y-53799482D01*
X39535498Y-53919180D01*
X39594463Y-54029494D01*
X39673815Y-54126185D01*
X39770506Y-54205537D01*
X39880820Y-54264502D01*
X40000518Y-54300812D01*
X40125000Y-54313072D01*
X40601750Y-54310000D01*
X40760500Y-54151250D01*
X40760500Y-52127000D01*
X41014500Y-52127000D01*
X41014500Y-54151250D01*
X41173250Y-54310000D01*
X41650000Y-54313072D01*
X41774482Y-54300812D01*
X41894180Y-54264502D01*
X42004494Y-54205537D01*
X42101185Y-54126185D01*
X42180537Y-54029494D01*
X42239502Y-53919180D01*
X42275812Y-53799482D01*
X42288072Y-53675000D01*
X42285000Y-52285750D01*
X42126250Y-52127000D01*
X41014500Y-52127000D01*
X40760500Y-52127000D01*
X39648750Y-52127000D01*
X39490000Y-52285750D01*
X39486928Y-53675000D01*
X36272727Y-53675000D01*
X36296008Y-53598255D01*
X36313072Y-53425001D01*
X36313072Y-50574999D01*
X36296008Y-50401745D01*
X36272728Y-50325000D01*
X39486928Y-50325000D01*
X39490000Y-51714250D01*
X39648750Y-51873000D01*
X40760500Y-51873000D01*
X40760500Y-49848750D01*
X41014500Y-49848750D01*
X41014500Y-51873000D01*
X42126250Y-51873000D01*
X42285000Y-51714250D01*
X42288072Y-50325000D01*
X42275812Y-50200518D01*
X42239502Y-50080820D01*
X42180537Y-49970506D01*
X42101185Y-49873815D01*
X42004494Y-49794463D01*
X41894180Y-49735498D01*
X41774482Y-49699188D01*
X41650000Y-49686928D01*
X41173250Y-49690000D01*
X41014500Y-49848750D01*
X40760500Y-49848750D01*
X40601750Y-49690000D01*
X40125000Y-49686928D01*
X40000518Y-49699188D01*
X39880820Y-49735498D01*
X39770506Y-49794463D01*
X39673815Y-49873815D01*
X39594463Y-49970506D01*
X39535498Y-50080820D01*
X39499188Y-50200518D01*
X39486928Y-50325000D01*
X36272728Y-50325000D01*
X36245472Y-50235149D01*
X36163405Y-50081613D01*
X36078267Y-49977872D01*
X36133623Y-49948284D01*
X36306449Y-49806449D01*
X36448284Y-49633623D01*
X36553676Y-49436447D01*
X36618577Y-49222499D01*
X36640491Y-49000000D01*
X36618577Y-48777501D01*
X36553676Y-48563553D01*
X36448284Y-48366377D01*
X36306449Y-48193551D01*
X36133623Y-48051716D01*
X35936447Y-47946324D01*
X35722499Y-47881423D01*
X35555752Y-47865000D01*
X32282082Y-47865000D01*
X32396825Y-47624099D01*
X32441476Y-47476890D01*
X32320155Y-47247000D01*
X31127000Y-47247000D01*
X31127000Y-47267000D01*
X30873000Y-47267000D01*
X30873000Y-47247000D01*
X29679845Y-47247000D01*
X29558524Y-47476890D01*
X29603175Y-47624099D01*
X29717918Y-47865000D01*
X29555752Y-47865000D01*
X29500000Y-47859509D01*
X29277501Y-47881423D01*
X29063553Y-47946324D01*
X28866377Y-48051716D01*
X28736856Y-48158011D01*
X28736854Y-48158013D01*
X28693551Y-48193551D01*
X28658013Y-48236855D01*
X27860000Y-49034869D01*
X27860000Y-45633737D01*
X27927962Y-45577962D01*
X28000000Y-45490184D01*
X28072038Y-45577962D01*
X28206613Y-45688405D01*
X28360149Y-45770472D01*
X28526745Y-45821008D01*
X28699999Y-45838072D01*
X29350001Y-45838072D01*
X29523255Y-45821008D01*
X29689851Y-45770472D01*
X29843387Y-45688405D01*
X29933964Y-45614071D01*
X30053368Y-45733475D01*
X30235534Y-45855195D01*
X30118645Y-45924822D01*
X29902412Y-46119731D01*
X29728359Y-46353080D01*
X29603175Y-46615901D01*
X29558524Y-46763110D01*
X29679845Y-46993000D01*
X30873000Y-46993000D01*
X30873000Y-46973000D01*
X31127000Y-46973000D01*
X31127000Y-46993000D01*
X32320155Y-46993000D01*
X32441476Y-46763110D01*
X32396825Y-46615901D01*
X32271641Y-46353080D01*
X32097588Y-46119731D01*
X31881355Y-45924822D01*
X31764466Y-45855195D01*
X31946632Y-45733475D01*
X32153475Y-45526632D01*
X32315990Y-45283411D01*
X32427932Y-45013158D01*
X32485000Y-44726260D01*
X32485000Y-44433740D01*
X32427932Y-44146842D01*
X32315990Y-43876589D01*
X32153475Y-43633368D01*
X31946632Y-43426525D01*
X31772240Y-43310000D01*
X31946632Y-43193475D01*
X32153475Y-42986632D01*
X32315990Y-42743411D01*
X32427932Y-42473158D01*
X32485000Y-42186260D01*
X32485000Y-41893740D01*
X32427932Y-41606842D01*
X32315990Y-41336589D01*
X32153475Y-41093368D01*
X32021620Y-40961513D01*
X32094180Y-40939502D01*
X32204494Y-40880537D01*
X32301185Y-40801185D01*
X32380537Y-40704494D01*
X32417683Y-40635000D01*
X38529869Y-40635000D01*
X43658013Y-45763146D01*
X43693551Y-45806449D01*
X43736854Y-45841987D01*
X43736856Y-45841989D01*
X43866377Y-45948284D01*
X44063553Y-46053676D01*
X44277501Y-46118577D01*
X44500000Y-46140491D01*
X44555752Y-46135000D01*
X46555752Y-46135000D01*
X46722499Y-46118577D01*
X46936447Y-46053676D01*
X47133623Y-45948284D01*
X47306449Y-45806449D01*
X47448284Y-45633623D01*
X47553676Y-45436447D01*
X47618577Y-45222499D01*
X47640491Y-45000000D01*
X47618577Y-44777501D01*
X47553676Y-44563553D01*
X47448284Y-44366377D01*
X47306449Y-44193551D01*
X47133623Y-44051716D01*
X46936447Y-43946324D01*
X46722499Y-43881423D01*
X46555752Y-43865000D01*
X44970133Y-43865000D01*
X39841996Y-38736865D01*
X39806449Y-38693551D01*
X39633623Y-38551716D01*
X39436447Y-38446324D01*
X39222499Y-38381423D01*
X39055752Y-38365000D01*
X39055751Y-38365000D01*
X39000000Y-38359509D01*
X38944249Y-38365000D01*
X32417683Y-38365000D01*
X32380537Y-38295506D01*
X32301185Y-38198815D01*
X32204494Y-38119463D01*
X32094180Y-38060498D01*
X31974482Y-38024188D01*
X31850000Y-38011928D01*
X30150000Y-38011928D01*
X30025518Y-38024188D01*
X29905820Y-38060498D01*
X29795506Y-38119463D01*
X29698815Y-38198815D01*
X29619463Y-38295506D01*
X29560498Y-38405820D01*
X29524188Y-38525518D01*
X29511928Y-38650000D01*
X29511928Y-40350000D01*
X29524188Y-40474482D01*
X29560498Y-40594180D01*
X29619463Y-40704494D01*
X29623487Y-40709397D01*
X29523255Y-40678992D01*
X29350001Y-40661928D01*
X28699999Y-40661928D01*
X28526745Y-40678992D01*
X28360149Y-40729528D01*
X28206613Y-40811595D01*
X28072038Y-40922038D01*
X28000000Y-41009816D01*
X27927962Y-40922038D01*
X27793387Y-40811595D01*
X27639851Y-40729528D01*
X27473255Y-40678992D01*
X27300001Y-40661928D01*
X26649999Y-40661928D01*
X26476745Y-40678992D01*
X26310149Y-40729528D01*
X26156613Y-40811595D01*
X26022038Y-40922038D01*
X25911595Y-41056613D01*
X25829528Y-41210149D01*
X25778992Y-41376745D01*
X25761928Y-41549999D01*
X21127000Y-41549999D01*
X21127000Y-35300000D01*
X28857573Y-35300000D01*
X28887210Y-35600913D01*
X28974983Y-35890261D01*
X29117519Y-36156927D01*
X29309339Y-36390661D01*
X29543073Y-36582481D01*
X29809739Y-36725017D01*
X30099087Y-36812790D01*
X30324592Y-36835000D01*
X32675408Y-36835000D01*
X32900913Y-36812790D01*
X33190261Y-36725017D01*
X33456927Y-36582481D01*
X33690661Y-36390661D01*
X33882481Y-36156927D01*
X34025017Y-35890261D01*
X34112790Y-35600913D01*
X34142427Y-35300000D01*
X34112790Y-34999087D01*
X34025017Y-34709739D01*
X33882481Y-34443073D01*
X33690661Y-34209339D01*
X33456927Y-34017519D01*
X33190261Y-33874983D01*
X32900913Y-33787210D01*
X32675408Y-33765000D01*
X30324592Y-33765000D01*
X30099087Y-33787210D01*
X29809739Y-33874983D01*
X29543073Y-34017519D01*
X29309339Y-34209339D01*
X29117519Y-34443073D01*
X28974983Y-34709739D01*
X28887210Y-34999087D01*
X28857573Y-35300000D01*
X21127000Y-35300000D01*
X21127000Y-30627000D01*
X27165000Y-30627000D01*
X27165000Y-31727000D01*
X27219271Y-32024023D01*
X27330446Y-32304751D01*
X27494252Y-32558396D01*
X27704394Y-32775210D01*
X27952796Y-32946862D01*
X28229913Y-33066755D01*
X28335260Y-33091036D01*
X28573000Y-32970378D01*
X28573000Y-30627000D01*
X28827000Y-30627000D01*
X28827000Y-32970378D01*
X29064740Y-33091036D01*
X29170087Y-33066755D01*
X29447204Y-32946862D01*
X29695606Y-32775210D01*
X29905748Y-32558396D01*
X30069554Y-32304751D01*
X30180729Y-32024023D01*
X30235000Y-31727000D01*
X30235000Y-30627000D01*
X28827000Y-30627000D01*
X28573000Y-30627000D01*
X27165000Y-30627000D01*
X21127000Y-30627000D01*
X21127000Y-29273000D01*
X27165000Y-29273000D01*
X27165000Y-30373000D01*
X28573000Y-30373000D01*
X28573000Y-28029622D01*
X28827000Y-28029622D01*
X28827000Y-30373000D01*
X30235000Y-30373000D01*
X30235000Y-29273000D01*
X30180729Y-28975977D01*
X30069554Y-28695249D01*
X29905748Y-28441604D01*
X29768502Y-28300000D01*
X32961928Y-28300000D01*
X32961928Y-32700000D01*
X32974188Y-32824482D01*
X33010498Y-32944180D01*
X33069463Y-33054494D01*
X33148815Y-33151185D01*
X33245506Y-33230537D01*
X33355820Y-33289502D01*
X33475518Y-33325812D01*
X33600000Y-33338072D01*
X35400000Y-33338072D01*
X35524482Y-33325812D01*
X35644180Y-33289502D01*
X35754494Y-33230537D01*
X35851185Y-33151185D01*
X35930537Y-33054494D01*
X35989502Y-32944180D01*
X36025812Y-32824482D01*
X36038072Y-32700000D01*
X36038072Y-28300000D01*
X36025812Y-28175518D01*
X35989502Y-28055820D01*
X35930537Y-27945506D01*
X35851185Y-27848815D01*
X35754494Y-27769463D01*
X35644180Y-27710498D01*
X35524482Y-27674188D01*
X35400000Y-27661928D01*
X33600000Y-27661928D01*
X33475518Y-27674188D01*
X33355820Y-27710498D01*
X33245506Y-27769463D01*
X33148815Y-27848815D01*
X33069463Y-27945506D01*
X33010498Y-28055820D01*
X32974188Y-28175518D01*
X32961928Y-28300000D01*
X29768502Y-28300000D01*
X29695606Y-28224790D01*
X29447204Y-28053138D01*
X29170087Y-27933245D01*
X29064740Y-27908964D01*
X28827000Y-28029622D01*
X28573000Y-28029622D01*
X28335260Y-27908964D01*
X28229913Y-27933245D01*
X27952796Y-28053138D01*
X27704394Y-28224790D01*
X27494252Y-28441604D01*
X27330446Y-28695249D01*
X27219271Y-28975977D01*
X27165000Y-29273000D01*
X21127000Y-29273000D01*
X21127000Y-19622285D01*
X21165000Y-19622285D01*
X21165000Y-20377715D01*
X21312377Y-21118628D01*
X21601467Y-21816554D01*
X22021161Y-22444670D01*
X22555330Y-22978839D01*
X23183446Y-23398533D01*
X23881372Y-23687623D01*
X24622285Y-23835000D01*
X25377715Y-23835000D01*
X26118628Y-23687623D01*
X26816554Y-23398533D01*
X27444670Y-22978839D01*
X27978839Y-22444670D01*
X28398533Y-21816554D01*
X28687623Y-21118628D01*
X28835000Y-20377715D01*
X28835000Y-19622285D01*
X28810676Y-19500000D01*
X34161928Y-19500000D01*
X34161928Y-21500000D01*
X34174188Y-21624482D01*
X34210498Y-21744180D01*
X34269463Y-21854494D01*
X34348815Y-21951185D01*
X34445506Y-22030537D01*
X34555820Y-22089502D01*
X34675518Y-22125812D01*
X34800000Y-22138072D01*
X36800000Y-22138072D01*
X36924482Y-22125812D01*
X37044180Y-22089502D01*
X37154494Y-22030537D01*
X37251185Y-21951185D01*
X37330537Y-21854494D01*
X37389502Y-21744180D01*
X37422496Y-21635413D01*
X39844192Y-21635413D01*
X39939956Y-21899814D01*
X40229571Y-22040704D01*
X40541108Y-22122384D01*
X40862595Y-22141718D01*
X41181675Y-22097961D01*
X41486088Y-21992795D01*
X41660044Y-21899814D01*
X41755808Y-21635413D01*
X40800000Y-20679605D01*
X39844192Y-21635413D01*
X37422496Y-21635413D01*
X37425812Y-21624482D01*
X37438072Y-21500000D01*
X37438072Y-20562595D01*
X39158282Y-20562595D01*
X39202039Y-20881675D01*
X39307205Y-21186088D01*
X39400186Y-21360044D01*
X39664587Y-21455808D01*
X40620395Y-20500000D01*
X40979605Y-20500000D01*
X41935413Y-21455808D01*
X42199814Y-21360044D01*
X42340704Y-21070429D01*
X42422384Y-20758892D01*
X42441718Y-20437405D01*
X42397961Y-20118325D01*
X42292795Y-19813912D01*
X42199814Y-19639956D01*
X42151025Y-19622285D01*
X46165000Y-19622285D01*
X46165000Y-20377715D01*
X46312377Y-21118628D01*
X46601467Y-21816554D01*
X47021161Y-22444670D01*
X47555330Y-22978839D01*
X48183446Y-23398533D01*
X48881372Y-23687623D01*
X49622285Y-23835000D01*
X50377715Y-23835000D01*
X51118628Y-23687623D01*
X51816554Y-23398533D01*
X52444670Y-22978839D01*
X52978839Y-22444670D01*
X53398533Y-21816554D01*
X53687623Y-21118628D01*
X53835000Y-20377715D01*
X53835000Y-19622285D01*
X53687623Y-18881372D01*
X53398533Y-18183446D01*
X52978839Y-17555330D01*
X52444670Y-17021161D01*
X51816554Y-16601467D01*
X51118628Y-16312377D01*
X50377715Y-16165000D01*
X49622285Y-16165000D01*
X48881372Y-16312377D01*
X48183446Y-16601467D01*
X47555330Y-17021161D01*
X47021161Y-17555330D01*
X46601467Y-18183446D01*
X46312377Y-18881372D01*
X46165000Y-19622285D01*
X42151025Y-19622285D01*
X41935413Y-19544192D01*
X40979605Y-20500000D01*
X40620395Y-20500000D01*
X39664587Y-19544192D01*
X39400186Y-19639956D01*
X39259296Y-19929571D01*
X39177616Y-20241108D01*
X39158282Y-20562595D01*
X37438072Y-20562595D01*
X37438072Y-19500000D01*
X37425812Y-19375518D01*
X37422497Y-19364587D01*
X39844192Y-19364587D01*
X40800000Y-20320395D01*
X41755808Y-19364587D01*
X41660044Y-19100186D01*
X41370429Y-18959296D01*
X41058892Y-18877616D01*
X40737405Y-18858282D01*
X40418325Y-18902039D01*
X40113912Y-19007205D01*
X39939956Y-19100186D01*
X39844192Y-19364587D01*
X37422497Y-19364587D01*
X37389502Y-19255820D01*
X37330537Y-19145506D01*
X37251185Y-19048815D01*
X37154494Y-18969463D01*
X37044180Y-18910498D01*
X36924482Y-18874188D01*
X36800000Y-18861928D01*
X34800000Y-18861928D01*
X34675518Y-18874188D01*
X34555820Y-18910498D01*
X34445506Y-18969463D01*
X34348815Y-19048815D01*
X34269463Y-19145506D01*
X34210498Y-19255820D01*
X34174188Y-19375518D01*
X34161928Y-19500000D01*
X28810676Y-19500000D01*
X28687623Y-18881372D01*
X28398533Y-18183446D01*
X27978839Y-17555330D01*
X27444670Y-17021161D01*
X26816554Y-16601467D01*
X26118628Y-16312377D01*
X25377715Y-16165000D01*
X24622285Y-16165000D01*
X23881372Y-16312377D01*
X23183446Y-16601467D01*
X22555330Y-17021161D01*
X22021161Y-17555330D01*
X21601467Y-18183446D01*
X21312377Y-18881372D01*
X21165000Y-19622285D01*
X21127000Y-19622285D01*
X21127000Y-16127000D01*
X53873000Y-16127000D01*
X53873000Y-65873000D01*
G37*
X53873000Y-65873000D02*
X46000000Y-65873000D01*
X45975224Y-65875440D01*
X45951399Y-65882667D01*
X45929443Y-65894403D01*
X45910197Y-65910197D01*
X45894403Y-65929443D01*
X45882667Y-65951399D01*
X45875440Y-65975224D01*
X45873000Y-66000000D01*
X45873000Y-73873000D01*
X29127000Y-73873000D01*
X29127000Y-66000000D01*
X29124560Y-65975224D01*
X29117333Y-65951399D01*
X29105597Y-65929443D01*
X29089803Y-65910197D01*
X29070557Y-65894403D01*
X29048601Y-65882667D01*
X29024776Y-65875440D01*
X29000000Y-65873000D01*
X21127000Y-65873000D01*
X21127000Y-41549999D01*
X25761928Y-41549999D01*
X25761928Y-42450001D01*
X25778992Y-42623255D01*
X25829528Y-42789851D01*
X25911595Y-42943387D01*
X26022038Y-43077962D01*
X26156613Y-43188405D01*
X26271849Y-43250000D01*
X26156613Y-43311595D01*
X26022038Y-43422038D01*
X25911595Y-43556613D01*
X25829528Y-43710149D01*
X25778992Y-43876745D01*
X25761928Y-44049999D01*
X25761928Y-44950001D01*
X25778992Y-45123255D01*
X25829528Y-45289851D01*
X25911595Y-45443387D01*
X26022038Y-45577962D01*
X26090000Y-45633737D01*
X26090001Y-49775037D01*
X26085719Y-49818516D01*
X26102805Y-49992006D01*
X26153412Y-50158829D01*
X26235590Y-50312575D01*
X26318468Y-50413562D01*
X26318471Y-50413565D01*
X26346184Y-50447333D01*
X26379951Y-50475045D01*
X27699953Y-51795048D01*
X27727666Y-51828816D01*
X27761434Y-51856529D01*
X27761436Y-51856531D01*
X27832935Y-51915209D01*
X27862424Y-51939410D01*
X28016170Y-52021588D01*
X28132386Y-52056842D01*
X28182992Y-52072194D01*
X28197789Y-52073651D01*
X28313006Y-52084999D01*
X28313014Y-52084999D01*
X28356483Y-52089280D01*
X28399952Y-52084999D01*
X29511928Y-52084999D01*
X29511928Y-53350000D01*
X29524188Y-53474482D01*
X29560498Y-53594180D01*
X29619463Y-53704494D01*
X29698815Y-53801185D01*
X29795506Y-53880537D01*
X29905820Y-53939502D01*
X29978380Y-53961513D01*
X29846525Y-54093368D01*
X29684010Y-54336589D01*
X29572068Y-54606842D01*
X29515000Y-54893740D01*
X29515000Y-55186260D01*
X29572068Y-55473158D01*
X29684010Y-55743411D01*
X29846525Y-55986632D01*
X30053368Y-56193475D01*
X30227760Y-56310000D01*
X30053368Y-56426525D01*
X29846525Y-56633368D01*
X29684010Y-56876589D01*
X29572068Y-57146842D01*
X29515000Y-57433740D01*
X29515000Y-57726260D01*
X29572068Y-58013158D01*
X29684010Y-58283411D01*
X29846525Y-58526632D01*
X30053368Y-58733475D01*
X30227760Y-58850000D01*
X30053368Y-58966525D01*
X29846525Y-59173368D01*
X29684010Y-59416589D01*
X29572068Y-59686842D01*
X29515000Y-59973740D01*
X29515000Y-60266260D01*
X29572068Y-60553158D01*
X29684010Y-60823411D01*
X29846525Y-61066632D01*
X30053368Y-61273475D01*
X30227760Y-61390000D01*
X30053368Y-61506525D01*
X29846525Y-61713368D01*
X29684010Y-61956589D01*
X29572068Y-62226842D01*
X29515000Y-62513740D01*
X29515000Y-62806260D01*
X29572068Y-63093158D01*
X29684010Y-63363411D01*
X29846525Y-63606632D01*
X30053368Y-63813475D01*
X30115000Y-63854656D01*
X30115000Y-64633422D01*
X29904955Y-64843467D01*
X29871183Y-64871183D01*
X29843468Y-64904954D01*
X29760590Y-65005941D01*
X29678412Y-65159687D01*
X29627805Y-65326510D01*
X29610719Y-65500000D01*
X29627805Y-65673490D01*
X29678412Y-65840313D01*
X29760590Y-65994059D01*
X29871183Y-66128817D01*
X29904954Y-66156532D01*
X31343470Y-67595049D01*
X31371183Y-67628817D01*
X31404951Y-67656530D01*
X31404953Y-67656532D01*
X31455606Y-67698102D01*
X31505941Y-67739411D01*
X31659687Y-67821589D01*
X31826510Y-67872195D01*
X31956523Y-67885000D01*
X31956533Y-67885000D01*
X31999999Y-67889281D01*
X32043465Y-67885000D01*
X33961546Y-67885000D01*
X34009744Y-67917205D01*
X34198102Y-67995226D01*
X34398061Y-68035000D01*
X34601939Y-68035000D01*
X34801898Y-67995226D01*
X34990256Y-67917205D01*
X35128250Y-67825000D01*
X35684509Y-67825000D01*
X35706423Y-68047499D01*
X35771324Y-68261447D01*
X35876716Y-68458623D01*
X36018551Y-68631449D01*
X36191377Y-68773284D01*
X36388553Y-68878676D01*
X36602501Y-68943577D01*
X36769248Y-68960000D01*
X38644249Y-68960000D01*
X38700000Y-68965491D01*
X38755751Y-68960000D01*
X38755752Y-68960000D01*
X38839990Y-68951703D01*
X38839991Y-70409191D01*
X38760589Y-70505942D01*
X38678411Y-70659688D01*
X38627805Y-70826511D01*
X38615000Y-70956524D01*
X38615000Y-70956531D01*
X38614421Y-70962413D01*
X38582795Y-71009744D01*
X38504774Y-71198102D01*
X38465000Y-71398061D01*
X38465000Y-71601939D01*
X38504774Y-71801898D01*
X38582795Y-71990256D01*
X38696063Y-72159774D01*
X38840226Y-72303937D01*
X39009744Y-72417205D01*
X39198102Y-72495226D01*
X39398061Y-72535000D01*
X39601939Y-72535000D01*
X39801898Y-72495226D01*
X39990256Y-72417205D01*
X40159774Y-72303937D01*
X40303937Y-72159774D01*
X40417205Y-71990256D01*
X40495226Y-71801898D01*
X40535000Y-71601939D01*
X40535000Y-71398061D01*
X40497154Y-71207793D01*
X40546579Y-71115323D01*
X40597185Y-70948500D01*
X40609990Y-70818487D01*
X40609990Y-70818479D01*
X40614271Y-70775010D01*
X40609990Y-70731541D01*
X40609990Y-69141588D01*
X40745044Y-69006535D01*
X40801898Y-68995226D01*
X40990256Y-68917205D01*
X41159774Y-68803937D01*
X41303937Y-68659774D01*
X41417205Y-68490256D01*
X41495226Y-68301898D01*
X41535000Y-68101939D01*
X41535000Y-67898061D01*
X41495226Y-67698102D01*
X41417205Y-67509744D01*
X41303937Y-67340226D01*
X41159774Y-67196063D01*
X41024474Y-67105658D01*
X41188140Y-66941991D01*
X41231449Y-66906449D01*
X41373284Y-66733623D01*
X41478676Y-66536447D01*
X41543577Y-66322498D01*
X41553517Y-66221571D01*
X41570472Y-66189851D01*
X41621008Y-66023255D01*
X41638072Y-65850001D01*
X41638072Y-64949999D01*
X41621008Y-64776745D01*
X41570472Y-64610149D01*
X41488405Y-64456613D01*
X41377962Y-64322038D01*
X41243387Y-64211595D01*
X41089851Y-64129528D01*
X40923255Y-64078992D01*
X40750001Y-64061928D01*
X40099999Y-64061928D01*
X39926745Y-64078992D01*
X39760149Y-64129528D01*
X39606613Y-64211595D01*
X39472038Y-64322038D01*
X39466658Y-64328594D01*
X39401185Y-64248815D01*
X39304494Y-64169463D01*
X39194180Y-64110498D01*
X39074482Y-64074188D01*
X38950000Y-64061928D01*
X38660750Y-64065000D01*
X38502000Y-64223750D01*
X38502000Y-65273000D01*
X38522000Y-65273000D01*
X38522000Y-65527000D01*
X38502000Y-65527000D01*
X38502000Y-65547000D01*
X38248000Y-65547000D01*
X38248000Y-65527000D01*
X37323750Y-65527000D01*
X37165000Y-65685750D01*
X37161928Y-66100000D01*
X37174188Y-66224482D01*
X37210498Y-66344180D01*
X37269463Y-66454494D01*
X37348815Y-66551185D01*
X37445506Y-66630537D01*
X37555820Y-66689502D01*
X37557462Y-66690000D01*
X36769248Y-66690000D01*
X36602501Y-66706423D01*
X36388553Y-66771324D01*
X36191377Y-66876716D01*
X36018551Y-67018551D01*
X35876716Y-67191377D01*
X35771324Y-67388553D01*
X35706423Y-67602501D01*
X35684509Y-67825000D01*
X35128250Y-67825000D01*
X35159774Y-67803937D01*
X35303937Y-67659774D01*
X35417205Y-67490256D01*
X35495226Y-67301898D01*
X35535000Y-67101939D01*
X35535000Y-66898061D01*
X35495226Y-66698102D01*
X35417205Y-66509744D01*
X35303937Y-66340226D01*
X35213711Y-66250000D01*
X35303937Y-66159774D01*
X35417205Y-65990256D01*
X35495226Y-65801898D01*
X35535000Y-65601939D01*
X35535000Y-65398061D01*
X35495226Y-65198102D01*
X35417205Y-65009744D01*
X35333854Y-64885000D01*
X35961546Y-64885000D01*
X36009744Y-64917205D01*
X36198102Y-64995226D01*
X36398061Y-65035000D01*
X36601939Y-65035000D01*
X36801898Y-64995226D01*
X36990256Y-64917205D01*
X37159774Y-64803937D01*
X37162677Y-64801034D01*
X37165000Y-65114250D01*
X37323750Y-65273000D01*
X38248000Y-65273000D01*
X38248000Y-64223750D01*
X38089250Y-64065000D01*
X37800000Y-64061928D01*
X37675518Y-64074188D01*
X37555820Y-64110498D01*
X37530618Y-64123969D01*
X37535000Y-64101939D01*
X37535000Y-63898061D01*
X37495226Y-63698102D01*
X37417205Y-63509744D01*
X37303937Y-63340226D01*
X37201783Y-63238072D01*
X37225001Y-63238072D01*
X37398255Y-63221008D01*
X37564851Y-63170472D01*
X37718387Y-63088405D01*
X37783461Y-63035000D01*
X37991539Y-63035000D01*
X38056613Y-63088405D01*
X38210149Y-63170472D01*
X38376745Y-63221008D01*
X38549999Y-63238072D01*
X39200001Y-63238072D01*
X39373255Y-63221008D01*
X39539851Y-63170472D01*
X39693387Y-63088405D01*
X39827962Y-62977962D01*
X39833342Y-62971406D01*
X39898815Y-63051185D01*
X39995506Y-63130537D01*
X40105820Y-63189502D01*
X40225518Y-63225812D01*
X40350000Y-63238072D01*
X40639250Y-63235000D01*
X40798000Y-63076250D01*
X40798000Y-62027000D01*
X40778000Y-62027000D01*
X40778000Y-61773000D01*
X40798000Y-61773000D01*
X40798000Y-60723750D01*
X41052000Y-60723750D01*
X41052000Y-61773000D01*
X41673750Y-61773000D01*
X41723750Y-61823000D01*
X42773000Y-61823000D01*
X42773000Y-60898750D01*
X42614250Y-60740000D01*
X42200000Y-60736928D01*
X42075518Y-60749188D01*
X41976213Y-60779312D01*
X41951185Y-60748815D01*
X41854494Y-60669463D01*
X41744180Y-60610498D01*
X41624482Y-60574188D01*
X41500000Y-60561928D01*
X41210750Y-60565000D01*
X41052000Y-60723750D01*
X40798000Y-60723750D01*
X40639250Y-60565000D01*
X40350000Y-60561928D01*
X40225518Y-60574188D01*
X40105820Y-60610498D01*
X39995506Y-60669463D01*
X39898815Y-60748815D01*
X39833342Y-60828594D01*
X39827962Y-60822038D01*
X39693387Y-60711595D01*
X39539851Y-60629528D01*
X39373255Y-60578992D01*
X39200001Y-60561928D01*
X38549999Y-60561928D01*
X38376745Y-60578992D01*
X38210149Y-60629528D01*
X38056613Y-60711595D01*
X37991539Y-60765000D01*
X37783461Y-60765000D01*
X37718387Y-60711595D01*
X37564851Y-60629528D01*
X37398255Y-60578992D01*
X37225001Y-60561928D01*
X36574999Y-60561928D01*
X36401745Y-60578992D01*
X36235149Y-60629528D01*
X36081613Y-60711595D01*
X35947038Y-60822038D01*
X35875000Y-60909816D01*
X35802962Y-60822038D01*
X35668387Y-60711595D01*
X35514851Y-60629528D01*
X35348255Y-60578992D01*
X35175001Y-60561928D01*
X35117060Y-60561928D01*
X34584990Y-60029859D01*
X34584990Y-55993053D01*
X35021986Y-56430049D01*
X35049699Y-56463817D01*
X35083467Y-56491530D01*
X35083469Y-56491532D01*
X35160805Y-56555000D01*
X35184457Y-56574411D01*
X35338203Y-56656589D01*
X35505026Y-56707195D01*
X35635039Y-56720000D01*
X35635047Y-56720000D01*
X35678516Y-56724281D01*
X35721985Y-56720000D01*
X39796546Y-56720000D01*
X39844744Y-56752205D01*
X40033102Y-56830226D01*
X40233061Y-56870000D01*
X40436939Y-56870000D01*
X40570557Y-56843422D01*
X40551717Y-56866378D01*
X40446324Y-57063554D01*
X40381423Y-57277502D01*
X40359509Y-57500000D01*
X40381423Y-57722498D01*
X40446324Y-57936446D01*
X40551717Y-58133622D01*
X40658012Y-58263143D01*
X43160309Y-60765441D01*
X43027000Y-60898750D01*
X43027000Y-61823000D01*
X43047000Y-61823000D01*
X43047000Y-62077000D01*
X43027000Y-62077000D01*
X43027000Y-62097000D01*
X42773000Y-62097000D01*
X42773000Y-62077000D01*
X42026250Y-62077000D01*
X41976250Y-62027000D01*
X41052000Y-62027000D01*
X41052000Y-63076250D01*
X41210750Y-63235000D01*
X41500000Y-63238072D01*
X41624482Y-63225812D01*
X41700256Y-63202826D01*
X41629528Y-63335149D01*
X41578992Y-63501745D01*
X41561928Y-63674999D01*
X41561928Y-64325001D01*
X41578992Y-64498255D01*
X41629528Y-64664851D01*
X41711595Y-64818387D01*
X41822038Y-64952962D01*
X41956613Y-65063405D01*
X42110149Y-65145472D01*
X42276745Y-65196008D01*
X42449999Y-65213072D01*
X43350001Y-65213072D01*
X43523255Y-65196008D01*
X43689851Y-65145472D01*
X43843387Y-65063405D01*
X43977962Y-64952962D01*
X44088405Y-64818387D01*
X44170472Y-64664851D01*
X44221008Y-64498255D01*
X44238072Y-64325001D01*
X44238072Y-63674999D01*
X44221008Y-63501745D01*
X44170472Y-63335149D01*
X44088405Y-63181613D01*
X43977962Y-63047038D01*
X43971406Y-63041658D01*
X44051185Y-62976185D01*
X44130537Y-62879494D01*
X44189502Y-62769180D01*
X44225812Y-62649482D01*
X44238072Y-62525000D01*
X44235000Y-62235750D01*
X44076252Y-62077002D01*
X44199436Y-62077002D01*
X44203992Y-62123255D01*
X44254528Y-62289851D01*
X44336595Y-62443387D01*
X44447038Y-62577962D01*
X44581613Y-62688405D01*
X44735149Y-62770472D01*
X44901745Y-62821008D01*
X45074999Y-62838072D01*
X45725001Y-62838072D01*
X45898255Y-62821008D01*
X46064851Y-62770472D01*
X46218387Y-62688405D01*
X46352962Y-62577962D01*
X46425000Y-62490184D01*
X46497038Y-62577962D01*
X46631613Y-62688405D01*
X46785149Y-62770472D01*
X46951745Y-62821008D01*
X47124999Y-62838072D01*
X47775001Y-62838072D01*
X47948255Y-62821008D01*
X48114851Y-62770472D01*
X48268387Y-62688405D01*
X48333461Y-62635000D01*
X48491539Y-62635000D01*
X48556613Y-62688405D01*
X48710149Y-62770472D01*
X48876745Y-62821008D01*
X49049999Y-62838072D01*
X49700001Y-62838072D01*
X49873255Y-62821008D01*
X50039851Y-62770472D01*
X50193387Y-62688405D01*
X50327962Y-62577962D01*
X50333342Y-62571406D01*
X50398815Y-62651185D01*
X50495506Y-62730537D01*
X50605820Y-62789502D01*
X50725518Y-62825812D01*
X50850000Y-62838072D01*
X51139250Y-62835000D01*
X51298000Y-62676250D01*
X51298000Y-61627000D01*
X51552000Y-61627000D01*
X51552000Y-62676250D01*
X51710750Y-62835000D01*
X52000000Y-62838072D01*
X52124482Y-62825812D01*
X52244180Y-62789502D01*
X52354494Y-62730537D01*
X52451185Y-62651185D01*
X52530537Y-62554494D01*
X52589502Y-62444180D01*
X52625812Y-62324482D01*
X52638072Y-62200000D01*
X52635000Y-61785750D01*
X52476250Y-61627000D01*
X51552000Y-61627000D01*
X51298000Y-61627000D01*
X51278000Y-61627000D01*
X51278000Y-61373000D01*
X51298000Y-61373000D01*
X51298000Y-60323750D01*
X51552000Y-60323750D01*
X51552000Y-61373000D01*
X52476250Y-61373000D01*
X52635000Y-61214250D01*
X52638072Y-60800000D01*
X52625812Y-60675518D01*
X52589502Y-60555820D01*
X52530537Y-60445506D01*
X52451185Y-60348815D01*
X52354494Y-60269463D01*
X52244180Y-60210498D01*
X52124482Y-60174188D01*
X52000000Y-60161928D01*
X51710750Y-60165000D01*
X51552000Y-60323750D01*
X51298000Y-60323750D01*
X51139250Y-60165000D01*
X50850000Y-60161928D01*
X50725518Y-60174188D01*
X50605820Y-60210498D01*
X50495506Y-60269463D01*
X50398815Y-60348815D01*
X50333342Y-60428594D01*
X50327962Y-60422038D01*
X50193387Y-60311595D01*
X50185408Y-60307330D01*
X50244180Y-60289502D01*
X50354494Y-60230537D01*
X50451185Y-60151185D01*
X50530537Y-60054494D01*
X50589502Y-59944180D01*
X50625812Y-59824482D01*
X50638072Y-59700000D01*
X50635000Y-59285750D01*
X50476250Y-59127000D01*
X49552000Y-59127000D01*
X49552000Y-59147000D01*
X49298000Y-59147000D01*
X49298000Y-59127000D01*
X49278000Y-59127000D01*
X49278000Y-58873000D01*
X49298000Y-58873000D01*
X49298000Y-57823750D01*
X49552000Y-57823750D01*
X49552000Y-58873000D01*
X50476250Y-58873000D01*
X50635000Y-58714250D01*
X50638072Y-58300000D01*
X50625812Y-58175518D01*
X50589502Y-58055820D01*
X50530537Y-57945506D01*
X50451185Y-57848815D01*
X50354494Y-57769463D01*
X50244180Y-57710498D01*
X50124482Y-57674188D01*
X50000000Y-57661928D01*
X49710750Y-57665000D01*
X49552000Y-57823750D01*
X49298000Y-57823750D01*
X49139250Y-57665000D01*
X48850000Y-57661928D01*
X48725518Y-57674188D01*
X48605820Y-57710498D01*
X48495506Y-57769463D01*
X48398815Y-57848815D01*
X48333342Y-57928594D01*
X48327962Y-57922038D01*
X48193387Y-57811595D01*
X48039851Y-57729528D01*
X47873255Y-57678992D01*
X47700001Y-57661928D01*
X47049999Y-57661928D01*
X46876745Y-57678992D01*
X46710149Y-57729528D01*
X46556613Y-57811595D01*
X46422038Y-57922038D01*
X46311595Y-58056613D01*
X46273448Y-58127981D01*
X46193551Y-58193551D01*
X46051716Y-58366377D01*
X45946324Y-58563553D01*
X45881423Y-58777501D01*
X45859509Y-59000000D01*
X45881423Y-59222499D01*
X45946324Y-59436447D01*
X46051716Y-59633623D01*
X46193551Y-59806449D01*
X46273448Y-59872019D01*
X46311595Y-59943387D01*
X46422038Y-60077962D01*
X46556613Y-60188405D01*
X46709349Y-60270044D01*
X46631613Y-60311595D01*
X46497038Y-60422038D01*
X46425000Y-60509816D01*
X46352962Y-60422038D01*
X46218387Y-60311595D01*
X46064851Y-60229528D01*
X45898255Y-60178992D01*
X45771655Y-60166523D01*
X44495645Y-58890513D01*
X44667498Y-58873587D01*
X44881446Y-58808686D01*
X44890194Y-58804010D01*
X45078623Y-58703294D01*
X45251449Y-58561459D01*
X45286996Y-58518145D01*
X45341988Y-58463153D01*
X45448284Y-58333632D01*
X45553676Y-58136456D01*
X45618577Y-57922508D01*
X45640491Y-57700010D01*
X45618577Y-57477511D01*
X45580000Y-57350341D01*
X45580000Y-57025131D01*
X47341988Y-55263144D01*
X47448284Y-55133623D01*
X47553676Y-54936447D01*
X47618577Y-54722499D01*
X47640491Y-54500000D01*
X47618577Y-54277501D01*
X47553676Y-54063554D01*
X47448284Y-53866378D01*
X47306449Y-53693551D01*
X47133622Y-53551716D01*
X46936446Y-53446324D01*
X46722499Y-53381423D01*
X46500000Y-53359509D01*
X46277501Y-53381423D01*
X46063553Y-53446324D01*
X45866377Y-53551716D01*
X45736856Y-53658012D01*
X43681860Y-55713009D01*
X43638552Y-55748551D01*
X43496717Y-55921377D01*
X43391324Y-56118553D01*
X43347200Y-56264010D01*
X43326423Y-56332502D01*
X43304509Y-56555000D01*
X43310000Y-56610751D01*
X43310000Y-57699259D01*
X43309497Y-57704366D01*
X42263143Y-56658012D01*
X42133622Y-56551717D01*
X41936446Y-56446324D01*
X41722498Y-56381423D01*
X41500000Y-56359509D01*
X41277502Y-56381423D01*
X41198704Y-56405326D01*
X41252205Y-56325256D01*
X41330226Y-56136898D01*
X41370000Y-55936939D01*
X41370000Y-55733061D01*
X41330226Y-55533102D01*
X41252205Y-55344744D01*
X41138937Y-55175226D01*
X40994774Y-55031063D01*
X40825256Y-54917795D01*
X40636898Y-54839774D01*
X40436939Y-54800000D01*
X40233061Y-54800000D01*
X40033102Y-54839774D01*
X39844744Y-54917795D01*
X39796546Y-54950000D01*
X36045095Y-54950000D01*
X35408167Y-54313072D01*
X35425001Y-54313072D01*
X35598255Y-54296008D01*
X35764851Y-54245472D01*
X35918387Y-54163405D01*
X36052962Y-54052962D01*
X36163405Y-53918387D01*
X36245472Y-53764851D01*
X36272727Y-53675000D01*
X39486928Y-53675000D01*
X39499188Y-53799482D01*
X39535498Y-53919180D01*
X39594463Y-54029494D01*
X39673815Y-54126185D01*
X39770506Y-54205537D01*
X39880820Y-54264502D01*
X40000518Y-54300812D01*
X40125000Y-54313072D01*
X40601750Y-54310000D01*
X40760500Y-54151250D01*
X40760500Y-52127000D01*
X41014500Y-52127000D01*
X41014500Y-54151250D01*
X41173250Y-54310000D01*
X41650000Y-54313072D01*
X41774482Y-54300812D01*
X41894180Y-54264502D01*
X42004494Y-54205537D01*
X42101185Y-54126185D01*
X42180537Y-54029494D01*
X42239502Y-53919180D01*
X42275812Y-53799482D01*
X42288072Y-53675000D01*
X42285000Y-52285750D01*
X42126250Y-52127000D01*
X41014500Y-52127000D01*
X40760500Y-52127000D01*
X39648750Y-52127000D01*
X39490000Y-52285750D01*
X39486928Y-53675000D01*
X36272727Y-53675000D01*
X36296008Y-53598255D01*
X36313072Y-53425001D01*
X36313072Y-50574999D01*
X36296008Y-50401745D01*
X36272728Y-50325000D01*
X39486928Y-50325000D01*
X39490000Y-51714250D01*
X39648750Y-51873000D01*
X40760500Y-51873000D01*
X40760500Y-49848750D01*
X41014500Y-49848750D01*
X41014500Y-51873000D01*
X42126250Y-51873000D01*
X42285000Y-51714250D01*
X42288072Y-50325000D01*
X42275812Y-50200518D01*
X42239502Y-50080820D01*
X42180537Y-49970506D01*
X42101185Y-49873815D01*
X42004494Y-49794463D01*
X41894180Y-49735498D01*
X41774482Y-49699188D01*
X41650000Y-49686928D01*
X41173250Y-49690000D01*
X41014500Y-49848750D01*
X40760500Y-49848750D01*
X40601750Y-49690000D01*
X40125000Y-49686928D01*
X40000518Y-49699188D01*
X39880820Y-49735498D01*
X39770506Y-49794463D01*
X39673815Y-49873815D01*
X39594463Y-49970506D01*
X39535498Y-50080820D01*
X39499188Y-50200518D01*
X39486928Y-50325000D01*
X36272728Y-50325000D01*
X36245472Y-50235149D01*
X36163405Y-50081613D01*
X36078267Y-49977872D01*
X36133623Y-49948284D01*
X36306449Y-49806449D01*
X36448284Y-49633623D01*
X36553676Y-49436447D01*
X36618577Y-49222499D01*
X36640491Y-49000000D01*
X36618577Y-48777501D01*
X36553676Y-48563553D01*
X36448284Y-48366377D01*
X36306449Y-48193551D01*
X36133623Y-48051716D01*
X35936447Y-47946324D01*
X35722499Y-47881423D01*
X35555752Y-47865000D01*
X32282082Y-47865000D01*
X32396825Y-47624099D01*
X32441476Y-47476890D01*
X32320155Y-47247000D01*
X31127000Y-47247000D01*
X31127000Y-47267000D01*
X30873000Y-47267000D01*
X30873000Y-47247000D01*
X29679845Y-47247000D01*
X29558524Y-47476890D01*
X29603175Y-47624099D01*
X29717918Y-47865000D01*
X29555752Y-47865000D01*
X29500000Y-47859509D01*
X29277501Y-47881423D01*
X29063553Y-47946324D01*
X28866377Y-48051716D01*
X28736856Y-48158011D01*
X28736854Y-48158013D01*
X28693551Y-48193551D01*
X28658013Y-48236855D01*
X27860000Y-49034869D01*
X27860000Y-45633737D01*
X27927962Y-45577962D01*
X28000000Y-45490184D01*
X28072038Y-45577962D01*
X28206613Y-45688405D01*
X28360149Y-45770472D01*
X28526745Y-45821008D01*
X28699999Y-45838072D01*
X29350001Y-45838072D01*
X29523255Y-45821008D01*
X29689851Y-45770472D01*
X29843387Y-45688405D01*
X29933964Y-45614071D01*
X30053368Y-45733475D01*
X30235534Y-45855195D01*
X30118645Y-45924822D01*
X29902412Y-46119731D01*
X29728359Y-46353080D01*
X29603175Y-46615901D01*
X29558524Y-46763110D01*
X29679845Y-46993000D01*
X30873000Y-46993000D01*
X30873000Y-46973000D01*
X31127000Y-46973000D01*
X31127000Y-46993000D01*
X32320155Y-46993000D01*
X32441476Y-46763110D01*
X32396825Y-46615901D01*
X32271641Y-46353080D01*
X32097588Y-46119731D01*
X31881355Y-45924822D01*
X31764466Y-45855195D01*
X31946632Y-45733475D01*
X32153475Y-45526632D01*
X32315990Y-45283411D01*
X32427932Y-45013158D01*
X32485000Y-44726260D01*
X32485000Y-44433740D01*
X32427932Y-44146842D01*
X32315990Y-43876589D01*
X32153475Y-43633368D01*
X31946632Y-43426525D01*
X31772240Y-43310000D01*
X31946632Y-43193475D01*
X32153475Y-42986632D01*
X32315990Y-42743411D01*
X32427932Y-42473158D01*
X32485000Y-42186260D01*
X32485000Y-41893740D01*
X32427932Y-41606842D01*
X32315990Y-41336589D01*
X32153475Y-41093368D01*
X32021620Y-40961513D01*
X32094180Y-40939502D01*
X32204494Y-40880537D01*
X32301185Y-40801185D01*
X32380537Y-40704494D01*
X32417683Y-40635000D01*
X38529869Y-40635000D01*
X43658013Y-45763146D01*
X43693551Y-45806449D01*
X43736854Y-45841987D01*
X43736856Y-45841989D01*
X43866377Y-45948284D01*
X44063553Y-46053676D01*
X44277501Y-46118577D01*
X44500000Y-46140491D01*
X44555752Y-46135000D01*
X46555752Y-46135000D01*
X46722499Y-46118577D01*
X46936447Y-46053676D01*
X47133623Y-45948284D01*
X47306449Y-45806449D01*
X47448284Y-45633623D01*
X47553676Y-45436447D01*
X47618577Y-45222499D01*
X47640491Y-45000000D01*
X47618577Y-44777501D01*
X47553676Y-44563553D01*
X47448284Y-44366377D01*
X47306449Y-44193551D01*
X47133623Y-44051716D01*
X46936447Y-43946324D01*
X46722499Y-43881423D01*
X46555752Y-43865000D01*
X44970133Y-43865000D01*
X39841996Y-38736865D01*
X39806449Y-38693551D01*
X39633623Y-38551716D01*
X39436447Y-38446324D01*
X39222499Y-38381423D01*
X39055752Y-38365000D01*
X39055751Y-38365000D01*
X39000000Y-38359509D01*
X38944249Y-38365000D01*
X32417683Y-38365000D01*
X32380537Y-38295506D01*
X32301185Y-38198815D01*
X32204494Y-38119463D01*
X32094180Y-38060498D01*
X31974482Y-38024188D01*
X31850000Y-38011928D01*
X30150000Y-38011928D01*
X30025518Y-38024188D01*
X29905820Y-38060498D01*
X29795506Y-38119463D01*
X29698815Y-38198815D01*
X29619463Y-38295506D01*
X29560498Y-38405820D01*
X29524188Y-38525518D01*
X29511928Y-38650000D01*
X29511928Y-40350000D01*
X29524188Y-40474482D01*
X29560498Y-40594180D01*
X29619463Y-40704494D01*
X29623487Y-40709397D01*
X29523255Y-40678992D01*
X29350001Y-40661928D01*
X28699999Y-40661928D01*
X28526745Y-40678992D01*
X28360149Y-40729528D01*
X28206613Y-40811595D01*
X28072038Y-40922038D01*
X28000000Y-41009816D01*
X27927962Y-40922038D01*
X27793387Y-40811595D01*
X27639851Y-40729528D01*
X27473255Y-40678992D01*
X27300001Y-40661928D01*
X26649999Y-40661928D01*
X26476745Y-40678992D01*
X26310149Y-40729528D01*
X26156613Y-40811595D01*
X26022038Y-40922038D01*
X25911595Y-41056613D01*
X25829528Y-41210149D01*
X25778992Y-41376745D01*
X25761928Y-41549999D01*
X21127000Y-41549999D01*
X21127000Y-35300000D01*
X28857573Y-35300000D01*
X28887210Y-35600913D01*
X28974983Y-35890261D01*
X29117519Y-36156927D01*
X29309339Y-36390661D01*
X29543073Y-36582481D01*
X29809739Y-36725017D01*
X30099087Y-36812790D01*
X30324592Y-36835000D01*
X32675408Y-36835000D01*
X32900913Y-36812790D01*
X33190261Y-36725017D01*
X33456927Y-36582481D01*
X33690661Y-36390661D01*
X33882481Y-36156927D01*
X34025017Y-35890261D01*
X34112790Y-35600913D01*
X34142427Y-35300000D01*
X34112790Y-34999087D01*
X34025017Y-34709739D01*
X33882481Y-34443073D01*
X33690661Y-34209339D01*
X33456927Y-34017519D01*
X33190261Y-33874983D01*
X32900913Y-33787210D01*
X32675408Y-33765000D01*
X30324592Y-33765000D01*
X30099087Y-33787210D01*
X29809739Y-33874983D01*
X29543073Y-34017519D01*
X29309339Y-34209339D01*
X29117519Y-34443073D01*
X28974983Y-34709739D01*
X28887210Y-34999087D01*
X28857573Y-35300000D01*
X21127000Y-35300000D01*
X21127000Y-30627000D01*
X27165000Y-30627000D01*
X27165000Y-31727000D01*
X27219271Y-32024023D01*
X27330446Y-32304751D01*
X27494252Y-32558396D01*
X27704394Y-32775210D01*
X27952796Y-32946862D01*
X28229913Y-33066755D01*
X28335260Y-33091036D01*
X28573000Y-32970378D01*
X28573000Y-30627000D01*
X28827000Y-30627000D01*
X28827000Y-32970378D01*
X29064740Y-33091036D01*
X29170087Y-33066755D01*
X29447204Y-32946862D01*
X29695606Y-32775210D01*
X29905748Y-32558396D01*
X30069554Y-32304751D01*
X30180729Y-32024023D01*
X30235000Y-31727000D01*
X30235000Y-30627000D01*
X28827000Y-30627000D01*
X28573000Y-30627000D01*
X27165000Y-30627000D01*
X21127000Y-30627000D01*
X21127000Y-29273000D01*
X27165000Y-29273000D01*
X27165000Y-30373000D01*
X28573000Y-30373000D01*
X28573000Y-28029622D01*
X28827000Y-28029622D01*
X28827000Y-30373000D01*
X30235000Y-30373000D01*
X30235000Y-29273000D01*
X30180729Y-28975977D01*
X30069554Y-28695249D01*
X29905748Y-28441604D01*
X29768502Y-28300000D01*
X32961928Y-28300000D01*
X32961928Y-32700000D01*
X32974188Y-32824482D01*
X33010498Y-32944180D01*
X33069463Y-33054494D01*
X33148815Y-33151185D01*
X33245506Y-33230537D01*
X33355820Y-33289502D01*
X33475518Y-33325812D01*
X33600000Y-33338072D01*
X35400000Y-33338072D01*
X35524482Y-33325812D01*
X35644180Y-33289502D01*
X35754494Y-33230537D01*
X35851185Y-33151185D01*
X35930537Y-33054494D01*
X35989502Y-32944180D01*
X36025812Y-32824482D01*
X36038072Y-32700000D01*
X36038072Y-28300000D01*
X36025812Y-28175518D01*
X35989502Y-28055820D01*
X35930537Y-27945506D01*
X35851185Y-27848815D01*
X35754494Y-27769463D01*
X35644180Y-27710498D01*
X35524482Y-27674188D01*
X35400000Y-27661928D01*
X33600000Y-27661928D01*
X33475518Y-27674188D01*
X33355820Y-27710498D01*
X33245506Y-27769463D01*
X33148815Y-27848815D01*
X33069463Y-27945506D01*
X33010498Y-28055820D01*
X32974188Y-28175518D01*
X32961928Y-28300000D01*
X29768502Y-28300000D01*
X29695606Y-28224790D01*
X29447204Y-28053138D01*
X29170087Y-27933245D01*
X29064740Y-27908964D01*
X28827000Y-28029622D01*
X28573000Y-28029622D01*
X28335260Y-27908964D01*
X28229913Y-27933245D01*
X27952796Y-28053138D01*
X27704394Y-28224790D01*
X27494252Y-28441604D01*
X27330446Y-28695249D01*
X27219271Y-28975977D01*
X27165000Y-29273000D01*
X21127000Y-29273000D01*
X21127000Y-19622285D01*
X21165000Y-19622285D01*
X21165000Y-20377715D01*
X21312377Y-21118628D01*
X21601467Y-21816554D01*
X22021161Y-22444670D01*
X22555330Y-22978839D01*
X23183446Y-23398533D01*
X23881372Y-23687623D01*
X24622285Y-23835000D01*
X25377715Y-23835000D01*
X26118628Y-23687623D01*
X26816554Y-23398533D01*
X27444670Y-22978839D01*
X27978839Y-22444670D01*
X28398533Y-21816554D01*
X28687623Y-21118628D01*
X28835000Y-20377715D01*
X28835000Y-19622285D01*
X28810676Y-19500000D01*
X34161928Y-19500000D01*
X34161928Y-21500000D01*
X34174188Y-21624482D01*
X34210498Y-21744180D01*
X34269463Y-21854494D01*
X34348815Y-21951185D01*
X34445506Y-22030537D01*
X34555820Y-22089502D01*
X34675518Y-22125812D01*
X34800000Y-22138072D01*
X36800000Y-22138072D01*
X36924482Y-22125812D01*
X37044180Y-22089502D01*
X37154494Y-22030537D01*
X37251185Y-21951185D01*
X37330537Y-21854494D01*
X37389502Y-21744180D01*
X37422496Y-21635413D01*
X39844192Y-21635413D01*
X39939956Y-21899814D01*
X40229571Y-22040704D01*
X40541108Y-22122384D01*
X40862595Y-22141718D01*
X41181675Y-22097961D01*
X41486088Y-21992795D01*
X41660044Y-21899814D01*
X41755808Y-21635413D01*
X40800000Y-20679605D01*
X39844192Y-21635413D01*
X37422496Y-21635413D01*
X37425812Y-21624482D01*
X37438072Y-21500000D01*
X37438072Y-20562595D01*
X39158282Y-20562595D01*
X39202039Y-20881675D01*
X39307205Y-21186088D01*
X39400186Y-21360044D01*
X39664587Y-21455808D01*
X40620395Y-20500000D01*
X40979605Y-20500000D01*
X41935413Y-21455808D01*
X42199814Y-21360044D01*
X42340704Y-21070429D01*
X42422384Y-20758892D01*
X42441718Y-20437405D01*
X42397961Y-20118325D01*
X42292795Y-19813912D01*
X42199814Y-19639956D01*
X42151025Y-19622285D01*
X46165000Y-19622285D01*
X46165000Y-20377715D01*
X46312377Y-21118628D01*
X46601467Y-21816554D01*
X47021161Y-22444670D01*
X47555330Y-22978839D01*
X48183446Y-23398533D01*
X48881372Y-23687623D01*
X49622285Y-23835000D01*
X50377715Y-23835000D01*
X51118628Y-23687623D01*
X51816554Y-23398533D01*
X52444670Y-22978839D01*
X52978839Y-22444670D01*
X53398533Y-21816554D01*
X53687623Y-21118628D01*
X53835000Y-20377715D01*
X53835000Y-19622285D01*
X53687623Y-18881372D01*
X53398533Y-18183446D01*
X52978839Y-17555330D01*
X52444670Y-17021161D01*
X51816554Y-16601467D01*
X51118628Y-16312377D01*
X50377715Y-16165000D01*
X49622285Y-16165000D01*
X48881372Y-16312377D01*
X48183446Y-16601467D01*
X47555330Y-17021161D01*
X47021161Y-17555330D01*
X46601467Y-18183446D01*
X46312377Y-18881372D01*
X46165000Y-19622285D01*
X42151025Y-19622285D01*
X41935413Y-19544192D01*
X40979605Y-20500000D01*
X40620395Y-20500000D01*
X39664587Y-19544192D01*
X39400186Y-19639956D01*
X39259296Y-19929571D01*
X39177616Y-20241108D01*
X39158282Y-20562595D01*
X37438072Y-20562595D01*
X37438072Y-19500000D01*
X37425812Y-19375518D01*
X37422497Y-19364587D01*
X39844192Y-19364587D01*
X40800000Y-20320395D01*
X41755808Y-19364587D01*
X41660044Y-19100186D01*
X41370429Y-18959296D01*
X41058892Y-18877616D01*
X40737405Y-18858282D01*
X40418325Y-18902039D01*
X40113912Y-19007205D01*
X39939956Y-19100186D01*
X39844192Y-19364587D01*
X37422497Y-19364587D01*
X37389502Y-19255820D01*
X37330537Y-19145506D01*
X37251185Y-19048815D01*
X37154494Y-18969463D01*
X37044180Y-18910498D01*
X36924482Y-18874188D01*
X36800000Y-18861928D01*
X34800000Y-18861928D01*
X34675518Y-18874188D01*
X34555820Y-18910498D01*
X34445506Y-18969463D01*
X34348815Y-19048815D01*
X34269463Y-19145506D01*
X34210498Y-19255820D01*
X34174188Y-19375518D01*
X34161928Y-19500000D01*
X28810676Y-19500000D01*
X28687623Y-18881372D01*
X28398533Y-18183446D01*
X27978839Y-17555330D01*
X27444670Y-17021161D01*
X26816554Y-16601467D01*
X26118628Y-16312377D01*
X25377715Y-16165000D01*
X24622285Y-16165000D01*
X23881372Y-16312377D01*
X23183446Y-16601467D01*
X22555330Y-17021161D01*
X22021161Y-17555330D01*
X21601467Y-18183446D01*
X21312377Y-18881372D01*
X21165000Y-19622285D01*
X21127000Y-19622285D01*
X21127000Y-16127000D01*
X53873000Y-16127000D01*
X53873000Y-65873000D01*
%TD*%
M02*
