%TF.GenerationSoftware,KiCad,Pcbnew,(5.1.6-0-10_14)*%
%TF.CreationDate,2021-01-02T16:58:20+01:00*%
%TF.ProjectId,driver-v2,64726976-6572-42d7-9632-2e6b69636164,rev?*%
%TF.SameCoordinates,Original*%
%TF.FileFunction,Legend,Bot*%
%TF.FilePolarity,Positive*%
%FSLAX46Y46*%
G04 Gerber Fmt 4.6, Leading zero omitted, Abs format (unit mm)*
G04 Created by KiCad (PCBNEW (5.1.6-0-10_14)) date 2021-01-02 16:58:20*
%MOMM*%
%LPD*%
G01*
G04 APERTURE LIST*
%ADD10C,0.120000*%
%ADD11C,0.150000*%
G04 APERTURE END LIST*
D10*
%TO.C,C2*%
X50138748Y-62210000D02*
X50661252Y-62210000D01*
X50138748Y-60790000D02*
X50661252Y-60790000D01*
%TO.C,C4*%
X48138748Y-58290000D02*
X48661252Y-58290000D01*
X48138748Y-59710000D02*
X48661252Y-59710000D01*
%TO.C,R1*%
X43610000Y-63236252D02*
X43610000Y-62713748D01*
X42190000Y-63236252D02*
X42190000Y-62713748D01*
%TO.C,R2*%
X46686252Y-62210000D02*
X46163748Y-62210000D01*
X46686252Y-60790000D02*
X46163748Y-60790000D01*
%TO.C,R3*%
X35847936Y-50290000D02*
X39952064Y-50290000D01*
X35847936Y-53710000D02*
X39952064Y-53710000D01*
%TO.C,R4*%
X35613748Y-62610000D02*
X36136252Y-62610000D01*
X35613748Y-61190000D02*
X36136252Y-61190000D01*
%TO.C,R5*%
X39638748Y-61190000D02*
X40161252Y-61190000D01*
X39638748Y-62610000D02*
X40161252Y-62610000D01*
%TO.C,Ren1*%
X27738748Y-41290000D02*
X28261252Y-41290000D01*
X27738748Y-42710000D02*
X28261252Y-42710000D01*
%TO.C,Riset1*%
X39661252Y-66110000D02*
X39138748Y-66110000D01*
X39661252Y-64690000D02*
X39138748Y-64690000D01*
%TO.C,Rpwm1*%
X27738748Y-45210000D02*
X28261252Y-45210000D01*
X27738748Y-43790000D02*
X28261252Y-43790000D01*
%TO.C,C2*%
D11*
X50566666Y-63507142D02*
X50614285Y-63554761D01*
X50757142Y-63602380D01*
X50852380Y-63602380D01*
X50995238Y-63554761D01*
X51090476Y-63459523D01*
X51138095Y-63364285D01*
X51185714Y-63173809D01*
X51185714Y-63030952D01*
X51138095Y-62840476D01*
X51090476Y-62745238D01*
X50995238Y-62650000D01*
X50852380Y-62602380D01*
X50757142Y-62602380D01*
X50614285Y-62650000D01*
X50566666Y-62697619D01*
X50185714Y-62697619D02*
X50138095Y-62650000D01*
X50042857Y-62602380D01*
X49804761Y-62602380D01*
X49709523Y-62650000D01*
X49661904Y-62697619D01*
X49614285Y-62792857D01*
X49614285Y-62888095D01*
X49661904Y-63030952D01*
X50233333Y-63602380D01*
X49614285Y-63602380D01*
%TO.C,C4*%
X48566666Y-61007142D02*
X48614285Y-61054761D01*
X48757142Y-61102380D01*
X48852380Y-61102380D01*
X48995238Y-61054761D01*
X49090476Y-60959523D01*
X49138095Y-60864285D01*
X49185714Y-60673809D01*
X49185714Y-60530952D01*
X49138095Y-60340476D01*
X49090476Y-60245238D01*
X48995238Y-60150000D01*
X48852380Y-60102380D01*
X48757142Y-60102380D01*
X48614285Y-60150000D01*
X48566666Y-60197619D01*
X47709523Y-60435714D02*
X47709523Y-61102380D01*
X47947619Y-60054761D02*
X48185714Y-60769047D01*
X47566666Y-60769047D01*
%TO.C,R1*%
X45002380Y-62808333D02*
X44526190Y-62475000D01*
X45002380Y-62236904D02*
X44002380Y-62236904D01*
X44002380Y-62617857D01*
X44050000Y-62713095D01*
X44097619Y-62760714D01*
X44192857Y-62808333D01*
X44335714Y-62808333D01*
X44430952Y-62760714D01*
X44478571Y-62713095D01*
X44526190Y-62617857D01*
X44526190Y-62236904D01*
X45002380Y-63760714D02*
X45002380Y-63189285D01*
X45002380Y-63475000D02*
X44002380Y-63475000D01*
X44145238Y-63379761D01*
X44240476Y-63284523D01*
X44288095Y-63189285D01*
%TO.C,R2*%
X46591666Y-60302380D02*
X46925000Y-59826190D01*
X47163095Y-60302380D02*
X47163095Y-59302380D01*
X46782142Y-59302380D01*
X46686904Y-59350000D01*
X46639285Y-59397619D01*
X46591666Y-59492857D01*
X46591666Y-59635714D01*
X46639285Y-59730952D01*
X46686904Y-59778571D01*
X46782142Y-59826190D01*
X47163095Y-59826190D01*
X46210714Y-59397619D02*
X46163095Y-59350000D01*
X46067857Y-59302380D01*
X45829761Y-59302380D01*
X45734523Y-59350000D01*
X45686904Y-59397619D01*
X45639285Y-59492857D01*
X45639285Y-59588095D01*
X45686904Y-59730952D01*
X46258333Y-60302380D01*
X45639285Y-60302380D01*
%TO.C,R3*%
X38066666Y-55072380D02*
X38400000Y-54596190D01*
X38638095Y-55072380D02*
X38638095Y-54072380D01*
X38257142Y-54072380D01*
X38161904Y-54120000D01*
X38114285Y-54167619D01*
X38066666Y-54262857D01*
X38066666Y-54405714D01*
X38114285Y-54500952D01*
X38161904Y-54548571D01*
X38257142Y-54596190D01*
X38638095Y-54596190D01*
X37733333Y-54072380D02*
X37114285Y-54072380D01*
X37447619Y-54453333D01*
X37304761Y-54453333D01*
X37209523Y-54500952D01*
X37161904Y-54548571D01*
X37114285Y-54643809D01*
X37114285Y-54881904D01*
X37161904Y-54977142D01*
X37209523Y-55024761D01*
X37304761Y-55072380D01*
X37590476Y-55072380D01*
X37685714Y-55024761D01*
X37733333Y-54977142D01*
%TO.C,R4*%
X36041666Y-64002380D02*
X36375000Y-63526190D01*
X36613095Y-64002380D02*
X36613095Y-63002380D01*
X36232142Y-63002380D01*
X36136904Y-63050000D01*
X36089285Y-63097619D01*
X36041666Y-63192857D01*
X36041666Y-63335714D01*
X36089285Y-63430952D01*
X36136904Y-63478571D01*
X36232142Y-63526190D01*
X36613095Y-63526190D01*
X35184523Y-63335714D02*
X35184523Y-64002380D01*
X35422619Y-62954761D02*
X35660714Y-63669047D01*
X35041666Y-63669047D01*
%TO.C,R5*%
X40066666Y-64002380D02*
X40400000Y-63526190D01*
X40638095Y-64002380D02*
X40638095Y-63002380D01*
X40257142Y-63002380D01*
X40161904Y-63050000D01*
X40114285Y-63097619D01*
X40066666Y-63192857D01*
X40066666Y-63335714D01*
X40114285Y-63430952D01*
X40161904Y-63478571D01*
X40257142Y-63526190D01*
X40638095Y-63526190D01*
X39161904Y-63002380D02*
X39638095Y-63002380D01*
X39685714Y-63478571D01*
X39638095Y-63430952D01*
X39542857Y-63383333D01*
X39304761Y-63383333D01*
X39209523Y-63430952D01*
X39161904Y-63478571D01*
X39114285Y-63573809D01*
X39114285Y-63811904D01*
X39161904Y-63907142D01*
X39209523Y-63954761D01*
X39304761Y-64002380D01*
X39542857Y-64002380D01*
X39638095Y-63954761D01*
X39685714Y-63907142D01*
%TO.C,Ren1*%
X29047619Y-40452380D02*
X29380952Y-39976190D01*
X29619047Y-40452380D02*
X29619047Y-39452380D01*
X29238095Y-39452380D01*
X29142857Y-39500000D01*
X29095238Y-39547619D01*
X29047619Y-39642857D01*
X29047619Y-39785714D01*
X29095238Y-39880952D01*
X29142857Y-39928571D01*
X29238095Y-39976190D01*
X29619047Y-39976190D01*
X28238095Y-40404761D02*
X28333333Y-40452380D01*
X28523809Y-40452380D01*
X28619047Y-40404761D01*
X28666666Y-40309523D01*
X28666666Y-39928571D01*
X28619047Y-39833333D01*
X28523809Y-39785714D01*
X28333333Y-39785714D01*
X28238095Y-39833333D01*
X28190476Y-39928571D01*
X28190476Y-40023809D01*
X28666666Y-40119047D01*
X27761904Y-39785714D02*
X27761904Y-40452380D01*
X27761904Y-39880952D02*
X27714285Y-39833333D01*
X27619047Y-39785714D01*
X27476190Y-39785714D01*
X27380952Y-39833333D01*
X27333333Y-39928571D01*
X27333333Y-40452380D01*
X26333333Y-40452380D02*
X26904761Y-40452380D01*
X26619047Y-40452380D02*
X26619047Y-39452380D01*
X26714285Y-39595238D01*
X26809523Y-39690476D01*
X26904761Y-39738095D01*
%TO.C,Riset1*%
X40923809Y-64202380D02*
X41257142Y-63726190D01*
X41495238Y-64202380D02*
X41495238Y-63202380D01*
X41114285Y-63202380D01*
X41019047Y-63250000D01*
X40971428Y-63297619D01*
X40923809Y-63392857D01*
X40923809Y-63535714D01*
X40971428Y-63630952D01*
X41019047Y-63678571D01*
X41114285Y-63726190D01*
X41495238Y-63726190D01*
X40495238Y-64202380D02*
X40495238Y-63535714D01*
X40495238Y-63202380D02*
X40542857Y-63250000D01*
X40495238Y-63297619D01*
X40447619Y-63250000D01*
X40495238Y-63202380D01*
X40495238Y-63297619D01*
X40066666Y-64154761D02*
X39971428Y-64202380D01*
X39780952Y-64202380D01*
X39685714Y-64154761D01*
X39638095Y-64059523D01*
X39638095Y-64011904D01*
X39685714Y-63916666D01*
X39780952Y-63869047D01*
X39923809Y-63869047D01*
X40019047Y-63821428D01*
X40066666Y-63726190D01*
X40066666Y-63678571D01*
X40019047Y-63583333D01*
X39923809Y-63535714D01*
X39780952Y-63535714D01*
X39685714Y-63583333D01*
X38828571Y-64154761D02*
X38923809Y-64202380D01*
X39114285Y-64202380D01*
X39209523Y-64154761D01*
X39257142Y-64059523D01*
X39257142Y-63678571D01*
X39209523Y-63583333D01*
X39114285Y-63535714D01*
X38923809Y-63535714D01*
X38828571Y-63583333D01*
X38780952Y-63678571D01*
X38780952Y-63773809D01*
X39257142Y-63869047D01*
X38495238Y-63535714D02*
X38114285Y-63535714D01*
X38352380Y-63202380D02*
X38352380Y-64059523D01*
X38304761Y-64154761D01*
X38209523Y-64202380D01*
X38114285Y-64202380D01*
X37257142Y-64202380D02*
X37828571Y-64202380D01*
X37542857Y-64202380D02*
X37542857Y-63202380D01*
X37638095Y-63345238D01*
X37733333Y-63440476D01*
X37828571Y-63488095D01*
%TO.C,Rpwm1*%
X29809523Y-46602380D02*
X30142857Y-46126190D01*
X30380952Y-46602380D02*
X30380952Y-45602380D01*
X30000000Y-45602380D01*
X29904761Y-45650000D01*
X29857142Y-45697619D01*
X29809523Y-45792857D01*
X29809523Y-45935714D01*
X29857142Y-46030952D01*
X29904761Y-46078571D01*
X30000000Y-46126190D01*
X30380952Y-46126190D01*
X29380952Y-45935714D02*
X29380952Y-46935714D01*
X29380952Y-45983333D02*
X29285714Y-45935714D01*
X29095238Y-45935714D01*
X29000000Y-45983333D01*
X28952380Y-46030952D01*
X28904761Y-46126190D01*
X28904761Y-46411904D01*
X28952380Y-46507142D01*
X29000000Y-46554761D01*
X29095238Y-46602380D01*
X29285714Y-46602380D01*
X29380952Y-46554761D01*
X28571428Y-45935714D02*
X28380952Y-46602380D01*
X28190476Y-46126190D01*
X28000000Y-46602380D01*
X27809523Y-45935714D01*
X27428571Y-46602380D02*
X27428571Y-45935714D01*
X27428571Y-46030952D02*
X27380952Y-45983333D01*
X27285714Y-45935714D01*
X27142857Y-45935714D01*
X27047619Y-45983333D01*
X27000000Y-46078571D01*
X27000000Y-46602380D01*
X27000000Y-46078571D02*
X26952380Y-45983333D01*
X26857142Y-45935714D01*
X26714285Y-45935714D01*
X26619047Y-45983333D01*
X26571428Y-46078571D01*
X26571428Y-46602380D01*
X25571428Y-46602380D02*
X26142857Y-46602380D01*
X25857142Y-46602380D02*
X25857142Y-45602380D01*
X25952380Y-45745238D01*
X26047619Y-45840476D01*
X26142857Y-45888095D01*
%TD*%
M02*
