%TF.GenerationSoftware,KiCad,Pcbnew,(5.1.6-0-10_14)*%
%TF.CreationDate,2021-01-02T16:58:20+01:00*%
%TF.ProjectId,driver-v2,64726976-6572-42d7-9632-2e6b69636164,rev?*%
%TF.SameCoordinates,Original*%
%TF.FileFunction,Copper,L1,Top*%
%TF.FilePolarity,Positive*%
%FSLAX46Y46*%
G04 Gerber Fmt 4.6, Leading zero omitted, Abs format (unit mm)*
G04 Created by KiCad (PCBNEW (5.1.6-0-10_14)) date 2021-01-02 16:58:20*
%MOMM*%
%LPD*%
G01*
G04 APERTURE LIST*
%TA.AperFunction,ComponentPad*%
%ADD10C,6.400000*%
%TD*%
%TA.AperFunction,ComponentPad*%
%ADD11R,2.000000X2.000000*%
%TD*%
%TA.AperFunction,ComponentPad*%
%ADD12C,2.000000*%
%TD*%
%TA.AperFunction,SMDPad,CuDef*%
%ADD13R,3.500000X1.800000*%
%TD*%
%TA.AperFunction,ComponentPad*%
%ADD14O,4.000000X1.800000*%
%TD*%
%TA.AperFunction,ComponentPad*%
%ADD15O,1.800000X4.000000*%
%TD*%
%TA.AperFunction,ComponentPad*%
%ADD16R,1.800000X4.400000*%
%TD*%
%TA.AperFunction,SMDPad,CuDef*%
%ADD17R,3.600000X1.800000*%
%TD*%
%TA.AperFunction,ComponentPad*%
%ADD18R,1.700000X1.700000*%
%TD*%
%TA.AperFunction,ComponentPad*%
%ADD19O,1.700000X1.700000*%
%TD*%
%TA.AperFunction,SMDPad,CuDef*%
%ADD20R,2.200000X1.200000*%
%TD*%
%TA.AperFunction,SMDPad,CuDef*%
%ADD21R,6.400000X5.800000*%
%TD*%
%TA.AperFunction,ViaPad*%
%ADD22C,0.800000*%
%TD*%
%TA.AperFunction,Conductor*%
%ADD23C,2.000000*%
%TD*%
%TA.AperFunction,Conductor*%
%ADD24C,1.000000*%
%TD*%
%TA.AperFunction,Conductor*%
%ADD25C,0.500000*%
%TD*%
%TA.AperFunction,Conductor*%
%ADD26C,0.254000*%
%TD*%
G04 APERTURE END LIST*
D10*
%TO.P,REF\u002A\u002A,1*%
%TO.N,N/C*%
X25000000Y-70000000D03*
%TD*%
%TO.P,REF\u002A\u002A,1*%
%TO.N,N/C*%
X25000000Y-20000000D03*
%TD*%
%TO.P,REF\u002A\u002A,1*%
%TO.N,N/C*%
X50000000Y-70000000D03*
%TD*%
%TO.P,REF\u002A\u002A,1*%
%TO.N,N/C*%
X50000000Y-20000000D03*
%TD*%
D11*
%TO.P,C1,1*%
%TO.N,VIN*%
X35800000Y-20500000D03*
D12*
%TO.P,C1,2*%
%TO.N,GND*%
X40800000Y-20500000D03*
%TD*%
%TO.P,C3,1*%
%TO.N,VIN*%
%TA.AperFunction,SMDPad,CuDef*%
G36*
G01*
X36300000Y-28850000D02*
X36300000Y-27750000D01*
G75*
G02*
X36550000Y-27500000I250000J0D01*
G01*
X38650000Y-27500000D01*
G75*
G02*
X38900000Y-27750000I0J-250000D01*
G01*
X38900000Y-28850000D01*
G75*
G02*
X38650000Y-29100000I-250000J0D01*
G01*
X36550000Y-29100000D01*
G75*
G02*
X36300000Y-28850000I0J250000D01*
G01*
G37*
%TD.AperFunction*%
%TO.P,C3,2*%
%TO.N,GND*%
%TA.AperFunction,SMDPad,CuDef*%
G36*
G01*
X39900000Y-28850000D02*
X39900000Y-27750000D01*
G75*
G02*
X40150000Y-27500000I250000J0D01*
G01*
X42250000Y-27500000D01*
G75*
G02*
X42500000Y-27750000I0J-250000D01*
G01*
X42500000Y-28850000D01*
G75*
G02*
X42250000Y-29100000I-250000J0D01*
G01*
X40150000Y-29100000D01*
G75*
G02*
X39900000Y-28850000I0J250000D01*
G01*
G37*
%TD.AperFunction*%
%TD*%
%TO.P,C6,2*%
%TO.N,GND*%
%TA.AperFunction,SMDPad,CuDef*%
G36*
G01*
X48200000Y-51350000D02*
X49800000Y-51350000D01*
G75*
G02*
X50050000Y-51600000I0J-250000D01*
G01*
X50050000Y-55600000D01*
G75*
G02*
X49800000Y-55850000I-250000J0D01*
G01*
X48200000Y-55850000D01*
G75*
G02*
X47950000Y-55600000I0J250000D01*
G01*
X47950000Y-51600000D01*
G75*
G02*
X48200000Y-51350000I250000J0D01*
G01*
G37*
%TD.AperFunction*%
%TO.P,C6,1*%
%TO.N,Vout*%
%TA.AperFunction,SMDPad,CuDef*%
G36*
G01*
X48200000Y-44150000D02*
X49800000Y-44150000D01*
G75*
G02*
X50050000Y-44400000I0J-250000D01*
G01*
X50050000Y-48400000D01*
G75*
G02*
X49800000Y-48650000I-250000J0D01*
G01*
X48200000Y-48650000D01*
G75*
G02*
X47950000Y-48400000I0J250000D01*
G01*
X47950000Y-44400000D01*
G75*
G02*
X48200000Y-44150000I250000J0D01*
G01*
G37*
%TD.AperFunction*%
%TD*%
D13*
%TO.P,D1,1*%
%TO.N,Vout*%
X37000000Y-45000000D03*
%TO.P,D1,2*%
%TO.N,Net-(D1-Pad2)*%
X42000000Y-45000000D03*
%TD*%
D14*
%TO.P,J1,3*%
%TO.N,N/C*%
X31500000Y-35300000D03*
D15*
%TO.P,J1,2*%
%TO.N,GND*%
X28700000Y-30500000D03*
D16*
%TO.P,J1,1*%
%TO.N,VIN*%
X34500000Y-30500000D03*
%TD*%
D17*
%TO.P,L1,1*%
%TO.N,VIN*%
X41400000Y-32000000D03*
%TO.P,L1,2*%
%TO.N,Net-(D1-Pad2)*%
X41400000Y-41000000D03*
%TD*%
D18*
%TO.P,LS1,1*%
%TO.N,Vout*%
X31000000Y-52500000D03*
D19*
%TO.P,LS1,2*%
%TO.N,LS1-*%
X31000000Y-55040000D03*
%TO.P,LS1,3*%
%TO.N,LS2-*%
X31000000Y-57580000D03*
%TO.P,LS1,4*%
%TO.N,LS3-*%
X31000000Y-60120000D03*
%TO.P,LS1,5*%
%TO.N,LS4-*%
X31000000Y-62660000D03*
%TD*%
D20*
%TO.P,Q1,1*%
%TO.N,Net-(Q1-Pad1)*%
X34800000Y-48720000D03*
%TO.P,Q1,3*%
%TO.N,Net-(Q1-Pad3)*%
X34800000Y-53280000D03*
D21*
%TO.P,Q1,2*%
%TO.N,Net-(D1-Pad2)*%
X41100000Y-51000000D03*
%TD*%
D18*
%TO.P,REMOTE1,1*%
%TO.N,VIN*%
X31000000Y-39500000D03*
D19*
%TO.P,REMOTE1,2*%
%TO.N,EN*%
X31000000Y-42040000D03*
%TO.P,REMOTE1,3*%
%TO.N,PWM*%
X31000000Y-44580000D03*
%TO.P,REMOTE1,4*%
%TO.N,GND*%
X31000000Y-47120000D03*
%TD*%
%TO.P,U1,1*%
%TO.N,LS4-*%
%TA.AperFunction,SMDPad,CuDef*%
G36*
G01*
X35705000Y-67450000D02*
X35405000Y-67450000D01*
G75*
G02*
X35255000Y-67300000I0J150000D01*
G01*
X35255000Y-65625000D01*
G75*
G02*
X35405000Y-65475000I150000J0D01*
G01*
X35705000Y-65475000D01*
G75*
G02*
X35855000Y-65625000I0J-150000D01*
G01*
X35855000Y-67300000D01*
G75*
G02*
X35705000Y-67450000I-150000J0D01*
G01*
G37*
%TD.AperFunction*%
%TO.P,U1,2*%
%TO.N,Net-(Riset1-Pad1)*%
%TA.AperFunction,SMDPad,CuDef*%
G36*
G01*
X36975000Y-67450000D02*
X36675000Y-67450000D01*
G75*
G02*
X36525000Y-67300000I0J150000D01*
G01*
X36525000Y-65625000D01*
G75*
G02*
X36675000Y-65475000I150000J0D01*
G01*
X36975000Y-65475000D01*
G75*
G02*
X37125000Y-65625000I0J-150000D01*
G01*
X37125000Y-67300000D01*
G75*
G02*
X36975000Y-67450000I-150000J0D01*
G01*
G37*
%TD.AperFunction*%
%TO.P,U1,3*%
%TO.N,Net-(R4-Pad2)*%
%TA.AperFunction,SMDPad,CuDef*%
G36*
G01*
X38245000Y-67450000D02*
X37945000Y-67450000D01*
G75*
G02*
X37795000Y-67300000I0J150000D01*
G01*
X37795000Y-65625000D01*
G75*
G02*
X37945000Y-65475000I150000J0D01*
G01*
X38245000Y-65475000D01*
G75*
G02*
X38395000Y-65625000I0J-150000D01*
G01*
X38395000Y-67300000D01*
G75*
G02*
X38245000Y-67450000I-150000J0D01*
G01*
G37*
%TD.AperFunction*%
%TO.P,U1,4*%
%TO.N,Net-(R1-Pad1)*%
%TA.AperFunction,SMDPad,CuDef*%
G36*
G01*
X39515000Y-67450000D02*
X39215000Y-67450000D01*
G75*
G02*
X39065000Y-67300000I0J150000D01*
G01*
X39065000Y-65625000D01*
G75*
G02*
X39215000Y-65475000I150000J0D01*
G01*
X39515000Y-65475000D01*
G75*
G02*
X39665000Y-65625000I0J-150000D01*
G01*
X39665000Y-67300000D01*
G75*
G02*
X39515000Y-67450000I-150000J0D01*
G01*
G37*
%TD.AperFunction*%
%TO.P,U1,5*%
%TO.N,Net-(Ren1-Pad1)*%
%TA.AperFunction,SMDPad,CuDef*%
G36*
G01*
X40785000Y-67450000D02*
X40485000Y-67450000D01*
G75*
G02*
X40335000Y-67300000I0J150000D01*
G01*
X40335000Y-65625000D01*
G75*
G02*
X40485000Y-65475000I150000J0D01*
G01*
X40785000Y-65475000D01*
G75*
G02*
X40935000Y-65625000I0J-150000D01*
G01*
X40935000Y-67300000D01*
G75*
G02*
X40785000Y-67450000I-150000J0D01*
G01*
G37*
%TD.AperFunction*%
%TO.P,U1,6*%
%TO.N,Net-(Q1-Pad3)*%
%TA.AperFunction,SMDPad,CuDef*%
G36*
G01*
X42055000Y-67450000D02*
X41755000Y-67450000D01*
G75*
G02*
X41605000Y-67300000I0J150000D01*
G01*
X41605000Y-65625000D01*
G75*
G02*
X41755000Y-65475000I150000J0D01*
G01*
X42055000Y-65475000D01*
G75*
G02*
X42205000Y-65625000I0J-150000D01*
G01*
X42205000Y-67300000D01*
G75*
G02*
X42055000Y-67450000I-150000J0D01*
G01*
G37*
%TD.AperFunction*%
%TO.P,U1,7*%
%TO.N,Net-(Q1-Pad1)*%
%TA.AperFunction,SMDPad,CuDef*%
G36*
G01*
X43325000Y-67450000D02*
X43025000Y-67450000D01*
G75*
G02*
X42875000Y-67300000I0J150000D01*
G01*
X42875000Y-65625000D01*
G75*
G02*
X43025000Y-65475000I150000J0D01*
G01*
X43325000Y-65475000D01*
G75*
G02*
X43475000Y-65625000I0J-150000D01*
G01*
X43475000Y-67300000D01*
G75*
G02*
X43325000Y-67450000I-150000J0D01*
G01*
G37*
%TD.AperFunction*%
%TO.P,U1,8*%
%TO.N,Net-(C4-Pad1)*%
%TA.AperFunction,SMDPad,CuDef*%
G36*
G01*
X44595000Y-67450000D02*
X44295000Y-67450000D01*
G75*
G02*
X44145000Y-67300000I0J150000D01*
G01*
X44145000Y-65625000D01*
G75*
G02*
X44295000Y-65475000I150000J0D01*
G01*
X44595000Y-65475000D01*
G75*
G02*
X44745000Y-65625000I0J-150000D01*
G01*
X44745000Y-67300000D01*
G75*
G02*
X44595000Y-67450000I-150000J0D01*
G01*
G37*
%TD.AperFunction*%
%TO.P,U1,9*%
%TO.N,VIN*%
%TA.AperFunction,SMDPad,CuDef*%
G36*
G01*
X44595000Y-60525000D02*
X44295000Y-60525000D01*
G75*
G02*
X44145000Y-60375000I0J150000D01*
G01*
X44145000Y-58700000D01*
G75*
G02*
X44295000Y-58550000I150000J0D01*
G01*
X44595000Y-58550000D01*
G75*
G02*
X44745000Y-58700000I0J-150000D01*
G01*
X44745000Y-60375000D01*
G75*
G02*
X44595000Y-60525000I-150000J0D01*
G01*
G37*
%TD.AperFunction*%
%TO.P,U1,10*%
%TO.N,Net-(C4-Pad1)*%
%TA.AperFunction,SMDPad,CuDef*%
G36*
G01*
X43325000Y-60525000D02*
X43025000Y-60525000D01*
G75*
G02*
X42875000Y-60375000I0J150000D01*
G01*
X42875000Y-58700000D01*
G75*
G02*
X43025000Y-58550000I150000J0D01*
G01*
X43325000Y-58550000D01*
G75*
G02*
X43475000Y-58700000I0J-150000D01*
G01*
X43475000Y-60375000D01*
G75*
G02*
X43325000Y-60525000I-150000J0D01*
G01*
G37*
%TD.AperFunction*%
%TO.P,U1,11*%
%TO.N,Net-(R2-Pad2)*%
%TA.AperFunction,SMDPad,CuDef*%
G36*
G01*
X42055000Y-60525000D02*
X41755000Y-60525000D01*
G75*
G02*
X41605000Y-60375000I0J150000D01*
G01*
X41605000Y-58700000D01*
G75*
G02*
X41755000Y-58550000I150000J0D01*
G01*
X42055000Y-58550000D01*
G75*
G02*
X42205000Y-58700000I0J-150000D01*
G01*
X42205000Y-60375000D01*
G75*
G02*
X42055000Y-60525000I-150000J0D01*
G01*
G37*
%TD.AperFunction*%
%TO.P,U1,12*%
%TO.N,Net-(Rpwm1-Pad1)*%
%TA.AperFunction,SMDPad,CuDef*%
G36*
G01*
X40785000Y-60525000D02*
X40485000Y-60525000D01*
G75*
G02*
X40335000Y-60375000I0J150000D01*
G01*
X40335000Y-58700000D01*
G75*
G02*
X40485000Y-58550000I150000J0D01*
G01*
X40785000Y-58550000D01*
G75*
G02*
X40935000Y-58700000I0J-150000D01*
G01*
X40935000Y-60375000D01*
G75*
G02*
X40785000Y-60525000I-150000J0D01*
G01*
G37*
%TD.AperFunction*%
%TO.P,U1,13*%
%TO.N,LS1-*%
%TA.AperFunction,SMDPad,CuDef*%
G36*
G01*
X39515000Y-60525000D02*
X39215000Y-60525000D01*
G75*
G02*
X39065000Y-60375000I0J150000D01*
G01*
X39065000Y-58700000D01*
G75*
G02*
X39215000Y-58550000I150000J0D01*
G01*
X39515000Y-58550000D01*
G75*
G02*
X39665000Y-58700000I0J-150000D01*
G01*
X39665000Y-60375000D01*
G75*
G02*
X39515000Y-60525000I-150000J0D01*
G01*
G37*
%TD.AperFunction*%
%TO.P,U1,14*%
%TO.N,LS2-*%
%TA.AperFunction,SMDPad,CuDef*%
G36*
G01*
X38245000Y-60525000D02*
X37945000Y-60525000D01*
G75*
G02*
X37795000Y-60375000I0J150000D01*
G01*
X37795000Y-58700000D01*
G75*
G02*
X37945000Y-58550000I150000J0D01*
G01*
X38245000Y-58550000D01*
G75*
G02*
X38395000Y-58700000I0J-150000D01*
G01*
X38395000Y-60375000D01*
G75*
G02*
X38245000Y-60525000I-150000J0D01*
G01*
G37*
%TD.AperFunction*%
%TO.P,U1,15*%
%TO.N,GND*%
%TA.AperFunction,SMDPad,CuDef*%
G36*
G01*
X36975000Y-60525000D02*
X36675000Y-60525000D01*
G75*
G02*
X36525000Y-60375000I0J150000D01*
G01*
X36525000Y-58700000D01*
G75*
G02*
X36675000Y-58550000I150000J0D01*
G01*
X36975000Y-58550000D01*
G75*
G02*
X37125000Y-58700000I0J-150000D01*
G01*
X37125000Y-60375000D01*
G75*
G02*
X36975000Y-60525000I-150000J0D01*
G01*
G37*
%TD.AperFunction*%
%TO.P,U1,16*%
%TO.N,LS3-*%
%TA.AperFunction,SMDPad,CuDef*%
G36*
G01*
X35705000Y-60525000D02*
X35405000Y-60525000D01*
G75*
G02*
X35255000Y-60375000I0J150000D01*
G01*
X35255000Y-58700000D01*
G75*
G02*
X35405000Y-58550000I150000J0D01*
G01*
X35705000Y-58550000D01*
G75*
G02*
X35855000Y-58700000I0J-150000D01*
G01*
X35855000Y-60375000D01*
G75*
G02*
X35705000Y-60525000I-150000J0D01*
G01*
G37*
%TD.AperFunction*%
%TD*%
D22*
%TO.N,VIN*%
X44445000Y-57755010D03*
X46500000Y-45000000D03*
X46500000Y-54500000D03*
%TO.N,GND*%
X36800000Y-60300000D03*
X36800000Y-59500000D03*
X36800000Y-58700000D03*
X48000000Y-55000000D03*
X48000000Y-54000000D03*
X48000000Y-53000000D03*
X48000000Y-52000000D03*
X50000000Y-52000000D03*
X50000000Y-53000000D03*
X50000000Y-54000000D03*
X50000000Y-55000000D03*
X49000000Y-55000000D03*
X49000000Y-54000000D03*
X49000000Y-53000000D03*
X49000000Y-52000000D03*
X42000000Y-29000000D03*
X41000000Y-29000000D03*
X41000000Y-28000000D03*
X40000000Y-28000000D03*
X40000000Y-29000000D03*
X42000000Y-28000000D03*
%TO.N,Net-(C4-Pad1)*%
X47000000Y-59000000D03*
%TO.N,LS2-*%
X36500000Y-64000000D03*
%TO.N,LS3-*%
X34500000Y-65500000D03*
X32000000Y-64500000D03*
%TO.N,LS4-*%
X34500000Y-67000000D03*
%TO.N,Net-(Q1-Pad1)*%
X35500000Y-49000000D03*
X28500000Y-50000000D03*
%TO.N,Net-(Q1-Pad3)*%
X34912500Y-52000000D03*
%TO.N,Net-(R1-Pad1)*%
X42900000Y-64000000D03*
%TO.N,Net-(R2-Pad2)*%
X41500000Y-57500000D03*
%TO.N,Net-(R4-Pad2)*%
X38875000Y-61900000D03*
%TO.N,Net-(Ren1-Pad1)*%
X40500000Y-68000000D03*
X39500000Y-71500000D03*
X26975000Y-42000000D03*
%TO.N,Net-(Riset1-Pad1)*%
X36825000Y-67825000D03*
%TO.N,Net-(Rpwm1-Pad1)*%
X40335000Y-55835000D03*
%TD*%
D23*
%TO.N,VIN*%
X35000000Y-36500000D02*
X35000000Y-31000000D01*
X34000000Y-37500000D02*
X35000000Y-36500000D01*
X32500000Y-39500000D02*
X34000000Y-38000000D01*
X35000000Y-31000000D02*
X34500000Y-30500000D01*
X34000000Y-38000000D02*
X34000000Y-37500000D01*
X31000000Y-39500000D02*
X32500000Y-39500000D01*
D24*
X44445000Y-59537500D02*
X44445000Y-57755010D01*
X46500000Y-45000000D02*
X46500000Y-54500000D01*
%TO.N,Net-(C4-Pad1)*%
X44445000Y-61727098D02*
X44445000Y-66462500D01*
X43175000Y-60457098D02*
X44445000Y-61727098D01*
X43175000Y-59537500D02*
X43175000Y-60457098D01*
X47000000Y-59000000D02*
X46000000Y-58000000D01*
X46000000Y-58000000D02*
X46000000Y-57000000D01*
X46000000Y-57000000D02*
X45500000Y-56500000D01*
X45500000Y-56500000D02*
X43500000Y-56500000D01*
X43175000Y-56825000D02*
X43175000Y-59537500D01*
X43500000Y-56500000D02*
X43175000Y-56825000D01*
D23*
%TO.N,Vout*%
X38000000Y-37000000D02*
X45000000Y-37000000D01*
X37000000Y-38000000D02*
X38000000Y-37000000D01*
X49000000Y-41000000D02*
X49000000Y-46400000D01*
X45000000Y-37000000D02*
X49000000Y-41000000D01*
X37000000Y-45000000D02*
X37000000Y-38000000D01*
X31000000Y-52500000D02*
X31000000Y-50500000D01*
X31000000Y-50500000D02*
X32000000Y-49500000D01*
X37000000Y-45000000D02*
X35000000Y-45000000D01*
X35000000Y-45000000D02*
X33500000Y-46500000D01*
D24*
X32999999Y-47000001D02*
X32999999Y-47499999D01*
X33500000Y-46500000D02*
X32999999Y-47000001D01*
X32999999Y-47499999D02*
X32500000Y-47999998D01*
X32500000Y-49000000D02*
X32000000Y-49500000D01*
X32500000Y-47999998D02*
X32500000Y-49000000D01*
D25*
%TO.N,LS1-*%
X32300001Y-53739999D02*
X31000000Y-55040000D01*
X32300001Y-53268983D02*
X32300001Y-53739999D01*
X35306007Y-51049991D02*
X34518993Y-51049991D01*
X36350001Y-52093985D02*
X35306007Y-51049991D01*
X34518993Y-51049991D02*
X32300001Y-53268983D01*
X36350001Y-55535001D02*
X36350001Y-52093985D01*
X39365000Y-58550000D02*
X36350001Y-55535001D01*
X39365000Y-59537500D02*
X39365000Y-58550000D01*
%TO.N,LS2-*%
X37795000Y-61861484D02*
X36500000Y-63156484D01*
X37795000Y-59837500D02*
X37795000Y-61861484D01*
X38095000Y-59537500D02*
X37795000Y-59837500D01*
X36500000Y-63156484D02*
X36500000Y-64000000D01*
%TO.N,LS3-*%
X35555000Y-59537500D02*
X35555000Y-64445000D01*
X35555000Y-64445000D02*
X34500000Y-65500000D01*
X32000000Y-64500000D02*
X30500000Y-64500000D01*
X30500000Y-64500000D02*
X29500000Y-63500000D01*
X29500000Y-61620000D02*
X31000000Y-60120000D01*
X29500000Y-63500000D02*
X29500000Y-61620000D01*
%TO.N,LS4-*%
X35555000Y-66462500D02*
X35037500Y-66462500D01*
X35037500Y-66462500D02*
X34500000Y-67000000D01*
D24*
%TO.N,Net-(Q1-Pad1)*%
X35220000Y-48720000D02*
X35500000Y-49000000D01*
X34800000Y-48720000D02*
X35220000Y-48720000D01*
X43175000Y-67382098D02*
X43175000Y-66462500D01*
X43175000Y-69175000D02*
X43175000Y-66462500D01*
X43000000Y-70000000D02*
X43500000Y-69500000D01*
X33000000Y-70000000D02*
X43000000Y-70000000D01*
X43500000Y-69500000D02*
X43175000Y-69175000D01*
X27500000Y-64500000D02*
X33000000Y-70000000D01*
X27500000Y-51000000D02*
X27500000Y-64500000D01*
X28500000Y-50000000D02*
X27500000Y-51000000D01*
%TO.N,Net-(Q1-Pad3)*%
X34800000Y-52112500D02*
X34912500Y-52000000D01*
X34800000Y-53280000D02*
X34800000Y-52112500D01*
D25*
X41905000Y-66462500D02*
X41905000Y-67028544D01*
X41905000Y-68405000D02*
X41905000Y-66462500D01*
X42000000Y-68500000D02*
X41905000Y-68405000D01*
X41500000Y-69000000D02*
X42000000Y-68500000D01*
X34500000Y-69000000D02*
X41500000Y-69000000D01*
X33500000Y-54580000D02*
X33500000Y-68000000D01*
X33500000Y-68000000D02*
X34500000Y-69000000D01*
X34800000Y-53280000D02*
X33500000Y-54580000D01*
D24*
%TO.N,Net-(R1-Pad1)*%
X39365000Y-66462500D02*
X39365000Y-64135000D01*
X39365000Y-64135000D02*
X39500000Y-64000000D01*
X39500000Y-64000000D02*
X42900000Y-64000000D01*
%TO.N,Net-(R2-Pad2)*%
X41905000Y-57905000D02*
X41905000Y-59537500D01*
X41500000Y-57500000D02*
X41905000Y-57905000D01*
%TO.N,Net-(R4-Pad2)*%
X38095000Y-66462500D02*
X38095000Y-62905000D01*
X38875000Y-62125000D02*
X38875000Y-61900000D01*
X38095000Y-62905000D02*
X38875000Y-62125000D01*
D25*
%TO.N,Net-(Ren1-Pad1)*%
X40635000Y-67865000D02*
X40500000Y-68000000D01*
X40635000Y-66462500D02*
X40635000Y-67865000D01*
X33156484Y-71500000D02*
X24500000Y-62843516D01*
X39500000Y-71500000D02*
X33156484Y-71500000D01*
X24500000Y-44475000D02*
X26975000Y-42000000D01*
X24500000Y-62843516D02*
X24500000Y-44475000D01*
D24*
%TO.N,Net-(Riset1-Pad1)*%
X36825000Y-66462500D02*
X36825000Y-67825000D01*
D25*
%TO.N,Net-(Rpwm1-Pad1)*%
X40335000Y-59237500D02*
X40335000Y-55835000D01*
X40635000Y-59537500D02*
X40335000Y-59237500D01*
%TD*%
D26*
%TO.N,VIN*%
G36*
X37873000Y-23000000D02*
G01*
X37875440Y-23024776D01*
X37879517Y-23040161D01*
X38873000Y-26020610D01*
X38873000Y-26862010D01*
X37885750Y-26865000D01*
X37727000Y-27023750D01*
X37727000Y-28173000D01*
X37747000Y-28173000D01*
X37747000Y-28427000D01*
X37727000Y-28427000D01*
X37727000Y-29576250D01*
X37885750Y-29735000D01*
X38873000Y-29737990D01*
X38873000Y-30000000D01*
X38875440Y-30024776D01*
X38882667Y-30048601D01*
X38894403Y-30070557D01*
X38910197Y-30089803D01*
X38929443Y-30105597D01*
X38951399Y-30117333D01*
X38975224Y-30124560D01*
X39000000Y-30127000D01*
X43873000Y-30127000D01*
X43873000Y-33873000D01*
X33183724Y-33873000D01*
X32900913Y-33787210D01*
X32675408Y-33765000D01*
X31127000Y-33765000D01*
X31127000Y-32700000D01*
X32961928Y-32700000D01*
X32974188Y-32824482D01*
X33010498Y-32944180D01*
X33069463Y-33054494D01*
X33148815Y-33151185D01*
X33245506Y-33230537D01*
X33355820Y-33289502D01*
X33475518Y-33325812D01*
X33600000Y-33338072D01*
X34214250Y-33335000D01*
X34373000Y-33176250D01*
X34373000Y-30627000D01*
X34627000Y-30627000D01*
X34627000Y-33176250D01*
X34785750Y-33335000D01*
X35400000Y-33338072D01*
X35524482Y-33325812D01*
X35644180Y-33289502D01*
X35754494Y-33230537D01*
X35851185Y-33151185D01*
X35930537Y-33054494D01*
X35989502Y-32944180D01*
X36002903Y-32900000D01*
X38961928Y-32900000D01*
X38974188Y-33024482D01*
X39010498Y-33144180D01*
X39069463Y-33254494D01*
X39148815Y-33351185D01*
X39245506Y-33430537D01*
X39355820Y-33489502D01*
X39475518Y-33525812D01*
X39600000Y-33538072D01*
X41114250Y-33535000D01*
X41273000Y-33376250D01*
X41273000Y-32127000D01*
X41527000Y-32127000D01*
X41527000Y-33376250D01*
X41685750Y-33535000D01*
X43200000Y-33538072D01*
X43324482Y-33525812D01*
X43444180Y-33489502D01*
X43554494Y-33430537D01*
X43651185Y-33351185D01*
X43730537Y-33254494D01*
X43789502Y-33144180D01*
X43825812Y-33024482D01*
X43838072Y-32900000D01*
X43835000Y-32285750D01*
X43676250Y-32127000D01*
X41527000Y-32127000D01*
X41273000Y-32127000D01*
X39123750Y-32127000D01*
X38965000Y-32285750D01*
X38961928Y-32900000D01*
X36002903Y-32900000D01*
X36025812Y-32824482D01*
X36038072Y-32700000D01*
X36035505Y-31100000D01*
X38961928Y-31100000D01*
X38965000Y-31714250D01*
X39123750Y-31873000D01*
X41273000Y-31873000D01*
X41273000Y-30623750D01*
X41527000Y-30623750D01*
X41527000Y-31873000D01*
X43676250Y-31873000D01*
X43835000Y-31714250D01*
X43838072Y-31100000D01*
X43825812Y-30975518D01*
X43789502Y-30855820D01*
X43730537Y-30745506D01*
X43651185Y-30648815D01*
X43554494Y-30569463D01*
X43444180Y-30510498D01*
X43324482Y-30474188D01*
X43200000Y-30461928D01*
X41685750Y-30465000D01*
X41527000Y-30623750D01*
X41273000Y-30623750D01*
X41114250Y-30465000D01*
X39600000Y-30461928D01*
X39475518Y-30474188D01*
X39355820Y-30510498D01*
X39245506Y-30569463D01*
X39148815Y-30648815D01*
X39069463Y-30745506D01*
X39010498Y-30855820D01*
X38974188Y-30975518D01*
X38961928Y-31100000D01*
X36035505Y-31100000D01*
X36035000Y-30785750D01*
X35876250Y-30627000D01*
X34627000Y-30627000D01*
X34373000Y-30627000D01*
X33123750Y-30627000D01*
X32965000Y-30785750D01*
X32961928Y-32700000D01*
X31127000Y-32700000D01*
X31127000Y-28300000D01*
X32961928Y-28300000D01*
X32965000Y-30214250D01*
X33123750Y-30373000D01*
X34373000Y-30373000D01*
X34373000Y-27823750D01*
X34627000Y-27823750D01*
X34627000Y-30373000D01*
X35876250Y-30373000D01*
X36035000Y-30214250D01*
X36035859Y-29678833D01*
X36055820Y-29689502D01*
X36175518Y-29725812D01*
X36300000Y-29738072D01*
X37314250Y-29735000D01*
X37473000Y-29576250D01*
X37473000Y-28427000D01*
X37453000Y-28427000D01*
X37453000Y-28173000D01*
X37473000Y-28173000D01*
X37473000Y-27023750D01*
X37314250Y-26865000D01*
X36300000Y-26861928D01*
X36175518Y-26874188D01*
X36055820Y-26910498D01*
X35945506Y-26969463D01*
X35848815Y-27048815D01*
X35769463Y-27145506D01*
X35710498Y-27255820D01*
X35674188Y-27375518D01*
X35661928Y-27500000D01*
X35663246Y-27720689D01*
X35644180Y-27710498D01*
X35524482Y-27674188D01*
X35400000Y-27661928D01*
X34785750Y-27665000D01*
X34627000Y-27823750D01*
X34373000Y-27823750D01*
X34214250Y-27665000D01*
X33600000Y-27661928D01*
X33475518Y-27674188D01*
X33355820Y-27710498D01*
X33245506Y-27769463D01*
X33148815Y-27848815D01*
X33069463Y-27945506D01*
X33010498Y-28055820D01*
X32974188Y-28175518D01*
X32961928Y-28300000D01*
X31127000Y-28300000D01*
X31127000Y-21500000D01*
X34161928Y-21500000D01*
X34174188Y-21624482D01*
X34210498Y-21744180D01*
X34269463Y-21854494D01*
X34348815Y-21951185D01*
X34445506Y-22030537D01*
X34555820Y-22089502D01*
X34675518Y-22125812D01*
X34800000Y-22138072D01*
X35514250Y-22135000D01*
X35673000Y-21976250D01*
X35673000Y-20627000D01*
X35927000Y-20627000D01*
X35927000Y-21976250D01*
X36085750Y-22135000D01*
X36800000Y-22138072D01*
X36924482Y-22125812D01*
X37044180Y-22089502D01*
X37154494Y-22030537D01*
X37251185Y-21951185D01*
X37330537Y-21854494D01*
X37389502Y-21744180D01*
X37425812Y-21624482D01*
X37438072Y-21500000D01*
X37435000Y-20785750D01*
X37276250Y-20627000D01*
X35927000Y-20627000D01*
X35673000Y-20627000D01*
X34323750Y-20627000D01*
X34165000Y-20785750D01*
X34161928Y-21500000D01*
X31127000Y-21500000D01*
X31127000Y-19500000D01*
X34161928Y-19500000D01*
X34165000Y-20214250D01*
X34323750Y-20373000D01*
X35673000Y-20373000D01*
X35673000Y-19023750D01*
X35927000Y-19023750D01*
X35927000Y-20373000D01*
X37276250Y-20373000D01*
X37435000Y-20214250D01*
X37438072Y-19500000D01*
X37425812Y-19375518D01*
X37389502Y-19255820D01*
X37330537Y-19145506D01*
X37251185Y-19048815D01*
X37154494Y-18969463D01*
X37044180Y-18910498D01*
X36924482Y-18874188D01*
X36800000Y-18861928D01*
X36085750Y-18865000D01*
X35927000Y-19023750D01*
X35673000Y-19023750D01*
X35514250Y-18865000D01*
X34800000Y-18861928D01*
X34675518Y-18874188D01*
X34555820Y-18910498D01*
X34445506Y-18969463D01*
X34348815Y-19048815D01*
X34269463Y-19145506D01*
X34210498Y-19255820D01*
X34174188Y-19375518D01*
X34161928Y-19500000D01*
X31127000Y-19500000D01*
X31127000Y-16127000D01*
X37873000Y-16127000D01*
X37873000Y-23000000D01*
G37*
X37873000Y-23000000D02*
X37875440Y-23024776D01*
X37879517Y-23040161D01*
X38873000Y-26020610D01*
X38873000Y-26862010D01*
X37885750Y-26865000D01*
X37727000Y-27023750D01*
X37727000Y-28173000D01*
X37747000Y-28173000D01*
X37747000Y-28427000D01*
X37727000Y-28427000D01*
X37727000Y-29576250D01*
X37885750Y-29735000D01*
X38873000Y-29737990D01*
X38873000Y-30000000D01*
X38875440Y-30024776D01*
X38882667Y-30048601D01*
X38894403Y-30070557D01*
X38910197Y-30089803D01*
X38929443Y-30105597D01*
X38951399Y-30117333D01*
X38975224Y-30124560D01*
X39000000Y-30127000D01*
X43873000Y-30127000D01*
X43873000Y-33873000D01*
X33183724Y-33873000D01*
X32900913Y-33787210D01*
X32675408Y-33765000D01*
X31127000Y-33765000D01*
X31127000Y-32700000D01*
X32961928Y-32700000D01*
X32974188Y-32824482D01*
X33010498Y-32944180D01*
X33069463Y-33054494D01*
X33148815Y-33151185D01*
X33245506Y-33230537D01*
X33355820Y-33289502D01*
X33475518Y-33325812D01*
X33600000Y-33338072D01*
X34214250Y-33335000D01*
X34373000Y-33176250D01*
X34373000Y-30627000D01*
X34627000Y-30627000D01*
X34627000Y-33176250D01*
X34785750Y-33335000D01*
X35400000Y-33338072D01*
X35524482Y-33325812D01*
X35644180Y-33289502D01*
X35754494Y-33230537D01*
X35851185Y-33151185D01*
X35930537Y-33054494D01*
X35989502Y-32944180D01*
X36002903Y-32900000D01*
X38961928Y-32900000D01*
X38974188Y-33024482D01*
X39010498Y-33144180D01*
X39069463Y-33254494D01*
X39148815Y-33351185D01*
X39245506Y-33430537D01*
X39355820Y-33489502D01*
X39475518Y-33525812D01*
X39600000Y-33538072D01*
X41114250Y-33535000D01*
X41273000Y-33376250D01*
X41273000Y-32127000D01*
X41527000Y-32127000D01*
X41527000Y-33376250D01*
X41685750Y-33535000D01*
X43200000Y-33538072D01*
X43324482Y-33525812D01*
X43444180Y-33489502D01*
X43554494Y-33430537D01*
X43651185Y-33351185D01*
X43730537Y-33254494D01*
X43789502Y-33144180D01*
X43825812Y-33024482D01*
X43838072Y-32900000D01*
X43835000Y-32285750D01*
X43676250Y-32127000D01*
X41527000Y-32127000D01*
X41273000Y-32127000D01*
X39123750Y-32127000D01*
X38965000Y-32285750D01*
X38961928Y-32900000D01*
X36002903Y-32900000D01*
X36025812Y-32824482D01*
X36038072Y-32700000D01*
X36035505Y-31100000D01*
X38961928Y-31100000D01*
X38965000Y-31714250D01*
X39123750Y-31873000D01*
X41273000Y-31873000D01*
X41273000Y-30623750D01*
X41527000Y-30623750D01*
X41527000Y-31873000D01*
X43676250Y-31873000D01*
X43835000Y-31714250D01*
X43838072Y-31100000D01*
X43825812Y-30975518D01*
X43789502Y-30855820D01*
X43730537Y-30745506D01*
X43651185Y-30648815D01*
X43554494Y-30569463D01*
X43444180Y-30510498D01*
X43324482Y-30474188D01*
X43200000Y-30461928D01*
X41685750Y-30465000D01*
X41527000Y-30623750D01*
X41273000Y-30623750D01*
X41114250Y-30465000D01*
X39600000Y-30461928D01*
X39475518Y-30474188D01*
X39355820Y-30510498D01*
X39245506Y-30569463D01*
X39148815Y-30648815D01*
X39069463Y-30745506D01*
X39010498Y-30855820D01*
X38974188Y-30975518D01*
X38961928Y-31100000D01*
X36035505Y-31100000D01*
X36035000Y-30785750D01*
X35876250Y-30627000D01*
X34627000Y-30627000D01*
X34373000Y-30627000D01*
X33123750Y-30627000D01*
X32965000Y-30785750D01*
X32961928Y-32700000D01*
X31127000Y-32700000D01*
X31127000Y-28300000D01*
X32961928Y-28300000D01*
X32965000Y-30214250D01*
X33123750Y-30373000D01*
X34373000Y-30373000D01*
X34373000Y-27823750D01*
X34627000Y-27823750D01*
X34627000Y-30373000D01*
X35876250Y-30373000D01*
X36035000Y-30214250D01*
X36035859Y-29678833D01*
X36055820Y-29689502D01*
X36175518Y-29725812D01*
X36300000Y-29738072D01*
X37314250Y-29735000D01*
X37473000Y-29576250D01*
X37473000Y-28427000D01*
X37453000Y-28427000D01*
X37453000Y-28173000D01*
X37473000Y-28173000D01*
X37473000Y-27023750D01*
X37314250Y-26865000D01*
X36300000Y-26861928D01*
X36175518Y-26874188D01*
X36055820Y-26910498D01*
X35945506Y-26969463D01*
X35848815Y-27048815D01*
X35769463Y-27145506D01*
X35710498Y-27255820D01*
X35674188Y-27375518D01*
X35661928Y-27500000D01*
X35663246Y-27720689D01*
X35644180Y-27710498D01*
X35524482Y-27674188D01*
X35400000Y-27661928D01*
X34785750Y-27665000D01*
X34627000Y-27823750D01*
X34373000Y-27823750D01*
X34214250Y-27665000D01*
X33600000Y-27661928D01*
X33475518Y-27674188D01*
X33355820Y-27710498D01*
X33245506Y-27769463D01*
X33148815Y-27848815D01*
X33069463Y-27945506D01*
X33010498Y-28055820D01*
X32974188Y-28175518D01*
X32961928Y-28300000D01*
X31127000Y-28300000D01*
X31127000Y-21500000D01*
X34161928Y-21500000D01*
X34174188Y-21624482D01*
X34210498Y-21744180D01*
X34269463Y-21854494D01*
X34348815Y-21951185D01*
X34445506Y-22030537D01*
X34555820Y-22089502D01*
X34675518Y-22125812D01*
X34800000Y-22138072D01*
X35514250Y-22135000D01*
X35673000Y-21976250D01*
X35673000Y-20627000D01*
X35927000Y-20627000D01*
X35927000Y-21976250D01*
X36085750Y-22135000D01*
X36800000Y-22138072D01*
X36924482Y-22125812D01*
X37044180Y-22089502D01*
X37154494Y-22030537D01*
X37251185Y-21951185D01*
X37330537Y-21854494D01*
X37389502Y-21744180D01*
X37425812Y-21624482D01*
X37438072Y-21500000D01*
X37435000Y-20785750D01*
X37276250Y-20627000D01*
X35927000Y-20627000D01*
X35673000Y-20627000D01*
X34323750Y-20627000D01*
X34165000Y-20785750D01*
X34161928Y-21500000D01*
X31127000Y-21500000D01*
X31127000Y-19500000D01*
X34161928Y-19500000D01*
X34165000Y-20214250D01*
X34323750Y-20373000D01*
X35673000Y-20373000D01*
X35673000Y-19023750D01*
X35927000Y-19023750D01*
X35927000Y-20373000D01*
X37276250Y-20373000D01*
X37435000Y-20214250D01*
X37438072Y-19500000D01*
X37425812Y-19375518D01*
X37389502Y-19255820D01*
X37330537Y-19145506D01*
X37251185Y-19048815D01*
X37154494Y-18969463D01*
X37044180Y-18910498D01*
X36924482Y-18874188D01*
X36800000Y-18861928D01*
X36085750Y-18865000D01*
X35927000Y-19023750D01*
X35673000Y-19023750D01*
X35514250Y-18865000D01*
X34800000Y-18861928D01*
X34675518Y-18874188D01*
X34555820Y-18910498D01*
X34445506Y-18969463D01*
X34348815Y-19048815D01*
X34269463Y-19145506D01*
X34210498Y-19255820D01*
X34174188Y-19375518D01*
X34161928Y-19500000D01*
X31127000Y-19500000D01*
X31127000Y-16127000D01*
X37873000Y-16127000D01*
X37873000Y-23000000D01*
%TO.N,Net-(D1-Pad2)*%
G36*
X44873000Y-40052606D02*
G01*
X44873000Y-47824947D01*
X44830537Y-47745506D01*
X44751185Y-47648815D01*
X44654494Y-47569463D01*
X44544180Y-47510498D01*
X44424482Y-47474188D01*
X44300000Y-47461928D01*
X41385750Y-47465000D01*
X41227000Y-47623750D01*
X41227000Y-50873000D01*
X41247000Y-50873000D01*
X41247000Y-51127000D01*
X41227000Y-51127000D01*
X41227000Y-54376250D01*
X41385750Y-54535000D01*
X44282341Y-54538053D01*
X43947394Y-54873000D01*
X40717112Y-54873000D01*
X40636898Y-54839774D01*
X40436939Y-54800000D01*
X40233061Y-54800000D01*
X40033102Y-54839774D01*
X39952888Y-54873000D01*
X38052606Y-54873000D01*
X37674894Y-54495288D01*
X37775518Y-54525812D01*
X37900000Y-54538072D01*
X40814250Y-54535000D01*
X40973000Y-54376250D01*
X40973000Y-51127000D01*
X37423750Y-51127000D01*
X37265000Y-51285750D01*
X37261928Y-53900000D01*
X37274188Y-54024482D01*
X37304712Y-54125106D01*
X37235001Y-54055395D01*
X37235001Y-52137450D01*
X37239282Y-52093984D01*
X37235001Y-52050518D01*
X37235001Y-52050508D01*
X37222196Y-51920495D01*
X37171590Y-51753672D01*
X37127000Y-51670249D01*
X37127000Y-48052606D01*
X37304712Y-47874894D01*
X37274188Y-47975518D01*
X37261928Y-48100000D01*
X37265000Y-50714250D01*
X37423750Y-50873000D01*
X40973000Y-50873000D01*
X40973000Y-47623750D01*
X40814250Y-47465000D01*
X37900000Y-47461928D01*
X37775518Y-47474188D01*
X37674894Y-47504712D01*
X38052606Y-47127000D01*
X39000000Y-47127000D01*
X39024776Y-47124560D01*
X39048601Y-47117333D01*
X39070557Y-47105597D01*
X39089803Y-47089803D01*
X39815076Y-46364530D01*
X39895506Y-46430537D01*
X40005820Y-46489502D01*
X40125518Y-46525812D01*
X40250000Y-46538072D01*
X41714250Y-46535000D01*
X41873000Y-46376250D01*
X41873000Y-45127000D01*
X42127000Y-45127000D01*
X42127000Y-46376250D01*
X42285750Y-46535000D01*
X43750000Y-46538072D01*
X43874482Y-46525812D01*
X43994180Y-46489502D01*
X44104494Y-46430537D01*
X44201185Y-46351185D01*
X44280537Y-46254494D01*
X44339502Y-46144180D01*
X44375812Y-46024482D01*
X44388072Y-45900000D01*
X44385000Y-45285750D01*
X44226250Y-45127000D01*
X42127000Y-45127000D01*
X41873000Y-45127000D01*
X41853000Y-45127000D01*
X41853000Y-44873000D01*
X41873000Y-44873000D01*
X41873000Y-43623750D01*
X42127000Y-43623750D01*
X42127000Y-44873000D01*
X44226250Y-44873000D01*
X44385000Y-44714250D01*
X44388072Y-44100000D01*
X44375812Y-43975518D01*
X44339502Y-43855820D01*
X44280537Y-43745506D01*
X44201185Y-43648815D01*
X44104494Y-43569463D01*
X43994180Y-43510498D01*
X43874482Y-43474188D01*
X43750000Y-43461928D01*
X42285750Y-43465000D01*
X42127000Y-43623750D01*
X41873000Y-43623750D01*
X41714250Y-43465000D01*
X40250000Y-43461928D01*
X40125518Y-43474188D01*
X40005820Y-43510498D01*
X39895506Y-43569463D01*
X39815076Y-43635470D01*
X39127000Y-42947394D01*
X39127000Y-42324603D01*
X39148815Y-42351185D01*
X39245506Y-42430537D01*
X39355820Y-42489502D01*
X39475518Y-42525812D01*
X39600000Y-42538072D01*
X41114250Y-42535000D01*
X41273000Y-42376250D01*
X41273000Y-41127000D01*
X41527000Y-41127000D01*
X41527000Y-42376250D01*
X41685750Y-42535000D01*
X43200000Y-42538072D01*
X43324482Y-42525812D01*
X43444180Y-42489502D01*
X43554494Y-42430537D01*
X43651185Y-42351185D01*
X43730537Y-42254494D01*
X43789502Y-42144180D01*
X43825812Y-42024482D01*
X43838072Y-41900000D01*
X43835000Y-41285750D01*
X43676250Y-41127000D01*
X41527000Y-41127000D01*
X41273000Y-41127000D01*
X41253000Y-41127000D01*
X41253000Y-40873000D01*
X41273000Y-40873000D01*
X41273000Y-39623750D01*
X41527000Y-39623750D01*
X41527000Y-40873000D01*
X43676250Y-40873000D01*
X43835000Y-40714250D01*
X43838072Y-40100000D01*
X43825812Y-39975518D01*
X43789502Y-39855820D01*
X43730537Y-39745506D01*
X43651185Y-39648815D01*
X43554494Y-39569463D01*
X43444180Y-39510498D01*
X43324482Y-39474188D01*
X43200000Y-39461928D01*
X41685750Y-39465000D01*
X41527000Y-39623750D01*
X41273000Y-39623750D01*
X41114250Y-39465000D01*
X39600000Y-39461928D01*
X39475518Y-39474188D01*
X39355820Y-39510498D01*
X39245506Y-39569463D01*
X39148815Y-39648815D01*
X39127000Y-39675397D01*
X39127000Y-39127000D01*
X43947394Y-39127000D01*
X44873000Y-40052606D01*
G37*
X44873000Y-40052606D02*
X44873000Y-47824947D01*
X44830537Y-47745506D01*
X44751185Y-47648815D01*
X44654494Y-47569463D01*
X44544180Y-47510498D01*
X44424482Y-47474188D01*
X44300000Y-47461928D01*
X41385750Y-47465000D01*
X41227000Y-47623750D01*
X41227000Y-50873000D01*
X41247000Y-50873000D01*
X41247000Y-51127000D01*
X41227000Y-51127000D01*
X41227000Y-54376250D01*
X41385750Y-54535000D01*
X44282341Y-54538053D01*
X43947394Y-54873000D01*
X40717112Y-54873000D01*
X40636898Y-54839774D01*
X40436939Y-54800000D01*
X40233061Y-54800000D01*
X40033102Y-54839774D01*
X39952888Y-54873000D01*
X38052606Y-54873000D01*
X37674894Y-54495288D01*
X37775518Y-54525812D01*
X37900000Y-54538072D01*
X40814250Y-54535000D01*
X40973000Y-54376250D01*
X40973000Y-51127000D01*
X37423750Y-51127000D01*
X37265000Y-51285750D01*
X37261928Y-53900000D01*
X37274188Y-54024482D01*
X37304712Y-54125106D01*
X37235001Y-54055395D01*
X37235001Y-52137450D01*
X37239282Y-52093984D01*
X37235001Y-52050518D01*
X37235001Y-52050508D01*
X37222196Y-51920495D01*
X37171590Y-51753672D01*
X37127000Y-51670249D01*
X37127000Y-48052606D01*
X37304712Y-47874894D01*
X37274188Y-47975518D01*
X37261928Y-48100000D01*
X37265000Y-50714250D01*
X37423750Y-50873000D01*
X40973000Y-50873000D01*
X40973000Y-47623750D01*
X40814250Y-47465000D01*
X37900000Y-47461928D01*
X37775518Y-47474188D01*
X37674894Y-47504712D01*
X38052606Y-47127000D01*
X39000000Y-47127000D01*
X39024776Y-47124560D01*
X39048601Y-47117333D01*
X39070557Y-47105597D01*
X39089803Y-47089803D01*
X39815076Y-46364530D01*
X39895506Y-46430537D01*
X40005820Y-46489502D01*
X40125518Y-46525812D01*
X40250000Y-46538072D01*
X41714250Y-46535000D01*
X41873000Y-46376250D01*
X41873000Y-45127000D01*
X42127000Y-45127000D01*
X42127000Y-46376250D01*
X42285750Y-46535000D01*
X43750000Y-46538072D01*
X43874482Y-46525812D01*
X43994180Y-46489502D01*
X44104494Y-46430537D01*
X44201185Y-46351185D01*
X44280537Y-46254494D01*
X44339502Y-46144180D01*
X44375812Y-46024482D01*
X44388072Y-45900000D01*
X44385000Y-45285750D01*
X44226250Y-45127000D01*
X42127000Y-45127000D01*
X41873000Y-45127000D01*
X41853000Y-45127000D01*
X41853000Y-44873000D01*
X41873000Y-44873000D01*
X41873000Y-43623750D01*
X42127000Y-43623750D01*
X42127000Y-44873000D01*
X44226250Y-44873000D01*
X44385000Y-44714250D01*
X44388072Y-44100000D01*
X44375812Y-43975518D01*
X44339502Y-43855820D01*
X44280537Y-43745506D01*
X44201185Y-43648815D01*
X44104494Y-43569463D01*
X43994180Y-43510498D01*
X43874482Y-43474188D01*
X43750000Y-43461928D01*
X42285750Y-43465000D01*
X42127000Y-43623750D01*
X41873000Y-43623750D01*
X41714250Y-43465000D01*
X40250000Y-43461928D01*
X40125518Y-43474188D01*
X40005820Y-43510498D01*
X39895506Y-43569463D01*
X39815076Y-43635470D01*
X39127000Y-42947394D01*
X39127000Y-42324603D01*
X39148815Y-42351185D01*
X39245506Y-42430537D01*
X39355820Y-42489502D01*
X39475518Y-42525812D01*
X39600000Y-42538072D01*
X41114250Y-42535000D01*
X41273000Y-42376250D01*
X41273000Y-41127000D01*
X41527000Y-41127000D01*
X41527000Y-42376250D01*
X41685750Y-42535000D01*
X43200000Y-42538072D01*
X43324482Y-42525812D01*
X43444180Y-42489502D01*
X43554494Y-42430537D01*
X43651185Y-42351185D01*
X43730537Y-42254494D01*
X43789502Y-42144180D01*
X43825812Y-42024482D01*
X43838072Y-41900000D01*
X43835000Y-41285750D01*
X43676250Y-41127000D01*
X41527000Y-41127000D01*
X41273000Y-41127000D01*
X41253000Y-41127000D01*
X41253000Y-40873000D01*
X41273000Y-40873000D01*
X41273000Y-39623750D01*
X41527000Y-39623750D01*
X41527000Y-40873000D01*
X43676250Y-40873000D01*
X43835000Y-40714250D01*
X43838072Y-40100000D01*
X43825812Y-39975518D01*
X43789502Y-39855820D01*
X43730537Y-39745506D01*
X43651185Y-39648815D01*
X43554494Y-39569463D01*
X43444180Y-39510498D01*
X43324482Y-39474188D01*
X43200000Y-39461928D01*
X41685750Y-39465000D01*
X41527000Y-39623750D01*
X41273000Y-39623750D01*
X41114250Y-39465000D01*
X39600000Y-39461928D01*
X39475518Y-39474188D01*
X39355820Y-39510498D01*
X39245506Y-39569463D01*
X39148815Y-39648815D01*
X39127000Y-39675397D01*
X39127000Y-39127000D01*
X43947394Y-39127000D01*
X44873000Y-40052606D01*
%TD*%
M02*
