%TF.GenerationSoftware,KiCad,Pcbnew,(5.1.6-0-10_14)*%
%TF.CreationDate,2021-01-02T16:58:20+01:00*%
%TF.ProjectId,driver-v2,64726976-6572-42d7-9632-2e6b69636164,rev?*%
%TF.SameCoordinates,Original*%
%TF.FileFunction,Legend,Top*%
%TF.FilePolarity,Positive*%
%FSLAX46Y46*%
G04 Gerber Fmt 4.6, Leading zero omitted, Abs format (unit mm)*
G04 Created by KiCad (PCBNEW (5.1.6-0-10_14)) date 2021-01-02 16:58:20*
%MOMM*%
%LPD*%
G01*
G04 APERTURE LIST*
%ADD10C,0.300000*%
%ADD11C,0.120000*%
%ADD12C,0.150000*%
G04 APERTURE END LIST*
D10*
X52596428Y-24428571D02*
X54096428Y-24428571D01*
X54096428Y-24785714D01*
X54025000Y-25000000D01*
X53882142Y-25142857D01*
X53739285Y-25214285D01*
X53453571Y-25285714D01*
X53239285Y-25285714D01*
X52953571Y-25214285D01*
X52810714Y-25142857D01*
X52667857Y-25000000D01*
X52596428Y-24785714D01*
X52596428Y-24428571D01*
X52596428Y-26642857D02*
X52596428Y-25928571D01*
X54096428Y-25928571D01*
X52596428Y-27857142D02*
X52596428Y-27142857D01*
X54096428Y-27142857D01*
X52596428Y-30142857D02*
X54096428Y-30142857D01*
X52667857Y-30142857D02*
X52596428Y-30000000D01*
X52596428Y-29714285D01*
X52667857Y-29571428D01*
X52739285Y-29500000D01*
X52882142Y-29428571D01*
X53310714Y-29428571D01*
X53453571Y-29500000D01*
X53525000Y-29571428D01*
X53596428Y-29714285D01*
X53596428Y-30000000D01*
X53525000Y-30142857D01*
X52596428Y-30857142D02*
X53596428Y-30857142D01*
X53310714Y-30857142D02*
X53453571Y-30928571D01*
X53525000Y-31000000D01*
X53596428Y-31142857D01*
X53596428Y-31285714D01*
X52596428Y-31785714D02*
X53596428Y-31785714D01*
X54096428Y-31785714D02*
X54025000Y-31714285D01*
X53953571Y-31785714D01*
X54025000Y-31857142D01*
X54096428Y-31785714D01*
X53953571Y-31785714D01*
X53596428Y-32357142D02*
X52596428Y-32714285D01*
X53596428Y-33071428D01*
X52667857Y-34214285D02*
X52596428Y-34071428D01*
X52596428Y-33785714D01*
X52667857Y-33642857D01*
X52810714Y-33571428D01*
X53382142Y-33571428D01*
X53525000Y-33642857D01*
X53596428Y-33785714D01*
X53596428Y-34071428D01*
X53525000Y-34214285D01*
X53382142Y-34285714D01*
X53239285Y-34285714D01*
X53096428Y-33571428D01*
X52596428Y-34928571D02*
X53596428Y-34928571D01*
X53310714Y-34928571D02*
X53453571Y-35000000D01*
X53525000Y-35071428D01*
X53596428Y-35214285D01*
X53596428Y-35357142D01*
X53167857Y-35857142D02*
X53167857Y-37000000D01*
X53596428Y-37571428D02*
X52596428Y-37928571D01*
X53596428Y-38285714D01*
X53953571Y-38785714D02*
X54025000Y-38857142D01*
X54096428Y-39000000D01*
X54096428Y-39357142D01*
X54025000Y-39500000D01*
X53953571Y-39571428D01*
X53810714Y-39642857D01*
X53667857Y-39642857D01*
X53453571Y-39571428D01*
X52596428Y-38714285D01*
X52596428Y-39642857D01*
X50046428Y-26571428D02*
X50046428Y-25714285D01*
X50046428Y-26142857D02*
X51546428Y-26142857D01*
X51332142Y-26000000D01*
X51189285Y-25857142D01*
X51117857Y-25714285D01*
X49903571Y-26857142D02*
X49903571Y-28000000D01*
X51403571Y-28285714D02*
X51475000Y-28357142D01*
X51546428Y-28500000D01*
X51546428Y-28857142D01*
X51475000Y-29000000D01*
X51403571Y-29071428D01*
X51260714Y-29142857D01*
X51117857Y-29142857D01*
X50903571Y-29071428D01*
X50046428Y-28214285D01*
X50046428Y-29142857D01*
X51046428Y-30714285D02*
X51046428Y-31285714D01*
X50046428Y-30928571D02*
X51332142Y-30928571D01*
X51475000Y-30999999D01*
X51546428Y-31142857D01*
X51546428Y-31285714D01*
X50046428Y-31785714D02*
X51546428Y-31785714D01*
X50046428Y-32428571D02*
X50832142Y-32428571D01*
X50975000Y-32357142D01*
X51046428Y-32214285D01*
X51046428Y-32000000D01*
X50975000Y-31857142D01*
X50903571Y-31785714D01*
X50046428Y-33785714D02*
X50832142Y-33785714D01*
X50975000Y-33714285D01*
X51046428Y-33571428D01*
X51046428Y-33285714D01*
X50975000Y-33142857D01*
X50117857Y-33785714D02*
X50046428Y-33642857D01*
X50046428Y-33285714D01*
X50117857Y-33142857D01*
X50260714Y-33071428D01*
X50403571Y-33071428D01*
X50546428Y-33142857D01*
X50617857Y-33285714D01*
X50617857Y-33642857D01*
X50689285Y-33785714D01*
X50046428Y-34499999D02*
X51046428Y-34499999D01*
X50760714Y-34499999D02*
X50903571Y-34571428D01*
X50975000Y-34642857D01*
X51046428Y-34785714D01*
X51046428Y-34928571D01*
X50046428Y-35642857D02*
X50117857Y-35500000D01*
X50189285Y-35428571D01*
X50332142Y-35357142D01*
X50760714Y-35357142D01*
X50903571Y-35428571D01*
X50975000Y-35500000D01*
X51046428Y-35642857D01*
X51046428Y-35857142D01*
X50975000Y-36000000D01*
X50903571Y-36071428D01*
X50760714Y-36142857D01*
X50332142Y-36142857D01*
X50189285Y-36071428D01*
X50117857Y-36000000D01*
X50046428Y-35857142D01*
X50046428Y-35642857D01*
X50046428Y-36999999D02*
X50117857Y-36857142D01*
X50260714Y-36785714D01*
X51546428Y-36785714D01*
X50046428Y-38214285D02*
X51546428Y-38214285D01*
X50117857Y-38214285D02*
X50046428Y-38071428D01*
X50046428Y-37785714D01*
X50117857Y-37642857D01*
X50189285Y-37571428D01*
X50332142Y-37499999D01*
X50760714Y-37499999D01*
X50903571Y-37571428D01*
X50975000Y-37642857D01*
X51046428Y-37785714D01*
X51046428Y-38071428D01*
X50975000Y-38214285D01*
D11*
%TO.C,C1*%
X33320354Y-17125000D02*
X33320354Y-18125000D01*
X32820354Y-17625000D02*
X33820354Y-17625000D01*
X43381000Y-19901000D02*
X43381000Y-21099000D01*
X43341000Y-19638000D02*
X43341000Y-21362000D01*
X43301000Y-19438000D02*
X43301000Y-21562000D01*
X43261000Y-19270000D02*
X43261000Y-21730000D01*
X43221000Y-19122000D02*
X43221000Y-21878000D01*
X43181000Y-18990000D02*
X43181000Y-22010000D01*
X43141000Y-18870000D02*
X43141000Y-22130000D01*
X43101000Y-18758000D02*
X43101000Y-22242000D01*
X43061000Y-18654000D02*
X43061000Y-22346000D01*
X43021000Y-18556000D02*
X43021000Y-22444000D01*
X42981000Y-18463000D02*
X42981000Y-22537000D01*
X42941000Y-18375000D02*
X42941000Y-22625000D01*
X42901000Y-18291000D02*
X42901000Y-22709000D01*
X42861000Y-18211000D02*
X42861000Y-22789000D01*
X42821000Y-18135000D02*
X42821000Y-22865000D01*
X42781000Y-18061000D02*
X42781000Y-22939000D01*
X42741000Y-17990000D02*
X42741000Y-23010000D01*
X42701000Y-17921000D02*
X42701000Y-23079000D01*
X42661000Y-17855000D02*
X42661000Y-23145000D01*
X42621000Y-17791000D02*
X42621000Y-23209000D01*
X42581000Y-17730000D02*
X42581000Y-23270000D01*
X42541000Y-17670000D02*
X42541000Y-23330000D01*
X42501000Y-17611000D02*
X42501000Y-23389000D01*
X42461000Y-17555000D02*
X42461000Y-23445000D01*
X42421000Y-17500000D02*
X42421000Y-23500000D01*
X42381000Y-17446000D02*
X42381000Y-23554000D01*
X42341000Y-17394000D02*
X42341000Y-23606000D01*
X42301000Y-17344000D02*
X42301000Y-23656000D01*
X42261000Y-17294000D02*
X42261000Y-23706000D01*
X42221000Y-17246000D02*
X42221000Y-23754000D01*
X42181000Y-17199000D02*
X42181000Y-23801000D01*
X42141000Y-17153000D02*
X42141000Y-23847000D01*
X42101000Y-17108000D02*
X42101000Y-23892000D01*
X42061000Y-17064000D02*
X42061000Y-23936000D01*
X42021000Y-21741000D02*
X42021000Y-23978000D01*
X42021000Y-17022000D02*
X42021000Y-19259000D01*
X41981000Y-21741000D02*
X41981000Y-24020000D01*
X41981000Y-16980000D02*
X41981000Y-19259000D01*
X41941000Y-21741000D02*
X41941000Y-24061000D01*
X41941000Y-16939000D02*
X41941000Y-19259000D01*
X41901000Y-21741000D02*
X41901000Y-24101000D01*
X41901000Y-16899000D02*
X41901000Y-19259000D01*
X41861000Y-21741000D02*
X41861000Y-24140000D01*
X41861000Y-16860000D02*
X41861000Y-19259000D01*
X41821000Y-21741000D02*
X41821000Y-24179000D01*
X41821000Y-16821000D02*
X41821000Y-19259000D01*
X41781000Y-21741000D02*
X41781000Y-24216000D01*
X41781000Y-16784000D02*
X41781000Y-19259000D01*
X41741000Y-21741000D02*
X41741000Y-24253000D01*
X41741000Y-16747000D02*
X41741000Y-19259000D01*
X41701000Y-21741000D02*
X41701000Y-24289000D01*
X41701000Y-16711000D02*
X41701000Y-19259000D01*
X41661000Y-21741000D02*
X41661000Y-24324000D01*
X41661000Y-16676000D02*
X41661000Y-19259000D01*
X41621000Y-21741000D02*
X41621000Y-24358000D01*
X41621000Y-16642000D02*
X41621000Y-19259000D01*
X41581000Y-21741000D02*
X41581000Y-24392000D01*
X41581000Y-16608000D02*
X41581000Y-19259000D01*
X41541000Y-21741000D02*
X41541000Y-24425000D01*
X41541000Y-16575000D02*
X41541000Y-19259000D01*
X41501000Y-21741000D02*
X41501000Y-24457000D01*
X41501000Y-16543000D02*
X41501000Y-19259000D01*
X41461000Y-21741000D02*
X41461000Y-24489000D01*
X41461000Y-16511000D02*
X41461000Y-19259000D01*
X41421000Y-21741000D02*
X41421000Y-24520000D01*
X41421000Y-16480000D02*
X41421000Y-19259000D01*
X41381000Y-21741000D02*
X41381000Y-24550000D01*
X41381000Y-16450000D02*
X41381000Y-19259000D01*
X41341000Y-21741000D02*
X41341000Y-24580000D01*
X41341000Y-16420000D02*
X41341000Y-19259000D01*
X41301000Y-21741000D02*
X41301000Y-24610000D01*
X41301000Y-16390000D02*
X41301000Y-19259000D01*
X41261000Y-21741000D02*
X41261000Y-24638000D01*
X41261000Y-16362000D02*
X41261000Y-19259000D01*
X41221000Y-21741000D02*
X41221000Y-24666000D01*
X41221000Y-16334000D02*
X41221000Y-19259000D01*
X41181000Y-21741000D02*
X41181000Y-24694000D01*
X41181000Y-16306000D02*
X41181000Y-19259000D01*
X41141000Y-21741000D02*
X41141000Y-24721000D01*
X41141000Y-16279000D02*
X41141000Y-19259000D01*
X41101000Y-21741000D02*
X41101000Y-24747000D01*
X41101000Y-16253000D02*
X41101000Y-19259000D01*
X41061000Y-21741000D02*
X41061000Y-24773000D01*
X41061000Y-16227000D02*
X41061000Y-19259000D01*
X41021000Y-21741000D02*
X41021000Y-24798000D01*
X41021000Y-16202000D02*
X41021000Y-19259000D01*
X40981000Y-21741000D02*
X40981000Y-24823000D01*
X40981000Y-16177000D02*
X40981000Y-19259000D01*
X40941000Y-21741000D02*
X40941000Y-24847000D01*
X40941000Y-16153000D02*
X40941000Y-19259000D01*
X40901000Y-21741000D02*
X40901000Y-24871000D01*
X40901000Y-16129000D02*
X40901000Y-19259000D01*
X40861000Y-21741000D02*
X40861000Y-24895000D01*
X40861000Y-16105000D02*
X40861000Y-19259000D01*
X40821000Y-21741000D02*
X40821000Y-24917000D01*
X40821000Y-16083000D02*
X40821000Y-19259000D01*
X40781000Y-21741000D02*
X40781000Y-24940000D01*
X40781000Y-16060000D02*
X40781000Y-19259000D01*
X40741000Y-21741000D02*
X40741000Y-24962000D01*
X40741000Y-16038000D02*
X40741000Y-19259000D01*
X40701000Y-21741000D02*
X40701000Y-24983000D01*
X40701000Y-16017000D02*
X40701000Y-19259000D01*
X40661000Y-21741000D02*
X40661000Y-25004000D01*
X40661000Y-15996000D02*
X40661000Y-19259000D01*
X40621000Y-21741000D02*
X40621000Y-25025000D01*
X40621000Y-15975000D02*
X40621000Y-19259000D01*
X40581000Y-21741000D02*
X40581000Y-25045000D01*
X40581000Y-15955000D02*
X40581000Y-19259000D01*
X40541000Y-21741000D02*
X40541000Y-25064000D01*
X40541000Y-15936000D02*
X40541000Y-19259000D01*
X40501000Y-21741000D02*
X40501000Y-25084000D01*
X40501000Y-15916000D02*
X40501000Y-19259000D01*
X40461000Y-21741000D02*
X40461000Y-25103000D01*
X40461000Y-15897000D02*
X40461000Y-19259000D01*
X40421000Y-21741000D02*
X40421000Y-25121000D01*
X40421000Y-15879000D02*
X40421000Y-19259000D01*
X40381000Y-21741000D02*
X40381000Y-25139000D01*
X40381000Y-15861000D02*
X40381000Y-19259000D01*
X40341000Y-21741000D02*
X40341000Y-25157000D01*
X40341000Y-15843000D02*
X40341000Y-19259000D01*
X40301000Y-21741000D02*
X40301000Y-25174000D01*
X40301000Y-15826000D02*
X40301000Y-19259000D01*
X40261000Y-21741000D02*
X40261000Y-25190000D01*
X40261000Y-15810000D02*
X40261000Y-19259000D01*
X40221000Y-21741000D02*
X40221000Y-25207000D01*
X40221000Y-15793000D02*
X40221000Y-19259000D01*
X40181000Y-21741000D02*
X40181000Y-25223000D01*
X40181000Y-15777000D02*
X40181000Y-19259000D01*
X40141000Y-21741000D02*
X40141000Y-25238000D01*
X40141000Y-15762000D02*
X40141000Y-19259000D01*
X40101000Y-21741000D02*
X40101000Y-25254000D01*
X40101000Y-15746000D02*
X40101000Y-19259000D01*
X40061000Y-21741000D02*
X40061000Y-25268000D01*
X40061000Y-15732000D02*
X40061000Y-19259000D01*
X40021000Y-21741000D02*
X40021000Y-25283000D01*
X40021000Y-15717000D02*
X40021000Y-19259000D01*
X39981000Y-21741000D02*
X39981000Y-25297000D01*
X39981000Y-15703000D02*
X39981000Y-19259000D01*
X39941000Y-21741000D02*
X39941000Y-25311000D01*
X39941000Y-15689000D02*
X39941000Y-19259000D01*
X39901000Y-21741000D02*
X39901000Y-25324000D01*
X39901000Y-15676000D02*
X39901000Y-19259000D01*
X39861000Y-21741000D02*
X39861000Y-25337000D01*
X39861000Y-15663000D02*
X39861000Y-19259000D01*
X39821000Y-21741000D02*
X39821000Y-25350000D01*
X39821000Y-15650000D02*
X39821000Y-19259000D01*
X39781000Y-21741000D02*
X39781000Y-25362000D01*
X39781000Y-15638000D02*
X39781000Y-19259000D01*
X39741000Y-21741000D02*
X39741000Y-25374000D01*
X39741000Y-15626000D02*
X39741000Y-19259000D01*
X39701000Y-21741000D02*
X39701000Y-25385000D01*
X39701000Y-15615000D02*
X39701000Y-19259000D01*
X39661000Y-21741000D02*
X39661000Y-25397000D01*
X39661000Y-15603000D02*
X39661000Y-19259000D01*
X39621000Y-21741000D02*
X39621000Y-25407000D01*
X39621000Y-15593000D02*
X39621000Y-19259000D01*
X39581000Y-21741000D02*
X39581000Y-25418000D01*
X39581000Y-15582000D02*
X39581000Y-19259000D01*
X39541000Y-15572000D02*
X39541000Y-25428000D01*
X39501000Y-15562000D02*
X39501000Y-25438000D01*
X39461000Y-15553000D02*
X39461000Y-25447000D01*
X39421000Y-15544000D02*
X39421000Y-25456000D01*
X39381000Y-15535000D02*
X39381000Y-25465000D01*
X39341000Y-15526000D02*
X39341000Y-25474000D01*
X39301000Y-15518000D02*
X39301000Y-25482000D01*
X39261000Y-15510000D02*
X39261000Y-25490000D01*
X39221000Y-15503000D02*
X39221000Y-25497000D01*
X39181000Y-15496000D02*
X39181000Y-25504000D01*
X39141000Y-15489000D02*
X39141000Y-25511000D01*
X39101000Y-15482000D02*
X39101000Y-25518000D01*
X39061000Y-15476000D02*
X39061000Y-25524000D01*
X39021000Y-15470000D02*
X39021000Y-25530000D01*
X38980000Y-15465000D02*
X38980000Y-25535000D01*
X38940000Y-15460000D02*
X38940000Y-25540000D01*
X38900000Y-15455000D02*
X38900000Y-25545000D01*
X38860000Y-15450000D02*
X38860000Y-25550000D01*
X38820000Y-15446000D02*
X38820000Y-25554000D01*
X38780000Y-15442000D02*
X38780000Y-25558000D01*
X38740000Y-15438000D02*
X38740000Y-25562000D01*
X38700000Y-15435000D02*
X38700000Y-25565000D01*
X38660000Y-15432000D02*
X38660000Y-25568000D01*
X38620000Y-15430000D02*
X38620000Y-25570000D01*
X38580000Y-15427000D02*
X38580000Y-25573000D01*
X38540000Y-15425000D02*
X38540000Y-25575000D01*
X38500000Y-15423000D02*
X38500000Y-25577000D01*
X38460000Y-15422000D02*
X38460000Y-25578000D01*
X38420000Y-15421000D02*
X38420000Y-25579000D01*
X38380000Y-15420000D02*
X38380000Y-25580000D01*
X38340000Y-15420000D02*
X38340000Y-25580000D01*
X38300000Y-15420000D02*
X38300000Y-25580000D01*
X43420000Y-20500000D02*
G75*
G03*
X43420000Y-20500000I-5120000J0D01*
G01*
%TO.C,C3*%
X36650000Y-26490000D02*
X36650000Y-26990000D01*
X36400000Y-26740000D02*
X36900000Y-26740000D01*
X37140000Y-29495563D02*
X38204437Y-30560000D01*
X37140000Y-27104437D02*
X38204437Y-26040000D01*
X37140000Y-27104437D02*
X37140000Y-27240000D01*
X37140000Y-29495563D02*
X37140000Y-29360000D01*
X38204437Y-30560000D02*
X41660000Y-30560000D01*
X38204437Y-26040000D02*
X41660000Y-26040000D01*
X41660000Y-26040000D02*
X41660000Y-27240000D01*
X41660000Y-30560000D02*
X41660000Y-29360000D01*
%TO.C,C6*%
X44740000Y-54260000D02*
X47690000Y-54260000D01*
X53260000Y-54260000D02*
X50310000Y-54260000D01*
X53260000Y-46804437D02*
X53260000Y-54260000D01*
X44740000Y-46804437D02*
X44740000Y-54260000D01*
X45804437Y-45740000D02*
X47690000Y-45740000D01*
X52195563Y-45740000D02*
X50310000Y-45740000D01*
X52195563Y-45740000D02*
X53260000Y-46804437D01*
X45804437Y-45740000D02*
X44740000Y-46804437D01*
%TO.C,D1*%
X35100000Y-43350000D02*
X42000000Y-43350000D01*
X35100000Y-46650000D02*
X42000000Y-46650000D01*
X35100000Y-43350000D02*
X35100000Y-46650000D01*
%TO.C,J1*%
X35500000Y-25900000D02*
X35500000Y-28000000D01*
X35800000Y-25600000D02*
X34200000Y-25600000D01*
X35800000Y-27300000D02*
X35800000Y-25600000D01*
X35500000Y-35100000D02*
X33700000Y-35100000D01*
X35500000Y-33000000D02*
X35500000Y-35100000D01*
X20800000Y-25900000D02*
X35500000Y-25900000D01*
X20800000Y-35100000D02*
X20800000Y-25900000D01*
X29300000Y-35100000D02*
X20800000Y-35100000D01*
%TO.C,L1*%
X46600000Y-38300000D02*
X43400000Y-41500000D01*
X36200000Y-38300000D02*
X39400000Y-41500000D01*
X36200000Y-38300000D02*
X36200000Y-34700000D01*
X36200000Y-34700000D02*
X39400000Y-31500000D01*
X46600000Y-34700000D02*
X46600000Y-38300000D01*
X46600000Y-34700000D02*
X43400000Y-31500000D01*
%TO.C,LS1*%
X31000000Y-51170000D02*
X32110000Y-51170000D01*
X32110000Y-51170000D02*
X32110000Y-52500000D01*
X20910000Y-51170000D02*
X20910000Y-63990000D01*
X20910000Y-63990000D02*
X29540000Y-63990000D01*
X29540000Y-51170000D02*
X29540000Y-63990000D01*
X20910000Y-51170000D02*
X29540000Y-51170000D01*
X20910000Y-61390000D02*
X29540000Y-61390000D01*
X20910000Y-58850000D02*
X29540000Y-58850000D01*
X20910000Y-56310000D02*
X29540000Y-56310000D01*
X20910000Y-53770000D02*
X29540000Y-53770000D01*
X29540000Y-63020000D02*
X29950000Y-63020000D01*
X29540000Y-62300000D02*
X29950000Y-62300000D01*
X29540000Y-60480000D02*
X29950000Y-60480000D01*
X29540000Y-59760000D02*
X29950000Y-59760000D01*
X29540000Y-57940000D02*
X29950000Y-57940000D01*
X29540000Y-57220000D02*
X29950000Y-57220000D01*
X29540000Y-55400000D02*
X29950000Y-55400000D01*
X29540000Y-54680000D02*
X29950000Y-54680000D01*
X29540000Y-52860000D02*
X29890000Y-52860000D01*
X29540000Y-52140000D02*
X29890000Y-52140000D01*
X20910000Y-53651900D02*
X29540000Y-53651900D01*
X20910000Y-53533805D02*
X29540000Y-53533805D01*
X20910000Y-53415710D02*
X29540000Y-53415710D01*
X20910000Y-53297615D02*
X29540000Y-53297615D01*
X20910000Y-53179520D02*
X29540000Y-53179520D01*
X20910000Y-53061425D02*
X29540000Y-53061425D01*
X20910000Y-52943330D02*
X29540000Y-52943330D01*
X20910000Y-52825235D02*
X29540000Y-52825235D01*
X20910000Y-52707140D02*
X29540000Y-52707140D01*
X20910000Y-52589045D02*
X29540000Y-52589045D01*
X20910000Y-52470950D02*
X29540000Y-52470950D01*
X20910000Y-52352855D02*
X29540000Y-52352855D01*
X20910000Y-52234760D02*
X29540000Y-52234760D01*
X20910000Y-52116665D02*
X29540000Y-52116665D01*
X20910000Y-51998570D02*
X29540000Y-51998570D01*
X20910000Y-51880475D02*
X29540000Y-51880475D01*
X20910000Y-51762380D02*
X29540000Y-51762380D01*
X20910000Y-51644285D02*
X29540000Y-51644285D01*
X20910000Y-51526190D02*
X29540000Y-51526190D01*
X20910000Y-51408095D02*
X29540000Y-51408095D01*
X20910000Y-51290000D02*
X29540000Y-51290000D01*
%TO.C,Q1*%
X36530000Y-54180000D02*
X35430000Y-54180000D01*
X36530000Y-54450000D02*
X36530000Y-54180000D01*
X38030000Y-54450000D02*
X36530000Y-54450000D01*
X36530000Y-47820000D02*
X33700000Y-47820000D01*
X36530000Y-47550000D02*
X36530000Y-47820000D01*
X38030000Y-47550000D02*
X36530000Y-47550000D01*
%TO.C,REMOTE1*%
X31000000Y-38170000D02*
X32110000Y-38170000D01*
X32110000Y-38170000D02*
X32110000Y-39500000D01*
X20910000Y-38170000D02*
X20910000Y-48450000D01*
X20910000Y-48450000D02*
X29540000Y-48450000D01*
X29540000Y-38170000D02*
X29540000Y-48450000D01*
X20910000Y-38170000D02*
X29540000Y-38170000D01*
X20910000Y-45850000D02*
X29540000Y-45850000D01*
X20910000Y-43310000D02*
X29540000Y-43310000D01*
X20910000Y-40770000D02*
X29540000Y-40770000D01*
X29540000Y-47480000D02*
X29950000Y-47480000D01*
X29540000Y-46760000D02*
X29950000Y-46760000D01*
X29540000Y-44940000D02*
X29950000Y-44940000D01*
X29540000Y-44220000D02*
X29950000Y-44220000D01*
X29540000Y-42400000D02*
X29950000Y-42400000D01*
X29540000Y-41680000D02*
X29950000Y-41680000D01*
X29540000Y-39860000D02*
X29890000Y-39860000D01*
X29540000Y-39140000D02*
X29890000Y-39140000D01*
X20910000Y-40651900D02*
X29540000Y-40651900D01*
X20910000Y-40533805D02*
X29540000Y-40533805D01*
X20910000Y-40415710D02*
X29540000Y-40415710D01*
X20910000Y-40297615D02*
X29540000Y-40297615D01*
X20910000Y-40179520D02*
X29540000Y-40179520D01*
X20910000Y-40061425D02*
X29540000Y-40061425D01*
X20910000Y-39943330D02*
X29540000Y-39943330D01*
X20910000Y-39825235D02*
X29540000Y-39825235D01*
X20910000Y-39707140D02*
X29540000Y-39707140D01*
X20910000Y-39589045D02*
X29540000Y-39589045D01*
X20910000Y-39470950D02*
X29540000Y-39470950D01*
X20910000Y-39352855D02*
X29540000Y-39352855D01*
X20910000Y-39234760D02*
X29540000Y-39234760D01*
X20910000Y-39116665D02*
X29540000Y-39116665D01*
X20910000Y-38998570D02*
X29540000Y-38998570D01*
X20910000Y-38880475D02*
X29540000Y-38880475D01*
X20910000Y-38762380D02*
X29540000Y-38762380D01*
X20910000Y-38644285D02*
X29540000Y-38644285D01*
X20910000Y-38526190D02*
X29540000Y-38526190D01*
X20910000Y-38408095D02*
X29540000Y-38408095D01*
X20910000Y-38290000D02*
X29540000Y-38290000D01*
%TO.C,U1*%
X34995000Y-65760000D02*
X34995000Y-67450000D01*
X34790000Y-65760000D02*
X34995000Y-65760000D01*
X34790000Y-63000000D02*
X34790000Y-65760000D01*
X34790000Y-60240000D02*
X34995000Y-60240000D01*
X34790000Y-63000000D02*
X34790000Y-60240000D01*
X45210000Y-65760000D02*
X45005000Y-65760000D01*
X45210000Y-63000000D02*
X45210000Y-65760000D01*
X45210000Y-60240000D02*
X45005000Y-60240000D01*
X45210000Y-63000000D02*
X45210000Y-60240000D01*
%TO.C,REF\u002A\u002A*%
D12*
X23666666Y-66252380D02*
X23333333Y-65776190D01*
X23095238Y-66252380D02*
X23095238Y-65252380D01*
X23476190Y-65252380D01*
X23571428Y-65300000D01*
X23619047Y-65347619D01*
X23666666Y-65442857D01*
X23666666Y-65585714D01*
X23619047Y-65680952D01*
X23571428Y-65728571D01*
X23476190Y-65776190D01*
X23095238Y-65776190D01*
X24095238Y-65728571D02*
X24428571Y-65728571D01*
X24571428Y-66252380D02*
X24095238Y-66252380D01*
X24095238Y-65252380D01*
X24571428Y-65252380D01*
X25333333Y-65728571D02*
X25000000Y-65728571D01*
X25000000Y-66252380D02*
X25000000Y-65252380D01*
X25476190Y-65252380D01*
X26000000Y-65252380D02*
X26000000Y-65490476D01*
X25761904Y-65395238D02*
X26000000Y-65490476D01*
X26238095Y-65395238D01*
X25857142Y-65680952D02*
X26000000Y-65490476D01*
X26142857Y-65680952D01*
X26761904Y-65252380D02*
X26761904Y-65490476D01*
X26523809Y-65395238D02*
X26761904Y-65490476D01*
X27000000Y-65395238D01*
X26619047Y-65680952D02*
X26761904Y-65490476D01*
X26904761Y-65680952D01*
X23666666Y-16252380D02*
X23333333Y-15776190D01*
X23095238Y-16252380D02*
X23095238Y-15252380D01*
X23476190Y-15252380D01*
X23571428Y-15300000D01*
X23619047Y-15347619D01*
X23666666Y-15442857D01*
X23666666Y-15585714D01*
X23619047Y-15680952D01*
X23571428Y-15728571D01*
X23476190Y-15776190D01*
X23095238Y-15776190D01*
X24095238Y-15728571D02*
X24428571Y-15728571D01*
X24571428Y-16252380D02*
X24095238Y-16252380D01*
X24095238Y-15252380D01*
X24571428Y-15252380D01*
X25333333Y-15728571D02*
X25000000Y-15728571D01*
X25000000Y-16252380D02*
X25000000Y-15252380D01*
X25476190Y-15252380D01*
X26000000Y-15252380D02*
X26000000Y-15490476D01*
X25761904Y-15395238D02*
X26000000Y-15490476D01*
X26238095Y-15395238D01*
X25857142Y-15680952D02*
X26000000Y-15490476D01*
X26142857Y-15680952D01*
X26761904Y-15252380D02*
X26761904Y-15490476D01*
X26523809Y-15395238D02*
X26761904Y-15490476D01*
X27000000Y-15395238D01*
X26619047Y-15680952D02*
X26761904Y-15490476D01*
X26904761Y-15680952D01*
X48666666Y-66252380D02*
X48333333Y-65776190D01*
X48095238Y-66252380D02*
X48095238Y-65252380D01*
X48476190Y-65252380D01*
X48571428Y-65300000D01*
X48619047Y-65347619D01*
X48666666Y-65442857D01*
X48666666Y-65585714D01*
X48619047Y-65680952D01*
X48571428Y-65728571D01*
X48476190Y-65776190D01*
X48095238Y-65776190D01*
X49095238Y-65728571D02*
X49428571Y-65728571D01*
X49571428Y-66252380D02*
X49095238Y-66252380D01*
X49095238Y-65252380D01*
X49571428Y-65252380D01*
X50333333Y-65728571D02*
X50000000Y-65728571D01*
X50000000Y-66252380D02*
X50000000Y-65252380D01*
X50476190Y-65252380D01*
X51000000Y-65252380D02*
X51000000Y-65490476D01*
X50761904Y-65395238D02*
X51000000Y-65490476D01*
X51238095Y-65395238D01*
X50857142Y-65680952D02*
X51000000Y-65490476D01*
X51142857Y-65680952D01*
X51761904Y-65252380D02*
X51761904Y-65490476D01*
X51523809Y-65395238D02*
X51761904Y-65490476D01*
X52000000Y-65395238D01*
X51619047Y-65680952D02*
X51761904Y-65490476D01*
X51904761Y-65680952D01*
X48666666Y-16252380D02*
X48333333Y-15776190D01*
X48095238Y-16252380D02*
X48095238Y-15252380D01*
X48476190Y-15252380D01*
X48571428Y-15300000D01*
X48619047Y-15347619D01*
X48666666Y-15442857D01*
X48666666Y-15585714D01*
X48619047Y-15680952D01*
X48571428Y-15728571D01*
X48476190Y-15776190D01*
X48095238Y-15776190D01*
X49095238Y-15728571D02*
X49428571Y-15728571D01*
X49571428Y-16252380D02*
X49095238Y-16252380D01*
X49095238Y-15252380D01*
X49571428Y-15252380D01*
X50333333Y-15728571D02*
X50000000Y-15728571D01*
X50000000Y-16252380D02*
X50000000Y-15252380D01*
X50476190Y-15252380D01*
X51000000Y-15252380D02*
X51000000Y-15490476D01*
X50761904Y-15395238D02*
X51000000Y-15490476D01*
X51238095Y-15395238D01*
X50857142Y-15680952D02*
X51000000Y-15490476D01*
X51142857Y-15680952D01*
X51761904Y-15252380D02*
X51761904Y-15490476D01*
X51523809Y-15395238D02*
X51761904Y-15490476D01*
X52000000Y-15395238D01*
X51619047Y-15680952D02*
X51761904Y-15490476D01*
X51904761Y-15680952D01*
%TO.C,C1*%
X33157142Y-22666666D02*
X33204761Y-22714285D01*
X33252380Y-22857142D01*
X33252380Y-22952380D01*
X33204761Y-23095238D01*
X33109523Y-23190476D01*
X33014285Y-23238095D01*
X32823809Y-23285714D01*
X32680952Y-23285714D01*
X32490476Y-23238095D01*
X32395238Y-23190476D01*
X32300000Y-23095238D01*
X32252380Y-22952380D01*
X32252380Y-22857142D01*
X32300000Y-22714285D01*
X32347619Y-22666666D01*
X33252380Y-21714285D02*
X33252380Y-22285714D01*
X33252380Y-22000000D02*
X32252380Y-22000000D01*
X32395238Y-22095238D01*
X32490476Y-22190476D01*
X32538095Y-22285714D01*
%TO.C,C3*%
X42757142Y-26466666D02*
X42804761Y-26514285D01*
X42852380Y-26657142D01*
X42852380Y-26752380D01*
X42804761Y-26895238D01*
X42709523Y-26990476D01*
X42614285Y-27038095D01*
X42423809Y-27085714D01*
X42280952Y-27085714D01*
X42090476Y-27038095D01*
X41995238Y-26990476D01*
X41900000Y-26895238D01*
X41852380Y-26752380D01*
X41852380Y-26657142D01*
X41900000Y-26514285D01*
X41947619Y-26466666D01*
X41852380Y-26133333D02*
X41852380Y-25514285D01*
X42233333Y-25847619D01*
X42233333Y-25704761D01*
X42280952Y-25609523D01*
X42328571Y-25561904D01*
X42423809Y-25514285D01*
X42661904Y-25514285D01*
X42757142Y-25561904D01*
X42804761Y-25609523D01*
X42852380Y-25704761D01*
X42852380Y-25990476D01*
X42804761Y-26085714D01*
X42757142Y-26133333D01*
%TO.C,C6*%
X51333333Y-45357142D02*
X51285714Y-45404761D01*
X51142857Y-45452380D01*
X51047619Y-45452380D01*
X50904761Y-45404761D01*
X50809523Y-45309523D01*
X50761904Y-45214285D01*
X50714285Y-45023809D01*
X50714285Y-44880952D01*
X50761904Y-44690476D01*
X50809523Y-44595238D01*
X50904761Y-44500000D01*
X51047619Y-44452380D01*
X51142857Y-44452380D01*
X51285714Y-44500000D01*
X51333333Y-44547619D01*
X52190476Y-44452380D02*
X52000000Y-44452380D01*
X51904761Y-44500000D01*
X51857142Y-44547619D01*
X51761904Y-44690476D01*
X51714285Y-44880952D01*
X51714285Y-45261904D01*
X51761904Y-45357142D01*
X51809523Y-45404761D01*
X51904761Y-45452380D01*
X52095238Y-45452380D01*
X52190476Y-45404761D01*
X52238095Y-45357142D01*
X52285714Y-45261904D01*
X52285714Y-45023809D01*
X52238095Y-44928571D01*
X52190476Y-44880952D01*
X52095238Y-44833333D01*
X51904761Y-44833333D01*
X51809523Y-44880952D01*
X51761904Y-44928571D01*
X51714285Y-45023809D01*
%TO.C,D1*%
X38761904Y-42952380D02*
X38761904Y-41952380D01*
X39000000Y-41952380D01*
X39142857Y-42000000D01*
X39238095Y-42095238D01*
X39285714Y-42190476D01*
X39333333Y-42380952D01*
X39333333Y-42523809D01*
X39285714Y-42714285D01*
X39238095Y-42809523D01*
X39142857Y-42904761D01*
X39000000Y-42952380D01*
X38761904Y-42952380D01*
X40285714Y-42952380D02*
X39714285Y-42952380D01*
X40000000Y-42952380D02*
X40000000Y-41952380D01*
X39904761Y-42095238D01*
X39809523Y-42190476D01*
X39714285Y-42238095D01*
%TO.C,J1*%
X35166666Y-35952380D02*
X35166666Y-36666666D01*
X35119047Y-36809523D01*
X35023809Y-36904761D01*
X34880952Y-36952380D01*
X34785714Y-36952380D01*
X36166666Y-36952380D02*
X35595238Y-36952380D01*
X35880952Y-36952380D02*
X35880952Y-35952380D01*
X35785714Y-36095238D01*
X35690476Y-36190476D01*
X35595238Y-36238095D01*
%TO.C,L1*%
X48052380Y-36666666D02*
X48052380Y-37142857D01*
X47052380Y-37142857D01*
X48052380Y-35809523D02*
X48052380Y-36380952D01*
X48052380Y-36095238D02*
X47052380Y-36095238D01*
X47195238Y-36190476D01*
X47290476Y-36285714D01*
X47338095Y-36380952D01*
%TO.C,LS1*%
X24357142Y-60952380D02*
X23880952Y-60952380D01*
X23880952Y-59952380D01*
X24642857Y-60904761D02*
X24785714Y-60952380D01*
X25023809Y-60952380D01*
X25119047Y-60904761D01*
X25166666Y-60857142D01*
X25214285Y-60761904D01*
X25214285Y-60666666D01*
X25166666Y-60571428D01*
X25119047Y-60523809D01*
X25023809Y-60476190D01*
X24833333Y-60428571D01*
X24738095Y-60380952D01*
X24690476Y-60333333D01*
X24642857Y-60238095D01*
X24642857Y-60142857D01*
X24690476Y-60047619D01*
X24738095Y-60000000D01*
X24833333Y-59952380D01*
X25071428Y-59952380D01*
X25214285Y-60000000D01*
X26166666Y-60952380D02*
X25595238Y-60952380D01*
X25880952Y-60952380D02*
X25880952Y-59952380D01*
X25785714Y-60095238D01*
X25690476Y-60190476D01*
X25595238Y-60238095D01*
%TO.C,Q1*%
X38904761Y-47047619D02*
X38809523Y-47000000D01*
X38714285Y-46904761D01*
X38571428Y-46761904D01*
X38476190Y-46714285D01*
X38380952Y-46714285D01*
X38428571Y-46952380D02*
X38333333Y-46904761D01*
X38238095Y-46809523D01*
X38190476Y-46619047D01*
X38190476Y-46285714D01*
X38238095Y-46095238D01*
X38333333Y-46000000D01*
X38428571Y-45952380D01*
X38619047Y-45952380D01*
X38714285Y-46000000D01*
X38809523Y-46095238D01*
X38857142Y-46285714D01*
X38857142Y-46619047D01*
X38809523Y-46809523D01*
X38714285Y-46904761D01*
X38619047Y-46952380D01*
X38428571Y-46952380D01*
X39809523Y-46952380D02*
X39238095Y-46952380D01*
X39523809Y-46952380D02*
X39523809Y-45952380D01*
X39428571Y-46095238D01*
X39333333Y-46190476D01*
X39238095Y-46238095D01*
%TO.C,REMOTE1*%
X23452380Y-47952380D02*
X23119047Y-47476190D01*
X22880952Y-47952380D02*
X22880952Y-46952380D01*
X23261904Y-46952380D01*
X23357142Y-47000000D01*
X23404761Y-47047619D01*
X23452380Y-47142857D01*
X23452380Y-47285714D01*
X23404761Y-47380952D01*
X23357142Y-47428571D01*
X23261904Y-47476190D01*
X22880952Y-47476190D01*
X23880952Y-47428571D02*
X24214285Y-47428571D01*
X24357142Y-47952380D02*
X23880952Y-47952380D01*
X23880952Y-46952380D01*
X24357142Y-46952380D01*
X24785714Y-47952380D02*
X24785714Y-46952380D01*
X25119047Y-47666666D01*
X25452380Y-46952380D01*
X25452380Y-47952380D01*
X26119047Y-46952380D02*
X26309523Y-46952380D01*
X26404761Y-47000000D01*
X26500000Y-47095238D01*
X26547619Y-47285714D01*
X26547619Y-47619047D01*
X26500000Y-47809523D01*
X26404761Y-47904761D01*
X26309523Y-47952380D01*
X26119047Y-47952380D01*
X26023809Y-47904761D01*
X25928571Y-47809523D01*
X25880952Y-47619047D01*
X25880952Y-47285714D01*
X25928571Y-47095238D01*
X26023809Y-47000000D01*
X26119047Y-46952380D01*
X26833333Y-46952380D02*
X27404761Y-46952380D01*
X27119047Y-47952380D02*
X27119047Y-46952380D01*
X27738095Y-47428571D02*
X28071428Y-47428571D01*
X28214285Y-47952380D02*
X27738095Y-47952380D01*
X27738095Y-46952380D01*
X28214285Y-46952380D01*
X29166666Y-47952380D02*
X28595238Y-47952380D01*
X28880952Y-47952380D02*
X28880952Y-46952380D01*
X28785714Y-47095238D01*
X28690476Y-47190476D01*
X28595238Y-47238095D01*
%TO.C,U1*%
X33402380Y-63761904D02*
X34211904Y-63761904D01*
X34307142Y-63714285D01*
X34354761Y-63666666D01*
X34402380Y-63571428D01*
X34402380Y-63380952D01*
X34354761Y-63285714D01*
X34307142Y-63238095D01*
X34211904Y-63190476D01*
X33402380Y-63190476D01*
X34402380Y-62190476D02*
X34402380Y-62761904D01*
X34402380Y-62476190D02*
X33402380Y-62476190D01*
X33545238Y-62571428D01*
X33640476Y-62666666D01*
X33688095Y-62761904D01*
%TD*%
M02*
