%TF.GenerationSoftware,KiCad,Pcbnew,(5.1.6-0-10_14)*%
%TF.CreationDate,2021-01-01T01:37:36+01:00*%
%TF.ProjectId,driver,64726976-6572-42e6-9b69-6361645f7063,rev?*%
%TF.SameCoordinates,Original*%
%TF.FileFunction,Paste,Top*%
%TF.FilePolarity,Positive*%
%FSLAX46Y46*%
G04 Gerber Fmt 4.6, Leading zero omitted, Abs format (unit mm)*
G04 Created by KiCad (PCBNEW (5.1.6-0-10_14)) date 2021-01-01 01:37:36*
%MOMM*%
%LPD*%
G01*
G04 APERTURE LIST*
%ADD10R,1.100000X4.600000*%
%ADD11R,5.250000X4.550000*%
%ADD12R,10.000000X5.000000*%
%ADD13R,3.150000X12.500000*%
%ADD14R,2.900000X5.400000*%
%ADD15R,3.800000X2.000000*%
%ADD16R,1.500000X2.000000*%
G04 APERTURE END LIST*
%TO.C,C4*%
G36*
G01*
X43300000Y-44600000D02*
X41700000Y-44600000D01*
G75*
G02*
X41450000Y-44350000I0J250000D01*
G01*
X41450000Y-40250000D01*
G75*
G02*
X41700000Y-40000000I250000J0D01*
G01*
X43300000Y-40000000D01*
G75*
G02*
X43550000Y-40250000I0J-250000D01*
G01*
X43550000Y-44350000D01*
G75*
G02*
X43300000Y-44600000I-250000J0D01*
G01*
G37*
G36*
G01*
X43300000Y-35800000D02*
X41700000Y-35800000D01*
G75*
G02*
X41450000Y-35550000I0J250000D01*
G01*
X41450000Y-31450000D01*
G75*
G02*
X41700000Y-31200000I250000J0D01*
G01*
X43300000Y-31200000D01*
G75*
G02*
X43550000Y-31450000I0J-250000D01*
G01*
X43550000Y-35550000D01*
G75*
G02*
X43300000Y-35800000I-250000J0D01*
G01*
G37*
%TD*%
D10*
%TO.C,D1*%
X66740000Y-50850000D03*
X64200000Y-50850000D03*
X61660000Y-50850000D03*
D11*
X61425000Y-62425000D03*
X66975000Y-57575000D03*
X66975000Y-62425000D03*
X61425000Y-57575000D03*
%TD*%
D12*
%TO.C,GND1*%
X31600000Y-34900000D03*
%TD*%
%TO.C,GND2*%
G36*
G01*
X51900000Y-30850000D02*
X51900000Y-29350000D01*
G75*
G02*
X52150000Y-29100000I250000J0D01*
G01*
X52650000Y-29100000D01*
G75*
G02*
X52900000Y-29350000I0J-250000D01*
G01*
X52900000Y-30850000D01*
G75*
G02*
X52650000Y-31100000I-250000J0D01*
G01*
X52150000Y-31100000D01*
G75*
G02*
X51900000Y-30850000I0J250000D01*
G01*
G37*
%TD*%
%TO.C,JLED+1*%
G36*
G01*
X65700000Y-69550000D02*
X65700000Y-68050000D01*
G75*
G02*
X65950000Y-67800000I250000J0D01*
G01*
X66450000Y-67800000D01*
G75*
G02*
X66700000Y-68050000I0J-250000D01*
G01*
X66700000Y-69550000D01*
G75*
G02*
X66450000Y-69800000I-250000J0D01*
G01*
X65950000Y-69800000D01*
G75*
G02*
X65700000Y-69550000I0J250000D01*
G01*
G37*
%TD*%
%TO.C,JLED-1*%
G36*
G01*
X61600000Y-69550000D02*
X61600000Y-68050000D01*
G75*
G02*
X61850000Y-67800000I250000J0D01*
G01*
X62350000Y-67800000D01*
G75*
G02*
X62600000Y-68050000I0J-250000D01*
G01*
X62600000Y-69550000D01*
G75*
G02*
X62350000Y-69800000I-250000J0D01*
G01*
X61850000Y-69800000D01*
G75*
G02*
X61600000Y-69550000I0J250000D01*
G01*
G37*
%TD*%
D13*
%TO.C,L1*%
X56075000Y-41550000D03*
X71575000Y-41550000D03*
%TD*%
D14*
%TO.C,L2*%
X58750000Y-41300000D03*
X68650000Y-41300000D03*
%TD*%
%TO.C,PWMin1*%
G36*
G01*
X53800000Y-30850000D02*
X53800000Y-29350000D01*
G75*
G02*
X54050000Y-29100000I250000J0D01*
G01*
X54550000Y-29100000D01*
G75*
G02*
X54800000Y-29350000I0J-250000D01*
G01*
X54800000Y-30850000D01*
G75*
G02*
X54550000Y-31100000I-250000J0D01*
G01*
X54050000Y-31100000D01*
G75*
G02*
X53800000Y-30850000I0J250000D01*
G01*
G37*
%TD*%
D15*
%TO.C,Q1*%
X38600000Y-61750000D03*
D16*
X38600000Y-55450000D03*
X36300000Y-55450000D03*
X40900000Y-55450000D03*
%TD*%
%TO.C,Rfb1*%
G36*
G01*
X60925000Y-68349999D02*
X60925000Y-69250001D01*
G75*
G02*
X60675001Y-69500000I-249999J0D01*
G01*
X60024999Y-69500000D01*
G75*
G02*
X59775000Y-69250001I0J249999D01*
G01*
X59775000Y-68349999D01*
G75*
G02*
X60024999Y-68100000I249999J0D01*
G01*
X60675001Y-68100000D01*
G75*
G02*
X60925000Y-68349999I0J-249999D01*
G01*
G37*
G36*
G01*
X58875000Y-68349999D02*
X58875000Y-69250001D01*
G75*
G02*
X58625001Y-69500000I-249999J0D01*
G01*
X57974999Y-69500000D01*
G75*
G02*
X57725000Y-69250001I0J249999D01*
G01*
X57725000Y-68349999D01*
G75*
G02*
X57974999Y-68100000I249999J0D01*
G01*
X58625001Y-68100000D01*
G75*
G02*
X58875000Y-68349999I0J-249999D01*
G01*
G37*
%TD*%
%TO.C,Rocp1*%
G36*
G01*
X34762500Y-53325001D02*
X34762500Y-50474999D01*
G75*
G02*
X35012499Y-50225000I249999J0D01*
G01*
X36037501Y-50225000D01*
G75*
G02*
X36287500Y-50474999I0J-249999D01*
G01*
X36287500Y-53325001D01*
G75*
G02*
X36037501Y-53575000I-249999J0D01*
G01*
X35012499Y-53575000D01*
G75*
G02*
X34762500Y-53325001I0J249999D01*
G01*
G37*
G36*
G01*
X40737500Y-53325001D02*
X40737500Y-50474999D01*
G75*
G02*
X40987499Y-50225000I249999J0D01*
G01*
X42012501Y-50225000D01*
G75*
G02*
X42262500Y-50474999I0J-249999D01*
G01*
X42262500Y-53325001D01*
G75*
G02*
X42012501Y-53575000I-249999J0D01*
G01*
X40987499Y-53575000D01*
G75*
G02*
X40737500Y-53325001I0J249999D01*
G01*
G37*
%TD*%
%TO.C,Rocp2*%
G36*
G01*
X40725000Y-49325001D02*
X40725000Y-46474999D01*
G75*
G02*
X40974999Y-46225000I249999J0D01*
G01*
X42000001Y-46225000D01*
G75*
G02*
X42250000Y-46474999I0J-249999D01*
G01*
X42250000Y-49325001D01*
G75*
G02*
X42000001Y-49575000I-249999J0D01*
G01*
X40974999Y-49575000D01*
G75*
G02*
X40725000Y-49325001I0J249999D01*
G01*
G37*
G36*
G01*
X34750000Y-49325001D02*
X34750000Y-46474999D01*
G75*
G02*
X34999999Y-46225000I249999J0D01*
G01*
X36025001Y-46225000D01*
G75*
G02*
X36275000Y-46474999I0J-249999D01*
G01*
X36275000Y-49325001D01*
G75*
G02*
X36025001Y-49575000I-249999J0D01*
G01*
X34999999Y-49575000D01*
G75*
G02*
X34750000Y-49325001I0J249999D01*
G01*
G37*
%TD*%
%TO.C,RPWM1*%
G36*
G01*
X53462500Y-31900000D02*
X53937500Y-31900000D01*
G75*
G02*
X54175000Y-32137500I0J-237500D01*
G01*
X54175000Y-32712500D01*
G75*
G02*
X53937500Y-32950000I-237500J0D01*
G01*
X53462500Y-32950000D01*
G75*
G02*
X53225000Y-32712500I0J237500D01*
G01*
X53225000Y-32137500D01*
G75*
G02*
X53462500Y-31900000I237500J0D01*
G01*
G37*
G36*
G01*
X53462500Y-33650000D02*
X53937500Y-33650000D01*
G75*
G02*
X54175000Y-33887500I0J-237500D01*
G01*
X54175000Y-34462500D01*
G75*
G02*
X53937500Y-34700000I-237500J0D01*
G01*
X53462500Y-34700000D01*
G75*
G02*
X53225000Y-34462500I0J237500D01*
G01*
X53225000Y-33887500D01*
G75*
G02*
X53462500Y-33650000I237500J0D01*
G01*
G37*
%TD*%
%TO.C,U1*%
G36*
G01*
X51655000Y-46750000D02*
X51955000Y-46750000D01*
G75*
G02*
X52105000Y-46900000I0J-150000D01*
G01*
X52105000Y-48500000D01*
G75*
G02*
X51955000Y-48650000I-150000J0D01*
G01*
X51655000Y-48650000D01*
G75*
G02*
X51505000Y-48500000I0J150000D01*
G01*
X51505000Y-46900000D01*
G75*
G02*
X51655000Y-46750000I150000J0D01*
G01*
G37*
G36*
G01*
X50385000Y-46750000D02*
X50685000Y-46750000D01*
G75*
G02*
X50835000Y-46900000I0J-150000D01*
G01*
X50835000Y-48500000D01*
G75*
G02*
X50685000Y-48650000I-150000J0D01*
G01*
X50385000Y-48650000D01*
G75*
G02*
X50235000Y-48500000I0J150000D01*
G01*
X50235000Y-46900000D01*
G75*
G02*
X50385000Y-46750000I150000J0D01*
G01*
G37*
G36*
G01*
X49115000Y-46750000D02*
X49415000Y-46750000D01*
G75*
G02*
X49565000Y-46900000I0J-150000D01*
G01*
X49565000Y-48500000D01*
G75*
G02*
X49415000Y-48650000I-150000J0D01*
G01*
X49115000Y-48650000D01*
G75*
G02*
X48965000Y-48500000I0J150000D01*
G01*
X48965000Y-46900000D01*
G75*
G02*
X49115000Y-46750000I150000J0D01*
G01*
G37*
G36*
G01*
X47845000Y-46750000D02*
X48145000Y-46750000D01*
G75*
G02*
X48295000Y-46900000I0J-150000D01*
G01*
X48295000Y-48500000D01*
G75*
G02*
X48145000Y-48650000I-150000J0D01*
G01*
X47845000Y-48650000D01*
G75*
G02*
X47695000Y-48500000I0J150000D01*
G01*
X47695000Y-46900000D01*
G75*
G02*
X47845000Y-46750000I150000J0D01*
G01*
G37*
G36*
G01*
X47845000Y-53750000D02*
X48145000Y-53750000D01*
G75*
G02*
X48295000Y-53900000I0J-150000D01*
G01*
X48295000Y-55500000D01*
G75*
G02*
X48145000Y-55650000I-150000J0D01*
G01*
X47845000Y-55650000D01*
G75*
G02*
X47695000Y-55500000I0J150000D01*
G01*
X47695000Y-53900000D01*
G75*
G02*
X47845000Y-53750000I150000J0D01*
G01*
G37*
G36*
G01*
X49115000Y-53750000D02*
X49415000Y-53750000D01*
G75*
G02*
X49565000Y-53900000I0J-150000D01*
G01*
X49565000Y-55500000D01*
G75*
G02*
X49415000Y-55650000I-150000J0D01*
G01*
X49115000Y-55650000D01*
G75*
G02*
X48965000Y-55500000I0J150000D01*
G01*
X48965000Y-53900000D01*
G75*
G02*
X49115000Y-53750000I150000J0D01*
G01*
G37*
G36*
G01*
X50385000Y-53750000D02*
X50685000Y-53750000D01*
G75*
G02*
X50835000Y-53900000I0J-150000D01*
G01*
X50835000Y-55500000D01*
G75*
G02*
X50685000Y-55650000I-150000J0D01*
G01*
X50385000Y-55650000D01*
G75*
G02*
X50235000Y-55500000I0J150000D01*
G01*
X50235000Y-53900000D01*
G75*
G02*
X50385000Y-53750000I150000J0D01*
G01*
G37*
G36*
G01*
X51655000Y-53750000D02*
X51955000Y-53750000D01*
G75*
G02*
X52105000Y-53900000I0J-150000D01*
G01*
X52105000Y-55500000D01*
G75*
G02*
X51955000Y-55650000I-150000J0D01*
G01*
X51655000Y-55650000D01*
G75*
G02*
X51505000Y-55500000I0J150000D01*
G01*
X51505000Y-53900000D01*
G75*
G02*
X51655000Y-53750000I150000J0D01*
G01*
G37*
%TD*%
D12*
%TO.C,Vin1*%
X31600000Y-41400000D03*
%TD*%
%TO.C,Vin2*%
G36*
G01*
X55800000Y-30850000D02*
X55800000Y-29350000D01*
G75*
G02*
X56050000Y-29100000I250000J0D01*
G01*
X56550000Y-29100000D01*
G75*
G02*
X56800000Y-29350000I0J-250000D01*
G01*
X56800000Y-30850000D01*
G75*
G02*
X56550000Y-31100000I-250000J0D01*
G01*
X56050000Y-31100000D01*
G75*
G02*
X55800000Y-30850000I0J250000D01*
G01*
G37*
%TD*%
M02*
