%TF.GenerationSoftware,KiCad,Pcbnew,(5.1.6-0-10_14)*%
%TF.CreationDate,2021-01-01T01:37:36+01:00*%
%TF.ProjectId,driver,64726976-6572-42e6-9b69-6361645f7063,rev?*%
%TF.SameCoordinates,Original*%
%TF.FileFunction,Copper,L2,Bot*%
%TF.FilePolarity,Positive*%
%FSLAX46Y46*%
G04 Gerber Fmt 4.6, Leading zero omitted, Abs format (unit mm)*
G04 Created by KiCad (PCBNEW (5.1.6-0-10_14)) date 2021-01-01 01:37:36*
%MOMM*%
%LPD*%
G01*
G04 APERTURE LIST*
%TA.AperFunction,ComponentPad*%
%ADD10C,1.600000*%
%TD*%
%TA.AperFunction,ViaPad*%
%ADD11C,0.800000*%
%TD*%
%TA.AperFunction,Conductor*%
%ADD12C,0.500000*%
%TD*%
%TA.AperFunction,Conductor*%
%ADD13C,0.250000*%
%TD*%
%TA.AperFunction,Conductor*%
%ADD14C,0.254000*%
%TD*%
G04 APERTURE END LIST*
%TO.P,C1,2*%
%TO.N,GND*%
%TA.AperFunction,SMDPad,CuDef*%
G36*
G01*
X50425000Y-49262500D02*
X50425000Y-49737500D01*
G75*
G02*
X50187500Y-49975000I-237500J0D01*
G01*
X49612500Y-49975000D01*
G75*
G02*
X49375000Y-49737500I0J237500D01*
G01*
X49375000Y-49262500D01*
G75*
G02*
X49612500Y-49025000I237500J0D01*
G01*
X50187500Y-49025000D01*
G75*
G02*
X50425000Y-49262500I0J-237500D01*
G01*
G37*
%TD.AperFunction*%
%TO.P,C1,1*%
%TO.N,VIN*%
%TA.AperFunction,SMDPad,CuDef*%
G36*
G01*
X52175000Y-49262500D02*
X52175000Y-49737500D01*
G75*
G02*
X51937500Y-49975000I-237500J0D01*
G01*
X51362500Y-49975000D01*
G75*
G02*
X51125000Y-49737500I0J237500D01*
G01*
X51125000Y-49262500D01*
G75*
G02*
X51362500Y-49025000I237500J0D01*
G01*
X51937500Y-49025000D01*
G75*
G02*
X52175000Y-49262500I0J-237500D01*
G01*
G37*
%TD.AperFunction*%
%TD*%
%TO.P,C2,1*%
%TO.N,Net-(C2-Pad1)*%
%TA.AperFunction,SMDPad,CuDef*%
G36*
G01*
X48837500Y-52175000D02*
X48362500Y-52175000D01*
G75*
G02*
X48125000Y-51937500I0J237500D01*
G01*
X48125000Y-51362500D01*
G75*
G02*
X48362500Y-51125000I237500J0D01*
G01*
X48837500Y-51125000D01*
G75*
G02*
X49075000Y-51362500I0J-237500D01*
G01*
X49075000Y-51937500D01*
G75*
G02*
X48837500Y-52175000I-237500J0D01*
G01*
G37*
%TD.AperFunction*%
%TO.P,C2,2*%
%TO.N,GND*%
%TA.AperFunction,SMDPad,CuDef*%
G36*
G01*
X48837500Y-50425000D02*
X48362500Y-50425000D01*
G75*
G02*
X48125000Y-50187500I0J237500D01*
G01*
X48125000Y-49612500D01*
G75*
G02*
X48362500Y-49375000I237500J0D01*
G01*
X48837500Y-49375000D01*
G75*
G02*
X49075000Y-49612500I0J-237500D01*
G01*
X49075000Y-50187500D01*
G75*
G02*
X48837500Y-50425000I-237500J0D01*
G01*
G37*
%TD.AperFunction*%
%TD*%
D10*
%TO.P,C3,1*%
%TO.N,LED+*%
X54100000Y-69800000D03*
%TO.P,C3,2*%
%TO.N,GND*%
X49100000Y-69800000D03*
%TD*%
%TO.P,R4,1*%
%TO.N,LED+*%
%TA.AperFunction,SMDPad,CuDef*%
G36*
G01*
X54700000Y-67662500D02*
X54700000Y-68137500D01*
G75*
G02*
X54462500Y-68375000I-237500J0D01*
G01*
X53887500Y-68375000D01*
G75*
G02*
X53650000Y-68137500I0J237500D01*
G01*
X53650000Y-67662500D01*
G75*
G02*
X53887500Y-67425000I237500J0D01*
G01*
X54462500Y-67425000D01*
G75*
G02*
X54700000Y-67662500I0J-237500D01*
G01*
G37*
%TD.AperFunction*%
%TO.P,R4,2*%
%TO.N,Net-(R4-Pad2)*%
%TA.AperFunction,SMDPad,CuDef*%
G36*
G01*
X52950000Y-67662500D02*
X52950000Y-68137500D01*
G75*
G02*
X52712500Y-68375000I-237500J0D01*
G01*
X52137500Y-68375000D01*
G75*
G02*
X51900000Y-68137500I0J237500D01*
G01*
X51900000Y-67662500D01*
G75*
G02*
X52137500Y-67425000I237500J0D01*
G01*
X52712500Y-67425000D01*
G75*
G02*
X52950000Y-67662500I0J-237500D01*
G01*
G37*
%TD.AperFunction*%
%TD*%
%TO.P,R5,2*%
%TO.N,GND*%
%TA.AperFunction,SMDPad,CuDef*%
G36*
G01*
X49550000Y-67662500D02*
X49550000Y-68137500D01*
G75*
G02*
X49312500Y-68375000I-237500J0D01*
G01*
X48737500Y-68375000D01*
G75*
G02*
X48500000Y-68137500I0J237500D01*
G01*
X48500000Y-67662500D01*
G75*
G02*
X48737500Y-67425000I237500J0D01*
G01*
X49312500Y-67425000D01*
G75*
G02*
X49550000Y-67662500I0J-237500D01*
G01*
G37*
%TD.AperFunction*%
%TO.P,R5,1*%
%TO.N,Net-(R4-Pad2)*%
%TA.AperFunction,SMDPad,CuDef*%
G36*
G01*
X51300000Y-67662500D02*
X51300000Y-68137500D01*
G75*
G02*
X51062500Y-68375000I-237500J0D01*
G01*
X50487500Y-68375000D01*
G75*
G02*
X50250000Y-68137500I0J237500D01*
G01*
X50250000Y-67662500D01*
G75*
G02*
X50487500Y-67425000I237500J0D01*
G01*
X51062500Y-67425000D01*
G75*
G02*
X51300000Y-67662500I0J-237500D01*
G01*
G37*
%TD.AperFunction*%
%TD*%
D11*
%TO.N,GND*%
X49900000Y-49500000D03*
X41487500Y-47900000D03*
X41487500Y-49012500D03*
X41487500Y-50212500D03*
X41487500Y-51412500D03*
X48600000Y-49900000D03*
X51650000Y-30850000D03*
X50700000Y-31800000D03*
X49600000Y-32900000D03*
X48300000Y-33500000D03*
X46800000Y-33500000D03*
X45400000Y-33500000D03*
X43700000Y-33500000D03*
X42500000Y-33500000D03*
X41100000Y-33500000D03*
X39300000Y-33500000D03*
X38000000Y-33500000D03*
X36600000Y-33500000D03*
X50400000Y-71100000D03*
X51649999Y-71550001D03*
X56300000Y-71300000D03*
X57300000Y-70300000D03*
X43600000Y-47500000D03*
X43700000Y-48800000D03*
X43700000Y-49900000D03*
X43700000Y-50900000D03*
X43600000Y-52200000D03*
X44700000Y-51100000D03*
X45600000Y-50300000D03*
X46000000Y-49200000D03*
X45300000Y-48300000D03*
X44600000Y-47400000D03*
X44700000Y-49300000D03*
X39700000Y-46600000D03*
X39400000Y-47900000D03*
X39500000Y-49200000D03*
X39500000Y-50600000D03*
X39500000Y-52000000D03*
X39600000Y-53100000D03*
X58300000Y-70200000D03*
X58300000Y-71200000D03*
X57700000Y-71900000D03*
X56400000Y-73200000D03*
X55100000Y-74000000D03*
X53500000Y-74000000D03*
X52000000Y-73800000D03*
X51000000Y-72800000D03*
X50250000Y-72050000D03*
X52999998Y-72500002D03*
X54100002Y-72500002D03*
X55550000Y-72050000D03*
%TO.N,VIN*%
X51800000Y-48000000D03*
%TO.N,Net-(C2-Pad1)*%
X48600000Y-51650000D03*
%TO.N,LED-*%
X60350000Y-68800000D03*
X48000000Y-56000000D03*
%TO.N,Net-(R4-Pad2)*%
X50775000Y-67900000D03*
X47700000Y-57000000D03*
%TO.N,Net-(RPWM1-Pad2)*%
X53400000Y-48400000D03*
X53300000Y-35300000D03*
%TD*%
D12*
%TO.N,GND*%
X49500000Y-49900000D02*
X49900000Y-49500000D01*
X48600000Y-49900000D02*
X48600000Y-49900000D01*
X49100000Y-67975000D02*
X49025000Y-67900000D01*
X49100000Y-69800000D02*
X49100000Y-67975000D01*
X48600000Y-49900000D02*
X49500000Y-49900000D01*
%TO.N,VIN*%
X51800000Y-49350000D02*
X51650000Y-49500000D01*
X51800000Y-48000000D02*
X51800000Y-49350000D01*
%TO.N,LED+*%
X54100000Y-67975000D02*
X54175000Y-67900000D01*
X54100000Y-69800000D02*
X54100000Y-67975000D01*
%TO.N,LED-*%
X60350000Y-68350000D02*
X60350000Y-68800000D01*
X48000000Y-56000000D02*
X60350000Y-68350000D01*
%TO.N,Net-(R4-Pad2)*%
X52425000Y-67900000D02*
X50775000Y-67900000D01*
X47700000Y-64825000D02*
X50775000Y-67900000D01*
X47700000Y-57000000D02*
X47700000Y-64825000D01*
D13*
%TO.N,Net-(RPWM1-Pad2)*%
X53300000Y-48300000D02*
X53400000Y-48400000D01*
X53300000Y-35300000D02*
X53300000Y-48300000D01*
%TD*%
D14*
%TO.N,GND*%
G36*
X73873000Y-28126736D02*
G01*
X73873000Y-75973000D01*
X26127000Y-75973000D01*
X26127000Y-70792702D01*
X48286903Y-70792702D01*
X48358486Y-71036671D01*
X48613996Y-71157571D01*
X48888184Y-71226300D01*
X49170512Y-71240217D01*
X49450130Y-71198787D01*
X49716292Y-71103603D01*
X49841514Y-71036671D01*
X49913097Y-70792702D01*
X49100000Y-69979605D01*
X48286903Y-70792702D01*
X26127000Y-70792702D01*
X26127000Y-56898061D01*
X46665000Y-56898061D01*
X46665000Y-57101939D01*
X46704774Y-57301898D01*
X46782795Y-57490256D01*
X46815000Y-57538454D01*
X46815001Y-64781521D01*
X46810719Y-64825000D01*
X46827805Y-64998490D01*
X46878412Y-65165313D01*
X46960590Y-65319059D01*
X47043468Y-65420046D01*
X47043471Y-65420049D01*
X47071184Y-65453817D01*
X47104951Y-65481529D01*
X48418387Y-66794966D01*
X48375518Y-66799188D01*
X48255820Y-66835498D01*
X48145506Y-66894463D01*
X48048815Y-66973815D01*
X47969463Y-67070506D01*
X47910498Y-67180820D01*
X47874188Y-67300518D01*
X47861928Y-67425000D01*
X47865000Y-67614250D01*
X48023750Y-67773000D01*
X48898000Y-67773000D01*
X48898000Y-67753000D01*
X49152000Y-67753000D01*
X49152000Y-67773000D01*
X49172000Y-67773000D01*
X49172000Y-68027000D01*
X49152000Y-68027000D01*
X49152000Y-68047000D01*
X48898000Y-68047000D01*
X48898000Y-68027000D01*
X48023750Y-68027000D01*
X47865000Y-68185750D01*
X47861928Y-68375000D01*
X47874188Y-68499482D01*
X47910498Y-68619180D01*
X47969463Y-68729494D01*
X48042799Y-68818854D01*
X47991023Y-68870630D01*
X48107296Y-68986903D01*
X47863329Y-69058486D01*
X47742429Y-69313996D01*
X47673700Y-69588184D01*
X47659783Y-69870512D01*
X47701213Y-70150130D01*
X47796397Y-70416292D01*
X47863329Y-70541514D01*
X48107298Y-70613097D01*
X48920395Y-69800000D01*
X48906253Y-69785858D01*
X49085858Y-69606253D01*
X49100000Y-69620395D01*
X49114143Y-69606253D01*
X49293748Y-69785858D01*
X49279605Y-69800000D01*
X50092702Y-70613097D01*
X50336671Y-70541514D01*
X50457571Y-70286004D01*
X50526300Y-70011816D01*
X50540217Y-69729488D01*
X50498787Y-69449870D01*
X50403603Y-69183708D01*
X50336671Y-69058486D01*
X50092704Y-68986903D01*
X50139889Y-68939718D01*
X50152433Y-68946423D01*
X50316684Y-68996248D01*
X50487500Y-69013072D01*
X51062500Y-69013072D01*
X51233316Y-68996248D01*
X51397567Y-68946423D01*
X51548942Y-68865512D01*
X51600000Y-68823610D01*
X51651058Y-68865512D01*
X51802433Y-68946423D01*
X51966684Y-68996248D01*
X52137500Y-69013072D01*
X52712500Y-69013072D01*
X52883316Y-68996248D01*
X52918277Y-68985643D01*
X52828320Y-69120273D01*
X52720147Y-69381426D01*
X52665000Y-69658665D01*
X52665000Y-69941335D01*
X52720147Y-70218574D01*
X52828320Y-70479727D01*
X52985363Y-70714759D01*
X53185241Y-70914637D01*
X53420273Y-71071680D01*
X53681426Y-71179853D01*
X53958665Y-71235000D01*
X54241335Y-71235000D01*
X54518574Y-71179853D01*
X54779727Y-71071680D01*
X55014759Y-70914637D01*
X55214637Y-70714759D01*
X55371680Y-70479727D01*
X55479853Y-70218574D01*
X55535000Y-69941335D01*
X55535000Y-69658665D01*
X55479853Y-69381426D01*
X55371680Y-69120273D01*
X55214637Y-68885241D01*
X55083605Y-68754209D01*
X55190512Y-68623942D01*
X55271423Y-68472567D01*
X55321248Y-68308316D01*
X55338072Y-68137500D01*
X55338072Y-67662500D01*
X55321248Y-67491684D01*
X55271423Y-67327433D01*
X55190512Y-67176058D01*
X55081623Y-67043377D01*
X54948942Y-66934488D01*
X54797567Y-66853577D01*
X54633316Y-66803752D01*
X54462500Y-66786928D01*
X53887500Y-66786928D01*
X53716684Y-66803752D01*
X53552433Y-66853577D01*
X53401058Y-66934488D01*
X53300000Y-67017425D01*
X53198942Y-66934488D01*
X53047567Y-66853577D01*
X52883316Y-66803752D01*
X52712500Y-66786928D01*
X52137500Y-66786928D01*
X51966684Y-66803752D01*
X51802433Y-66853577D01*
X51651058Y-66934488D01*
X51600000Y-66976390D01*
X51548942Y-66934488D01*
X51397567Y-66853577D01*
X51233316Y-66803752D01*
X51062500Y-66786928D01*
X50913507Y-66786928D01*
X48585000Y-64458422D01*
X48585000Y-57836578D01*
X59336814Y-68588393D01*
X59315000Y-68698061D01*
X59315000Y-68901939D01*
X59354774Y-69101898D01*
X59432795Y-69290256D01*
X59546063Y-69459774D01*
X59690226Y-69603937D01*
X59859744Y-69717205D01*
X60048102Y-69795226D01*
X60248061Y-69835000D01*
X60451939Y-69835000D01*
X60651898Y-69795226D01*
X60840256Y-69717205D01*
X61009774Y-69603937D01*
X61153937Y-69459774D01*
X61267205Y-69290256D01*
X61345226Y-69101898D01*
X61385000Y-68901939D01*
X61385000Y-68698061D01*
X61345226Y-68498102D01*
X61267205Y-68309744D01*
X61229804Y-68253770D01*
X61222195Y-68176510D01*
X61171589Y-68009687D01*
X61089411Y-67855941D01*
X61041910Y-67798061D01*
X61006532Y-67754953D01*
X61006530Y-67754951D01*
X60978817Y-67721183D01*
X60945051Y-67693472D01*
X49006535Y-55754957D01*
X48995226Y-55698102D01*
X48917205Y-55509744D01*
X48803937Y-55340226D01*
X48659774Y-55196063D01*
X48490256Y-55082795D01*
X48301898Y-55004774D01*
X48101939Y-54965000D01*
X47898061Y-54965000D01*
X47698102Y-55004774D01*
X47509744Y-55082795D01*
X47340226Y-55196063D01*
X47196063Y-55340226D01*
X47082795Y-55509744D01*
X47004774Y-55698102D01*
X46965000Y-55898061D01*
X46965000Y-56101939D01*
X46993097Y-56243192D01*
X46896063Y-56340226D01*
X46782795Y-56509744D01*
X46704774Y-56698102D01*
X46665000Y-56898061D01*
X26127000Y-56898061D01*
X26127000Y-50425000D01*
X47486928Y-50425000D01*
X47499188Y-50549482D01*
X47535498Y-50669180D01*
X47594463Y-50779494D01*
X47654099Y-50852161D01*
X47634488Y-50876058D01*
X47553577Y-51027433D01*
X47503752Y-51191684D01*
X47486928Y-51362500D01*
X47486928Y-51937500D01*
X47503752Y-52108316D01*
X47553577Y-52272567D01*
X47634488Y-52423942D01*
X47743377Y-52556623D01*
X47876058Y-52665512D01*
X48027433Y-52746423D01*
X48191684Y-52796248D01*
X48362500Y-52813072D01*
X48837500Y-52813072D01*
X49008316Y-52796248D01*
X49172567Y-52746423D01*
X49323942Y-52665512D01*
X49456623Y-52556623D01*
X49565512Y-52423942D01*
X49646423Y-52272567D01*
X49696248Y-52108316D01*
X49713072Y-51937500D01*
X49713072Y-51362500D01*
X49696248Y-51191684D01*
X49646423Y-51027433D01*
X49565512Y-50876058D01*
X49545901Y-50852161D01*
X49605537Y-50779494D01*
X49664502Y-50669180D01*
X49700812Y-50549482D01*
X49703657Y-50520593D01*
X49773000Y-50451250D01*
X49773000Y-49627000D01*
X49753000Y-49627000D01*
X49753000Y-49373000D01*
X49773000Y-49373000D01*
X49773000Y-48548750D01*
X50027000Y-48548750D01*
X50027000Y-49373000D01*
X50047000Y-49373000D01*
X50047000Y-49627000D01*
X50027000Y-49627000D01*
X50027000Y-50451250D01*
X50185750Y-50610000D01*
X50425000Y-50613072D01*
X50549482Y-50600812D01*
X50669180Y-50564502D01*
X50779494Y-50505537D01*
X50852161Y-50445901D01*
X50876058Y-50465512D01*
X51027433Y-50546423D01*
X51191684Y-50596248D01*
X51362500Y-50613072D01*
X51937500Y-50613072D01*
X52108316Y-50596248D01*
X52272567Y-50546423D01*
X52423942Y-50465512D01*
X52556623Y-50356623D01*
X52665512Y-50223942D01*
X52746423Y-50072567D01*
X52796248Y-49908316D01*
X52813072Y-49737500D01*
X52813072Y-49262500D01*
X52812029Y-49251914D01*
X52909744Y-49317205D01*
X53098102Y-49395226D01*
X53298061Y-49435000D01*
X53501939Y-49435000D01*
X53701898Y-49395226D01*
X53890256Y-49317205D01*
X54059774Y-49203937D01*
X54203937Y-49059774D01*
X54317205Y-48890256D01*
X54395226Y-48701898D01*
X54435000Y-48501939D01*
X54435000Y-48298061D01*
X54395226Y-48098102D01*
X54317205Y-47909744D01*
X54203937Y-47740226D01*
X54060000Y-47596289D01*
X54060000Y-36003711D01*
X54103937Y-35959774D01*
X54217205Y-35790256D01*
X54295226Y-35601898D01*
X54335000Y-35401939D01*
X54335000Y-35198061D01*
X54295226Y-34998102D01*
X54217205Y-34809744D01*
X54103937Y-34640226D01*
X53959774Y-34496063D01*
X53790256Y-34382795D01*
X53601898Y-34304774D01*
X53401939Y-34265000D01*
X53198061Y-34265000D01*
X52998102Y-34304774D01*
X52809744Y-34382795D01*
X52640226Y-34496063D01*
X52496063Y-34640226D01*
X52382795Y-34809744D01*
X52304774Y-34998102D01*
X52265000Y-35198061D01*
X52265000Y-35401939D01*
X52304774Y-35601898D01*
X52382795Y-35790256D01*
X52496063Y-35959774D01*
X52540000Y-36003711D01*
X52540001Y-47276290D01*
X52459774Y-47196063D01*
X52290256Y-47082795D01*
X52101898Y-47004774D01*
X51901939Y-46965000D01*
X51698061Y-46965000D01*
X51498102Y-47004774D01*
X51309744Y-47082795D01*
X51140226Y-47196063D01*
X50996063Y-47340226D01*
X50882795Y-47509744D01*
X50804774Y-47698102D01*
X50765000Y-47898061D01*
X50765000Y-48101939D01*
X50804774Y-48301898D01*
X50882795Y-48490256D01*
X50902799Y-48520195D01*
X50876058Y-48534488D01*
X50852161Y-48554099D01*
X50779494Y-48494463D01*
X50669180Y-48435498D01*
X50549482Y-48399188D01*
X50425000Y-48386928D01*
X50185750Y-48390000D01*
X50027000Y-48548750D01*
X49773000Y-48548750D01*
X49614250Y-48390000D01*
X49375000Y-48386928D01*
X49250518Y-48399188D01*
X49130820Y-48435498D01*
X49020506Y-48494463D01*
X48923815Y-48573815D01*
X48844463Y-48670506D01*
X48785498Y-48780820D01*
X48759619Y-48866131D01*
X48727000Y-48898750D01*
X48727000Y-49773000D01*
X48747000Y-49773000D01*
X48747000Y-49778750D01*
X48740000Y-49785750D01*
X48736928Y-49975000D01*
X48742049Y-50027000D01*
X48727000Y-50027000D01*
X48727000Y-50047000D01*
X48473000Y-50047000D01*
X48473000Y-50027000D01*
X47648750Y-50027000D01*
X47490000Y-50185750D01*
X47486928Y-50425000D01*
X26127000Y-50425000D01*
X26127000Y-49375000D01*
X47486928Y-49375000D01*
X47490000Y-49614250D01*
X47648750Y-49773000D01*
X48473000Y-49773000D01*
X48473000Y-48898750D01*
X48314250Y-48740000D01*
X48125000Y-48736928D01*
X48000518Y-48749188D01*
X47880820Y-48785498D01*
X47770506Y-48844463D01*
X47673815Y-48923815D01*
X47594463Y-49020506D01*
X47535498Y-49130820D01*
X47499188Y-49250518D01*
X47486928Y-49375000D01*
X26127000Y-49375000D01*
X26127000Y-28027265D01*
X73873000Y-28126736D01*
G37*
X73873000Y-28126736D02*
X73873000Y-75973000D01*
X26127000Y-75973000D01*
X26127000Y-70792702D01*
X48286903Y-70792702D01*
X48358486Y-71036671D01*
X48613996Y-71157571D01*
X48888184Y-71226300D01*
X49170512Y-71240217D01*
X49450130Y-71198787D01*
X49716292Y-71103603D01*
X49841514Y-71036671D01*
X49913097Y-70792702D01*
X49100000Y-69979605D01*
X48286903Y-70792702D01*
X26127000Y-70792702D01*
X26127000Y-56898061D01*
X46665000Y-56898061D01*
X46665000Y-57101939D01*
X46704774Y-57301898D01*
X46782795Y-57490256D01*
X46815000Y-57538454D01*
X46815001Y-64781521D01*
X46810719Y-64825000D01*
X46827805Y-64998490D01*
X46878412Y-65165313D01*
X46960590Y-65319059D01*
X47043468Y-65420046D01*
X47043471Y-65420049D01*
X47071184Y-65453817D01*
X47104951Y-65481529D01*
X48418387Y-66794966D01*
X48375518Y-66799188D01*
X48255820Y-66835498D01*
X48145506Y-66894463D01*
X48048815Y-66973815D01*
X47969463Y-67070506D01*
X47910498Y-67180820D01*
X47874188Y-67300518D01*
X47861928Y-67425000D01*
X47865000Y-67614250D01*
X48023750Y-67773000D01*
X48898000Y-67773000D01*
X48898000Y-67753000D01*
X49152000Y-67753000D01*
X49152000Y-67773000D01*
X49172000Y-67773000D01*
X49172000Y-68027000D01*
X49152000Y-68027000D01*
X49152000Y-68047000D01*
X48898000Y-68047000D01*
X48898000Y-68027000D01*
X48023750Y-68027000D01*
X47865000Y-68185750D01*
X47861928Y-68375000D01*
X47874188Y-68499482D01*
X47910498Y-68619180D01*
X47969463Y-68729494D01*
X48042799Y-68818854D01*
X47991023Y-68870630D01*
X48107296Y-68986903D01*
X47863329Y-69058486D01*
X47742429Y-69313996D01*
X47673700Y-69588184D01*
X47659783Y-69870512D01*
X47701213Y-70150130D01*
X47796397Y-70416292D01*
X47863329Y-70541514D01*
X48107298Y-70613097D01*
X48920395Y-69800000D01*
X48906253Y-69785858D01*
X49085858Y-69606253D01*
X49100000Y-69620395D01*
X49114143Y-69606253D01*
X49293748Y-69785858D01*
X49279605Y-69800000D01*
X50092702Y-70613097D01*
X50336671Y-70541514D01*
X50457571Y-70286004D01*
X50526300Y-70011816D01*
X50540217Y-69729488D01*
X50498787Y-69449870D01*
X50403603Y-69183708D01*
X50336671Y-69058486D01*
X50092704Y-68986903D01*
X50139889Y-68939718D01*
X50152433Y-68946423D01*
X50316684Y-68996248D01*
X50487500Y-69013072D01*
X51062500Y-69013072D01*
X51233316Y-68996248D01*
X51397567Y-68946423D01*
X51548942Y-68865512D01*
X51600000Y-68823610D01*
X51651058Y-68865512D01*
X51802433Y-68946423D01*
X51966684Y-68996248D01*
X52137500Y-69013072D01*
X52712500Y-69013072D01*
X52883316Y-68996248D01*
X52918277Y-68985643D01*
X52828320Y-69120273D01*
X52720147Y-69381426D01*
X52665000Y-69658665D01*
X52665000Y-69941335D01*
X52720147Y-70218574D01*
X52828320Y-70479727D01*
X52985363Y-70714759D01*
X53185241Y-70914637D01*
X53420273Y-71071680D01*
X53681426Y-71179853D01*
X53958665Y-71235000D01*
X54241335Y-71235000D01*
X54518574Y-71179853D01*
X54779727Y-71071680D01*
X55014759Y-70914637D01*
X55214637Y-70714759D01*
X55371680Y-70479727D01*
X55479853Y-70218574D01*
X55535000Y-69941335D01*
X55535000Y-69658665D01*
X55479853Y-69381426D01*
X55371680Y-69120273D01*
X55214637Y-68885241D01*
X55083605Y-68754209D01*
X55190512Y-68623942D01*
X55271423Y-68472567D01*
X55321248Y-68308316D01*
X55338072Y-68137500D01*
X55338072Y-67662500D01*
X55321248Y-67491684D01*
X55271423Y-67327433D01*
X55190512Y-67176058D01*
X55081623Y-67043377D01*
X54948942Y-66934488D01*
X54797567Y-66853577D01*
X54633316Y-66803752D01*
X54462500Y-66786928D01*
X53887500Y-66786928D01*
X53716684Y-66803752D01*
X53552433Y-66853577D01*
X53401058Y-66934488D01*
X53300000Y-67017425D01*
X53198942Y-66934488D01*
X53047567Y-66853577D01*
X52883316Y-66803752D01*
X52712500Y-66786928D01*
X52137500Y-66786928D01*
X51966684Y-66803752D01*
X51802433Y-66853577D01*
X51651058Y-66934488D01*
X51600000Y-66976390D01*
X51548942Y-66934488D01*
X51397567Y-66853577D01*
X51233316Y-66803752D01*
X51062500Y-66786928D01*
X50913507Y-66786928D01*
X48585000Y-64458422D01*
X48585000Y-57836578D01*
X59336814Y-68588393D01*
X59315000Y-68698061D01*
X59315000Y-68901939D01*
X59354774Y-69101898D01*
X59432795Y-69290256D01*
X59546063Y-69459774D01*
X59690226Y-69603937D01*
X59859744Y-69717205D01*
X60048102Y-69795226D01*
X60248061Y-69835000D01*
X60451939Y-69835000D01*
X60651898Y-69795226D01*
X60840256Y-69717205D01*
X61009774Y-69603937D01*
X61153937Y-69459774D01*
X61267205Y-69290256D01*
X61345226Y-69101898D01*
X61385000Y-68901939D01*
X61385000Y-68698061D01*
X61345226Y-68498102D01*
X61267205Y-68309744D01*
X61229804Y-68253770D01*
X61222195Y-68176510D01*
X61171589Y-68009687D01*
X61089411Y-67855941D01*
X61041910Y-67798061D01*
X61006532Y-67754953D01*
X61006530Y-67754951D01*
X60978817Y-67721183D01*
X60945051Y-67693472D01*
X49006535Y-55754957D01*
X48995226Y-55698102D01*
X48917205Y-55509744D01*
X48803937Y-55340226D01*
X48659774Y-55196063D01*
X48490256Y-55082795D01*
X48301898Y-55004774D01*
X48101939Y-54965000D01*
X47898061Y-54965000D01*
X47698102Y-55004774D01*
X47509744Y-55082795D01*
X47340226Y-55196063D01*
X47196063Y-55340226D01*
X47082795Y-55509744D01*
X47004774Y-55698102D01*
X46965000Y-55898061D01*
X46965000Y-56101939D01*
X46993097Y-56243192D01*
X46896063Y-56340226D01*
X46782795Y-56509744D01*
X46704774Y-56698102D01*
X46665000Y-56898061D01*
X26127000Y-56898061D01*
X26127000Y-50425000D01*
X47486928Y-50425000D01*
X47499188Y-50549482D01*
X47535498Y-50669180D01*
X47594463Y-50779494D01*
X47654099Y-50852161D01*
X47634488Y-50876058D01*
X47553577Y-51027433D01*
X47503752Y-51191684D01*
X47486928Y-51362500D01*
X47486928Y-51937500D01*
X47503752Y-52108316D01*
X47553577Y-52272567D01*
X47634488Y-52423942D01*
X47743377Y-52556623D01*
X47876058Y-52665512D01*
X48027433Y-52746423D01*
X48191684Y-52796248D01*
X48362500Y-52813072D01*
X48837500Y-52813072D01*
X49008316Y-52796248D01*
X49172567Y-52746423D01*
X49323942Y-52665512D01*
X49456623Y-52556623D01*
X49565512Y-52423942D01*
X49646423Y-52272567D01*
X49696248Y-52108316D01*
X49713072Y-51937500D01*
X49713072Y-51362500D01*
X49696248Y-51191684D01*
X49646423Y-51027433D01*
X49565512Y-50876058D01*
X49545901Y-50852161D01*
X49605537Y-50779494D01*
X49664502Y-50669180D01*
X49700812Y-50549482D01*
X49703657Y-50520593D01*
X49773000Y-50451250D01*
X49773000Y-49627000D01*
X49753000Y-49627000D01*
X49753000Y-49373000D01*
X49773000Y-49373000D01*
X49773000Y-48548750D01*
X50027000Y-48548750D01*
X50027000Y-49373000D01*
X50047000Y-49373000D01*
X50047000Y-49627000D01*
X50027000Y-49627000D01*
X50027000Y-50451250D01*
X50185750Y-50610000D01*
X50425000Y-50613072D01*
X50549482Y-50600812D01*
X50669180Y-50564502D01*
X50779494Y-50505537D01*
X50852161Y-50445901D01*
X50876058Y-50465512D01*
X51027433Y-50546423D01*
X51191684Y-50596248D01*
X51362500Y-50613072D01*
X51937500Y-50613072D01*
X52108316Y-50596248D01*
X52272567Y-50546423D01*
X52423942Y-50465512D01*
X52556623Y-50356623D01*
X52665512Y-50223942D01*
X52746423Y-50072567D01*
X52796248Y-49908316D01*
X52813072Y-49737500D01*
X52813072Y-49262500D01*
X52812029Y-49251914D01*
X52909744Y-49317205D01*
X53098102Y-49395226D01*
X53298061Y-49435000D01*
X53501939Y-49435000D01*
X53701898Y-49395226D01*
X53890256Y-49317205D01*
X54059774Y-49203937D01*
X54203937Y-49059774D01*
X54317205Y-48890256D01*
X54395226Y-48701898D01*
X54435000Y-48501939D01*
X54435000Y-48298061D01*
X54395226Y-48098102D01*
X54317205Y-47909744D01*
X54203937Y-47740226D01*
X54060000Y-47596289D01*
X54060000Y-36003711D01*
X54103937Y-35959774D01*
X54217205Y-35790256D01*
X54295226Y-35601898D01*
X54335000Y-35401939D01*
X54335000Y-35198061D01*
X54295226Y-34998102D01*
X54217205Y-34809744D01*
X54103937Y-34640226D01*
X53959774Y-34496063D01*
X53790256Y-34382795D01*
X53601898Y-34304774D01*
X53401939Y-34265000D01*
X53198061Y-34265000D01*
X52998102Y-34304774D01*
X52809744Y-34382795D01*
X52640226Y-34496063D01*
X52496063Y-34640226D01*
X52382795Y-34809744D01*
X52304774Y-34998102D01*
X52265000Y-35198061D01*
X52265000Y-35401939D01*
X52304774Y-35601898D01*
X52382795Y-35790256D01*
X52496063Y-35959774D01*
X52540000Y-36003711D01*
X52540001Y-47276290D01*
X52459774Y-47196063D01*
X52290256Y-47082795D01*
X52101898Y-47004774D01*
X51901939Y-46965000D01*
X51698061Y-46965000D01*
X51498102Y-47004774D01*
X51309744Y-47082795D01*
X51140226Y-47196063D01*
X50996063Y-47340226D01*
X50882795Y-47509744D01*
X50804774Y-47698102D01*
X50765000Y-47898061D01*
X50765000Y-48101939D01*
X50804774Y-48301898D01*
X50882795Y-48490256D01*
X50902799Y-48520195D01*
X50876058Y-48534488D01*
X50852161Y-48554099D01*
X50779494Y-48494463D01*
X50669180Y-48435498D01*
X50549482Y-48399188D01*
X50425000Y-48386928D01*
X50185750Y-48390000D01*
X50027000Y-48548750D01*
X49773000Y-48548750D01*
X49614250Y-48390000D01*
X49375000Y-48386928D01*
X49250518Y-48399188D01*
X49130820Y-48435498D01*
X49020506Y-48494463D01*
X48923815Y-48573815D01*
X48844463Y-48670506D01*
X48785498Y-48780820D01*
X48759619Y-48866131D01*
X48727000Y-48898750D01*
X48727000Y-49773000D01*
X48747000Y-49773000D01*
X48747000Y-49778750D01*
X48740000Y-49785750D01*
X48736928Y-49975000D01*
X48742049Y-50027000D01*
X48727000Y-50027000D01*
X48727000Y-50047000D01*
X48473000Y-50047000D01*
X48473000Y-50027000D01*
X47648750Y-50027000D01*
X47490000Y-50185750D01*
X47486928Y-50425000D01*
X26127000Y-50425000D01*
X26127000Y-49375000D01*
X47486928Y-49375000D01*
X47490000Y-49614250D01*
X47648750Y-49773000D01*
X48473000Y-49773000D01*
X48473000Y-48898750D01*
X48314250Y-48740000D01*
X48125000Y-48736928D01*
X48000518Y-48749188D01*
X47880820Y-48785498D01*
X47770506Y-48844463D01*
X47673815Y-48923815D01*
X47594463Y-49020506D01*
X47535498Y-49130820D01*
X47499188Y-49250518D01*
X47486928Y-49375000D01*
X26127000Y-49375000D01*
X26127000Y-28027265D01*
X73873000Y-28126736D01*
%TD*%
M02*
