%TF.GenerationSoftware,KiCad,Pcbnew,(5.1.6-0-10_14)*%
%TF.CreationDate,2021-01-01T01:37:36+01:00*%
%TF.ProjectId,driver,64726976-6572-42e6-9b69-6361645f7063,rev?*%
%TF.SameCoordinates,Original*%
%TF.FileFunction,Legend,Bot*%
%TF.FilePolarity,Positive*%
%FSLAX46Y46*%
G04 Gerber Fmt 4.6, Leading zero omitted, Abs format (unit mm)*
G04 Created by KiCad (PCBNEW (5.1.6-0-10_14)) date 2021-01-01 01:37:36*
%MOMM*%
%LPD*%
G01*
G04 APERTURE LIST*
%ADD10C,0.120000*%
%ADD11C,0.150000*%
G04 APERTURE END LIST*
D10*
%TO.C,C1*%
X50946267Y-48990000D02*
X50603733Y-48990000D01*
X50946267Y-50010000D02*
X50603733Y-50010000D01*
%TO.C,C2*%
X48090000Y-50946267D02*
X48090000Y-50603733D01*
X49110000Y-50946267D02*
X49110000Y-50603733D01*
%TO.C,R4*%
X53471267Y-68410000D02*
X53128733Y-68410000D01*
X53471267Y-67390000D02*
X53128733Y-67390000D01*
%TO.C,R5*%
X50071267Y-67390000D02*
X49728733Y-67390000D01*
X50071267Y-68410000D02*
X49728733Y-68410000D01*
%TO.C,C1*%
D11*
X50941666Y-48427142D02*
X50989285Y-48474761D01*
X51132142Y-48522380D01*
X51227380Y-48522380D01*
X51370238Y-48474761D01*
X51465476Y-48379523D01*
X51513095Y-48284285D01*
X51560714Y-48093809D01*
X51560714Y-47950952D01*
X51513095Y-47760476D01*
X51465476Y-47665238D01*
X51370238Y-47570000D01*
X51227380Y-47522380D01*
X51132142Y-47522380D01*
X50989285Y-47570000D01*
X50941666Y-47617619D01*
X49989285Y-48522380D02*
X50560714Y-48522380D01*
X50275000Y-48522380D02*
X50275000Y-47522380D01*
X50370238Y-47665238D01*
X50465476Y-47760476D01*
X50560714Y-47808095D01*
%TO.C,C2*%
X50387142Y-50608333D02*
X50434761Y-50560714D01*
X50482380Y-50417857D01*
X50482380Y-50322619D01*
X50434761Y-50179761D01*
X50339523Y-50084523D01*
X50244285Y-50036904D01*
X50053809Y-49989285D01*
X49910952Y-49989285D01*
X49720476Y-50036904D01*
X49625238Y-50084523D01*
X49530000Y-50179761D01*
X49482380Y-50322619D01*
X49482380Y-50417857D01*
X49530000Y-50560714D01*
X49577619Y-50608333D01*
X49577619Y-50989285D02*
X49530000Y-51036904D01*
X49482380Y-51132142D01*
X49482380Y-51370238D01*
X49530000Y-51465476D01*
X49577619Y-51513095D01*
X49672857Y-51560714D01*
X49768095Y-51560714D01*
X49910952Y-51513095D01*
X50482380Y-50941666D01*
X50482380Y-51560714D01*
%TO.C,R4*%
X53466666Y-66922380D02*
X53800000Y-66446190D01*
X54038095Y-66922380D02*
X54038095Y-65922380D01*
X53657142Y-65922380D01*
X53561904Y-65970000D01*
X53514285Y-66017619D01*
X53466666Y-66112857D01*
X53466666Y-66255714D01*
X53514285Y-66350952D01*
X53561904Y-66398571D01*
X53657142Y-66446190D01*
X54038095Y-66446190D01*
X52609523Y-66255714D02*
X52609523Y-66922380D01*
X52847619Y-65874761D02*
X53085714Y-66589047D01*
X52466666Y-66589047D01*
%TO.C,R5*%
X50066666Y-66922380D02*
X50400000Y-66446190D01*
X50638095Y-66922380D02*
X50638095Y-65922380D01*
X50257142Y-65922380D01*
X50161904Y-65970000D01*
X50114285Y-66017619D01*
X50066666Y-66112857D01*
X50066666Y-66255714D01*
X50114285Y-66350952D01*
X50161904Y-66398571D01*
X50257142Y-66446190D01*
X50638095Y-66446190D01*
X49161904Y-65922380D02*
X49638095Y-65922380D01*
X49685714Y-66398571D01*
X49638095Y-66350952D01*
X49542857Y-66303333D01*
X49304761Y-66303333D01*
X49209523Y-66350952D01*
X49161904Y-66398571D01*
X49114285Y-66493809D01*
X49114285Y-66731904D01*
X49161904Y-66827142D01*
X49209523Y-66874761D01*
X49304761Y-66922380D01*
X49542857Y-66922380D01*
X49638095Y-66874761D01*
X49685714Y-66827142D01*
%TD*%
M02*
