M48
; DRILL file {KiCad (5.1.6-0-10_14)} date Friday, January 01, 2021 at 01:30:39 AM
; FORMAT={-:-/ absolute / inch / decimal}
; #@! TF.CreationDate,2021-01-01T01:30:39+01:00
; #@! TF.GenerationSoftware,Kicad,Pcbnew,(5.1.6-0-10_14)
; #@! TF.FileFunction,Plated,1,2,PTH
FMAT,2
INCH
T1C0.0157
T2C0.0315
%
G90
G05
T1
X1.4409Y-1.3189
X1.4961Y-1.3189
X1.5472Y-1.3189
X1.5512Y-1.8858
X1.5551Y-1.937
X1.5551Y-1.9921
X1.5551Y-2.0472
X1.5591Y-2.0906
X1.563Y-1.8346
X1.6181Y-1.3189
X1.6334Y-1.8858
X1.6334Y-1.9296
X1.6334Y-1.9769
X1.6334Y-2.0241
X1.6732Y-1.3189
X1.7165Y-1.8701
X1.7165Y-2.0551
X1.7205Y-1.3189
X1.7205Y-1.9213
X1.7205Y-1.9646
X1.7205Y-2.0039
X1.7559Y-1.8661
X1.7598Y-1.9409
X1.7598Y-2.0118
X1.7835Y-1.9016
X1.7874Y-1.3189
X1.7953Y-1.9803
X1.811Y-1.937
X1.8425Y-1.3189
X1.878Y-2.2441
X1.8898Y-2.2047
X1.9016Y-1.3189
X1.9134Y-1.9646
X1.9134Y-2.0335
X1.9528Y-1.2953
X1.9646Y-1.9488
X1.9783Y-2.8366
X1.9843Y-2.7992
X1.9961Y-1.252
X1.999Y-2.6732
X2.0079Y-2.8661
X2.0335Y-2.8169
X2.0335Y-1.2146
X2.0394Y-1.8898
X2.0472Y-2.9055
X2.0866Y-2.8543
X2.0984Y-1.3898
X2.1024Y-1.9055
X2.1063Y-2.9134
X2.1299Y-2.8543
X2.1693Y-2.9134
X2.187Y-2.8366
X2.2165Y-2.8071
X2.2205Y-2.8819
X2.2559Y-2.7677
X2.2717Y-2.8307
X2.2953Y-2.7638
X2.2953Y-2.8031
X2.376Y-2.7087
T2
X1.9331Y-2.748
X2.1299Y-2.748
T0
M30
