%TF.GenerationSoftware,KiCad,Pcbnew,(5.1.6-0-10_14)*%
%TF.CreationDate,2021-01-01T01:37:36+01:00*%
%TF.ProjectId,driver,64726976-6572-42e6-9b69-6361645f7063,rev?*%
%TF.SameCoordinates,Original*%
%TF.FileFunction,Legend,Top*%
%TF.FilePolarity,Positive*%
%FSLAX46Y46*%
G04 Gerber Fmt 4.6, Leading zero omitted, Abs format (unit mm)*
G04 Created by KiCad (PCBNEW (5.1.6-0-10_14)) date 2021-01-01 01:37:36*
%MOMM*%
%LPD*%
G01*
G04 APERTURE LIST*
%ADD10C,0.150000*%
%ADD11C,0.120000*%
G04 APERTURE END LIST*
D10*
X27428571Y-74452380D02*
X27428571Y-73452380D01*
X27666666Y-73452380D01*
X27809523Y-73500000D01*
X27904761Y-73595238D01*
X27952380Y-73690476D01*
X28000000Y-73880952D01*
X28000000Y-74023809D01*
X27952380Y-74214285D01*
X27904761Y-74309523D01*
X27809523Y-74404761D01*
X27666666Y-74452380D01*
X27428571Y-74452380D01*
X28904761Y-74452380D02*
X28428571Y-74452380D01*
X28428571Y-73452380D01*
X29714285Y-74452380D02*
X29238095Y-74452380D01*
X29238095Y-73452380D01*
X31238095Y-74452380D02*
X31238095Y-73452380D01*
X31238095Y-74404761D02*
X31142857Y-74452380D01*
X30952380Y-74452380D01*
X30857142Y-74404761D01*
X30809523Y-74357142D01*
X30761904Y-74261904D01*
X30761904Y-73976190D01*
X30809523Y-73880952D01*
X30857142Y-73833333D01*
X30952380Y-73785714D01*
X31142857Y-73785714D01*
X31238095Y-73833333D01*
X31714285Y-74452380D02*
X31714285Y-73785714D01*
X31714285Y-73976190D02*
X31761904Y-73880952D01*
X31809523Y-73833333D01*
X31904761Y-73785714D01*
X32000000Y-73785714D01*
X32333333Y-74452380D02*
X32333333Y-73785714D01*
X32333333Y-73452380D02*
X32285714Y-73500000D01*
X32333333Y-73547619D01*
X32380952Y-73500000D01*
X32333333Y-73452380D01*
X32333333Y-73547619D01*
X32714285Y-73785714D02*
X32952380Y-74452380D01*
X33190476Y-73785714D01*
X33952380Y-74404761D02*
X33857142Y-74452380D01*
X33666666Y-74452380D01*
X33571428Y-74404761D01*
X33523809Y-74309523D01*
X33523809Y-73928571D01*
X33571428Y-73833333D01*
X33666666Y-73785714D01*
X33857142Y-73785714D01*
X33952380Y-73833333D01*
X34000000Y-73928571D01*
X34000000Y-74023809D01*
X33523809Y-74119047D01*
X34428571Y-74452380D02*
X34428571Y-73785714D01*
X34428571Y-73976190D02*
X34476190Y-73880952D01*
X34523809Y-73833333D01*
X34619047Y-73785714D01*
X34714285Y-73785714D01*
X35714285Y-73785714D02*
X35952380Y-74452380D01*
X36190476Y-73785714D01*
X37095238Y-74452380D02*
X36523809Y-74452380D01*
X36809523Y-74452380D02*
X36809523Y-73452380D01*
X36714285Y-73595238D01*
X36619047Y-73690476D01*
X36523809Y-73738095D01*
X37523809Y-74357142D02*
X37571428Y-74404761D01*
X37523809Y-74452380D01*
X37476190Y-74404761D01*
X37523809Y-74357142D01*
X37523809Y-74452380D01*
X38190476Y-73452380D02*
X38285714Y-73452380D01*
X38380952Y-73500000D01*
X38428571Y-73547619D01*
X38476190Y-73642857D01*
X38523809Y-73833333D01*
X38523809Y-74071428D01*
X38476190Y-74261904D01*
X38428571Y-74357142D01*
X38380952Y-74404761D01*
X38285714Y-74452380D01*
X38190476Y-74452380D01*
X38095238Y-74404761D01*
X38047619Y-74357142D01*
X38000000Y-74261904D01*
X37952380Y-74071428D01*
X37952380Y-73833333D01*
X38000000Y-73642857D01*
X38047619Y-73547619D01*
X38095238Y-73500000D01*
X38190476Y-73452380D01*
X39571428Y-73785714D02*
X39952380Y-73785714D01*
X39714285Y-74452380D02*
X39714285Y-73595238D01*
X39761904Y-73500000D01*
X39857142Y-73452380D01*
X39952380Y-73452380D01*
X40285714Y-74452380D02*
X40285714Y-73452380D01*
X40714285Y-74452380D02*
X40714285Y-73928571D01*
X40666666Y-73833333D01*
X40571428Y-73785714D01*
X40428571Y-73785714D01*
X40333333Y-73833333D01*
X40285714Y-73880952D01*
X41619047Y-74452380D02*
X41619047Y-73928571D01*
X41571428Y-73833333D01*
X41476190Y-73785714D01*
X41285714Y-73785714D01*
X41190476Y-73833333D01*
X41619047Y-74404761D02*
X41523809Y-74452380D01*
X41285714Y-74452380D01*
X41190476Y-74404761D01*
X41142857Y-74309523D01*
X41142857Y-74214285D01*
X41190476Y-74119047D01*
X41285714Y-74071428D01*
X41523809Y-74071428D01*
X41619047Y-74023809D01*
X42095238Y-74452380D02*
X42095238Y-73785714D01*
X42095238Y-73976190D02*
X42142857Y-73880952D01*
X42190476Y-73833333D01*
X42285714Y-73785714D01*
X42380952Y-73785714D01*
X42857142Y-74452380D02*
X42761904Y-74404761D01*
X42714285Y-74357142D01*
X42666666Y-74261904D01*
X42666666Y-73976190D01*
X42714285Y-73880952D01*
X42761904Y-73833333D01*
X42857142Y-73785714D01*
X43000000Y-73785714D01*
X43095238Y-73833333D01*
X43142857Y-73880952D01*
X43190476Y-73976190D01*
X43190476Y-74261904D01*
X43142857Y-74357142D01*
X43095238Y-74404761D01*
X43000000Y-74452380D01*
X42857142Y-74452380D01*
X43761904Y-74452380D02*
X43666666Y-74404761D01*
X43619047Y-74309523D01*
X43619047Y-73452380D01*
X44571428Y-74452380D02*
X44571428Y-73452380D01*
X44571428Y-74404761D02*
X44476190Y-74452380D01*
X44285714Y-74452380D01*
X44190476Y-74404761D01*
X44142857Y-74357142D01*
X44095238Y-74261904D01*
X44095238Y-73976190D01*
X44142857Y-73880952D01*
X44190476Y-73833333D01*
X44285714Y-73785714D01*
X44476190Y-73785714D01*
X44571428Y-73833333D01*
D11*
%TO.C,C3*%
X56720000Y-69800000D02*
G75*
G03*
X56720000Y-69800000I-5120000J0D01*
G01*
%TO.C,C4*%
X46695563Y-43160000D02*
X47760000Y-42095563D01*
X38304437Y-43160000D02*
X37240000Y-42095563D01*
X38304437Y-43160000D02*
X41190000Y-43160000D01*
X46695563Y-43160000D02*
X43810000Y-43160000D01*
X47760000Y-42095563D02*
X47760000Y-32640000D01*
X37240000Y-42095563D02*
X37240000Y-32640000D01*
X37240000Y-32640000D02*
X41190000Y-32640000D01*
X47760000Y-32640000D02*
X43810000Y-32640000D01*
%TO.C,D1*%
X60810000Y-53675000D02*
X60810000Y-52575000D01*
X59000000Y-53675000D02*
X60810000Y-53675000D01*
X59000000Y-55175000D02*
X59000000Y-53675000D01*
X67590000Y-53675000D02*
X67590000Y-48550000D01*
X69400000Y-53675000D02*
X67590000Y-53675000D01*
X69400000Y-55175000D02*
X69400000Y-53675000D01*
%TO.C,L2*%
X70000000Y-35000000D02*
X70000000Y-38000000D01*
X57400000Y-35000000D02*
X70000000Y-35000000D01*
X57400000Y-38000000D02*
X57400000Y-35000000D01*
X57400000Y-47600000D02*
X57400000Y-44600000D01*
X70000000Y-47600000D02*
X57400000Y-47600000D01*
X70000000Y-44600000D02*
X70000000Y-47600000D01*
%TO.C,Q1*%
X42010000Y-54500000D02*
X42010000Y-60510000D01*
X35190000Y-56750000D02*
X35190000Y-60510000D01*
X42010000Y-60510000D02*
X40750000Y-60510000D01*
X35190000Y-60510000D02*
X36450000Y-60510000D01*
%TO.C,Rfb1*%
X59586252Y-68090000D02*
X59063748Y-68090000D01*
X59586252Y-69510000D02*
X59063748Y-69510000D01*
%TO.C,Rocp1*%
X36460436Y-53610000D02*
X40564564Y-53610000D01*
X36460436Y-50190000D02*
X40564564Y-50190000D01*
%TO.C,Rocp2*%
X36447936Y-46190000D02*
X40552064Y-46190000D01*
X36447936Y-49610000D02*
X40552064Y-49610000D01*
%TO.C,RPWM1*%
X53190000Y-33128733D02*
X53190000Y-33471267D01*
X54210000Y-33128733D02*
X54210000Y-33471267D01*
%TO.C,U1*%
X52365000Y-48440000D02*
X52365000Y-46750000D01*
X53110000Y-48440000D02*
X52365000Y-48440000D01*
X53110000Y-51200000D02*
X53110000Y-48440000D01*
X53110000Y-53960000D02*
X52365000Y-53960000D01*
X53110000Y-51200000D02*
X53110000Y-53960000D01*
X46690000Y-48440000D02*
X47435000Y-48440000D01*
X46690000Y-51200000D02*
X46690000Y-48440000D01*
X46690000Y-53960000D02*
X47435000Y-53960000D01*
X46690000Y-51200000D02*
X46690000Y-53960000D01*
%TO.C,C3*%
D10*
X51433333Y-76407142D02*
X51385714Y-76454761D01*
X51242857Y-76502380D01*
X51147619Y-76502380D01*
X51004761Y-76454761D01*
X50909523Y-76359523D01*
X50861904Y-76264285D01*
X50814285Y-76073809D01*
X50814285Y-75930952D01*
X50861904Y-75740476D01*
X50909523Y-75645238D01*
X51004761Y-75550000D01*
X51147619Y-75502380D01*
X51242857Y-75502380D01*
X51385714Y-75550000D01*
X51433333Y-75597619D01*
X51766666Y-75502380D02*
X52385714Y-75502380D01*
X52052380Y-75883333D01*
X52195238Y-75883333D01*
X52290476Y-75930952D01*
X52338095Y-75978571D01*
X52385714Y-76073809D01*
X52385714Y-76311904D01*
X52338095Y-76407142D01*
X52290476Y-76454761D01*
X52195238Y-76502380D01*
X51909523Y-76502380D01*
X51814285Y-76454761D01*
X51766666Y-76407142D01*
%TO.C,C4*%
X36657142Y-38066666D02*
X36704761Y-38114285D01*
X36752380Y-38257142D01*
X36752380Y-38352380D01*
X36704761Y-38495238D01*
X36609523Y-38590476D01*
X36514285Y-38638095D01*
X36323809Y-38685714D01*
X36180952Y-38685714D01*
X35990476Y-38638095D01*
X35895238Y-38590476D01*
X35800000Y-38495238D01*
X35752380Y-38352380D01*
X35752380Y-38257142D01*
X35800000Y-38114285D01*
X35847619Y-38066666D01*
X36085714Y-37209523D02*
X36752380Y-37209523D01*
X35704761Y-37447619D02*
X36419047Y-37685714D01*
X36419047Y-37066666D01*
%TO.C,D1*%
X71302380Y-57363095D02*
X70302380Y-57363095D01*
X70302380Y-57125000D01*
X70350000Y-56982142D01*
X70445238Y-56886904D01*
X70540476Y-56839285D01*
X70730952Y-56791666D01*
X70873809Y-56791666D01*
X71064285Y-56839285D01*
X71159523Y-56886904D01*
X71254761Y-56982142D01*
X71302380Y-57125000D01*
X71302380Y-57363095D01*
X71302380Y-55839285D02*
X71302380Y-56410714D01*
X71302380Y-56125000D02*
X70302380Y-56125000D01*
X70445238Y-56220238D01*
X70540476Y-56315476D01*
X70588095Y-56410714D01*
%TO.C,GND1*%
X27290000Y-36138095D02*
X27242380Y-36233333D01*
X27242380Y-36376190D01*
X27290000Y-36519047D01*
X27385238Y-36614285D01*
X27480476Y-36661904D01*
X27670952Y-36709523D01*
X27813809Y-36709523D01*
X28004285Y-36661904D01*
X28099523Y-36614285D01*
X28194761Y-36519047D01*
X28242380Y-36376190D01*
X28242380Y-36280952D01*
X28194761Y-36138095D01*
X28147142Y-36090476D01*
X27813809Y-36090476D01*
X27813809Y-36280952D01*
X28242380Y-35661904D02*
X27242380Y-35661904D01*
X28242380Y-35090476D01*
X27242380Y-35090476D01*
X28242380Y-34614285D02*
X27242380Y-34614285D01*
X27242380Y-34376190D01*
X27290000Y-34233333D01*
X27385238Y-34138095D01*
X27480476Y-34090476D01*
X27670952Y-34042857D01*
X27813809Y-34042857D01*
X28004285Y-34090476D01*
X28099523Y-34138095D01*
X28194761Y-34233333D01*
X28242380Y-34376190D01*
X28242380Y-34614285D01*
X28242380Y-33090476D02*
X28242380Y-33661904D01*
X28242380Y-33376190D02*
X27242380Y-33376190D01*
X27385238Y-33471428D01*
X27480476Y-33566666D01*
X27528095Y-33661904D01*
%TO.C,GND2*%
X47761904Y-28500000D02*
X47666666Y-28452380D01*
X47523809Y-28452380D01*
X47380952Y-28500000D01*
X47285714Y-28595238D01*
X47238095Y-28690476D01*
X47190476Y-28880952D01*
X47190476Y-29023809D01*
X47238095Y-29214285D01*
X47285714Y-29309523D01*
X47380952Y-29404761D01*
X47523809Y-29452380D01*
X47619047Y-29452380D01*
X47761904Y-29404761D01*
X47809523Y-29357142D01*
X47809523Y-29023809D01*
X47619047Y-29023809D01*
X48238095Y-29452380D02*
X48238095Y-28452380D01*
X48809523Y-29452380D01*
X48809523Y-28452380D01*
X49285714Y-29452380D02*
X49285714Y-28452380D01*
X49523809Y-28452380D01*
X49666666Y-28500000D01*
X49761904Y-28595238D01*
X49809523Y-28690476D01*
X49857142Y-28880952D01*
X49857142Y-29023809D01*
X49809523Y-29214285D01*
X49761904Y-29309523D01*
X49666666Y-29404761D01*
X49523809Y-29452380D01*
X49285714Y-29452380D01*
X50238095Y-28547619D02*
X50285714Y-28500000D01*
X50380952Y-28452380D01*
X50619047Y-28452380D01*
X50714285Y-28500000D01*
X50761904Y-28547619D01*
X50809523Y-28642857D01*
X50809523Y-28738095D01*
X50761904Y-28880952D01*
X50190476Y-29452380D01*
X50809523Y-29452380D01*
%TO.C,JLED+1*%
X63890476Y-65712380D02*
X63890476Y-66426666D01*
X63842857Y-66569523D01*
X63747619Y-66664761D01*
X63604761Y-66712380D01*
X63509523Y-66712380D01*
X64842857Y-66712380D02*
X64366666Y-66712380D01*
X64366666Y-65712380D01*
X65176190Y-66188571D02*
X65509523Y-66188571D01*
X65652380Y-66712380D02*
X65176190Y-66712380D01*
X65176190Y-65712380D01*
X65652380Y-65712380D01*
X66080952Y-66712380D02*
X66080952Y-65712380D01*
X66319047Y-65712380D01*
X66461904Y-65760000D01*
X66557142Y-65855238D01*
X66604761Y-65950476D01*
X66652380Y-66140952D01*
X66652380Y-66283809D01*
X66604761Y-66474285D01*
X66557142Y-66569523D01*
X66461904Y-66664761D01*
X66319047Y-66712380D01*
X66080952Y-66712380D01*
X67080952Y-66331428D02*
X67842857Y-66331428D01*
X67461904Y-66712380D02*
X67461904Y-65950476D01*
X68842857Y-66712380D02*
X68271428Y-66712380D01*
X68557142Y-66712380D02*
X68557142Y-65712380D01*
X68461904Y-65855238D01*
X68366666Y-65950476D01*
X68271428Y-65998095D01*
%TO.C,JLED-1*%
X59790476Y-65712380D02*
X59790476Y-66426666D01*
X59742857Y-66569523D01*
X59647619Y-66664761D01*
X59504761Y-66712380D01*
X59409523Y-66712380D01*
X60742857Y-66712380D02*
X60266666Y-66712380D01*
X60266666Y-65712380D01*
X61076190Y-66188571D02*
X61409523Y-66188571D01*
X61552380Y-66712380D02*
X61076190Y-66712380D01*
X61076190Y-65712380D01*
X61552380Y-65712380D01*
X61980952Y-66712380D02*
X61980952Y-65712380D01*
X62219047Y-65712380D01*
X62361904Y-65760000D01*
X62457142Y-65855238D01*
X62504761Y-65950476D01*
X62552380Y-66140952D01*
X62552380Y-66283809D01*
X62504761Y-66474285D01*
X62457142Y-66569523D01*
X62361904Y-66664761D01*
X62219047Y-66712380D01*
X61980952Y-66712380D01*
X62980952Y-66331428D02*
X63742857Y-66331428D01*
X64742857Y-66712380D02*
X64171428Y-66712380D01*
X64457142Y-66712380D02*
X64457142Y-65712380D01*
X64361904Y-65855238D01*
X64266666Y-65950476D01*
X64171428Y-65998095D01*
%TO.C,L1*%
X57868333Y-32272380D02*
X57392142Y-32272380D01*
X57392142Y-31272380D01*
X58725476Y-32272380D02*
X58154047Y-32272380D01*
X58439761Y-32272380D02*
X58439761Y-31272380D01*
X58344523Y-31415238D01*
X58249285Y-31510476D01*
X58154047Y-31558095D01*
%TO.C,L2*%
X63533333Y-34352380D02*
X63057142Y-34352380D01*
X63057142Y-33352380D01*
X63819047Y-33447619D02*
X63866666Y-33400000D01*
X63961904Y-33352380D01*
X64200000Y-33352380D01*
X64295238Y-33400000D01*
X64342857Y-33447619D01*
X64390476Y-33542857D01*
X64390476Y-33638095D01*
X64342857Y-33780952D01*
X63771428Y-34352380D01*
X64390476Y-34352380D01*
%TO.C,PWMin1*%
X51828571Y-28452380D02*
X51828571Y-27452380D01*
X52209523Y-27452380D01*
X52304761Y-27500000D01*
X52352380Y-27547619D01*
X52400000Y-27642857D01*
X52400000Y-27785714D01*
X52352380Y-27880952D01*
X52304761Y-27928571D01*
X52209523Y-27976190D01*
X51828571Y-27976190D01*
X52733333Y-27452380D02*
X52971428Y-28452380D01*
X53161904Y-27738095D01*
X53352380Y-28452380D01*
X53590476Y-27452380D01*
X53971428Y-28452380D02*
X53971428Y-27452380D01*
X54304761Y-28166666D01*
X54638095Y-27452380D01*
X54638095Y-28452380D01*
X55114285Y-28452380D02*
X55114285Y-27785714D01*
X55114285Y-27452380D02*
X55066666Y-27500000D01*
X55114285Y-27547619D01*
X55161904Y-27500000D01*
X55114285Y-27452380D01*
X55114285Y-27547619D01*
X55590476Y-27785714D02*
X55590476Y-28452380D01*
X55590476Y-27880952D02*
X55638095Y-27833333D01*
X55733333Y-27785714D01*
X55876190Y-27785714D01*
X55971428Y-27833333D01*
X56019047Y-27928571D01*
X56019047Y-28452380D01*
X57019047Y-28452380D02*
X56447619Y-28452380D01*
X56733333Y-28452380D02*
X56733333Y-27452380D01*
X56638095Y-27595238D01*
X56542857Y-27690476D01*
X56447619Y-27738095D01*
%TO.C,Q1*%
X43647619Y-58695238D02*
X43600000Y-58790476D01*
X43504761Y-58885714D01*
X43361904Y-59028571D01*
X43314285Y-59123809D01*
X43314285Y-59219047D01*
X43552380Y-59171428D02*
X43504761Y-59266666D01*
X43409523Y-59361904D01*
X43219047Y-59409523D01*
X42885714Y-59409523D01*
X42695238Y-59361904D01*
X42600000Y-59266666D01*
X42552380Y-59171428D01*
X42552380Y-58980952D01*
X42600000Y-58885714D01*
X42695238Y-58790476D01*
X42885714Y-58742857D01*
X43219047Y-58742857D01*
X43409523Y-58790476D01*
X43504761Y-58885714D01*
X43552380Y-58980952D01*
X43552380Y-59171428D01*
X43552380Y-57790476D02*
X43552380Y-58361904D01*
X43552380Y-58076190D02*
X42552380Y-58076190D01*
X42695238Y-58171428D01*
X42790476Y-58266666D01*
X42838095Y-58361904D01*
%TO.C,Rfb1*%
X58420238Y-70902380D02*
X58086904Y-70426190D01*
X57848809Y-70902380D02*
X57848809Y-69902380D01*
X58229761Y-69902380D01*
X58325000Y-69950000D01*
X58372619Y-69997619D01*
X58420238Y-70092857D01*
X58420238Y-70235714D01*
X58372619Y-70330952D01*
X58325000Y-70378571D01*
X58229761Y-70426190D01*
X57848809Y-70426190D01*
X58705952Y-70235714D02*
X59086904Y-70235714D01*
X58848809Y-70902380D02*
X58848809Y-70045238D01*
X58896428Y-69950000D01*
X58991666Y-69902380D01*
X59086904Y-69902380D01*
X59420238Y-70902380D02*
X59420238Y-69902380D01*
X59420238Y-70283333D02*
X59515476Y-70235714D01*
X59705952Y-70235714D01*
X59801190Y-70283333D01*
X59848809Y-70330952D01*
X59896428Y-70426190D01*
X59896428Y-70711904D01*
X59848809Y-70807142D01*
X59801190Y-70854761D01*
X59705952Y-70902380D01*
X59515476Y-70902380D01*
X59420238Y-70854761D01*
X60848809Y-70902380D02*
X60277380Y-70902380D01*
X60563095Y-70902380D02*
X60563095Y-69902380D01*
X60467857Y-70045238D01*
X60372619Y-70140476D01*
X60277380Y-70188095D01*
%TO.C,Rocp1*%
X37012500Y-49732380D02*
X36679166Y-49256190D01*
X36441071Y-49732380D02*
X36441071Y-48732380D01*
X36822023Y-48732380D01*
X36917261Y-48780000D01*
X36964880Y-48827619D01*
X37012500Y-48922857D01*
X37012500Y-49065714D01*
X36964880Y-49160952D01*
X36917261Y-49208571D01*
X36822023Y-49256190D01*
X36441071Y-49256190D01*
X37583928Y-49732380D02*
X37488690Y-49684761D01*
X37441071Y-49637142D01*
X37393452Y-49541904D01*
X37393452Y-49256190D01*
X37441071Y-49160952D01*
X37488690Y-49113333D01*
X37583928Y-49065714D01*
X37726785Y-49065714D01*
X37822023Y-49113333D01*
X37869642Y-49160952D01*
X37917261Y-49256190D01*
X37917261Y-49541904D01*
X37869642Y-49637142D01*
X37822023Y-49684761D01*
X37726785Y-49732380D01*
X37583928Y-49732380D01*
X38774404Y-49684761D02*
X38679166Y-49732380D01*
X38488690Y-49732380D01*
X38393452Y-49684761D01*
X38345833Y-49637142D01*
X38298214Y-49541904D01*
X38298214Y-49256190D01*
X38345833Y-49160952D01*
X38393452Y-49113333D01*
X38488690Y-49065714D01*
X38679166Y-49065714D01*
X38774404Y-49113333D01*
X39202976Y-49065714D02*
X39202976Y-50065714D01*
X39202976Y-49113333D02*
X39298214Y-49065714D01*
X39488690Y-49065714D01*
X39583928Y-49113333D01*
X39631547Y-49160952D01*
X39679166Y-49256190D01*
X39679166Y-49541904D01*
X39631547Y-49637142D01*
X39583928Y-49684761D01*
X39488690Y-49732380D01*
X39298214Y-49732380D01*
X39202976Y-49684761D01*
X40631547Y-49732380D02*
X40060119Y-49732380D01*
X40345833Y-49732380D02*
X40345833Y-48732380D01*
X40250595Y-48875238D01*
X40155357Y-48970476D01*
X40060119Y-49018095D01*
%TO.C,Rocp2*%
X37000000Y-45732380D02*
X36666666Y-45256190D01*
X36428571Y-45732380D02*
X36428571Y-44732380D01*
X36809523Y-44732380D01*
X36904761Y-44780000D01*
X36952380Y-44827619D01*
X37000000Y-44922857D01*
X37000000Y-45065714D01*
X36952380Y-45160952D01*
X36904761Y-45208571D01*
X36809523Y-45256190D01*
X36428571Y-45256190D01*
X37571428Y-45732380D02*
X37476190Y-45684761D01*
X37428571Y-45637142D01*
X37380952Y-45541904D01*
X37380952Y-45256190D01*
X37428571Y-45160952D01*
X37476190Y-45113333D01*
X37571428Y-45065714D01*
X37714285Y-45065714D01*
X37809523Y-45113333D01*
X37857142Y-45160952D01*
X37904761Y-45256190D01*
X37904761Y-45541904D01*
X37857142Y-45637142D01*
X37809523Y-45684761D01*
X37714285Y-45732380D01*
X37571428Y-45732380D01*
X38761904Y-45684761D02*
X38666666Y-45732380D01*
X38476190Y-45732380D01*
X38380952Y-45684761D01*
X38333333Y-45637142D01*
X38285714Y-45541904D01*
X38285714Y-45256190D01*
X38333333Y-45160952D01*
X38380952Y-45113333D01*
X38476190Y-45065714D01*
X38666666Y-45065714D01*
X38761904Y-45113333D01*
X39190476Y-45065714D02*
X39190476Y-46065714D01*
X39190476Y-45113333D02*
X39285714Y-45065714D01*
X39476190Y-45065714D01*
X39571428Y-45113333D01*
X39619047Y-45160952D01*
X39666666Y-45256190D01*
X39666666Y-45541904D01*
X39619047Y-45637142D01*
X39571428Y-45684761D01*
X39476190Y-45732380D01*
X39285714Y-45732380D01*
X39190476Y-45684761D01*
X40047619Y-44827619D02*
X40095238Y-44780000D01*
X40190476Y-44732380D01*
X40428571Y-44732380D01*
X40523809Y-44780000D01*
X40571428Y-44827619D01*
X40619047Y-44922857D01*
X40619047Y-45018095D01*
X40571428Y-45160952D01*
X40000000Y-45732380D01*
X40619047Y-45732380D01*
%TO.C,RPWM1*%
X55582380Y-35109523D02*
X55106190Y-35442857D01*
X55582380Y-35680952D02*
X54582380Y-35680952D01*
X54582380Y-35300000D01*
X54630000Y-35204761D01*
X54677619Y-35157142D01*
X54772857Y-35109523D01*
X54915714Y-35109523D01*
X55010952Y-35157142D01*
X55058571Y-35204761D01*
X55106190Y-35300000D01*
X55106190Y-35680952D01*
X55582380Y-34680952D02*
X54582380Y-34680952D01*
X54582380Y-34300000D01*
X54630000Y-34204761D01*
X54677619Y-34157142D01*
X54772857Y-34109523D01*
X54915714Y-34109523D01*
X55010952Y-34157142D01*
X55058571Y-34204761D01*
X55106190Y-34300000D01*
X55106190Y-34680952D01*
X54582380Y-33776190D02*
X55582380Y-33538095D01*
X54868095Y-33347619D01*
X55582380Y-33157142D01*
X54582380Y-32919047D01*
X55582380Y-32538095D02*
X54582380Y-32538095D01*
X55296666Y-32204761D01*
X54582380Y-31871428D01*
X55582380Y-31871428D01*
X55582380Y-30871428D02*
X55582380Y-31442857D01*
X55582380Y-31157142D02*
X54582380Y-31157142D01*
X54725238Y-31252380D01*
X54820476Y-31347619D01*
X54868095Y-31442857D01*
%TO.C,U1*%
X53402380Y-51961904D02*
X54211904Y-51961904D01*
X54307142Y-51914285D01*
X54354761Y-51866666D01*
X54402380Y-51771428D01*
X54402380Y-51580952D01*
X54354761Y-51485714D01*
X54307142Y-51438095D01*
X54211904Y-51390476D01*
X53402380Y-51390476D01*
X54402380Y-50390476D02*
X54402380Y-50961904D01*
X54402380Y-50676190D02*
X53402380Y-50676190D01*
X53545238Y-50771428D01*
X53640476Y-50866666D01*
X53688095Y-50961904D01*
%TO.C,Vin1*%
X27242380Y-42900000D02*
X28242380Y-42566666D01*
X27242380Y-42233333D01*
X28242380Y-41900000D02*
X27575714Y-41900000D01*
X27242380Y-41900000D02*
X27290000Y-41947619D01*
X27337619Y-41900000D01*
X27290000Y-41852380D01*
X27242380Y-41900000D01*
X27337619Y-41900000D01*
X27575714Y-41423809D02*
X28242380Y-41423809D01*
X27670952Y-41423809D02*
X27623333Y-41376190D01*
X27575714Y-41280952D01*
X27575714Y-41138095D01*
X27623333Y-41042857D01*
X27718571Y-40995238D01*
X28242380Y-40995238D01*
X28242380Y-39995238D02*
X28242380Y-40566666D01*
X28242380Y-40280952D02*
X27242380Y-40280952D01*
X27385238Y-40376190D01*
X27480476Y-40471428D01*
X27528095Y-40566666D01*
%TO.C,Vin2*%
X58500000Y-28452380D02*
X58833333Y-29452380D01*
X59166666Y-28452380D01*
X59500000Y-29452380D02*
X59500000Y-28785714D01*
X59500000Y-28452380D02*
X59452380Y-28500000D01*
X59500000Y-28547619D01*
X59547619Y-28500000D01*
X59500000Y-28452380D01*
X59500000Y-28547619D01*
X59976190Y-28785714D02*
X59976190Y-29452380D01*
X59976190Y-28880952D02*
X60023809Y-28833333D01*
X60119047Y-28785714D01*
X60261904Y-28785714D01*
X60357142Y-28833333D01*
X60404761Y-28928571D01*
X60404761Y-29452380D01*
X60833333Y-28547619D02*
X60880952Y-28500000D01*
X60976190Y-28452380D01*
X61214285Y-28452380D01*
X61309523Y-28500000D01*
X61357142Y-28547619D01*
X61404761Y-28642857D01*
X61404761Y-28738095D01*
X61357142Y-28880952D01*
X60785714Y-29452380D01*
X61404761Y-29452380D01*
%TD*%
M02*
