%TF.GenerationSoftware,KiCad,Pcbnew,(5.1.6-0-10_14)*%
%TF.CreationDate,2021-01-02T17:26:09+01:00*%
%TF.ProjectId,lamp20,6c616d70-3230-42e6-9b69-6361645f7063,rev?*%
%TF.SameCoordinates,Original*%
%TF.FileFunction,Copper,L1,Top*%
%TF.FilePolarity,Positive*%
%FSLAX46Y46*%
G04 Gerber Fmt 4.6, Leading zero omitted, Abs format (unit mm)*
G04 Created by KiCad (PCBNEW (5.1.6-0-10_14)) date 2021-01-02 17:26:09*
%MOMM*%
%LPD*%
G01*
G04 APERTURE LIST*
%TA.AperFunction,SMDPad,CuDef*%
%ADD10R,2.500000X2.200000*%
%TD*%
%TA.AperFunction,SMDPad,CuDef*%
%ADD11R,1.550000X2.200000*%
%TD*%
%TA.AperFunction,ViaPad*%
%ADD12C,0.800000*%
%TD*%
%TA.AperFunction,Conductor*%
%ADD13C,1.000000*%
%TD*%
G04 APERTURE END LIST*
D10*
%TO.P,D1,1*%
%TO.N,Net-(D1-Pad1)*%
X13950000Y-65000000D03*
D11*
%TO.P,D1,2*%
%TO.N,Net-(D1-Pad2)*%
X16525000Y-65000000D03*
%TD*%
%TO.P,D2,2*%
%TO.N,Net-(D1-Pad1)*%
X16525000Y-70000000D03*
D10*
%TO.P,D2,1*%
%TO.N,Net-(D2-Pad1)*%
X13950000Y-70000000D03*
%TD*%
%TO.P,D3,1*%
%TO.N,Net-(D3-Pad1)*%
X13950000Y-75000000D03*
D11*
%TO.P,D3,2*%
%TO.N,Net-(D2-Pad1)*%
X16525000Y-75000000D03*
%TD*%
%TO.P,D4,2*%
%TO.N,Net-(D3-Pad1)*%
X16525000Y-80000000D03*
D10*
%TO.P,D4,1*%
%TO.N,Net-(D4-Pad1)*%
X13950000Y-80000000D03*
%TD*%
%TO.P,D5,1*%
%TO.N,Net-(D5-Pad1)*%
X13950000Y-85000000D03*
D11*
%TO.P,D5,2*%
%TO.N,Net-(D4-Pad1)*%
X16525000Y-85000000D03*
%TD*%
%TO.P,D6,2*%
%TO.N,Net-(D5-Pad1)*%
X16525000Y-90000000D03*
D10*
%TO.P,D6,1*%
%TO.N,Net-(D6-Pad1)*%
X13950000Y-90000000D03*
%TD*%
%TO.P,D7,1*%
%TO.N,Net-(D7-Pad1)*%
X13950000Y-95000000D03*
D11*
%TO.P,D7,2*%
%TO.N,Net-(D6-Pad1)*%
X16525000Y-95000000D03*
%TD*%
%TO.P,D8,2*%
%TO.N,Net-(D7-Pad1)*%
X16525000Y-100000000D03*
D10*
%TO.P,D8,1*%
%TO.N,Net-(D8-Pad1)*%
X13950000Y-100000000D03*
%TD*%
%TO.P,D9,1*%
%TO.N,Net-(D10-Pad2)*%
X13950000Y-105000000D03*
D11*
%TO.P,D9,2*%
%TO.N,Net-(D8-Pad1)*%
X16525000Y-105000000D03*
%TD*%
%TO.P,D10,2*%
%TO.N,Net-(D10-Pad2)*%
X16525000Y-110000000D03*
D10*
%TO.P,D10,1*%
%TO.N,LED-*%
X13950000Y-110000000D03*
%TD*%
%TO.P,D11,1*%
%TO.N,Net-(D11-Pad1)*%
X13950000Y-15000000D03*
D11*
%TO.P,D11,2*%
%TO.N,LED+*%
X16525000Y-15000000D03*
%TD*%
%TO.P,D12,2*%
%TO.N,Net-(D11-Pad1)*%
X16525000Y-20000000D03*
D10*
%TO.P,D12,1*%
%TO.N,Net-(D12-Pad1)*%
X13950000Y-20000000D03*
%TD*%
%TO.P,D13,1*%
%TO.N,Net-(D13-Pad1)*%
X13950000Y-25000000D03*
D11*
%TO.P,D13,2*%
%TO.N,Net-(D12-Pad1)*%
X16525000Y-25000000D03*
%TD*%
%TO.P,D14,2*%
%TO.N,Net-(D13-Pad1)*%
X16525000Y-30000000D03*
D10*
%TO.P,D14,1*%
%TO.N,Net-(D14-Pad1)*%
X13950000Y-30000000D03*
%TD*%
%TO.P,D15,1*%
%TO.N,Net-(D15-Pad1)*%
X13950000Y-35000000D03*
D11*
%TO.P,D15,2*%
%TO.N,Net-(D14-Pad1)*%
X16525000Y-35000000D03*
%TD*%
%TO.P,D16,2*%
%TO.N,Net-(D15-Pad1)*%
X16525000Y-40000000D03*
D10*
%TO.P,D16,1*%
%TO.N,Net-(D16-Pad1)*%
X13950000Y-40000000D03*
%TD*%
%TO.P,D17,1*%
%TO.N,Net-(D17-Pad1)*%
X13950000Y-45000000D03*
D11*
%TO.P,D17,2*%
%TO.N,Net-(D16-Pad1)*%
X16525000Y-45000000D03*
%TD*%
%TO.P,D18,2*%
%TO.N,Net-(D17-Pad1)*%
X16525000Y-50000000D03*
D10*
%TO.P,D18,1*%
%TO.N,Net-(D18-Pad1)*%
X13950000Y-50000000D03*
%TD*%
%TO.P,D19,1*%
%TO.N,Net-(D19-Pad1)*%
X13950000Y-55000000D03*
D11*
%TO.P,D19,2*%
%TO.N,Net-(D18-Pad1)*%
X16525000Y-55000000D03*
%TD*%
%TO.P,D20,2*%
%TO.N,Net-(D19-Pad1)*%
X16525000Y-60000000D03*
D10*
%TO.P,D20,1*%
%TO.N,Net-(D1-Pad2)*%
X13950000Y-60000000D03*
%TD*%
%TO.P,J3,1*%
%TO.N,LED+*%
%TA.AperFunction,SMDPad,CuDef*%
G36*
G01*
X17700000Y-15750000D02*
X17700000Y-14250000D01*
G75*
G02*
X17950000Y-14000000I250000J0D01*
G01*
X18450000Y-14000000D01*
G75*
G02*
X18700000Y-14250000I0J-250000D01*
G01*
X18700000Y-15750000D01*
G75*
G02*
X18450000Y-16000000I-250000J0D01*
G01*
X17950000Y-16000000D01*
G75*
G02*
X17700000Y-15750000I0J250000D01*
G01*
G37*
%TD.AperFunction*%
%TD*%
%TO.P,J4,1*%
%TO.N,LED-*%
%TA.AperFunction,SMDPad,CuDef*%
G36*
G01*
X11200000Y-15750000D02*
X11200000Y-14250000D01*
G75*
G02*
X11450000Y-14000000I250000J0D01*
G01*
X11950000Y-14000000D01*
G75*
G02*
X12200000Y-14250000I0J-250000D01*
G01*
X12200000Y-15750000D01*
G75*
G02*
X11950000Y-16000000I-250000J0D01*
G01*
X11450000Y-16000000D01*
G75*
G02*
X11200000Y-15750000I0J250000D01*
G01*
G37*
%TD.AperFunction*%
%TD*%
D12*
%TO.N,LED+*%
X17000000Y-14000000D03*
X17000000Y-15000000D03*
X17000000Y-16000000D03*
%TO.N,LED-*%
X14000000Y-110000000D03*
X11750010Y-15000000D03*
%TD*%
D13*
%TO.N,Net-(D1-Pad1)*%
X16525000Y-67900000D02*
X16525000Y-70000000D01*
X13950000Y-65325000D02*
X16525000Y-67900000D01*
X13950000Y-65000000D02*
X13950000Y-65325000D01*
%TO.N,LED+*%
X18000000Y-15000000D02*
X17000000Y-15000000D01*
X18200000Y-15000000D02*
X17000000Y-15000000D01*
%TO.N,Net-(D2-Pad1)*%
X13950000Y-71389998D02*
X16525000Y-73964998D01*
X16525000Y-73964998D02*
X16525000Y-75000000D01*
X13950000Y-70000000D02*
X13950000Y-71389998D01*
%TO.N,Net-(D3-Pad1)*%
X13950000Y-75560002D02*
X16525000Y-78135002D01*
X16525000Y-78135002D02*
X16525000Y-80000000D01*
X13950000Y-75000000D02*
X13950000Y-75560002D01*
%TO.N,Net-(D4-Pad1)*%
X16525000Y-83964998D02*
X16525000Y-85000000D01*
X13950000Y-81389998D02*
X16525000Y-83964998D01*
X13950000Y-80000000D02*
X13950000Y-81389998D01*
%TO.N,Net-(D5-Pad1)*%
X16525000Y-88135002D02*
X16525000Y-90000000D01*
X13950000Y-85560002D02*
X16525000Y-88135002D01*
X13950000Y-85000000D02*
X13950000Y-85560002D01*
%TO.N,Net-(D6-Pad1)*%
X16525000Y-93964998D02*
X16525000Y-95000000D01*
X13950000Y-91389998D02*
X16525000Y-93964998D01*
X13950000Y-90000000D02*
X13950000Y-91389998D01*
%TO.N,Net-(D7-Pad1)*%
X16525000Y-98964998D02*
X16525000Y-100000000D01*
X13950000Y-96389998D02*
X16525000Y-98964998D01*
X13950000Y-95000000D02*
X13950000Y-96389998D01*
%TO.N,Net-(D8-Pad1)*%
X13950000Y-101389998D02*
X16525000Y-103964998D01*
X16525000Y-103964998D02*
X16525000Y-105000000D01*
X13950000Y-100000000D02*
X13950000Y-101389998D01*
%TO.N,Net-(D10-Pad2)*%
X16525000Y-108964998D02*
X16525000Y-110000000D01*
X13950000Y-106389998D02*
X16525000Y-108964998D01*
X13950000Y-105000000D02*
X13950000Y-106389998D01*
%TO.N,LED-*%
X13950000Y-110000000D02*
X14000000Y-110000000D01*
%TO.N,Net-(D1-Pad2)*%
X16525000Y-62900000D02*
X16525000Y-65000000D01*
X13950000Y-60325000D02*
X16525000Y-62900000D01*
X13950000Y-60000000D02*
X13950000Y-60325000D01*
%TO.N,Net-(D11-Pad1)*%
X16525000Y-18135002D02*
X16525000Y-20000000D01*
X13950000Y-15560002D02*
X16525000Y-18135002D01*
X13950000Y-15000000D02*
X13950000Y-15560002D01*
%TO.N,Net-(D12-Pad1)*%
X16525000Y-23135002D02*
X16525000Y-25000000D01*
X13950000Y-20560002D02*
X16525000Y-23135002D01*
X13950000Y-20000000D02*
X13950000Y-20560002D01*
%TO.N,Net-(D13-Pad1)*%
X16525000Y-28964998D02*
X16525000Y-30000000D01*
X13950000Y-26389998D02*
X16525000Y-28964998D01*
X13950000Y-25000000D02*
X13950000Y-26389998D01*
%TO.N,Net-(D14-Pad1)*%
X16525000Y-33135002D02*
X16525000Y-35000000D01*
X13950000Y-30560002D02*
X16525000Y-33135002D01*
X13950000Y-30000000D02*
X13950000Y-30560002D01*
%TO.N,Net-(D15-Pad1)*%
X16525000Y-38135002D02*
X16525000Y-40000000D01*
X13950000Y-35560002D02*
X16525000Y-38135002D01*
X13950000Y-35000000D02*
X13950000Y-35560002D01*
%TO.N,Net-(D16-Pad1)*%
X16525000Y-43135002D02*
X16525000Y-45000000D01*
X13950000Y-40560002D02*
X16525000Y-43135002D01*
X13950000Y-40000000D02*
X13950000Y-40560002D01*
%TO.N,Net-(D17-Pad1)*%
X16525000Y-48964998D02*
X16525000Y-50000000D01*
X13950000Y-46389998D02*
X16525000Y-48964998D01*
X13950000Y-45000000D02*
X13950000Y-46389998D01*
%TO.N,Net-(D18-Pad1)*%
X16525000Y-53135002D02*
X16525000Y-55000000D01*
X13950000Y-50560002D02*
X16525000Y-53135002D01*
X13950000Y-50000000D02*
X13950000Y-50560002D01*
%TO.N,Net-(D19-Pad1)*%
X16525000Y-58964998D02*
X16525000Y-60000000D01*
X13950000Y-56389998D02*
X16525000Y-58964998D01*
X13950000Y-55000000D02*
X13950000Y-56389998D01*
%TD*%
M02*
