%TF.GenerationSoftware,KiCad,Pcbnew,(5.1.6-0-10_14)*%
%TF.CreationDate,2021-01-02T17:26:09+01:00*%
%TF.ProjectId,lamp20,6c616d70-3230-42e6-9b69-6361645f7063,rev?*%
%TF.SameCoordinates,Original*%
%TF.FileFunction,Paste,Top*%
%TF.FilePolarity,Positive*%
%FSLAX46Y46*%
G04 Gerber Fmt 4.6, Leading zero omitted, Abs format (unit mm)*
G04 Created by KiCad (PCBNEW (5.1.6-0-10_14)) date 2021-01-02 17:26:09*
%MOMM*%
%LPD*%
G01*
G04 APERTURE LIST*
%ADD10R,2.500000X2.200000*%
%ADD11R,1.550000X2.200000*%
G04 APERTURE END LIST*
D10*
%TO.C,D1*%
X13950000Y-65000000D03*
D11*
X16525000Y-65000000D03*
%TD*%
%TO.C,D2*%
X16525000Y-70000000D03*
D10*
X13950000Y-70000000D03*
%TD*%
%TO.C,D3*%
X13950000Y-75000000D03*
D11*
X16525000Y-75000000D03*
%TD*%
%TO.C,D4*%
X16525000Y-80000000D03*
D10*
X13950000Y-80000000D03*
%TD*%
%TO.C,D5*%
X13950000Y-85000000D03*
D11*
X16525000Y-85000000D03*
%TD*%
%TO.C,D6*%
X16525000Y-90000000D03*
D10*
X13950000Y-90000000D03*
%TD*%
%TO.C,D7*%
X13950000Y-95000000D03*
D11*
X16525000Y-95000000D03*
%TD*%
%TO.C,D8*%
X16525000Y-100000000D03*
D10*
X13950000Y-100000000D03*
%TD*%
%TO.C,D9*%
X13950000Y-105000000D03*
D11*
X16525000Y-105000000D03*
%TD*%
%TO.C,D10*%
X16525000Y-110000000D03*
D10*
X13950000Y-110000000D03*
%TD*%
%TO.C,D11*%
X13950000Y-15000000D03*
D11*
X16525000Y-15000000D03*
%TD*%
%TO.C,D12*%
X16525000Y-20000000D03*
D10*
X13950000Y-20000000D03*
%TD*%
%TO.C,D13*%
X13950000Y-25000000D03*
D11*
X16525000Y-25000000D03*
%TD*%
%TO.C,D14*%
X16525000Y-30000000D03*
D10*
X13950000Y-30000000D03*
%TD*%
%TO.C,D15*%
X13950000Y-35000000D03*
D11*
X16525000Y-35000000D03*
%TD*%
%TO.C,D16*%
X16525000Y-40000000D03*
D10*
X13950000Y-40000000D03*
%TD*%
%TO.C,D17*%
X13950000Y-45000000D03*
D11*
X16525000Y-45000000D03*
%TD*%
%TO.C,D18*%
X16525000Y-50000000D03*
D10*
X13950000Y-50000000D03*
%TD*%
%TO.C,D19*%
X13950000Y-55000000D03*
D11*
X16525000Y-55000000D03*
%TD*%
%TO.C,D20*%
X16525000Y-60000000D03*
D10*
X13950000Y-60000000D03*
%TD*%
%TO.C,J3*%
G36*
G01*
X17700000Y-15750000D02*
X17700000Y-14250000D01*
G75*
G02*
X17950000Y-14000000I250000J0D01*
G01*
X18450000Y-14000000D01*
G75*
G02*
X18700000Y-14250000I0J-250000D01*
G01*
X18700000Y-15750000D01*
G75*
G02*
X18450000Y-16000000I-250000J0D01*
G01*
X17950000Y-16000000D01*
G75*
G02*
X17700000Y-15750000I0J250000D01*
G01*
G37*
%TD*%
%TO.C,J4*%
G36*
G01*
X11200000Y-15750000D02*
X11200000Y-14250000D01*
G75*
G02*
X11450000Y-14000000I250000J0D01*
G01*
X11950000Y-14000000D01*
G75*
G02*
X12200000Y-14250000I0J-250000D01*
G01*
X12200000Y-15750000D01*
G75*
G02*
X11950000Y-16000000I-250000J0D01*
G01*
X11450000Y-16000000D01*
G75*
G02*
X11200000Y-15750000I0J250000D01*
G01*
G37*
%TD*%
M02*
