%TF.GenerationSoftware,KiCad,Pcbnew,(5.1.6-0-10_14)*%
%TF.CreationDate,2021-01-02T17:26:09+01:00*%
%TF.ProjectId,lamp20,6c616d70-3230-42e6-9b69-6361645f7063,rev?*%
%TF.SameCoordinates,Original*%
%TF.FileFunction,Legend,Bot*%
%TF.FilePolarity,Positive*%
%FSLAX46Y46*%
G04 Gerber Fmt 4.6, Leading zero omitted, Abs format (unit mm)*
G04 Created by KiCad (PCBNEW (5.1.6-0-10_14)) date 2021-01-02 17:26:09*
%MOMM*%
%LPD*%
G01*
G04 APERTURE LIST*
%ADD10C,0.150000*%
G04 APERTURE END LIST*
D10*
X15452380Y-42857142D02*
X14452380Y-42857142D01*
X14452380Y-43095238D01*
X14500000Y-43238095D01*
X14595238Y-43333333D01*
X14690476Y-43380952D01*
X14880952Y-43428571D01*
X15023809Y-43428571D01*
X15214285Y-43380952D01*
X15309523Y-43333333D01*
X15404761Y-43238095D01*
X15452380Y-43095238D01*
X15452380Y-42857142D01*
X15452380Y-44333333D02*
X15452380Y-43857142D01*
X14452380Y-43857142D01*
X15452380Y-45142857D02*
X15452380Y-44666666D01*
X14452380Y-44666666D01*
X15452380Y-46714285D02*
X15452380Y-46238095D01*
X14452380Y-46238095D01*
X15452380Y-47476190D02*
X14928571Y-47476190D01*
X14833333Y-47428571D01*
X14785714Y-47333333D01*
X14785714Y-47142857D01*
X14833333Y-47047619D01*
X15404761Y-47476190D02*
X15452380Y-47380952D01*
X15452380Y-47142857D01*
X15404761Y-47047619D01*
X15309523Y-47000000D01*
X15214285Y-47000000D01*
X15119047Y-47047619D01*
X15071428Y-47142857D01*
X15071428Y-47380952D01*
X15023809Y-47476190D01*
X15452380Y-47952380D02*
X14785714Y-47952380D01*
X14880952Y-47952380D02*
X14833333Y-48000000D01*
X14785714Y-48095238D01*
X14785714Y-48238095D01*
X14833333Y-48333333D01*
X14928571Y-48380952D01*
X15452380Y-48380952D01*
X14928571Y-48380952D02*
X14833333Y-48428571D01*
X14785714Y-48523809D01*
X14785714Y-48666666D01*
X14833333Y-48761904D01*
X14928571Y-48809523D01*
X15452380Y-48809523D01*
X14785714Y-49285714D02*
X15785714Y-49285714D01*
X14833333Y-49285714D02*
X14785714Y-49380952D01*
X14785714Y-49571428D01*
X14833333Y-49666666D01*
X14880952Y-49714285D01*
X14976190Y-49761904D01*
X15261904Y-49761904D01*
X15357142Y-49714285D01*
X15404761Y-49666666D01*
X15452380Y-49571428D01*
X15452380Y-49380952D01*
X15404761Y-49285714D01*
X14547619Y-50142857D02*
X14500000Y-50190476D01*
X14452380Y-50285714D01*
X14452380Y-50523809D01*
X14500000Y-50619047D01*
X14547619Y-50666666D01*
X14642857Y-50714285D01*
X14738095Y-50714285D01*
X14880952Y-50666666D01*
X15452380Y-50095238D01*
X15452380Y-50714285D01*
X14452380Y-51333333D02*
X14452380Y-51428571D01*
X14500000Y-51523809D01*
X14547619Y-51571428D01*
X14642857Y-51619047D01*
X14833333Y-51666666D01*
X15071428Y-51666666D01*
X15261904Y-51619047D01*
X15357142Y-51571428D01*
X15404761Y-51523809D01*
X15452380Y-51428571D01*
X15452380Y-51333333D01*
X15404761Y-51238095D01*
X15357142Y-51190476D01*
X15261904Y-51142857D01*
X15071428Y-51095238D01*
X14833333Y-51095238D01*
X14642857Y-51142857D01*
X14547619Y-51190476D01*
X14500000Y-51238095D01*
X14452380Y-51333333D01*
X15452380Y-52857142D02*
X14452380Y-52857142D01*
X15452380Y-54619047D02*
X15452380Y-54047619D01*
X15452380Y-54333333D02*
X14452380Y-54333333D01*
X14595238Y-54238095D01*
X14690476Y-54142857D01*
X14738095Y-54047619D01*
X15547619Y-54809523D02*
X15547619Y-55571428D01*
X14452380Y-56000000D02*
X14452380Y-56095238D01*
X14500000Y-56190476D01*
X14547619Y-56238095D01*
X14642857Y-56285714D01*
X14833333Y-56333333D01*
X15071428Y-56333333D01*
X15261904Y-56285714D01*
X15357142Y-56238095D01*
X15404761Y-56190476D01*
X15452380Y-56095238D01*
X15452380Y-56000000D01*
X15404761Y-55904761D01*
X15357142Y-55857142D01*
X15261904Y-55809523D01*
X15071428Y-55761904D01*
X14833333Y-55761904D01*
X14642857Y-55809523D01*
X14547619Y-55857142D01*
X14500000Y-55904761D01*
X14452380Y-56000000D01*
X14785714Y-57380952D02*
X14785714Y-57761904D01*
X15452380Y-57523809D02*
X14595238Y-57523809D01*
X14500000Y-57571428D01*
X14452380Y-57666666D01*
X14452380Y-57761904D01*
X15452380Y-58095238D02*
X14452380Y-58095238D01*
X15452380Y-58523809D02*
X14928571Y-58523809D01*
X14833333Y-58476190D01*
X14785714Y-58380952D01*
X14785714Y-58238095D01*
X14833333Y-58142857D01*
X14880952Y-58095238D01*
X15452380Y-59428571D02*
X14928571Y-59428571D01*
X14833333Y-59380952D01*
X14785714Y-59285714D01*
X14785714Y-59095238D01*
X14833333Y-59000000D01*
X15404761Y-59428571D02*
X15452380Y-59333333D01*
X15452380Y-59095238D01*
X15404761Y-59000000D01*
X15309523Y-58952380D01*
X15214285Y-58952380D01*
X15119047Y-59000000D01*
X15071428Y-59095238D01*
X15071428Y-59333333D01*
X15023809Y-59428571D01*
X15452380Y-59904761D02*
X14785714Y-59904761D01*
X14976190Y-59904761D02*
X14880952Y-59952380D01*
X14833333Y-60000000D01*
X14785714Y-60095238D01*
X14785714Y-60190476D01*
X15452380Y-60666666D02*
X15404761Y-60571428D01*
X15357142Y-60523809D01*
X15261904Y-60476190D01*
X14976190Y-60476190D01*
X14880952Y-60523809D01*
X14833333Y-60571428D01*
X14785714Y-60666666D01*
X14785714Y-60809523D01*
X14833333Y-60904761D01*
X14880952Y-60952380D01*
X14976190Y-61000000D01*
X15261904Y-61000000D01*
X15357142Y-60952380D01*
X15404761Y-60904761D01*
X15452380Y-60809523D01*
X15452380Y-60666666D01*
X15452380Y-61571428D02*
X15404761Y-61476190D01*
X15309523Y-61428571D01*
X14452380Y-61428571D01*
X15452380Y-62380952D02*
X14452380Y-62380952D01*
X15404761Y-62380952D02*
X15452380Y-62285714D01*
X15452380Y-62095238D01*
X15404761Y-62000000D01*
X15357142Y-61952380D01*
X15261904Y-61904761D01*
X14976190Y-61904761D01*
X14880952Y-61952380D01*
X14833333Y-62000000D01*
X14785714Y-62095238D01*
X14785714Y-62285714D01*
X14833333Y-62380952D01*
%TO.C,J1*%
X13333333Y-16992380D02*
X13333333Y-17706666D01*
X13380952Y-17849523D01*
X13476190Y-17944761D01*
X13619047Y-17992380D01*
X13714285Y-17992380D01*
X12333333Y-17992380D02*
X12904761Y-17992380D01*
X12619047Y-17992380D02*
X12619047Y-16992380D01*
X12714285Y-17135238D01*
X12809523Y-17230476D01*
X12904761Y-17278095D01*
%TO.C,J2*%
X17333333Y-16992380D02*
X17333333Y-17706666D01*
X17380952Y-17849523D01*
X17476190Y-17944761D01*
X17619047Y-17992380D01*
X17714285Y-17992380D01*
X16904761Y-17087619D02*
X16857142Y-17040000D01*
X16761904Y-16992380D01*
X16523809Y-16992380D01*
X16428571Y-17040000D01*
X16380952Y-17087619D01*
X16333333Y-17182857D01*
X16333333Y-17278095D01*
X16380952Y-17420952D01*
X16952380Y-17992380D01*
X16333333Y-17992380D01*
%TD*%
M02*
