%TF.GenerationSoftware,KiCad,Pcbnew,(5.1.6-0-10_14)*%
%TF.CreationDate,2021-01-02T17:26:09+01:00*%
%TF.ProjectId,lamp20,6c616d70-3230-42e6-9b69-6361645f7063,rev?*%
%TF.SameCoordinates,Original*%
%TF.FileFunction,Legend,Top*%
%TF.FilePolarity,Positive*%
%FSLAX46Y46*%
G04 Gerber Fmt 4.6, Leading zero omitted, Abs format (unit mm)*
G04 Created by KiCad (PCBNEW (5.1.6-0-10_14)) date 2021-01-02 17:26:09*
%MOMM*%
%LPD*%
G01*
G04 APERTURE LIST*
%ADD10C,0.120000*%
%ADD11C,0.150000*%
G04 APERTURE END LIST*
D10*
%TO.C,D1*%
X16400000Y-63400000D02*
X12500000Y-63400000D01*
X16400000Y-66600000D02*
X12500000Y-66600000D01*
X12500000Y-63400000D02*
X12500000Y-66600000D01*
%TO.C,D2*%
X12500000Y-68400000D02*
X12500000Y-71600000D01*
X16400000Y-71600000D02*
X12500000Y-71600000D01*
X16400000Y-68400000D02*
X12500000Y-68400000D01*
%TO.C,D3*%
X16400000Y-73400000D02*
X12500000Y-73400000D01*
X16400000Y-76600000D02*
X12500000Y-76600000D01*
X12500000Y-73400000D02*
X12500000Y-76600000D01*
%TO.C,D4*%
X12500000Y-78400000D02*
X12500000Y-81600000D01*
X16400000Y-81600000D02*
X12500000Y-81600000D01*
X16400000Y-78400000D02*
X12500000Y-78400000D01*
%TO.C,D5*%
X16400000Y-83400000D02*
X12500000Y-83400000D01*
X16400000Y-86600000D02*
X12500000Y-86600000D01*
X12500000Y-83400000D02*
X12500000Y-86600000D01*
%TO.C,D6*%
X12500000Y-88400000D02*
X12500000Y-91600000D01*
X16400000Y-91600000D02*
X12500000Y-91600000D01*
X16400000Y-88400000D02*
X12500000Y-88400000D01*
%TO.C,D7*%
X16400000Y-93400000D02*
X12500000Y-93400000D01*
X16400000Y-96600000D02*
X12500000Y-96600000D01*
X12500000Y-93400000D02*
X12500000Y-96600000D01*
%TO.C,D8*%
X12500000Y-98400000D02*
X12500000Y-101600000D01*
X16400000Y-101600000D02*
X12500000Y-101600000D01*
X16400000Y-98400000D02*
X12500000Y-98400000D01*
%TO.C,D9*%
X16400000Y-103400000D02*
X12500000Y-103400000D01*
X16400000Y-106600000D02*
X12500000Y-106600000D01*
X12500000Y-103400000D02*
X12500000Y-106600000D01*
%TO.C,D10*%
X12500000Y-108400000D02*
X12500000Y-111600000D01*
X16400000Y-111600000D02*
X12500000Y-111600000D01*
X16400000Y-108400000D02*
X12500000Y-108400000D01*
%TO.C,D11*%
X16400000Y-13400000D02*
X12500000Y-13400000D01*
X16400000Y-16600000D02*
X12500000Y-16600000D01*
X12500000Y-13400000D02*
X12500000Y-16600000D01*
%TO.C,D12*%
X12500000Y-18400000D02*
X12500000Y-21600000D01*
X16400000Y-21600000D02*
X12500000Y-21600000D01*
X16400000Y-18400000D02*
X12500000Y-18400000D01*
%TO.C,D13*%
X16400000Y-23400000D02*
X12500000Y-23400000D01*
X16400000Y-26600000D02*
X12500000Y-26600000D01*
X12500000Y-23400000D02*
X12500000Y-26600000D01*
%TO.C,D14*%
X12500000Y-28400000D02*
X12500000Y-31600000D01*
X16400000Y-31600000D02*
X12500000Y-31600000D01*
X16400000Y-28400000D02*
X12500000Y-28400000D01*
%TO.C,D15*%
X16400000Y-33400000D02*
X12500000Y-33400000D01*
X16400000Y-36600000D02*
X12500000Y-36600000D01*
X12500000Y-33400000D02*
X12500000Y-36600000D01*
%TO.C,D16*%
X12500000Y-38400000D02*
X12500000Y-41600000D01*
X16400000Y-41600000D02*
X12500000Y-41600000D01*
X16400000Y-38400000D02*
X12500000Y-38400000D01*
%TO.C,D17*%
X16400000Y-43400000D02*
X12500000Y-43400000D01*
X16400000Y-46600000D02*
X12500000Y-46600000D01*
X12500000Y-43400000D02*
X12500000Y-46600000D01*
%TO.C,D18*%
X12500000Y-48400000D02*
X12500000Y-51600000D01*
X16400000Y-51600000D02*
X12500000Y-51600000D01*
X16400000Y-48400000D02*
X12500000Y-48400000D01*
%TO.C,D19*%
X16400000Y-53400000D02*
X12500000Y-53400000D01*
X16400000Y-56600000D02*
X12500000Y-56600000D01*
X12500000Y-53400000D02*
X12500000Y-56600000D01*
%TO.C,D20*%
X12500000Y-58400000D02*
X12500000Y-61600000D01*
X16400000Y-61600000D02*
X12500000Y-61600000D01*
X16400000Y-58400000D02*
X12500000Y-58400000D01*
%TO.C,D1*%
D11*
X14261904Y-63052380D02*
X14261904Y-62052380D01*
X14500000Y-62052380D01*
X14642857Y-62100000D01*
X14738095Y-62195238D01*
X14785714Y-62290476D01*
X14833333Y-62480952D01*
X14833333Y-62623809D01*
X14785714Y-62814285D01*
X14738095Y-62909523D01*
X14642857Y-63004761D01*
X14500000Y-63052380D01*
X14261904Y-63052380D01*
X15785714Y-63052380D02*
X15214285Y-63052380D01*
X15500000Y-63052380D02*
X15500000Y-62052380D01*
X15404761Y-62195238D01*
X15309523Y-62290476D01*
X15214285Y-62338095D01*
%TO.C,D2*%
X14261904Y-68052380D02*
X14261904Y-67052380D01*
X14500000Y-67052380D01*
X14642857Y-67100000D01*
X14738095Y-67195238D01*
X14785714Y-67290476D01*
X14833333Y-67480952D01*
X14833333Y-67623809D01*
X14785714Y-67814285D01*
X14738095Y-67909523D01*
X14642857Y-68004761D01*
X14500000Y-68052380D01*
X14261904Y-68052380D01*
X15214285Y-67147619D02*
X15261904Y-67100000D01*
X15357142Y-67052380D01*
X15595238Y-67052380D01*
X15690476Y-67100000D01*
X15738095Y-67147619D01*
X15785714Y-67242857D01*
X15785714Y-67338095D01*
X15738095Y-67480952D01*
X15166666Y-68052380D01*
X15785714Y-68052380D01*
%TO.C,D3*%
X14261904Y-73052380D02*
X14261904Y-72052380D01*
X14500000Y-72052380D01*
X14642857Y-72100000D01*
X14738095Y-72195238D01*
X14785714Y-72290476D01*
X14833333Y-72480952D01*
X14833333Y-72623809D01*
X14785714Y-72814285D01*
X14738095Y-72909523D01*
X14642857Y-73004761D01*
X14500000Y-73052380D01*
X14261904Y-73052380D01*
X15166666Y-72052380D02*
X15785714Y-72052380D01*
X15452380Y-72433333D01*
X15595238Y-72433333D01*
X15690476Y-72480952D01*
X15738095Y-72528571D01*
X15785714Y-72623809D01*
X15785714Y-72861904D01*
X15738095Y-72957142D01*
X15690476Y-73004761D01*
X15595238Y-73052380D01*
X15309523Y-73052380D01*
X15214285Y-73004761D01*
X15166666Y-72957142D01*
%TO.C,D4*%
X14261904Y-78052380D02*
X14261904Y-77052380D01*
X14500000Y-77052380D01*
X14642857Y-77100000D01*
X14738095Y-77195238D01*
X14785714Y-77290476D01*
X14833333Y-77480952D01*
X14833333Y-77623809D01*
X14785714Y-77814285D01*
X14738095Y-77909523D01*
X14642857Y-78004761D01*
X14500000Y-78052380D01*
X14261904Y-78052380D01*
X15690476Y-77385714D02*
X15690476Y-78052380D01*
X15452380Y-77004761D02*
X15214285Y-77719047D01*
X15833333Y-77719047D01*
%TO.C,D5*%
X14261904Y-83052380D02*
X14261904Y-82052380D01*
X14500000Y-82052380D01*
X14642857Y-82100000D01*
X14738095Y-82195238D01*
X14785714Y-82290476D01*
X14833333Y-82480952D01*
X14833333Y-82623809D01*
X14785714Y-82814285D01*
X14738095Y-82909523D01*
X14642857Y-83004761D01*
X14500000Y-83052380D01*
X14261904Y-83052380D01*
X15738095Y-82052380D02*
X15261904Y-82052380D01*
X15214285Y-82528571D01*
X15261904Y-82480952D01*
X15357142Y-82433333D01*
X15595238Y-82433333D01*
X15690476Y-82480952D01*
X15738095Y-82528571D01*
X15785714Y-82623809D01*
X15785714Y-82861904D01*
X15738095Y-82957142D01*
X15690476Y-83004761D01*
X15595238Y-83052380D01*
X15357142Y-83052380D01*
X15261904Y-83004761D01*
X15214285Y-82957142D01*
%TO.C,D6*%
X14261904Y-88052380D02*
X14261904Y-87052380D01*
X14500000Y-87052380D01*
X14642857Y-87100000D01*
X14738095Y-87195238D01*
X14785714Y-87290476D01*
X14833333Y-87480952D01*
X14833333Y-87623809D01*
X14785714Y-87814285D01*
X14738095Y-87909523D01*
X14642857Y-88004761D01*
X14500000Y-88052380D01*
X14261904Y-88052380D01*
X15690476Y-87052380D02*
X15500000Y-87052380D01*
X15404761Y-87100000D01*
X15357142Y-87147619D01*
X15261904Y-87290476D01*
X15214285Y-87480952D01*
X15214285Y-87861904D01*
X15261904Y-87957142D01*
X15309523Y-88004761D01*
X15404761Y-88052380D01*
X15595238Y-88052380D01*
X15690476Y-88004761D01*
X15738095Y-87957142D01*
X15785714Y-87861904D01*
X15785714Y-87623809D01*
X15738095Y-87528571D01*
X15690476Y-87480952D01*
X15595238Y-87433333D01*
X15404761Y-87433333D01*
X15309523Y-87480952D01*
X15261904Y-87528571D01*
X15214285Y-87623809D01*
%TO.C,D7*%
X14261904Y-93052380D02*
X14261904Y-92052380D01*
X14500000Y-92052380D01*
X14642857Y-92100000D01*
X14738095Y-92195238D01*
X14785714Y-92290476D01*
X14833333Y-92480952D01*
X14833333Y-92623809D01*
X14785714Y-92814285D01*
X14738095Y-92909523D01*
X14642857Y-93004761D01*
X14500000Y-93052380D01*
X14261904Y-93052380D01*
X15166666Y-92052380D02*
X15833333Y-92052380D01*
X15404761Y-93052380D01*
%TO.C,D8*%
X14261904Y-98052380D02*
X14261904Y-97052380D01*
X14500000Y-97052380D01*
X14642857Y-97100000D01*
X14738095Y-97195238D01*
X14785714Y-97290476D01*
X14833333Y-97480952D01*
X14833333Y-97623809D01*
X14785714Y-97814285D01*
X14738095Y-97909523D01*
X14642857Y-98004761D01*
X14500000Y-98052380D01*
X14261904Y-98052380D01*
X15404761Y-97480952D02*
X15309523Y-97433333D01*
X15261904Y-97385714D01*
X15214285Y-97290476D01*
X15214285Y-97242857D01*
X15261904Y-97147619D01*
X15309523Y-97100000D01*
X15404761Y-97052380D01*
X15595238Y-97052380D01*
X15690476Y-97100000D01*
X15738095Y-97147619D01*
X15785714Y-97242857D01*
X15785714Y-97290476D01*
X15738095Y-97385714D01*
X15690476Y-97433333D01*
X15595238Y-97480952D01*
X15404761Y-97480952D01*
X15309523Y-97528571D01*
X15261904Y-97576190D01*
X15214285Y-97671428D01*
X15214285Y-97861904D01*
X15261904Y-97957142D01*
X15309523Y-98004761D01*
X15404761Y-98052380D01*
X15595238Y-98052380D01*
X15690476Y-98004761D01*
X15738095Y-97957142D01*
X15785714Y-97861904D01*
X15785714Y-97671428D01*
X15738095Y-97576190D01*
X15690476Y-97528571D01*
X15595238Y-97480952D01*
%TO.C,D9*%
X14261904Y-103052380D02*
X14261904Y-102052380D01*
X14500000Y-102052380D01*
X14642857Y-102100000D01*
X14738095Y-102195238D01*
X14785714Y-102290476D01*
X14833333Y-102480952D01*
X14833333Y-102623809D01*
X14785714Y-102814285D01*
X14738095Y-102909523D01*
X14642857Y-103004761D01*
X14500000Y-103052380D01*
X14261904Y-103052380D01*
X15309523Y-103052380D02*
X15500000Y-103052380D01*
X15595238Y-103004761D01*
X15642857Y-102957142D01*
X15738095Y-102814285D01*
X15785714Y-102623809D01*
X15785714Y-102242857D01*
X15738095Y-102147619D01*
X15690476Y-102100000D01*
X15595238Y-102052380D01*
X15404761Y-102052380D01*
X15309523Y-102100000D01*
X15261904Y-102147619D01*
X15214285Y-102242857D01*
X15214285Y-102480952D01*
X15261904Y-102576190D01*
X15309523Y-102623809D01*
X15404761Y-102671428D01*
X15595238Y-102671428D01*
X15690476Y-102623809D01*
X15738095Y-102576190D01*
X15785714Y-102480952D01*
%TO.C,D10*%
X13785714Y-108052380D02*
X13785714Y-107052380D01*
X14023809Y-107052380D01*
X14166666Y-107100000D01*
X14261904Y-107195238D01*
X14309523Y-107290476D01*
X14357142Y-107480952D01*
X14357142Y-107623809D01*
X14309523Y-107814285D01*
X14261904Y-107909523D01*
X14166666Y-108004761D01*
X14023809Y-108052380D01*
X13785714Y-108052380D01*
X15309523Y-108052380D02*
X14738095Y-108052380D01*
X15023809Y-108052380D02*
X15023809Y-107052380D01*
X14928571Y-107195238D01*
X14833333Y-107290476D01*
X14738095Y-107338095D01*
X15928571Y-107052380D02*
X16023809Y-107052380D01*
X16119047Y-107100000D01*
X16166666Y-107147619D01*
X16214285Y-107242857D01*
X16261904Y-107433333D01*
X16261904Y-107671428D01*
X16214285Y-107861904D01*
X16166666Y-107957142D01*
X16119047Y-108004761D01*
X16023809Y-108052380D01*
X15928571Y-108052380D01*
X15833333Y-108004761D01*
X15785714Y-107957142D01*
X15738095Y-107861904D01*
X15690476Y-107671428D01*
X15690476Y-107433333D01*
X15738095Y-107242857D01*
X15785714Y-107147619D01*
X15833333Y-107100000D01*
X15928571Y-107052380D01*
%TO.C,D11*%
X13785714Y-13052380D02*
X13785714Y-12052380D01*
X14023809Y-12052380D01*
X14166666Y-12100000D01*
X14261904Y-12195238D01*
X14309523Y-12290476D01*
X14357142Y-12480952D01*
X14357142Y-12623809D01*
X14309523Y-12814285D01*
X14261904Y-12909523D01*
X14166666Y-13004761D01*
X14023809Y-13052380D01*
X13785714Y-13052380D01*
X15309523Y-13052380D02*
X14738095Y-13052380D01*
X15023809Y-13052380D02*
X15023809Y-12052380D01*
X14928571Y-12195238D01*
X14833333Y-12290476D01*
X14738095Y-12338095D01*
X16261904Y-13052380D02*
X15690476Y-13052380D01*
X15976190Y-13052380D02*
X15976190Y-12052380D01*
X15880952Y-12195238D01*
X15785714Y-12290476D01*
X15690476Y-12338095D01*
%TO.C,D12*%
X13785714Y-18052380D02*
X13785714Y-17052380D01*
X14023809Y-17052380D01*
X14166666Y-17100000D01*
X14261904Y-17195238D01*
X14309523Y-17290476D01*
X14357142Y-17480952D01*
X14357142Y-17623809D01*
X14309523Y-17814285D01*
X14261904Y-17909523D01*
X14166666Y-18004761D01*
X14023809Y-18052380D01*
X13785714Y-18052380D01*
X15309523Y-18052380D02*
X14738095Y-18052380D01*
X15023809Y-18052380D02*
X15023809Y-17052380D01*
X14928571Y-17195238D01*
X14833333Y-17290476D01*
X14738095Y-17338095D01*
X15690476Y-17147619D02*
X15738095Y-17100000D01*
X15833333Y-17052380D01*
X16071428Y-17052380D01*
X16166666Y-17100000D01*
X16214285Y-17147619D01*
X16261904Y-17242857D01*
X16261904Y-17338095D01*
X16214285Y-17480952D01*
X15642857Y-18052380D01*
X16261904Y-18052380D01*
%TO.C,D13*%
X13785714Y-23052380D02*
X13785714Y-22052380D01*
X14023809Y-22052380D01*
X14166666Y-22100000D01*
X14261904Y-22195238D01*
X14309523Y-22290476D01*
X14357142Y-22480952D01*
X14357142Y-22623809D01*
X14309523Y-22814285D01*
X14261904Y-22909523D01*
X14166666Y-23004761D01*
X14023809Y-23052380D01*
X13785714Y-23052380D01*
X15309523Y-23052380D02*
X14738095Y-23052380D01*
X15023809Y-23052380D02*
X15023809Y-22052380D01*
X14928571Y-22195238D01*
X14833333Y-22290476D01*
X14738095Y-22338095D01*
X15642857Y-22052380D02*
X16261904Y-22052380D01*
X15928571Y-22433333D01*
X16071428Y-22433333D01*
X16166666Y-22480952D01*
X16214285Y-22528571D01*
X16261904Y-22623809D01*
X16261904Y-22861904D01*
X16214285Y-22957142D01*
X16166666Y-23004761D01*
X16071428Y-23052380D01*
X15785714Y-23052380D01*
X15690476Y-23004761D01*
X15642857Y-22957142D01*
%TO.C,D14*%
X13785714Y-28052380D02*
X13785714Y-27052380D01*
X14023809Y-27052380D01*
X14166666Y-27100000D01*
X14261904Y-27195238D01*
X14309523Y-27290476D01*
X14357142Y-27480952D01*
X14357142Y-27623809D01*
X14309523Y-27814285D01*
X14261904Y-27909523D01*
X14166666Y-28004761D01*
X14023809Y-28052380D01*
X13785714Y-28052380D01*
X15309523Y-28052380D02*
X14738095Y-28052380D01*
X15023809Y-28052380D02*
X15023809Y-27052380D01*
X14928571Y-27195238D01*
X14833333Y-27290476D01*
X14738095Y-27338095D01*
X16166666Y-27385714D02*
X16166666Y-28052380D01*
X15928571Y-27004761D02*
X15690476Y-27719047D01*
X16309523Y-27719047D01*
%TO.C,D15*%
X13785714Y-33052380D02*
X13785714Y-32052380D01*
X14023809Y-32052380D01*
X14166666Y-32100000D01*
X14261904Y-32195238D01*
X14309523Y-32290476D01*
X14357142Y-32480952D01*
X14357142Y-32623809D01*
X14309523Y-32814285D01*
X14261904Y-32909523D01*
X14166666Y-33004761D01*
X14023809Y-33052380D01*
X13785714Y-33052380D01*
X15309523Y-33052380D02*
X14738095Y-33052380D01*
X15023809Y-33052380D02*
X15023809Y-32052380D01*
X14928571Y-32195238D01*
X14833333Y-32290476D01*
X14738095Y-32338095D01*
X16214285Y-32052380D02*
X15738095Y-32052380D01*
X15690476Y-32528571D01*
X15738095Y-32480952D01*
X15833333Y-32433333D01*
X16071428Y-32433333D01*
X16166666Y-32480952D01*
X16214285Y-32528571D01*
X16261904Y-32623809D01*
X16261904Y-32861904D01*
X16214285Y-32957142D01*
X16166666Y-33004761D01*
X16071428Y-33052380D01*
X15833333Y-33052380D01*
X15738095Y-33004761D01*
X15690476Y-32957142D01*
%TO.C,D16*%
X13785714Y-38052380D02*
X13785714Y-37052380D01*
X14023809Y-37052380D01*
X14166666Y-37100000D01*
X14261904Y-37195238D01*
X14309523Y-37290476D01*
X14357142Y-37480952D01*
X14357142Y-37623809D01*
X14309523Y-37814285D01*
X14261904Y-37909523D01*
X14166666Y-38004761D01*
X14023809Y-38052380D01*
X13785714Y-38052380D01*
X15309523Y-38052380D02*
X14738095Y-38052380D01*
X15023809Y-38052380D02*
X15023809Y-37052380D01*
X14928571Y-37195238D01*
X14833333Y-37290476D01*
X14738095Y-37338095D01*
X16166666Y-37052380D02*
X15976190Y-37052380D01*
X15880952Y-37100000D01*
X15833333Y-37147619D01*
X15738095Y-37290476D01*
X15690476Y-37480952D01*
X15690476Y-37861904D01*
X15738095Y-37957142D01*
X15785714Y-38004761D01*
X15880952Y-38052380D01*
X16071428Y-38052380D01*
X16166666Y-38004761D01*
X16214285Y-37957142D01*
X16261904Y-37861904D01*
X16261904Y-37623809D01*
X16214285Y-37528571D01*
X16166666Y-37480952D01*
X16071428Y-37433333D01*
X15880952Y-37433333D01*
X15785714Y-37480952D01*
X15738095Y-37528571D01*
X15690476Y-37623809D01*
%TO.C,D17*%
X13785714Y-43052380D02*
X13785714Y-42052380D01*
X14023809Y-42052380D01*
X14166666Y-42100000D01*
X14261904Y-42195238D01*
X14309523Y-42290476D01*
X14357142Y-42480952D01*
X14357142Y-42623809D01*
X14309523Y-42814285D01*
X14261904Y-42909523D01*
X14166666Y-43004761D01*
X14023809Y-43052380D01*
X13785714Y-43052380D01*
X15309523Y-43052380D02*
X14738095Y-43052380D01*
X15023809Y-43052380D02*
X15023809Y-42052380D01*
X14928571Y-42195238D01*
X14833333Y-42290476D01*
X14738095Y-42338095D01*
X15642857Y-42052380D02*
X16309523Y-42052380D01*
X15880952Y-43052380D01*
%TO.C,D18*%
X13785714Y-48052380D02*
X13785714Y-47052380D01*
X14023809Y-47052380D01*
X14166666Y-47100000D01*
X14261904Y-47195238D01*
X14309523Y-47290476D01*
X14357142Y-47480952D01*
X14357142Y-47623809D01*
X14309523Y-47814285D01*
X14261904Y-47909523D01*
X14166666Y-48004761D01*
X14023809Y-48052380D01*
X13785714Y-48052380D01*
X15309523Y-48052380D02*
X14738095Y-48052380D01*
X15023809Y-48052380D02*
X15023809Y-47052380D01*
X14928571Y-47195238D01*
X14833333Y-47290476D01*
X14738095Y-47338095D01*
X15880952Y-47480952D02*
X15785714Y-47433333D01*
X15738095Y-47385714D01*
X15690476Y-47290476D01*
X15690476Y-47242857D01*
X15738095Y-47147619D01*
X15785714Y-47100000D01*
X15880952Y-47052380D01*
X16071428Y-47052380D01*
X16166666Y-47100000D01*
X16214285Y-47147619D01*
X16261904Y-47242857D01*
X16261904Y-47290476D01*
X16214285Y-47385714D01*
X16166666Y-47433333D01*
X16071428Y-47480952D01*
X15880952Y-47480952D01*
X15785714Y-47528571D01*
X15738095Y-47576190D01*
X15690476Y-47671428D01*
X15690476Y-47861904D01*
X15738095Y-47957142D01*
X15785714Y-48004761D01*
X15880952Y-48052380D01*
X16071428Y-48052380D01*
X16166666Y-48004761D01*
X16214285Y-47957142D01*
X16261904Y-47861904D01*
X16261904Y-47671428D01*
X16214285Y-47576190D01*
X16166666Y-47528571D01*
X16071428Y-47480952D01*
%TO.C,D19*%
X13785714Y-53052380D02*
X13785714Y-52052380D01*
X14023809Y-52052380D01*
X14166666Y-52100000D01*
X14261904Y-52195238D01*
X14309523Y-52290476D01*
X14357142Y-52480952D01*
X14357142Y-52623809D01*
X14309523Y-52814285D01*
X14261904Y-52909523D01*
X14166666Y-53004761D01*
X14023809Y-53052380D01*
X13785714Y-53052380D01*
X15309523Y-53052380D02*
X14738095Y-53052380D01*
X15023809Y-53052380D02*
X15023809Y-52052380D01*
X14928571Y-52195238D01*
X14833333Y-52290476D01*
X14738095Y-52338095D01*
X15785714Y-53052380D02*
X15976190Y-53052380D01*
X16071428Y-53004761D01*
X16119047Y-52957142D01*
X16214285Y-52814285D01*
X16261904Y-52623809D01*
X16261904Y-52242857D01*
X16214285Y-52147619D01*
X16166666Y-52100000D01*
X16071428Y-52052380D01*
X15880952Y-52052380D01*
X15785714Y-52100000D01*
X15738095Y-52147619D01*
X15690476Y-52242857D01*
X15690476Y-52480952D01*
X15738095Y-52576190D01*
X15785714Y-52623809D01*
X15880952Y-52671428D01*
X16071428Y-52671428D01*
X16166666Y-52623809D01*
X16214285Y-52576190D01*
X16261904Y-52480952D01*
%TO.C,D20*%
X13785714Y-58052380D02*
X13785714Y-57052380D01*
X14023809Y-57052380D01*
X14166666Y-57100000D01*
X14261904Y-57195238D01*
X14309523Y-57290476D01*
X14357142Y-57480952D01*
X14357142Y-57623809D01*
X14309523Y-57814285D01*
X14261904Y-57909523D01*
X14166666Y-58004761D01*
X14023809Y-58052380D01*
X13785714Y-58052380D01*
X14738095Y-57147619D02*
X14785714Y-57100000D01*
X14880952Y-57052380D01*
X15119047Y-57052380D01*
X15214285Y-57100000D01*
X15261904Y-57147619D01*
X15309523Y-57242857D01*
X15309523Y-57338095D01*
X15261904Y-57480952D01*
X14690476Y-58052380D01*
X15309523Y-58052380D01*
X15928571Y-57052380D02*
X16023809Y-57052380D01*
X16119047Y-57100000D01*
X16166666Y-57147619D01*
X16214285Y-57242857D01*
X16261904Y-57433333D01*
X16261904Y-57671428D01*
X16214285Y-57861904D01*
X16166666Y-57957142D01*
X16119047Y-58004761D01*
X16023809Y-58052380D01*
X15928571Y-58052380D01*
X15833333Y-58004761D01*
X15785714Y-57957142D01*
X15738095Y-57861904D01*
X15690476Y-57671428D01*
X15690476Y-57433333D01*
X15738095Y-57242857D01*
X15785714Y-57147619D01*
X15833333Y-57100000D01*
X15928571Y-57052380D01*
%TO.C,J3*%
X17866666Y-11912380D02*
X17866666Y-12626666D01*
X17819047Y-12769523D01*
X17723809Y-12864761D01*
X17580952Y-12912380D01*
X17485714Y-12912380D01*
X18247619Y-11912380D02*
X18866666Y-11912380D01*
X18533333Y-12293333D01*
X18676190Y-12293333D01*
X18771428Y-12340952D01*
X18819047Y-12388571D01*
X18866666Y-12483809D01*
X18866666Y-12721904D01*
X18819047Y-12817142D01*
X18771428Y-12864761D01*
X18676190Y-12912380D01*
X18390476Y-12912380D01*
X18295238Y-12864761D01*
X18247619Y-12817142D01*
%TO.C,J4*%
X11366666Y-11912380D02*
X11366666Y-12626666D01*
X11319047Y-12769523D01*
X11223809Y-12864761D01*
X11080952Y-12912380D01*
X10985714Y-12912380D01*
X12271428Y-12245714D02*
X12271428Y-12912380D01*
X12033333Y-11864761D02*
X11795238Y-12579047D01*
X12414285Y-12579047D01*
%TD*%
M02*
