%TF.GenerationSoftware,KiCad,Pcbnew,(5.1.6-0-10_14)*%
%TF.CreationDate,2021-01-01T02:06:57+01:00*%
%TF.ProjectId,lamp10,6c616d70-3130-42e6-9b69-6361645f7063,rev?*%
%TF.SameCoordinates,Original*%
%TF.FileFunction,Copper,L2,Bot*%
%TF.FilePolarity,Positive*%
%FSLAX46Y46*%
G04 Gerber Fmt 4.6, Leading zero omitted, Abs format (unit mm)*
G04 Created by KiCad (PCBNEW (5.1.6-0-10_14)) date 2021-01-01 02:06:57*
%MOMM*%
%LPD*%
G01*
G04 APERTURE LIST*
%TA.AperFunction,ViaPad*%
%ADD10C,0.800000*%
%TD*%
%TA.AperFunction,NonConductor*%
%ADD11C,0.254000*%
%TD*%
G04 APERTURE END LIST*
D10*
%TO.N,*%
X32000000Y-21000000D03*
X33000000Y-20000000D03*
X34000000Y-19000000D03*
X35000000Y-19000000D03*
X36000000Y-18000000D03*
X37000000Y-18000000D03*
X38000000Y-18000000D03*
X39000000Y-18000000D03*
X40000000Y-18000000D03*
X41000000Y-18000000D03*
X42000000Y-18000000D03*
X43000000Y-18000000D03*
X44000000Y-18000000D03*
X45000000Y-19000000D03*
X46000000Y-19000000D03*
X47000000Y-20000000D03*
X48000000Y-20000000D03*
X48000000Y-21000000D03*
X49000000Y-21000000D03*
X46000000Y-20000000D03*
X44000000Y-19000000D03*
X49000000Y-22000000D03*
X50000000Y-22000000D03*
X50000000Y-23000000D03*
X50000000Y-24000000D03*
X51000000Y-24000000D03*
X51000000Y-25000000D03*
X51000000Y-26000000D03*
X52000000Y-26000000D03*
X52000000Y-27000000D03*
X52000000Y-28000000D03*
X52000000Y-29000000D03*
X52000000Y-30000000D03*
X52000000Y-31000000D03*
X52000000Y-32000000D03*
X52000000Y-33000000D03*
X52000000Y-34000000D03*
X51000000Y-34000000D03*
X51000000Y-35000000D03*
X51000000Y-36000000D03*
X50000000Y-36000000D03*
X50000000Y-37000000D03*
X50000000Y-38000000D03*
X49000000Y-38000000D03*
X49000000Y-39000000D03*
X48000000Y-39000000D03*
X47000000Y-40000000D03*
X46000000Y-41000000D03*
X45000000Y-41000000D03*
X44000000Y-42000000D03*
X43000000Y-42000000D03*
X42000000Y-42000000D03*
X41000000Y-42000000D03*
X40000000Y-42000000D03*
X39000000Y-42000000D03*
X38000000Y-42000000D03*
X37000000Y-42000000D03*
X36000000Y-42000000D03*
X36000000Y-41000000D03*
X35000000Y-41000000D03*
X34000000Y-41000000D03*
X34000000Y-40000000D03*
X33000000Y-40000000D03*
X32000000Y-40000000D03*
X32000000Y-39000000D03*
X31000000Y-39000000D03*
X31000000Y-38000000D03*
X30000000Y-38000000D03*
X30000000Y-37000000D03*
X30000000Y-36000000D03*
X29000000Y-36000000D03*
X29000000Y-35000000D03*
X28000000Y-34000000D03*
X28000000Y-33000000D03*
X28000000Y-33000000D03*
X28000000Y-32000000D03*
X28000000Y-31000000D03*
X28000000Y-30000000D03*
X28000000Y-29000000D03*
X28000000Y-28000000D03*
X28000000Y-28000000D03*
X28000000Y-27000000D03*
X28000000Y-26000000D03*
X28000000Y-25000000D03*
X29000000Y-25000000D03*
X29000000Y-24000000D03*
X30000000Y-23000000D03*
X30000000Y-22000000D03*
X31000000Y-22000000D03*
X31000000Y-21000000D03*
X34000000Y-30000000D03*
X34000000Y-29000000D03*
X34000000Y-28000000D03*
X34000000Y-27000000D03*
X34000000Y-26000000D03*
X35000000Y-25000000D03*
X36000000Y-24000000D03*
X37000000Y-23000000D03*
X38000000Y-23000000D03*
X39000000Y-23000000D03*
X41000000Y-23000000D03*
X40000000Y-23000000D03*
X42000000Y-23000000D03*
X34000000Y-31000000D03*
X34000000Y-32000000D03*
X34000000Y-33000000D03*
X34000000Y-34000000D03*
X35000000Y-35000000D03*
X36000000Y-36000000D03*
X37000000Y-36000000D03*
X38000000Y-36000000D03*
X39000000Y-37000000D03*
X40000000Y-37000000D03*
X41000000Y-37000000D03*
X42000000Y-37000000D03*
X43000000Y-37000000D03*
X44000000Y-36000000D03*
X45000000Y-35000000D03*
X46000000Y-34000000D03*
X46000000Y-33000000D03*
X46000000Y-32000000D03*
X47000000Y-31000000D03*
%TD*%
D11*
G36*
X45022290Y-42165839D02*
G01*
X45035000Y-42101939D01*
X45035000Y-42035000D01*
X45101939Y-42035000D01*
X45268135Y-42001942D01*
X45022290Y-42165839D01*
G37*
X45022290Y-42165839D02*
X45035000Y-42101939D01*
X45035000Y-42035000D01*
X45101939Y-42035000D01*
X45268135Y-42001942D01*
X45022290Y-42165839D01*
G36*
X42509744Y-18917205D02*
G01*
X42698102Y-18995226D01*
X42898061Y-19035000D01*
X42965000Y-19035000D01*
X42965000Y-19101939D01*
X43004774Y-19301898D01*
X43082795Y-19490256D01*
X43196063Y-19659774D01*
X43340226Y-19803937D01*
X43509744Y-19917205D01*
X43698102Y-19995226D01*
X43898061Y-20035000D01*
X44101939Y-20035000D01*
X44301898Y-19995226D01*
X44490256Y-19917205D01*
X44500000Y-19910694D01*
X44509744Y-19917205D01*
X44698102Y-19995226D01*
X44898061Y-20035000D01*
X44965000Y-20035000D01*
X44965000Y-20101939D01*
X45004774Y-20301898D01*
X45082795Y-20490256D01*
X45196063Y-20659774D01*
X45340226Y-20803937D01*
X45509744Y-20917205D01*
X45698102Y-20995226D01*
X45898061Y-21035000D01*
X46101939Y-21035000D01*
X46301898Y-20995226D01*
X46490256Y-20917205D01*
X46500000Y-20910694D01*
X46509744Y-20917205D01*
X46698102Y-20995226D01*
X46898061Y-21035000D01*
X46965000Y-21035000D01*
X46965000Y-21101939D01*
X47004774Y-21301898D01*
X47082795Y-21490256D01*
X47196063Y-21659774D01*
X47340226Y-21803937D01*
X47509744Y-21917205D01*
X47698102Y-21995226D01*
X47898061Y-22035000D01*
X47965000Y-22035000D01*
X47965000Y-22101939D01*
X48004774Y-22301898D01*
X48082795Y-22490256D01*
X48196063Y-22659774D01*
X48340226Y-22803937D01*
X48509744Y-22917205D01*
X48698102Y-22995226D01*
X48898061Y-23035000D01*
X48965000Y-23035000D01*
X48965000Y-23101939D01*
X49004774Y-23301898D01*
X49082795Y-23490256D01*
X49089306Y-23500000D01*
X49082795Y-23509744D01*
X49004774Y-23698102D01*
X48965000Y-23898061D01*
X48965000Y-24101939D01*
X49004774Y-24301898D01*
X49082795Y-24490256D01*
X49196063Y-24659774D01*
X49340226Y-24803937D01*
X49509744Y-24917205D01*
X49698102Y-24995226D01*
X49898061Y-25035000D01*
X49965000Y-25035000D01*
X49965000Y-25101939D01*
X50004774Y-25301898D01*
X50082795Y-25490256D01*
X50089306Y-25500000D01*
X50082795Y-25509744D01*
X50004774Y-25698102D01*
X49965000Y-25898061D01*
X49965000Y-26101939D01*
X50004774Y-26301898D01*
X50082795Y-26490256D01*
X50196063Y-26659774D01*
X50340226Y-26803937D01*
X50509744Y-26917205D01*
X50698102Y-26995226D01*
X50898061Y-27035000D01*
X50965000Y-27035000D01*
X50965000Y-27101939D01*
X51004774Y-27301898D01*
X51082795Y-27490256D01*
X51089306Y-27500000D01*
X51082795Y-27509744D01*
X51004774Y-27698102D01*
X50965000Y-27898061D01*
X50965000Y-28101939D01*
X51004774Y-28301898D01*
X51082795Y-28490256D01*
X51089306Y-28500000D01*
X51082795Y-28509744D01*
X51004774Y-28698102D01*
X50965000Y-28898061D01*
X50965000Y-29101939D01*
X51004774Y-29301898D01*
X51082795Y-29490256D01*
X51089306Y-29500000D01*
X51082795Y-29509744D01*
X51004774Y-29698102D01*
X50965000Y-29898061D01*
X50965000Y-30101939D01*
X51004774Y-30301898D01*
X51082795Y-30490256D01*
X51089306Y-30500000D01*
X51082795Y-30509744D01*
X51004774Y-30698102D01*
X50965000Y-30898061D01*
X50965000Y-31101939D01*
X51004774Y-31301898D01*
X51082795Y-31490256D01*
X51089306Y-31500000D01*
X51082795Y-31509744D01*
X51004774Y-31698102D01*
X50965000Y-31898061D01*
X50965000Y-32101939D01*
X51004774Y-32301898D01*
X51082795Y-32490256D01*
X51089306Y-32500000D01*
X51082795Y-32509744D01*
X51004774Y-32698102D01*
X50965000Y-32898061D01*
X50965000Y-32965000D01*
X50898061Y-32965000D01*
X50698102Y-33004774D01*
X50509744Y-33082795D01*
X50340226Y-33196063D01*
X50196063Y-33340226D01*
X50082795Y-33509744D01*
X50004774Y-33698102D01*
X49965000Y-33898061D01*
X49965000Y-34101939D01*
X50004774Y-34301898D01*
X50082795Y-34490256D01*
X50089306Y-34500000D01*
X50082795Y-34509744D01*
X50004774Y-34698102D01*
X49965000Y-34898061D01*
X49965000Y-34965000D01*
X49898061Y-34965000D01*
X49698102Y-35004774D01*
X49509744Y-35082795D01*
X49340226Y-35196063D01*
X49196063Y-35340226D01*
X49082795Y-35509744D01*
X49004774Y-35698102D01*
X48965000Y-35898061D01*
X48965000Y-36101939D01*
X49004774Y-36301898D01*
X49082795Y-36490256D01*
X49089306Y-36500000D01*
X49082795Y-36509744D01*
X49004774Y-36698102D01*
X48965000Y-36898061D01*
X48965000Y-36965000D01*
X48898061Y-36965000D01*
X48698102Y-37004774D01*
X48509744Y-37082795D01*
X48340226Y-37196063D01*
X48196063Y-37340226D01*
X48082795Y-37509744D01*
X48004774Y-37698102D01*
X47965000Y-37898061D01*
X47965000Y-37965000D01*
X47898061Y-37965000D01*
X47698102Y-38004774D01*
X47509744Y-38082795D01*
X47340226Y-38196063D01*
X47196063Y-38340226D01*
X47082795Y-38509744D01*
X47004774Y-38698102D01*
X46965000Y-38898061D01*
X46965000Y-38965000D01*
X46898061Y-38965000D01*
X46698102Y-39004774D01*
X46509744Y-39082795D01*
X46340226Y-39196063D01*
X46196063Y-39340226D01*
X46082795Y-39509744D01*
X46004774Y-39698102D01*
X45965000Y-39898061D01*
X45965000Y-39965000D01*
X45898061Y-39965000D01*
X45698102Y-40004774D01*
X45509744Y-40082795D01*
X45500000Y-40089306D01*
X45490256Y-40082795D01*
X45301898Y-40004774D01*
X45101939Y-39965000D01*
X44898061Y-39965000D01*
X44698102Y-40004774D01*
X44509744Y-40082795D01*
X44340226Y-40196063D01*
X44196063Y-40340226D01*
X44082795Y-40509744D01*
X44004774Y-40698102D01*
X43965000Y-40898061D01*
X43965000Y-40965000D01*
X43898061Y-40965000D01*
X43698102Y-41004774D01*
X43509744Y-41082795D01*
X43500000Y-41089306D01*
X43490256Y-41082795D01*
X43301898Y-41004774D01*
X43101939Y-40965000D01*
X42898061Y-40965000D01*
X42698102Y-41004774D01*
X42509744Y-41082795D01*
X42500000Y-41089306D01*
X42490256Y-41082795D01*
X42301898Y-41004774D01*
X42101939Y-40965000D01*
X41898061Y-40965000D01*
X41698102Y-41004774D01*
X41509744Y-41082795D01*
X41500000Y-41089306D01*
X41490256Y-41082795D01*
X41301898Y-41004774D01*
X41101939Y-40965000D01*
X40898061Y-40965000D01*
X40698102Y-41004774D01*
X40509744Y-41082795D01*
X40500000Y-41089306D01*
X40490256Y-41082795D01*
X40301898Y-41004774D01*
X40101939Y-40965000D01*
X39898061Y-40965000D01*
X39698102Y-41004774D01*
X39509744Y-41082795D01*
X39500000Y-41089306D01*
X39490256Y-41082795D01*
X39301898Y-41004774D01*
X39101939Y-40965000D01*
X38898061Y-40965000D01*
X38698102Y-41004774D01*
X38509744Y-41082795D01*
X38500000Y-41089306D01*
X38490256Y-41082795D01*
X38301898Y-41004774D01*
X38101939Y-40965000D01*
X37898061Y-40965000D01*
X37698102Y-41004774D01*
X37509744Y-41082795D01*
X37500000Y-41089306D01*
X37490256Y-41082795D01*
X37301898Y-41004774D01*
X37101939Y-40965000D01*
X37035000Y-40965000D01*
X37035000Y-40898061D01*
X36995226Y-40698102D01*
X36917205Y-40509744D01*
X36803937Y-40340226D01*
X36659774Y-40196063D01*
X36490256Y-40082795D01*
X36301898Y-40004774D01*
X36101939Y-39965000D01*
X35898061Y-39965000D01*
X35698102Y-40004774D01*
X35509744Y-40082795D01*
X35500000Y-40089306D01*
X35490256Y-40082795D01*
X35301898Y-40004774D01*
X35101939Y-39965000D01*
X35035000Y-39965000D01*
X35035000Y-39898061D01*
X34995226Y-39698102D01*
X34917205Y-39509744D01*
X34803937Y-39340226D01*
X34659774Y-39196063D01*
X34490256Y-39082795D01*
X34301898Y-39004774D01*
X34101939Y-38965000D01*
X33898061Y-38965000D01*
X33698102Y-39004774D01*
X33509744Y-39082795D01*
X33500000Y-39089306D01*
X33490256Y-39082795D01*
X33301898Y-39004774D01*
X33101939Y-38965000D01*
X33035000Y-38965000D01*
X33035000Y-38898061D01*
X32995226Y-38698102D01*
X32917205Y-38509744D01*
X32803937Y-38340226D01*
X32659774Y-38196063D01*
X32490256Y-38082795D01*
X32301898Y-38004774D01*
X32101939Y-37965000D01*
X32035000Y-37965000D01*
X32035000Y-37898061D01*
X31995226Y-37698102D01*
X31917205Y-37509744D01*
X31803937Y-37340226D01*
X31659774Y-37196063D01*
X31490256Y-37082795D01*
X31301898Y-37004774D01*
X31101939Y-36965000D01*
X31035000Y-36965000D01*
X31035000Y-36898061D01*
X30995226Y-36698102D01*
X30917205Y-36509744D01*
X30910694Y-36500000D01*
X30917205Y-36490256D01*
X30995226Y-36301898D01*
X31035000Y-36101939D01*
X31035000Y-35898061D01*
X30995226Y-35698102D01*
X30917205Y-35509744D01*
X30803937Y-35340226D01*
X30659774Y-35196063D01*
X30490256Y-35082795D01*
X30301898Y-35004774D01*
X30101939Y-34965000D01*
X30035000Y-34965000D01*
X30035000Y-34898061D01*
X29995226Y-34698102D01*
X29917205Y-34509744D01*
X29803937Y-34340226D01*
X29659774Y-34196063D01*
X29490256Y-34082795D01*
X29301898Y-34004774D01*
X29101939Y-33965000D01*
X29035000Y-33965000D01*
X29035000Y-33898061D01*
X28995226Y-33698102D01*
X28917205Y-33509744D01*
X28910694Y-33500000D01*
X28917205Y-33490256D01*
X28995226Y-33301898D01*
X29035000Y-33101939D01*
X29035000Y-32898061D01*
X28995226Y-32698102D01*
X28917205Y-32509744D01*
X28910694Y-32500000D01*
X28917205Y-32490256D01*
X28995226Y-32301898D01*
X29035000Y-32101939D01*
X29035000Y-31898061D01*
X28995226Y-31698102D01*
X28917205Y-31509744D01*
X28910694Y-31500000D01*
X28917205Y-31490256D01*
X28995226Y-31301898D01*
X29035000Y-31101939D01*
X29035000Y-30898061D01*
X28995226Y-30698102D01*
X28917205Y-30509744D01*
X28910694Y-30500000D01*
X28917205Y-30490256D01*
X28995226Y-30301898D01*
X29035000Y-30101939D01*
X29035000Y-29898061D01*
X28995226Y-29698102D01*
X28917205Y-29509744D01*
X28910694Y-29500000D01*
X28917205Y-29490256D01*
X28995226Y-29301898D01*
X29035000Y-29101939D01*
X29035000Y-28898061D01*
X28995226Y-28698102D01*
X28917205Y-28509744D01*
X28910694Y-28500000D01*
X28917205Y-28490256D01*
X28995226Y-28301898D01*
X29035000Y-28101939D01*
X29035000Y-27898061D01*
X28995226Y-27698102D01*
X28917205Y-27509744D01*
X28910694Y-27500000D01*
X28917205Y-27490256D01*
X28995226Y-27301898D01*
X29035000Y-27101939D01*
X29035000Y-26898061D01*
X28995226Y-26698102D01*
X28917205Y-26509744D01*
X28910694Y-26500000D01*
X28917205Y-26490256D01*
X28995226Y-26301898D01*
X29035000Y-26101939D01*
X29035000Y-26035000D01*
X29101939Y-26035000D01*
X29301898Y-25995226D01*
X29490256Y-25917205D01*
X29518907Y-25898061D01*
X32965000Y-25898061D01*
X32965000Y-26101939D01*
X33004774Y-26301898D01*
X33082795Y-26490256D01*
X33089306Y-26500000D01*
X33082795Y-26509744D01*
X33004774Y-26698102D01*
X32965000Y-26898061D01*
X32965000Y-27101939D01*
X33004774Y-27301898D01*
X33082795Y-27490256D01*
X33089306Y-27500000D01*
X33082795Y-27509744D01*
X33004774Y-27698102D01*
X32965000Y-27898061D01*
X32965000Y-28101939D01*
X33004774Y-28301898D01*
X33082795Y-28490256D01*
X33089306Y-28500000D01*
X33082795Y-28509744D01*
X33004774Y-28698102D01*
X32965000Y-28898061D01*
X32965000Y-29101939D01*
X33004774Y-29301898D01*
X33082795Y-29490256D01*
X33089306Y-29500000D01*
X33082795Y-29509744D01*
X33004774Y-29698102D01*
X32965000Y-29898061D01*
X32965000Y-30101939D01*
X33004774Y-30301898D01*
X33082795Y-30490256D01*
X33089306Y-30500000D01*
X33082795Y-30509744D01*
X33004774Y-30698102D01*
X32965000Y-30898061D01*
X32965000Y-31101939D01*
X33004774Y-31301898D01*
X33082795Y-31490256D01*
X33089306Y-31500000D01*
X33082795Y-31509744D01*
X33004774Y-31698102D01*
X32965000Y-31898061D01*
X32965000Y-32101939D01*
X33004774Y-32301898D01*
X33082795Y-32490256D01*
X33089306Y-32500000D01*
X33082795Y-32509744D01*
X33004774Y-32698102D01*
X32965000Y-32898061D01*
X32965000Y-33101939D01*
X33004774Y-33301898D01*
X33082795Y-33490256D01*
X33089306Y-33500000D01*
X33082795Y-33509744D01*
X33004774Y-33698102D01*
X32965000Y-33898061D01*
X32965000Y-34101939D01*
X33004774Y-34301898D01*
X33082795Y-34490256D01*
X33196063Y-34659774D01*
X33340226Y-34803937D01*
X33509744Y-34917205D01*
X33698102Y-34995226D01*
X33898061Y-35035000D01*
X33965000Y-35035000D01*
X33965000Y-35101939D01*
X34004774Y-35301898D01*
X34082795Y-35490256D01*
X34196063Y-35659774D01*
X34340226Y-35803937D01*
X34509744Y-35917205D01*
X34698102Y-35995226D01*
X34898061Y-36035000D01*
X34965000Y-36035000D01*
X34965000Y-36101939D01*
X35004774Y-36301898D01*
X35082795Y-36490256D01*
X35196063Y-36659774D01*
X35340226Y-36803937D01*
X35509744Y-36917205D01*
X35698102Y-36995226D01*
X35898061Y-37035000D01*
X36101939Y-37035000D01*
X36301898Y-36995226D01*
X36490256Y-36917205D01*
X36500000Y-36910694D01*
X36509744Y-36917205D01*
X36698102Y-36995226D01*
X36898061Y-37035000D01*
X37101939Y-37035000D01*
X37301898Y-36995226D01*
X37490256Y-36917205D01*
X37500000Y-36910694D01*
X37509744Y-36917205D01*
X37698102Y-36995226D01*
X37898061Y-37035000D01*
X37965000Y-37035000D01*
X37965000Y-37101939D01*
X38004774Y-37301898D01*
X38082795Y-37490256D01*
X38196063Y-37659774D01*
X38340226Y-37803937D01*
X38509744Y-37917205D01*
X38698102Y-37995226D01*
X38898061Y-38035000D01*
X39101939Y-38035000D01*
X39301898Y-37995226D01*
X39490256Y-37917205D01*
X39500000Y-37910694D01*
X39509744Y-37917205D01*
X39698102Y-37995226D01*
X39898061Y-38035000D01*
X40101939Y-38035000D01*
X40301898Y-37995226D01*
X40490256Y-37917205D01*
X40500000Y-37910694D01*
X40509744Y-37917205D01*
X40698102Y-37995226D01*
X40898061Y-38035000D01*
X41101939Y-38035000D01*
X41301898Y-37995226D01*
X41490256Y-37917205D01*
X41500000Y-37910694D01*
X41509744Y-37917205D01*
X41698102Y-37995226D01*
X41898061Y-38035000D01*
X42101939Y-38035000D01*
X42301898Y-37995226D01*
X42490256Y-37917205D01*
X42500000Y-37910694D01*
X42509744Y-37917205D01*
X42698102Y-37995226D01*
X42898061Y-38035000D01*
X43101939Y-38035000D01*
X43301898Y-37995226D01*
X43490256Y-37917205D01*
X43659774Y-37803937D01*
X43803937Y-37659774D01*
X43917205Y-37490256D01*
X43995226Y-37301898D01*
X44035000Y-37101939D01*
X44035000Y-37035000D01*
X44101939Y-37035000D01*
X44301898Y-36995226D01*
X44490256Y-36917205D01*
X44659774Y-36803937D01*
X44803937Y-36659774D01*
X44917205Y-36490256D01*
X44995226Y-36301898D01*
X45035000Y-36101939D01*
X45035000Y-36035000D01*
X45101939Y-36035000D01*
X45301898Y-35995226D01*
X45490256Y-35917205D01*
X45659774Y-35803937D01*
X45803937Y-35659774D01*
X45917205Y-35490256D01*
X45995226Y-35301898D01*
X46035000Y-35101939D01*
X46035000Y-35035000D01*
X46101939Y-35035000D01*
X46301898Y-34995226D01*
X46490256Y-34917205D01*
X46659774Y-34803937D01*
X46803937Y-34659774D01*
X46917205Y-34490256D01*
X46995226Y-34301898D01*
X47035000Y-34101939D01*
X47035000Y-33898061D01*
X46995226Y-33698102D01*
X46917205Y-33509744D01*
X46910694Y-33500000D01*
X46917205Y-33490256D01*
X46995226Y-33301898D01*
X47035000Y-33101939D01*
X47035000Y-32898061D01*
X46995226Y-32698102D01*
X46917205Y-32509744D01*
X46910694Y-32500000D01*
X46917205Y-32490256D01*
X46995226Y-32301898D01*
X47035000Y-32101939D01*
X47035000Y-32035000D01*
X47101939Y-32035000D01*
X47301898Y-31995226D01*
X47490256Y-31917205D01*
X47659774Y-31803937D01*
X47803937Y-31659774D01*
X47917205Y-31490256D01*
X47995226Y-31301898D01*
X48035000Y-31101939D01*
X48035000Y-30898061D01*
X47995226Y-30698102D01*
X47917205Y-30509744D01*
X47803937Y-30340226D01*
X47659774Y-30196063D01*
X47490256Y-30082795D01*
X47301898Y-30004774D01*
X47101939Y-29965000D01*
X46898061Y-29965000D01*
X46698102Y-30004774D01*
X46509744Y-30082795D01*
X46340226Y-30196063D01*
X46196063Y-30340226D01*
X46082795Y-30509744D01*
X46004774Y-30698102D01*
X45965000Y-30898061D01*
X45965000Y-30965000D01*
X45898061Y-30965000D01*
X45698102Y-31004774D01*
X45509744Y-31082795D01*
X45340226Y-31196063D01*
X45196063Y-31340226D01*
X45082795Y-31509744D01*
X45004774Y-31698102D01*
X44965000Y-31898061D01*
X44965000Y-32101939D01*
X45004774Y-32301898D01*
X45082795Y-32490256D01*
X45089306Y-32500000D01*
X45082795Y-32509744D01*
X45004774Y-32698102D01*
X44965000Y-32898061D01*
X44965000Y-33101939D01*
X45004774Y-33301898D01*
X45082795Y-33490256D01*
X45089306Y-33500000D01*
X45082795Y-33509744D01*
X45004774Y-33698102D01*
X44965000Y-33898061D01*
X44965000Y-33965000D01*
X44898061Y-33965000D01*
X44698102Y-34004774D01*
X44509744Y-34082795D01*
X44340226Y-34196063D01*
X44196063Y-34340226D01*
X44082795Y-34509744D01*
X44004774Y-34698102D01*
X43965000Y-34898061D01*
X43965000Y-34965000D01*
X43898061Y-34965000D01*
X43698102Y-35004774D01*
X43509744Y-35082795D01*
X43340226Y-35196063D01*
X43196063Y-35340226D01*
X43082795Y-35509744D01*
X43004774Y-35698102D01*
X42965000Y-35898061D01*
X42965000Y-35965000D01*
X42898061Y-35965000D01*
X42698102Y-36004774D01*
X42509744Y-36082795D01*
X42500000Y-36089306D01*
X42490256Y-36082795D01*
X42301898Y-36004774D01*
X42101939Y-35965000D01*
X41898061Y-35965000D01*
X41698102Y-36004774D01*
X41509744Y-36082795D01*
X41500000Y-36089306D01*
X41490256Y-36082795D01*
X41301898Y-36004774D01*
X41101939Y-35965000D01*
X40898061Y-35965000D01*
X40698102Y-36004774D01*
X40509744Y-36082795D01*
X40500000Y-36089306D01*
X40490256Y-36082795D01*
X40301898Y-36004774D01*
X40101939Y-35965000D01*
X39898061Y-35965000D01*
X39698102Y-36004774D01*
X39509744Y-36082795D01*
X39500000Y-36089306D01*
X39490256Y-36082795D01*
X39301898Y-36004774D01*
X39101939Y-35965000D01*
X39035000Y-35965000D01*
X39035000Y-35898061D01*
X38995226Y-35698102D01*
X38917205Y-35509744D01*
X38803937Y-35340226D01*
X38659774Y-35196063D01*
X38490256Y-35082795D01*
X38301898Y-35004774D01*
X38101939Y-34965000D01*
X37898061Y-34965000D01*
X37698102Y-35004774D01*
X37509744Y-35082795D01*
X37500000Y-35089306D01*
X37490256Y-35082795D01*
X37301898Y-35004774D01*
X37101939Y-34965000D01*
X36898061Y-34965000D01*
X36698102Y-35004774D01*
X36509744Y-35082795D01*
X36500000Y-35089306D01*
X36490256Y-35082795D01*
X36301898Y-35004774D01*
X36101939Y-34965000D01*
X36035000Y-34965000D01*
X36035000Y-34898061D01*
X35995226Y-34698102D01*
X35917205Y-34509744D01*
X35803937Y-34340226D01*
X35659774Y-34196063D01*
X35490256Y-34082795D01*
X35301898Y-34004774D01*
X35101939Y-33965000D01*
X35035000Y-33965000D01*
X35035000Y-33898061D01*
X34995226Y-33698102D01*
X34917205Y-33509744D01*
X34910694Y-33500000D01*
X34917205Y-33490256D01*
X34995226Y-33301898D01*
X35035000Y-33101939D01*
X35035000Y-32898061D01*
X34995226Y-32698102D01*
X34917205Y-32509744D01*
X34910694Y-32500000D01*
X34917205Y-32490256D01*
X34995226Y-32301898D01*
X35035000Y-32101939D01*
X35035000Y-31898061D01*
X34995226Y-31698102D01*
X34917205Y-31509744D01*
X34910694Y-31500000D01*
X34917205Y-31490256D01*
X34995226Y-31301898D01*
X35035000Y-31101939D01*
X35035000Y-30898061D01*
X34995226Y-30698102D01*
X34917205Y-30509744D01*
X34910694Y-30500000D01*
X34917205Y-30490256D01*
X34995226Y-30301898D01*
X35035000Y-30101939D01*
X35035000Y-29898061D01*
X34995226Y-29698102D01*
X34917205Y-29509744D01*
X34910694Y-29500000D01*
X34917205Y-29490256D01*
X34995226Y-29301898D01*
X35035000Y-29101939D01*
X35035000Y-28898061D01*
X34995226Y-28698102D01*
X34917205Y-28509744D01*
X34910694Y-28500000D01*
X34917205Y-28490256D01*
X34995226Y-28301898D01*
X35035000Y-28101939D01*
X35035000Y-27898061D01*
X34995226Y-27698102D01*
X34917205Y-27509744D01*
X34910694Y-27500000D01*
X34917205Y-27490256D01*
X34995226Y-27301898D01*
X35035000Y-27101939D01*
X35035000Y-26898061D01*
X34995226Y-26698102D01*
X34917205Y-26509744D01*
X34910694Y-26500000D01*
X34917205Y-26490256D01*
X34995226Y-26301898D01*
X35035000Y-26101939D01*
X35035000Y-26035000D01*
X35101939Y-26035000D01*
X35301898Y-25995226D01*
X35490256Y-25917205D01*
X35659774Y-25803937D01*
X35803937Y-25659774D01*
X35917205Y-25490256D01*
X35995226Y-25301898D01*
X36035000Y-25101939D01*
X36035000Y-25035000D01*
X36101939Y-25035000D01*
X36301898Y-24995226D01*
X36490256Y-24917205D01*
X36659774Y-24803937D01*
X36803937Y-24659774D01*
X36917205Y-24490256D01*
X36995226Y-24301898D01*
X37035000Y-24101939D01*
X37035000Y-24035000D01*
X37101939Y-24035000D01*
X37301898Y-23995226D01*
X37490256Y-23917205D01*
X37500000Y-23910694D01*
X37509744Y-23917205D01*
X37698102Y-23995226D01*
X37898061Y-24035000D01*
X38101939Y-24035000D01*
X38301898Y-23995226D01*
X38490256Y-23917205D01*
X38500000Y-23910694D01*
X38509744Y-23917205D01*
X38698102Y-23995226D01*
X38898061Y-24035000D01*
X39101939Y-24035000D01*
X39301898Y-23995226D01*
X39490256Y-23917205D01*
X39500000Y-23910694D01*
X39509744Y-23917205D01*
X39698102Y-23995226D01*
X39898061Y-24035000D01*
X40101939Y-24035000D01*
X40301898Y-23995226D01*
X40490256Y-23917205D01*
X40500000Y-23910694D01*
X40509744Y-23917205D01*
X40698102Y-23995226D01*
X40898061Y-24035000D01*
X41101939Y-24035000D01*
X41301898Y-23995226D01*
X41490256Y-23917205D01*
X41500000Y-23910694D01*
X41509744Y-23917205D01*
X41698102Y-23995226D01*
X41898061Y-24035000D01*
X42101939Y-24035000D01*
X42301898Y-23995226D01*
X42490256Y-23917205D01*
X42659774Y-23803937D01*
X42803937Y-23659774D01*
X42917205Y-23490256D01*
X42995226Y-23301898D01*
X43035000Y-23101939D01*
X43035000Y-22898061D01*
X42995226Y-22698102D01*
X42917205Y-22509744D01*
X42803937Y-22340226D01*
X42659774Y-22196063D01*
X42490256Y-22082795D01*
X42301898Y-22004774D01*
X42101939Y-21965000D01*
X41898061Y-21965000D01*
X41698102Y-22004774D01*
X41509744Y-22082795D01*
X41500000Y-22089306D01*
X41490256Y-22082795D01*
X41301898Y-22004774D01*
X41101939Y-21965000D01*
X40898061Y-21965000D01*
X40698102Y-22004774D01*
X40509744Y-22082795D01*
X40500000Y-22089306D01*
X40490256Y-22082795D01*
X40301898Y-22004774D01*
X40101939Y-21965000D01*
X39898061Y-21965000D01*
X39698102Y-22004774D01*
X39509744Y-22082795D01*
X39500000Y-22089306D01*
X39490256Y-22082795D01*
X39301898Y-22004774D01*
X39101939Y-21965000D01*
X38898061Y-21965000D01*
X38698102Y-22004774D01*
X38509744Y-22082795D01*
X38500000Y-22089306D01*
X38490256Y-22082795D01*
X38301898Y-22004774D01*
X38101939Y-21965000D01*
X37898061Y-21965000D01*
X37698102Y-22004774D01*
X37509744Y-22082795D01*
X37500000Y-22089306D01*
X37490256Y-22082795D01*
X37301898Y-22004774D01*
X37101939Y-21965000D01*
X36898061Y-21965000D01*
X36698102Y-22004774D01*
X36509744Y-22082795D01*
X36340226Y-22196063D01*
X36196063Y-22340226D01*
X36082795Y-22509744D01*
X36004774Y-22698102D01*
X35965000Y-22898061D01*
X35965000Y-22965000D01*
X35898061Y-22965000D01*
X35698102Y-23004774D01*
X35509744Y-23082795D01*
X35340226Y-23196063D01*
X35196063Y-23340226D01*
X35082795Y-23509744D01*
X35004774Y-23698102D01*
X34965000Y-23898061D01*
X34965000Y-23965000D01*
X34898061Y-23965000D01*
X34698102Y-24004774D01*
X34509744Y-24082795D01*
X34340226Y-24196063D01*
X34196063Y-24340226D01*
X34082795Y-24509744D01*
X34004774Y-24698102D01*
X33965000Y-24898061D01*
X33965000Y-24965000D01*
X33898061Y-24965000D01*
X33698102Y-25004774D01*
X33509744Y-25082795D01*
X33340226Y-25196063D01*
X33196063Y-25340226D01*
X33082795Y-25509744D01*
X33004774Y-25698102D01*
X32965000Y-25898061D01*
X29518907Y-25898061D01*
X29659774Y-25803937D01*
X29803937Y-25659774D01*
X29917205Y-25490256D01*
X29995226Y-25301898D01*
X30035000Y-25101939D01*
X30035000Y-24898061D01*
X29995226Y-24698102D01*
X29917205Y-24509744D01*
X29910694Y-24500000D01*
X29917205Y-24490256D01*
X29995226Y-24301898D01*
X30035000Y-24101939D01*
X30035000Y-24035000D01*
X30101939Y-24035000D01*
X30301898Y-23995226D01*
X30490256Y-23917205D01*
X30659774Y-23803937D01*
X30803937Y-23659774D01*
X30917205Y-23490256D01*
X30995226Y-23301898D01*
X31035000Y-23101939D01*
X31035000Y-23035000D01*
X31101939Y-23035000D01*
X31301898Y-22995226D01*
X31490256Y-22917205D01*
X31659774Y-22803937D01*
X31803937Y-22659774D01*
X31917205Y-22490256D01*
X31995226Y-22301898D01*
X32035000Y-22101939D01*
X32035000Y-22035000D01*
X32101939Y-22035000D01*
X32301898Y-21995226D01*
X32490256Y-21917205D01*
X32659774Y-21803937D01*
X32803937Y-21659774D01*
X32917205Y-21490256D01*
X32995226Y-21301898D01*
X33035000Y-21101939D01*
X33035000Y-21035000D01*
X33101939Y-21035000D01*
X33301898Y-20995226D01*
X33490256Y-20917205D01*
X33659774Y-20803937D01*
X33803937Y-20659774D01*
X33917205Y-20490256D01*
X33995226Y-20301898D01*
X34035000Y-20101939D01*
X34035000Y-20035000D01*
X34101939Y-20035000D01*
X34301898Y-19995226D01*
X34490256Y-19917205D01*
X34500000Y-19910694D01*
X34509744Y-19917205D01*
X34698102Y-19995226D01*
X34898061Y-20035000D01*
X35101939Y-20035000D01*
X35301898Y-19995226D01*
X35490256Y-19917205D01*
X35659774Y-19803937D01*
X35803937Y-19659774D01*
X35917205Y-19490256D01*
X35995226Y-19301898D01*
X36035000Y-19101939D01*
X36035000Y-19035000D01*
X36101939Y-19035000D01*
X36301898Y-18995226D01*
X36490256Y-18917205D01*
X36500000Y-18910694D01*
X36509744Y-18917205D01*
X36698102Y-18995226D01*
X36898061Y-19035000D01*
X37101939Y-19035000D01*
X37301898Y-18995226D01*
X37490256Y-18917205D01*
X37500000Y-18910694D01*
X37509744Y-18917205D01*
X37698102Y-18995226D01*
X37898061Y-19035000D01*
X38101939Y-19035000D01*
X38301898Y-18995226D01*
X38490256Y-18917205D01*
X38500000Y-18910694D01*
X38509744Y-18917205D01*
X38698102Y-18995226D01*
X38898061Y-19035000D01*
X39101939Y-19035000D01*
X39301898Y-18995226D01*
X39490256Y-18917205D01*
X39500000Y-18910694D01*
X39509744Y-18917205D01*
X39698102Y-18995226D01*
X39898061Y-19035000D01*
X40101939Y-19035000D01*
X40301898Y-18995226D01*
X40490256Y-18917205D01*
X40500000Y-18910694D01*
X40509744Y-18917205D01*
X40698102Y-18995226D01*
X40898061Y-19035000D01*
X41101939Y-19035000D01*
X41301898Y-18995226D01*
X41490256Y-18917205D01*
X41500000Y-18910694D01*
X41509744Y-18917205D01*
X41698102Y-18995226D01*
X41898061Y-19035000D01*
X42101939Y-19035000D01*
X42301898Y-18995226D01*
X42490256Y-18917205D01*
X42500000Y-18910694D01*
X42509744Y-18917205D01*
G37*
X42509744Y-18917205D02*
X42698102Y-18995226D01*
X42898061Y-19035000D01*
X42965000Y-19035000D01*
X42965000Y-19101939D01*
X43004774Y-19301898D01*
X43082795Y-19490256D01*
X43196063Y-19659774D01*
X43340226Y-19803937D01*
X43509744Y-19917205D01*
X43698102Y-19995226D01*
X43898061Y-20035000D01*
X44101939Y-20035000D01*
X44301898Y-19995226D01*
X44490256Y-19917205D01*
X44500000Y-19910694D01*
X44509744Y-19917205D01*
X44698102Y-19995226D01*
X44898061Y-20035000D01*
X44965000Y-20035000D01*
X44965000Y-20101939D01*
X45004774Y-20301898D01*
X45082795Y-20490256D01*
X45196063Y-20659774D01*
X45340226Y-20803937D01*
X45509744Y-20917205D01*
X45698102Y-20995226D01*
X45898061Y-21035000D01*
X46101939Y-21035000D01*
X46301898Y-20995226D01*
X46490256Y-20917205D01*
X46500000Y-20910694D01*
X46509744Y-20917205D01*
X46698102Y-20995226D01*
X46898061Y-21035000D01*
X46965000Y-21035000D01*
X46965000Y-21101939D01*
X47004774Y-21301898D01*
X47082795Y-21490256D01*
X47196063Y-21659774D01*
X47340226Y-21803937D01*
X47509744Y-21917205D01*
X47698102Y-21995226D01*
X47898061Y-22035000D01*
X47965000Y-22035000D01*
X47965000Y-22101939D01*
X48004774Y-22301898D01*
X48082795Y-22490256D01*
X48196063Y-22659774D01*
X48340226Y-22803937D01*
X48509744Y-22917205D01*
X48698102Y-22995226D01*
X48898061Y-23035000D01*
X48965000Y-23035000D01*
X48965000Y-23101939D01*
X49004774Y-23301898D01*
X49082795Y-23490256D01*
X49089306Y-23500000D01*
X49082795Y-23509744D01*
X49004774Y-23698102D01*
X48965000Y-23898061D01*
X48965000Y-24101939D01*
X49004774Y-24301898D01*
X49082795Y-24490256D01*
X49196063Y-24659774D01*
X49340226Y-24803937D01*
X49509744Y-24917205D01*
X49698102Y-24995226D01*
X49898061Y-25035000D01*
X49965000Y-25035000D01*
X49965000Y-25101939D01*
X50004774Y-25301898D01*
X50082795Y-25490256D01*
X50089306Y-25500000D01*
X50082795Y-25509744D01*
X50004774Y-25698102D01*
X49965000Y-25898061D01*
X49965000Y-26101939D01*
X50004774Y-26301898D01*
X50082795Y-26490256D01*
X50196063Y-26659774D01*
X50340226Y-26803937D01*
X50509744Y-26917205D01*
X50698102Y-26995226D01*
X50898061Y-27035000D01*
X50965000Y-27035000D01*
X50965000Y-27101939D01*
X51004774Y-27301898D01*
X51082795Y-27490256D01*
X51089306Y-27500000D01*
X51082795Y-27509744D01*
X51004774Y-27698102D01*
X50965000Y-27898061D01*
X50965000Y-28101939D01*
X51004774Y-28301898D01*
X51082795Y-28490256D01*
X51089306Y-28500000D01*
X51082795Y-28509744D01*
X51004774Y-28698102D01*
X50965000Y-28898061D01*
X50965000Y-29101939D01*
X51004774Y-29301898D01*
X51082795Y-29490256D01*
X51089306Y-29500000D01*
X51082795Y-29509744D01*
X51004774Y-29698102D01*
X50965000Y-29898061D01*
X50965000Y-30101939D01*
X51004774Y-30301898D01*
X51082795Y-30490256D01*
X51089306Y-30500000D01*
X51082795Y-30509744D01*
X51004774Y-30698102D01*
X50965000Y-30898061D01*
X50965000Y-31101939D01*
X51004774Y-31301898D01*
X51082795Y-31490256D01*
X51089306Y-31500000D01*
X51082795Y-31509744D01*
X51004774Y-31698102D01*
X50965000Y-31898061D01*
X50965000Y-32101939D01*
X51004774Y-32301898D01*
X51082795Y-32490256D01*
X51089306Y-32500000D01*
X51082795Y-32509744D01*
X51004774Y-32698102D01*
X50965000Y-32898061D01*
X50965000Y-32965000D01*
X50898061Y-32965000D01*
X50698102Y-33004774D01*
X50509744Y-33082795D01*
X50340226Y-33196063D01*
X50196063Y-33340226D01*
X50082795Y-33509744D01*
X50004774Y-33698102D01*
X49965000Y-33898061D01*
X49965000Y-34101939D01*
X50004774Y-34301898D01*
X50082795Y-34490256D01*
X50089306Y-34500000D01*
X50082795Y-34509744D01*
X50004774Y-34698102D01*
X49965000Y-34898061D01*
X49965000Y-34965000D01*
X49898061Y-34965000D01*
X49698102Y-35004774D01*
X49509744Y-35082795D01*
X49340226Y-35196063D01*
X49196063Y-35340226D01*
X49082795Y-35509744D01*
X49004774Y-35698102D01*
X48965000Y-35898061D01*
X48965000Y-36101939D01*
X49004774Y-36301898D01*
X49082795Y-36490256D01*
X49089306Y-36500000D01*
X49082795Y-36509744D01*
X49004774Y-36698102D01*
X48965000Y-36898061D01*
X48965000Y-36965000D01*
X48898061Y-36965000D01*
X48698102Y-37004774D01*
X48509744Y-37082795D01*
X48340226Y-37196063D01*
X48196063Y-37340226D01*
X48082795Y-37509744D01*
X48004774Y-37698102D01*
X47965000Y-37898061D01*
X47965000Y-37965000D01*
X47898061Y-37965000D01*
X47698102Y-38004774D01*
X47509744Y-38082795D01*
X47340226Y-38196063D01*
X47196063Y-38340226D01*
X47082795Y-38509744D01*
X47004774Y-38698102D01*
X46965000Y-38898061D01*
X46965000Y-38965000D01*
X46898061Y-38965000D01*
X46698102Y-39004774D01*
X46509744Y-39082795D01*
X46340226Y-39196063D01*
X46196063Y-39340226D01*
X46082795Y-39509744D01*
X46004774Y-39698102D01*
X45965000Y-39898061D01*
X45965000Y-39965000D01*
X45898061Y-39965000D01*
X45698102Y-40004774D01*
X45509744Y-40082795D01*
X45500000Y-40089306D01*
X45490256Y-40082795D01*
X45301898Y-40004774D01*
X45101939Y-39965000D01*
X44898061Y-39965000D01*
X44698102Y-40004774D01*
X44509744Y-40082795D01*
X44340226Y-40196063D01*
X44196063Y-40340226D01*
X44082795Y-40509744D01*
X44004774Y-40698102D01*
X43965000Y-40898061D01*
X43965000Y-40965000D01*
X43898061Y-40965000D01*
X43698102Y-41004774D01*
X43509744Y-41082795D01*
X43500000Y-41089306D01*
X43490256Y-41082795D01*
X43301898Y-41004774D01*
X43101939Y-40965000D01*
X42898061Y-40965000D01*
X42698102Y-41004774D01*
X42509744Y-41082795D01*
X42500000Y-41089306D01*
X42490256Y-41082795D01*
X42301898Y-41004774D01*
X42101939Y-40965000D01*
X41898061Y-40965000D01*
X41698102Y-41004774D01*
X41509744Y-41082795D01*
X41500000Y-41089306D01*
X41490256Y-41082795D01*
X41301898Y-41004774D01*
X41101939Y-40965000D01*
X40898061Y-40965000D01*
X40698102Y-41004774D01*
X40509744Y-41082795D01*
X40500000Y-41089306D01*
X40490256Y-41082795D01*
X40301898Y-41004774D01*
X40101939Y-40965000D01*
X39898061Y-40965000D01*
X39698102Y-41004774D01*
X39509744Y-41082795D01*
X39500000Y-41089306D01*
X39490256Y-41082795D01*
X39301898Y-41004774D01*
X39101939Y-40965000D01*
X38898061Y-40965000D01*
X38698102Y-41004774D01*
X38509744Y-41082795D01*
X38500000Y-41089306D01*
X38490256Y-41082795D01*
X38301898Y-41004774D01*
X38101939Y-40965000D01*
X37898061Y-40965000D01*
X37698102Y-41004774D01*
X37509744Y-41082795D01*
X37500000Y-41089306D01*
X37490256Y-41082795D01*
X37301898Y-41004774D01*
X37101939Y-40965000D01*
X37035000Y-40965000D01*
X37035000Y-40898061D01*
X36995226Y-40698102D01*
X36917205Y-40509744D01*
X36803937Y-40340226D01*
X36659774Y-40196063D01*
X36490256Y-40082795D01*
X36301898Y-40004774D01*
X36101939Y-39965000D01*
X35898061Y-39965000D01*
X35698102Y-40004774D01*
X35509744Y-40082795D01*
X35500000Y-40089306D01*
X35490256Y-40082795D01*
X35301898Y-40004774D01*
X35101939Y-39965000D01*
X35035000Y-39965000D01*
X35035000Y-39898061D01*
X34995226Y-39698102D01*
X34917205Y-39509744D01*
X34803937Y-39340226D01*
X34659774Y-39196063D01*
X34490256Y-39082795D01*
X34301898Y-39004774D01*
X34101939Y-38965000D01*
X33898061Y-38965000D01*
X33698102Y-39004774D01*
X33509744Y-39082795D01*
X33500000Y-39089306D01*
X33490256Y-39082795D01*
X33301898Y-39004774D01*
X33101939Y-38965000D01*
X33035000Y-38965000D01*
X33035000Y-38898061D01*
X32995226Y-38698102D01*
X32917205Y-38509744D01*
X32803937Y-38340226D01*
X32659774Y-38196063D01*
X32490256Y-38082795D01*
X32301898Y-38004774D01*
X32101939Y-37965000D01*
X32035000Y-37965000D01*
X32035000Y-37898061D01*
X31995226Y-37698102D01*
X31917205Y-37509744D01*
X31803937Y-37340226D01*
X31659774Y-37196063D01*
X31490256Y-37082795D01*
X31301898Y-37004774D01*
X31101939Y-36965000D01*
X31035000Y-36965000D01*
X31035000Y-36898061D01*
X30995226Y-36698102D01*
X30917205Y-36509744D01*
X30910694Y-36500000D01*
X30917205Y-36490256D01*
X30995226Y-36301898D01*
X31035000Y-36101939D01*
X31035000Y-35898061D01*
X30995226Y-35698102D01*
X30917205Y-35509744D01*
X30803937Y-35340226D01*
X30659774Y-35196063D01*
X30490256Y-35082795D01*
X30301898Y-35004774D01*
X30101939Y-34965000D01*
X30035000Y-34965000D01*
X30035000Y-34898061D01*
X29995226Y-34698102D01*
X29917205Y-34509744D01*
X29803937Y-34340226D01*
X29659774Y-34196063D01*
X29490256Y-34082795D01*
X29301898Y-34004774D01*
X29101939Y-33965000D01*
X29035000Y-33965000D01*
X29035000Y-33898061D01*
X28995226Y-33698102D01*
X28917205Y-33509744D01*
X28910694Y-33500000D01*
X28917205Y-33490256D01*
X28995226Y-33301898D01*
X29035000Y-33101939D01*
X29035000Y-32898061D01*
X28995226Y-32698102D01*
X28917205Y-32509744D01*
X28910694Y-32500000D01*
X28917205Y-32490256D01*
X28995226Y-32301898D01*
X29035000Y-32101939D01*
X29035000Y-31898061D01*
X28995226Y-31698102D01*
X28917205Y-31509744D01*
X28910694Y-31500000D01*
X28917205Y-31490256D01*
X28995226Y-31301898D01*
X29035000Y-31101939D01*
X29035000Y-30898061D01*
X28995226Y-30698102D01*
X28917205Y-30509744D01*
X28910694Y-30500000D01*
X28917205Y-30490256D01*
X28995226Y-30301898D01*
X29035000Y-30101939D01*
X29035000Y-29898061D01*
X28995226Y-29698102D01*
X28917205Y-29509744D01*
X28910694Y-29500000D01*
X28917205Y-29490256D01*
X28995226Y-29301898D01*
X29035000Y-29101939D01*
X29035000Y-28898061D01*
X28995226Y-28698102D01*
X28917205Y-28509744D01*
X28910694Y-28500000D01*
X28917205Y-28490256D01*
X28995226Y-28301898D01*
X29035000Y-28101939D01*
X29035000Y-27898061D01*
X28995226Y-27698102D01*
X28917205Y-27509744D01*
X28910694Y-27500000D01*
X28917205Y-27490256D01*
X28995226Y-27301898D01*
X29035000Y-27101939D01*
X29035000Y-26898061D01*
X28995226Y-26698102D01*
X28917205Y-26509744D01*
X28910694Y-26500000D01*
X28917205Y-26490256D01*
X28995226Y-26301898D01*
X29035000Y-26101939D01*
X29035000Y-26035000D01*
X29101939Y-26035000D01*
X29301898Y-25995226D01*
X29490256Y-25917205D01*
X29518907Y-25898061D01*
X32965000Y-25898061D01*
X32965000Y-26101939D01*
X33004774Y-26301898D01*
X33082795Y-26490256D01*
X33089306Y-26500000D01*
X33082795Y-26509744D01*
X33004774Y-26698102D01*
X32965000Y-26898061D01*
X32965000Y-27101939D01*
X33004774Y-27301898D01*
X33082795Y-27490256D01*
X33089306Y-27500000D01*
X33082795Y-27509744D01*
X33004774Y-27698102D01*
X32965000Y-27898061D01*
X32965000Y-28101939D01*
X33004774Y-28301898D01*
X33082795Y-28490256D01*
X33089306Y-28500000D01*
X33082795Y-28509744D01*
X33004774Y-28698102D01*
X32965000Y-28898061D01*
X32965000Y-29101939D01*
X33004774Y-29301898D01*
X33082795Y-29490256D01*
X33089306Y-29500000D01*
X33082795Y-29509744D01*
X33004774Y-29698102D01*
X32965000Y-29898061D01*
X32965000Y-30101939D01*
X33004774Y-30301898D01*
X33082795Y-30490256D01*
X33089306Y-30500000D01*
X33082795Y-30509744D01*
X33004774Y-30698102D01*
X32965000Y-30898061D01*
X32965000Y-31101939D01*
X33004774Y-31301898D01*
X33082795Y-31490256D01*
X33089306Y-31500000D01*
X33082795Y-31509744D01*
X33004774Y-31698102D01*
X32965000Y-31898061D01*
X32965000Y-32101939D01*
X33004774Y-32301898D01*
X33082795Y-32490256D01*
X33089306Y-32500000D01*
X33082795Y-32509744D01*
X33004774Y-32698102D01*
X32965000Y-32898061D01*
X32965000Y-33101939D01*
X33004774Y-33301898D01*
X33082795Y-33490256D01*
X33089306Y-33500000D01*
X33082795Y-33509744D01*
X33004774Y-33698102D01*
X32965000Y-33898061D01*
X32965000Y-34101939D01*
X33004774Y-34301898D01*
X33082795Y-34490256D01*
X33196063Y-34659774D01*
X33340226Y-34803937D01*
X33509744Y-34917205D01*
X33698102Y-34995226D01*
X33898061Y-35035000D01*
X33965000Y-35035000D01*
X33965000Y-35101939D01*
X34004774Y-35301898D01*
X34082795Y-35490256D01*
X34196063Y-35659774D01*
X34340226Y-35803937D01*
X34509744Y-35917205D01*
X34698102Y-35995226D01*
X34898061Y-36035000D01*
X34965000Y-36035000D01*
X34965000Y-36101939D01*
X35004774Y-36301898D01*
X35082795Y-36490256D01*
X35196063Y-36659774D01*
X35340226Y-36803937D01*
X35509744Y-36917205D01*
X35698102Y-36995226D01*
X35898061Y-37035000D01*
X36101939Y-37035000D01*
X36301898Y-36995226D01*
X36490256Y-36917205D01*
X36500000Y-36910694D01*
X36509744Y-36917205D01*
X36698102Y-36995226D01*
X36898061Y-37035000D01*
X37101939Y-37035000D01*
X37301898Y-36995226D01*
X37490256Y-36917205D01*
X37500000Y-36910694D01*
X37509744Y-36917205D01*
X37698102Y-36995226D01*
X37898061Y-37035000D01*
X37965000Y-37035000D01*
X37965000Y-37101939D01*
X38004774Y-37301898D01*
X38082795Y-37490256D01*
X38196063Y-37659774D01*
X38340226Y-37803937D01*
X38509744Y-37917205D01*
X38698102Y-37995226D01*
X38898061Y-38035000D01*
X39101939Y-38035000D01*
X39301898Y-37995226D01*
X39490256Y-37917205D01*
X39500000Y-37910694D01*
X39509744Y-37917205D01*
X39698102Y-37995226D01*
X39898061Y-38035000D01*
X40101939Y-38035000D01*
X40301898Y-37995226D01*
X40490256Y-37917205D01*
X40500000Y-37910694D01*
X40509744Y-37917205D01*
X40698102Y-37995226D01*
X40898061Y-38035000D01*
X41101939Y-38035000D01*
X41301898Y-37995226D01*
X41490256Y-37917205D01*
X41500000Y-37910694D01*
X41509744Y-37917205D01*
X41698102Y-37995226D01*
X41898061Y-38035000D01*
X42101939Y-38035000D01*
X42301898Y-37995226D01*
X42490256Y-37917205D01*
X42500000Y-37910694D01*
X42509744Y-37917205D01*
X42698102Y-37995226D01*
X42898061Y-38035000D01*
X43101939Y-38035000D01*
X43301898Y-37995226D01*
X43490256Y-37917205D01*
X43659774Y-37803937D01*
X43803937Y-37659774D01*
X43917205Y-37490256D01*
X43995226Y-37301898D01*
X44035000Y-37101939D01*
X44035000Y-37035000D01*
X44101939Y-37035000D01*
X44301898Y-36995226D01*
X44490256Y-36917205D01*
X44659774Y-36803937D01*
X44803937Y-36659774D01*
X44917205Y-36490256D01*
X44995226Y-36301898D01*
X45035000Y-36101939D01*
X45035000Y-36035000D01*
X45101939Y-36035000D01*
X45301898Y-35995226D01*
X45490256Y-35917205D01*
X45659774Y-35803937D01*
X45803937Y-35659774D01*
X45917205Y-35490256D01*
X45995226Y-35301898D01*
X46035000Y-35101939D01*
X46035000Y-35035000D01*
X46101939Y-35035000D01*
X46301898Y-34995226D01*
X46490256Y-34917205D01*
X46659774Y-34803937D01*
X46803937Y-34659774D01*
X46917205Y-34490256D01*
X46995226Y-34301898D01*
X47035000Y-34101939D01*
X47035000Y-33898061D01*
X46995226Y-33698102D01*
X46917205Y-33509744D01*
X46910694Y-33500000D01*
X46917205Y-33490256D01*
X46995226Y-33301898D01*
X47035000Y-33101939D01*
X47035000Y-32898061D01*
X46995226Y-32698102D01*
X46917205Y-32509744D01*
X46910694Y-32500000D01*
X46917205Y-32490256D01*
X46995226Y-32301898D01*
X47035000Y-32101939D01*
X47035000Y-32035000D01*
X47101939Y-32035000D01*
X47301898Y-31995226D01*
X47490256Y-31917205D01*
X47659774Y-31803937D01*
X47803937Y-31659774D01*
X47917205Y-31490256D01*
X47995226Y-31301898D01*
X48035000Y-31101939D01*
X48035000Y-30898061D01*
X47995226Y-30698102D01*
X47917205Y-30509744D01*
X47803937Y-30340226D01*
X47659774Y-30196063D01*
X47490256Y-30082795D01*
X47301898Y-30004774D01*
X47101939Y-29965000D01*
X46898061Y-29965000D01*
X46698102Y-30004774D01*
X46509744Y-30082795D01*
X46340226Y-30196063D01*
X46196063Y-30340226D01*
X46082795Y-30509744D01*
X46004774Y-30698102D01*
X45965000Y-30898061D01*
X45965000Y-30965000D01*
X45898061Y-30965000D01*
X45698102Y-31004774D01*
X45509744Y-31082795D01*
X45340226Y-31196063D01*
X45196063Y-31340226D01*
X45082795Y-31509744D01*
X45004774Y-31698102D01*
X44965000Y-31898061D01*
X44965000Y-32101939D01*
X45004774Y-32301898D01*
X45082795Y-32490256D01*
X45089306Y-32500000D01*
X45082795Y-32509744D01*
X45004774Y-32698102D01*
X44965000Y-32898061D01*
X44965000Y-33101939D01*
X45004774Y-33301898D01*
X45082795Y-33490256D01*
X45089306Y-33500000D01*
X45082795Y-33509744D01*
X45004774Y-33698102D01*
X44965000Y-33898061D01*
X44965000Y-33965000D01*
X44898061Y-33965000D01*
X44698102Y-34004774D01*
X44509744Y-34082795D01*
X44340226Y-34196063D01*
X44196063Y-34340226D01*
X44082795Y-34509744D01*
X44004774Y-34698102D01*
X43965000Y-34898061D01*
X43965000Y-34965000D01*
X43898061Y-34965000D01*
X43698102Y-35004774D01*
X43509744Y-35082795D01*
X43340226Y-35196063D01*
X43196063Y-35340226D01*
X43082795Y-35509744D01*
X43004774Y-35698102D01*
X42965000Y-35898061D01*
X42965000Y-35965000D01*
X42898061Y-35965000D01*
X42698102Y-36004774D01*
X42509744Y-36082795D01*
X42500000Y-36089306D01*
X42490256Y-36082795D01*
X42301898Y-36004774D01*
X42101939Y-35965000D01*
X41898061Y-35965000D01*
X41698102Y-36004774D01*
X41509744Y-36082795D01*
X41500000Y-36089306D01*
X41490256Y-36082795D01*
X41301898Y-36004774D01*
X41101939Y-35965000D01*
X40898061Y-35965000D01*
X40698102Y-36004774D01*
X40509744Y-36082795D01*
X40500000Y-36089306D01*
X40490256Y-36082795D01*
X40301898Y-36004774D01*
X40101939Y-35965000D01*
X39898061Y-35965000D01*
X39698102Y-36004774D01*
X39509744Y-36082795D01*
X39500000Y-36089306D01*
X39490256Y-36082795D01*
X39301898Y-36004774D01*
X39101939Y-35965000D01*
X39035000Y-35965000D01*
X39035000Y-35898061D01*
X38995226Y-35698102D01*
X38917205Y-35509744D01*
X38803937Y-35340226D01*
X38659774Y-35196063D01*
X38490256Y-35082795D01*
X38301898Y-35004774D01*
X38101939Y-34965000D01*
X37898061Y-34965000D01*
X37698102Y-35004774D01*
X37509744Y-35082795D01*
X37500000Y-35089306D01*
X37490256Y-35082795D01*
X37301898Y-35004774D01*
X37101939Y-34965000D01*
X36898061Y-34965000D01*
X36698102Y-35004774D01*
X36509744Y-35082795D01*
X36500000Y-35089306D01*
X36490256Y-35082795D01*
X36301898Y-35004774D01*
X36101939Y-34965000D01*
X36035000Y-34965000D01*
X36035000Y-34898061D01*
X35995226Y-34698102D01*
X35917205Y-34509744D01*
X35803937Y-34340226D01*
X35659774Y-34196063D01*
X35490256Y-34082795D01*
X35301898Y-34004774D01*
X35101939Y-33965000D01*
X35035000Y-33965000D01*
X35035000Y-33898061D01*
X34995226Y-33698102D01*
X34917205Y-33509744D01*
X34910694Y-33500000D01*
X34917205Y-33490256D01*
X34995226Y-33301898D01*
X35035000Y-33101939D01*
X35035000Y-32898061D01*
X34995226Y-32698102D01*
X34917205Y-32509744D01*
X34910694Y-32500000D01*
X34917205Y-32490256D01*
X34995226Y-32301898D01*
X35035000Y-32101939D01*
X35035000Y-31898061D01*
X34995226Y-31698102D01*
X34917205Y-31509744D01*
X34910694Y-31500000D01*
X34917205Y-31490256D01*
X34995226Y-31301898D01*
X35035000Y-31101939D01*
X35035000Y-30898061D01*
X34995226Y-30698102D01*
X34917205Y-30509744D01*
X34910694Y-30500000D01*
X34917205Y-30490256D01*
X34995226Y-30301898D01*
X35035000Y-30101939D01*
X35035000Y-29898061D01*
X34995226Y-29698102D01*
X34917205Y-29509744D01*
X34910694Y-29500000D01*
X34917205Y-29490256D01*
X34995226Y-29301898D01*
X35035000Y-29101939D01*
X35035000Y-28898061D01*
X34995226Y-28698102D01*
X34917205Y-28509744D01*
X34910694Y-28500000D01*
X34917205Y-28490256D01*
X34995226Y-28301898D01*
X35035000Y-28101939D01*
X35035000Y-27898061D01*
X34995226Y-27698102D01*
X34917205Y-27509744D01*
X34910694Y-27500000D01*
X34917205Y-27490256D01*
X34995226Y-27301898D01*
X35035000Y-27101939D01*
X35035000Y-26898061D01*
X34995226Y-26698102D01*
X34917205Y-26509744D01*
X34910694Y-26500000D01*
X34917205Y-26490256D01*
X34995226Y-26301898D01*
X35035000Y-26101939D01*
X35035000Y-26035000D01*
X35101939Y-26035000D01*
X35301898Y-25995226D01*
X35490256Y-25917205D01*
X35659774Y-25803937D01*
X35803937Y-25659774D01*
X35917205Y-25490256D01*
X35995226Y-25301898D01*
X36035000Y-25101939D01*
X36035000Y-25035000D01*
X36101939Y-25035000D01*
X36301898Y-24995226D01*
X36490256Y-24917205D01*
X36659774Y-24803937D01*
X36803937Y-24659774D01*
X36917205Y-24490256D01*
X36995226Y-24301898D01*
X37035000Y-24101939D01*
X37035000Y-24035000D01*
X37101939Y-24035000D01*
X37301898Y-23995226D01*
X37490256Y-23917205D01*
X37500000Y-23910694D01*
X37509744Y-23917205D01*
X37698102Y-23995226D01*
X37898061Y-24035000D01*
X38101939Y-24035000D01*
X38301898Y-23995226D01*
X38490256Y-23917205D01*
X38500000Y-23910694D01*
X38509744Y-23917205D01*
X38698102Y-23995226D01*
X38898061Y-24035000D01*
X39101939Y-24035000D01*
X39301898Y-23995226D01*
X39490256Y-23917205D01*
X39500000Y-23910694D01*
X39509744Y-23917205D01*
X39698102Y-23995226D01*
X39898061Y-24035000D01*
X40101939Y-24035000D01*
X40301898Y-23995226D01*
X40490256Y-23917205D01*
X40500000Y-23910694D01*
X40509744Y-23917205D01*
X40698102Y-23995226D01*
X40898061Y-24035000D01*
X41101939Y-24035000D01*
X41301898Y-23995226D01*
X41490256Y-23917205D01*
X41500000Y-23910694D01*
X41509744Y-23917205D01*
X41698102Y-23995226D01*
X41898061Y-24035000D01*
X42101939Y-24035000D01*
X42301898Y-23995226D01*
X42490256Y-23917205D01*
X42659774Y-23803937D01*
X42803937Y-23659774D01*
X42917205Y-23490256D01*
X42995226Y-23301898D01*
X43035000Y-23101939D01*
X43035000Y-22898061D01*
X42995226Y-22698102D01*
X42917205Y-22509744D01*
X42803937Y-22340226D01*
X42659774Y-22196063D01*
X42490256Y-22082795D01*
X42301898Y-22004774D01*
X42101939Y-21965000D01*
X41898061Y-21965000D01*
X41698102Y-22004774D01*
X41509744Y-22082795D01*
X41500000Y-22089306D01*
X41490256Y-22082795D01*
X41301898Y-22004774D01*
X41101939Y-21965000D01*
X40898061Y-21965000D01*
X40698102Y-22004774D01*
X40509744Y-22082795D01*
X40500000Y-22089306D01*
X40490256Y-22082795D01*
X40301898Y-22004774D01*
X40101939Y-21965000D01*
X39898061Y-21965000D01*
X39698102Y-22004774D01*
X39509744Y-22082795D01*
X39500000Y-22089306D01*
X39490256Y-22082795D01*
X39301898Y-22004774D01*
X39101939Y-21965000D01*
X38898061Y-21965000D01*
X38698102Y-22004774D01*
X38509744Y-22082795D01*
X38500000Y-22089306D01*
X38490256Y-22082795D01*
X38301898Y-22004774D01*
X38101939Y-21965000D01*
X37898061Y-21965000D01*
X37698102Y-22004774D01*
X37509744Y-22082795D01*
X37500000Y-22089306D01*
X37490256Y-22082795D01*
X37301898Y-22004774D01*
X37101939Y-21965000D01*
X36898061Y-21965000D01*
X36698102Y-22004774D01*
X36509744Y-22082795D01*
X36340226Y-22196063D01*
X36196063Y-22340226D01*
X36082795Y-22509744D01*
X36004774Y-22698102D01*
X35965000Y-22898061D01*
X35965000Y-22965000D01*
X35898061Y-22965000D01*
X35698102Y-23004774D01*
X35509744Y-23082795D01*
X35340226Y-23196063D01*
X35196063Y-23340226D01*
X35082795Y-23509744D01*
X35004774Y-23698102D01*
X34965000Y-23898061D01*
X34965000Y-23965000D01*
X34898061Y-23965000D01*
X34698102Y-24004774D01*
X34509744Y-24082795D01*
X34340226Y-24196063D01*
X34196063Y-24340226D01*
X34082795Y-24509744D01*
X34004774Y-24698102D01*
X33965000Y-24898061D01*
X33965000Y-24965000D01*
X33898061Y-24965000D01*
X33698102Y-25004774D01*
X33509744Y-25082795D01*
X33340226Y-25196063D01*
X33196063Y-25340226D01*
X33082795Y-25509744D01*
X33004774Y-25698102D01*
X32965000Y-25898061D01*
X29518907Y-25898061D01*
X29659774Y-25803937D01*
X29803937Y-25659774D01*
X29917205Y-25490256D01*
X29995226Y-25301898D01*
X30035000Y-25101939D01*
X30035000Y-24898061D01*
X29995226Y-24698102D01*
X29917205Y-24509744D01*
X29910694Y-24500000D01*
X29917205Y-24490256D01*
X29995226Y-24301898D01*
X30035000Y-24101939D01*
X30035000Y-24035000D01*
X30101939Y-24035000D01*
X30301898Y-23995226D01*
X30490256Y-23917205D01*
X30659774Y-23803937D01*
X30803937Y-23659774D01*
X30917205Y-23490256D01*
X30995226Y-23301898D01*
X31035000Y-23101939D01*
X31035000Y-23035000D01*
X31101939Y-23035000D01*
X31301898Y-22995226D01*
X31490256Y-22917205D01*
X31659774Y-22803937D01*
X31803937Y-22659774D01*
X31917205Y-22490256D01*
X31995226Y-22301898D01*
X32035000Y-22101939D01*
X32035000Y-22035000D01*
X32101939Y-22035000D01*
X32301898Y-21995226D01*
X32490256Y-21917205D01*
X32659774Y-21803937D01*
X32803937Y-21659774D01*
X32917205Y-21490256D01*
X32995226Y-21301898D01*
X33035000Y-21101939D01*
X33035000Y-21035000D01*
X33101939Y-21035000D01*
X33301898Y-20995226D01*
X33490256Y-20917205D01*
X33659774Y-20803937D01*
X33803937Y-20659774D01*
X33917205Y-20490256D01*
X33995226Y-20301898D01*
X34035000Y-20101939D01*
X34035000Y-20035000D01*
X34101939Y-20035000D01*
X34301898Y-19995226D01*
X34490256Y-19917205D01*
X34500000Y-19910694D01*
X34509744Y-19917205D01*
X34698102Y-19995226D01*
X34898061Y-20035000D01*
X35101939Y-20035000D01*
X35301898Y-19995226D01*
X35490256Y-19917205D01*
X35659774Y-19803937D01*
X35803937Y-19659774D01*
X35917205Y-19490256D01*
X35995226Y-19301898D01*
X36035000Y-19101939D01*
X36035000Y-19035000D01*
X36101939Y-19035000D01*
X36301898Y-18995226D01*
X36490256Y-18917205D01*
X36500000Y-18910694D01*
X36509744Y-18917205D01*
X36698102Y-18995226D01*
X36898061Y-19035000D01*
X37101939Y-19035000D01*
X37301898Y-18995226D01*
X37490256Y-18917205D01*
X37500000Y-18910694D01*
X37509744Y-18917205D01*
X37698102Y-18995226D01*
X37898061Y-19035000D01*
X38101939Y-19035000D01*
X38301898Y-18995226D01*
X38490256Y-18917205D01*
X38500000Y-18910694D01*
X38509744Y-18917205D01*
X38698102Y-18995226D01*
X38898061Y-19035000D01*
X39101939Y-19035000D01*
X39301898Y-18995226D01*
X39490256Y-18917205D01*
X39500000Y-18910694D01*
X39509744Y-18917205D01*
X39698102Y-18995226D01*
X39898061Y-19035000D01*
X40101939Y-19035000D01*
X40301898Y-18995226D01*
X40490256Y-18917205D01*
X40500000Y-18910694D01*
X40509744Y-18917205D01*
X40698102Y-18995226D01*
X40898061Y-19035000D01*
X41101939Y-19035000D01*
X41301898Y-18995226D01*
X41490256Y-18917205D01*
X41500000Y-18910694D01*
X41509744Y-18917205D01*
X41698102Y-18995226D01*
X41898061Y-19035000D01*
X42101939Y-19035000D01*
X42301898Y-18995226D01*
X42490256Y-18917205D01*
X42500000Y-18910694D01*
X42509744Y-18917205D01*
G36*
X48022290Y-40165839D02*
G01*
X48035000Y-40101939D01*
X48035000Y-40035000D01*
X48101939Y-40035000D01*
X48268135Y-40001942D01*
X48022290Y-40165839D01*
G37*
X48022290Y-40165839D02*
X48035000Y-40101939D01*
X48035000Y-40035000D01*
X48101939Y-40035000D01*
X48268135Y-40001942D01*
X48022290Y-40165839D01*
G36*
X27898061Y-35035000D02*
G01*
X27965000Y-35035000D01*
X27965000Y-35101939D01*
X27998058Y-35268135D01*
X27834161Y-35022290D01*
X27898061Y-35035000D01*
G37*
X27898061Y-35035000D02*
X27965000Y-35035000D01*
X27965000Y-35101939D01*
X27998058Y-35268135D01*
X27834161Y-35022290D01*
X27898061Y-35035000D01*
G36*
X31965000Y-19898061D02*
G01*
X31965000Y-19965000D01*
X31898061Y-19965000D01*
X31731865Y-19998058D01*
X31977710Y-19834161D01*
X31965000Y-19898061D01*
G37*
X31965000Y-19898061D02*
X31965000Y-19965000D01*
X31898061Y-19965000D01*
X31731865Y-19998058D01*
X31977710Y-19834161D01*
X31965000Y-19898061D01*
G36*
X45538182Y-18071016D02*
G01*
X45509744Y-18082795D01*
X45500000Y-18089306D01*
X45490256Y-18082795D01*
X45301898Y-18004774D01*
X45101939Y-17965000D01*
X45035000Y-17965000D01*
X45035000Y-17898061D01*
X45005873Y-17751631D01*
X45538182Y-18071016D01*
G37*
X45538182Y-18071016D02*
X45509744Y-18082795D01*
X45500000Y-18089306D01*
X45490256Y-18082795D01*
X45301898Y-18004774D01*
X45101939Y-17965000D01*
X45035000Y-17965000D01*
X45035000Y-17898061D01*
X45005873Y-17751631D01*
X45538182Y-18071016D01*
G36*
X34965000Y-17898061D02*
G01*
X34965000Y-17965000D01*
X34898061Y-17965000D01*
X34731865Y-17998058D01*
X34977710Y-17834161D01*
X34965000Y-17898061D01*
G37*
X34965000Y-17898061D02*
X34965000Y-17965000D01*
X34898061Y-17965000D01*
X34731865Y-17998058D01*
X34977710Y-17834161D01*
X34965000Y-17898061D01*
M02*
