M48
; DRILL file {KiCad (5.1.6-0-10_14)} date Friday, January 01, 2021 at 02:06:59 AM
; FORMAT={-:-/ absolute / inch / decimal}
; #@! TF.CreationDate,2021-01-01T02:06:59+01:00
; #@! TF.GenerationSoftware,Kicad,Pcbnew,(5.1.6-0-10_14)
; #@! TF.FileFunction,Plated,1,2,PTH
FMAT,2
INCH
T1C0.0157
%
G90
G05
T1
X1.1024Y-0.9843
X1.1024Y-1.0236
X1.1024Y-1.063
X1.1024Y-1.1024
X1.1024Y-1.1024
X1.1024Y-1.1417
X1.1024Y-1.1811
X1.1024Y-1.2205
X1.1024Y-1.2598
X1.1024Y-1.2992
X1.1024Y-1.2992
X1.1024Y-1.3386
X1.1417Y-0.9449
X1.1417Y-0.9843
X1.1417Y-1.378
X1.1417Y-1.4173
X1.1811Y-0.8661
X1.1811Y-0.9055
X1.1811Y-1.4173
X1.1811Y-1.4567
X1.1811Y-1.4961
X1.2205Y-0.8268
X1.2205Y-0.8661
X1.2205Y-1.4961
X1.2205Y-1.5354
X1.2598Y-0.8268
X1.2598Y-1.5354
X1.2598Y-1.5748
X1.2992Y-0.7874
X1.2992Y-1.5748
X1.3386Y-0.748
X1.3386Y-1.0236
X1.3386Y-1.063
X1.3386Y-1.1024
X1.3386Y-1.1417
X1.3386Y-1.1811
X1.3386Y-1.2205
X1.3386Y-1.2598
X1.3386Y-1.2992
X1.3386Y-1.3386
X1.3386Y-1.5748
X1.3386Y-1.6142
X1.378Y-0.748
X1.378Y-0.9843
X1.378Y-1.378
X1.378Y-1.6142
X1.4173Y-0.7087
X1.4173Y-0.9449
X1.4173Y-1.4173
X1.4173Y-1.6142
X1.4173Y-1.6535
X1.4567Y-0.7087
X1.4567Y-0.9055
X1.4567Y-1.4173
X1.4567Y-1.6535
X1.4961Y-0.7087
X1.4961Y-0.9055
X1.4961Y-1.4173
X1.4961Y-1.6535
X1.5354Y-0.7087
X1.5354Y-0.9055
X1.5354Y-1.4567
X1.5354Y-1.6535
X1.5748Y-0.7087
X1.5748Y-0.9055
X1.5748Y-1.4567
X1.5748Y-1.6535
X1.6142Y-0.7087
X1.6142Y-0.9055
X1.6142Y-1.4567
X1.6142Y-1.6535
X1.6535Y-0.7087
X1.6535Y-0.9055
X1.6535Y-1.4567
X1.6535Y-1.6535
X1.6929Y-0.7087
X1.6929Y-1.4567
X1.6929Y-1.6535
X1.7323Y-0.7087
X1.7323Y-0.748
X1.7323Y-1.4173
X1.7323Y-1.6535
X1.7717Y-0.748
X1.7717Y-1.378
X1.7717Y-1.6142
X1.811Y-0.748
X1.811Y-0.7874
X1.811Y-1.2598
X1.811Y-1.2992
X1.811Y-1.3386
X1.811Y-1.6142
X1.8504Y-0.7874
X1.8504Y-1.2205
X1.8504Y-1.5748
X1.8898Y-0.7874
X1.8898Y-0.8268
X1.8898Y-1.5354
X1.9291Y-0.8268
X1.9291Y-0.8661
X1.9291Y-1.4961
X1.9291Y-1.5354
X1.9685Y-0.8661
X1.9685Y-0.9055
X1.9685Y-0.9449
X1.9685Y-1.4173
X1.9685Y-1.4567
X1.9685Y-1.4961
X2.0079Y-0.9449
X2.0079Y-0.9843
X2.0079Y-1.0236
X2.0079Y-1.3386
X2.0079Y-1.378
X2.0079Y-1.4173
X2.0472Y-1.0236
X2.0472Y-1.063
X2.0472Y-1.1024
X2.0472Y-1.1417
X2.0472Y-1.1811
X2.0472Y-1.2205
X2.0472Y-1.2598
X2.0472Y-1.2992
X2.0472Y-1.3386
T0
M30
