%TF.GenerationSoftware,KiCad,Pcbnew,(5.1.6-0-10_14)*%
%TF.CreationDate,2021-01-01T02:06:57+01:00*%
%TF.ProjectId,lamp10,6c616d70-3130-42e6-9b69-6361645f7063,rev?*%
%TF.SameCoordinates,Original*%
%TF.FileFunction,Legend,Top*%
%TF.FilePolarity,Positive*%
%FSLAX46Y46*%
G04 Gerber Fmt 4.6, Leading zero omitted, Abs format (unit mm)*
G04 Created by KiCad (PCBNEW (5.1.6-0-10_14)) date 2021-01-01 02:06:57*
%MOMM*%
%LPD*%
G01*
G04 APERTURE LIST*
%ADD10C,0.120000*%
%ADD11C,0.150000*%
G04 APERTURE END LIST*
D10*
%TO.C,D1*%
X38600000Y-27500000D02*
X35400000Y-27500000D01*
X35400000Y-31400000D02*
X35400000Y-27500000D01*
X38600000Y-31400000D02*
X38600000Y-27500000D01*
%TO.C,D2*%
X44600000Y-31400000D02*
X44600000Y-27500000D01*
X41400000Y-31400000D02*
X41400000Y-27500000D01*
X44600000Y-27500000D02*
X41400000Y-27500000D01*
%TO.C,D3*%
X48400000Y-32500000D02*
X51600000Y-32500000D01*
X51600000Y-28600000D02*
X51600000Y-32500000D01*
X48400000Y-28600000D02*
X48400000Y-32500000D01*
%TO.C,D4*%
X46858579Y-34878680D02*
X44100862Y-37636396D01*
X49121320Y-37141421D02*
X46363604Y-39899138D01*
X44100862Y-37636396D02*
X46363604Y-39899138D01*
%TO.C,D5*%
X37500000Y-38400000D02*
X37500000Y-41600000D01*
X41400000Y-41600000D02*
X37500000Y-41600000D01*
X41400000Y-38400000D02*
X37500000Y-38400000D01*
%TO.C,D6*%
X35121320Y-36858579D02*
X32363604Y-34100862D01*
X32858579Y-39121320D02*
X30100862Y-36363604D01*
X32363604Y-34100862D02*
X30100862Y-36363604D01*
%TO.C,D7*%
X31600000Y-27500000D02*
X28400000Y-27500000D01*
X28400000Y-31400000D02*
X28400000Y-27500000D01*
X31600000Y-31400000D02*
X31600000Y-27500000D01*
%TO.C,D8*%
X33141421Y-25121320D02*
X35899138Y-22363604D01*
X30878680Y-22858579D02*
X33636396Y-20100862D01*
X35899138Y-22363604D02*
X33636396Y-20100862D01*
%TO.C,D9*%
X43025000Y-21600000D02*
X43025000Y-18400000D01*
X39125000Y-18400000D02*
X43025000Y-18400000D01*
X39125000Y-21600000D02*
X43025000Y-21600000D01*
%TO.C,D10*%
X44828680Y-23141421D02*
X47586396Y-25899138D01*
X47091421Y-20878680D02*
X49849138Y-23636396D01*
X47586396Y-25899138D02*
X49849138Y-23636396D01*
%TO.C,D1*%
D11*
X39852380Y-30738095D02*
X38852380Y-30738095D01*
X38852380Y-30500000D01*
X38900000Y-30357142D01*
X38995238Y-30261904D01*
X39090476Y-30214285D01*
X39280952Y-30166666D01*
X39423809Y-30166666D01*
X39614285Y-30214285D01*
X39709523Y-30261904D01*
X39804761Y-30357142D01*
X39852380Y-30500000D01*
X39852380Y-30738095D01*
X39852380Y-29214285D02*
X39852380Y-29785714D01*
X39852380Y-29500000D02*
X38852380Y-29500000D01*
X38995238Y-29595238D01*
X39090476Y-29690476D01*
X39138095Y-29785714D01*
%TO.C,D2*%
X45852380Y-30738095D02*
X44852380Y-30738095D01*
X44852380Y-30500000D01*
X44900000Y-30357142D01*
X44995238Y-30261904D01*
X45090476Y-30214285D01*
X45280952Y-30166666D01*
X45423809Y-30166666D01*
X45614285Y-30214285D01*
X45709523Y-30261904D01*
X45804761Y-30357142D01*
X45852380Y-30500000D01*
X45852380Y-30738095D01*
X44947619Y-29785714D02*
X44900000Y-29738095D01*
X44852380Y-29642857D01*
X44852380Y-29404761D01*
X44900000Y-29309523D01*
X44947619Y-29261904D01*
X45042857Y-29214285D01*
X45138095Y-29214285D01*
X45280952Y-29261904D01*
X45852380Y-29833333D01*
X45852380Y-29214285D01*
%TO.C,D3*%
X48052380Y-30738095D02*
X47052380Y-30738095D01*
X47052380Y-30500000D01*
X47100000Y-30357142D01*
X47195238Y-30261904D01*
X47290476Y-30214285D01*
X47480952Y-30166666D01*
X47623809Y-30166666D01*
X47814285Y-30214285D01*
X47909523Y-30261904D01*
X48004761Y-30357142D01*
X48052380Y-30500000D01*
X48052380Y-30738095D01*
X47052380Y-29833333D02*
X47052380Y-29214285D01*
X47433333Y-29547619D01*
X47433333Y-29404761D01*
X47480952Y-29309523D01*
X47528571Y-29261904D01*
X47623809Y-29214285D01*
X47861904Y-29214285D01*
X47957142Y-29261904D01*
X48004761Y-29309523D01*
X48052380Y-29404761D01*
X48052380Y-29690476D01*
X48004761Y-29785714D01*
X47957142Y-29833333D01*
%TO.C,D4*%
X45100913Y-36144737D02*
X44393806Y-35437631D01*
X44562165Y-35269272D01*
X44696852Y-35201928D01*
X44831539Y-35201928D01*
X44932554Y-35235600D01*
X45100913Y-35336615D01*
X45201928Y-35437631D01*
X45302944Y-35605989D01*
X45336615Y-35707005D01*
X45336615Y-35841692D01*
X45269272Y-35976379D01*
X45100913Y-36144737D01*
X45639661Y-34663180D02*
X46111066Y-35134585D01*
X45201928Y-34562165D02*
X45538646Y-35235600D01*
X45976379Y-34797867D01*
%TO.C,D5*%
X39261904Y-38052380D02*
X39261904Y-37052380D01*
X39500000Y-37052380D01*
X39642857Y-37100000D01*
X39738095Y-37195238D01*
X39785714Y-37290476D01*
X39833333Y-37480952D01*
X39833333Y-37623809D01*
X39785714Y-37814285D01*
X39738095Y-37909523D01*
X39642857Y-38004761D01*
X39500000Y-38052380D01*
X39261904Y-38052380D01*
X40738095Y-37052380D02*
X40261904Y-37052380D01*
X40214285Y-37528571D01*
X40261904Y-37480952D01*
X40357142Y-37433333D01*
X40595238Y-37433333D01*
X40690476Y-37480952D01*
X40738095Y-37528571D01*
X40785714Y-37623809D01*
X40785714Y-37861904D01*
X40738095Y-37957142D01*
X40690476Y-38004761D01*
X40595238Y-38052380D01*
X40357142Y-38052380D01*
X40261904Y-38004761D01*
X40214285Y-37957142D01*
%TO.C,D6*%
X33855262Y-35100913D02*
X34562368Y-34393806D01*
X34730727Y-34562165D01*
X34798071Y-34696852D01*
X34798071Y-34831539D01*
X34764399Y-34932554D01*
X34663384Y-35100913D01*
X34562368Y-35201928D01*
X34394010Y-35302944D01*
X34292994Y-35336615D01*
X34158307Y-35336615D01*
X34023620Y-35269272D01*
X33855262Y-35100913D01*
X35572521Y-35403959D02*
X35437834Y-35269272D01*
X35336819Y-35235600D01*
X35269475Y-35235600D01*
X35101117Y-35269272D01*
X34932758Y-35370287D01*
X34663384Y-35639661D01*
X34629712Y-35740676D01*
X34629712Y-35808020D01*
X34663384Y-35909035D01*
X34798071Y-36043722D01*
X34899086Y-36077394D01*
X34966430Y-36077394D01*
X35067445Y-36043722D01*
X35235804Y-35875363D01*
X35269475Y-35774348D01*
X35269475Y-35707005D01*
X35235804Y-35605989D01*
X35101117Y-35471302D01*
X35000101Y-35437631D01*
X34932758Y-35437631D01*
X34831743Y-35471302D01*
%TO.C,D7*%
X32852380Y-30738095D02*
X31852380Y-30738095D01*
X31852380Y-30500000D01*
X31900000Y-30357142D01*
X31995238Y-30261904D01*
X32090476Y-30214285D01*
X32280952Y-30166666D01*
X32423809Y-30166666D01*
X32614285Y-30214285D01*
X32709523Y-30261904D01*
X32804761Y-30357142D01*
X32852380Y-30500000D01*
X32852380Y-30738095D01*
X31852380Y-29833333D02*
X31852380Y-29166666D01*
X32852380Y-29595238D01*
%TO.C,D8*%
X34495025Y-25538849D02*
X33787918Y-24831743D01*
X33956277Y-24663384D01*
X34090964Y-24596040D01*
X34225651Y-24596040D01*
X34326666Y-24629712D01*
X34495025Y-24730727D01*
X34596040Y-24831743D01*
X34697056Y-25000101D01*
X34730727Y-25101117D01*
X34730727Y-25235804D01*
X34663384Y-25370491D01*
X34495025Y-25538849D01*
X34899086Y-24326666D02*
X34798071Y-24360338D01*
X34730727Y-24360338D01*
X34629712Y-24326666D01*
X34596040Y-24292994D01*
X34562368Y-24191979D01*
X34562368Y-24124636D01*
X34596040Y-24023620D01*
X34730727Y-23888933D01*
X34831743Y-23855262D01*
X34899086Y-23855262D01*
X35000101Y-23888933D01*
X35033773Y-23922605D01*
X35067445Y-24023620D01*
X35067445Y-24090964D01*
X35033773Y-24191979D01*
X34899086Y-24326666D01*
X34865414Y-24427681D01*
X34865414Y-24495025D01*
X34899086Y-24596040D01*
X35033773Y-24730727D01*
X35134788Y-24764399D01*
X35202132Y-24764399D01*
X35303147Y-24730727D01*
X35437834Y-24596040D01*
X35471506Y-24495025D01*
X35471506Y-24427681D01*
X35437834Y-24326666D01*
X35303147Y-24191979D01*
X35202132Y-24158307D01*
X35134788Y-24158307D01*
X35033773Y-24191979D01*
%TO.C,D9*%
X39786904Y-22852380D02*
X39786904Y-21852380D01*
X40025000Y-21852380D01*
X40167857Y-21900000D01*
X40263095Y-21995238D01*
X40310714Y-22090476D01*
X40358333Y-22280952D01*
X40358333Y-22423809D01*
X40310714Y-22614285D01*
X40263095Y-22709523D01*
X40167857Y-22804761D01*
X40025000Y-22852380D01*
X39786904Y-22852380D01*
X40834523Y-22852380D02*
X41025000Y-22852380D01*
X41120238Y-22804761D01*
X41167857Y-22757142D01*
X41263095Y-22614285D01*
X41310714Y-22423809D01*
X41310714Y-22042857D01*
X41263095Y-21947619D01*
X41215476Y-21900000D01*
X41120238Y-21852380D01*
X40929761Y-21852380D01*
X40834523Y-21900000D01*
X40786904Y-21947619D01*
X40739285Y-22042857D01*
X40739285Y-22280952D01*
X40786904Y-22376190D01*
X40834523Y-22423809D01*
X40929761Y-22471428D01*
X41120238Y-22471428D01*
X41215476Y-22423809D01*
X41263095Y-22376190D01*
X41310714Y-22280952D01*
%TO.C,D10*%
X44074432Y-24158307D02*
X44781539Y-23451201D01*
X44949898Y-23619559D01*
X45017241Y-23754246D01*
X45017241Y-23888933D01*
X44983569Y-23989949D01*
X44882554Y-24158307D01*
X44781539Y-24259323D01*
X44613180Y-24360338D01*
X44512165Y-24394010D01*
X44377478Y-24394010D01*
X44242791Y-24326666D01*
X44074432Y-24158307D01*
X45151928Y-25235804D02*
X44747867Y-24831743D01*
X44949898Y-25033773D02*
X45657005Y-24326666D01*
X45488646Y-24360338D01*
X45353959Y-24360338D01*
X45252944Y-24326666D01*
X46296768Y-24966430D02*
X46364111Y-25033773D01*
X46397783Y-25134788D01*
X46397783Y-25202132D01*
X46364111Y-25303147D01*
X46263096Y-25471506D01*
X46094737Y-25639865D01*
X45926379Y-25740880D01*
X45825363Y-25774552D01*
X45758020Y-25774552D01*
X45657005Y-25740880D01*
X45589661Y-25673536D01*
X45555989Y-25572521D01*
X45555989Y-25505178D01*
X45589661Y-25404162D01*
X45690676Y-25235804D01*
X45859035Y-25067445D01*
X46027394Y-24966430D01*
X46128409Y-24932758D01*
X46195753Y-24932758D01*
X46296768Y-24966430D01*
%TO.C,J1*%
X41992380Y-25333333D02*
X42706666Y-25333333D01*
X42849523Y-25380952D01*
X42944761Y-25476190D01*
X42992380Y-25619047D01*
X42992380Y-25714285D01*
X42992380Y-24333333D02*
X42992380Y-24904761D01*
X42992380Y-24619047D02*
X41992380Y-24619047D01*
X42135238Y-24714285D01*
X42230476Y-24809523D01*
X42278095Y-24904761D01*
%TO.C,J2*%
X36912380Y-35333333D02*
X37626666Y-35333333D01*
X37769523Y-35380952D01*
X37864761Y-35476190D01*
X37912380Y-35619047D01*
X37912380Y-35714285D01*
X37007619Y-34904761D02*
X36960000Y-34857142D01*
X36912380Y-34761904D01*
X36912380Y-34523809D01*
X36960000Y-34428571D01*
X37007619Y-34380952D01*
X37102857Y-34333333D01*
X37198095Y-34333333D01*
X37340952Y-34380952D01*
X37912380Y-34952380D01*
X37912380Y-34333333D01*
%TD*%
M02*
