%TF.GenerationSoftware,KiCad,Pcbnew,(5.1.6-0-10_14)*%
%TF.CreationDate,2021-01-01T01:39:17+01:00*%
%TF.ProjectId,remote,72656d6f-7465-42e6-9b69-6361645f7063,rev?*%
%TF.SameCoordinates,Original*%
%TF.FileFunction,Legend,Top*%
%TF.FilePolarity,Positive*%
%FSLAX46Y46*%
G04 Gerber Fmt 4.6, Leading zero omitted, Abs format (unit mm)*
G04 Created by KiCad (PCBNEW (5.1.6-0-10_14)) date 2021-01-01 01:39:17*
%MOMM*%
%LPD*%
G01*
G04 APERTURE LIST*
%ADD10C,0.150000*%
%ADD11C,0.120000*%
G04 APERTURE END LIST*
D10*
X19785714Y-20452380D02*
X19785714Y-19452380D01*
X20023809Y-19452380D01*
X20166666Y-19500000D01*
X20261904Y-19595238D01*
X20309523Y-19690476D01*
X20357142Y-19880952D01*
X20357142Y-20023809D01*
X20309523Y-20214285D01*
X20261904Y-20309523D01*
X20166666Y-20404761D01*
X20023809Y-20452380D01*
X19785714Y-20452380D01*
X21261904Y-20452380D02*
X20785714Y-20452380D01*
X20785714Y-19452380D01*
X22071428Y-20452380D02*
X21595238Y-20452380D01*
X21595238Y-19452380D01*
X23738095Y-20452380D02*
X23404761Y-19976190D01*
X23166666Y-20452380D02*
X23166666Y-19452380D01*
X23547619Y-19452380D01*
X23642857Y-19500000D01*
X23690476Y-19547619D01*
X23738095Y-19642857D01*
X23738095Y-19785714D01*
X23690476Y-19880952D01*
X23642857Y-19928571D01*
X23547619Y-19976190D01*
X23166666Y-19976190D01*
X24547619Y-20404761D02*
X24452380Y-20452380D01*
X24261904Y-20452380D01*
X24166666Y-20404761D01*
X24119047Y-20309523D01*
X24119047Y-19928571D01*
X24166666Y-19833333D01*
X24261904Y-19785714D01*
X24452380Y-19785714D01*
X24547619Y-19833333D01*
X24595238Y-19928571D01*
X24595238Y-20023809D01*
X24119047Y-20119047D01*
X25023809Y-20452380D02*
X25023809Y-19785714D01*
X25023809Y-19880952D02*
X25071428Y-19833333D01*
X25166666Y-19785714D01*
X25309523Y-19785714D01*
X25404761Y-19833333D01*
X25452380Y-19928571D01*
X25452380Y-20452380D01*
X25452380Y-19928571D02*
X25499999Y-19833333D01*
X25595238Y-19785714D01*
X25738095Y-19785714D01*
X25833333Y-19833333D01*
X25880952Y-19928571D01*
X25880952Y-20452380D01*
X26499999Y-20452380D02*
X26404761Y-20404761D01*
X26357142Y-20357142D01*
X26309523Y-20261904D01*
X26309523Y-19976190D01*
X26357142Y-19880952D01*
X26404761Y-19833333D01*
X26499999Y-19785714D01*
X26642857Y-19785714D01*
X26738095Y-19833333D01*
X26785714Y-19880952D01*
X26833333Y-19976190D01*
X26833333Y-20261904D01*
X26785714Y-20357142D01*
X26738095Y-20404761D01*
X26642857Y-20452380D01*
X26499999Y-20452380D01*
X27119047Y-19785714D02*
X27499999Y-19785714D01*
X27261904Y-19452380D02*
X27261904Y-20309523D01*
X27309523Y-20404761D01*
X27404761Y-20452380D01*
X27499999Y-20452380D01*
X28214285Y-20404761D02*
X28119047Y-20452380D01*
X27928571Y-20452380D01*
X27833333Y-20404761D01*
X27785714Y-20309523D01*
X27785714Y-19928571D01*
X27833333Y-19833333D01*
X27928571Y-19785714D01*
X28119047Y-19785714D01*
X28214285Y-19833333D01*
X28261904Y-19928571D01*
X28261904Y-20023809D01*
X27785714Y-20119047D01*
X29357142Y-19785714D02*
X29595238Y-20452380D01*
X29833333Y-19785714D01*
X30738095Y-20452380D02*
X30166666Y-20452380D01*
X30452380Y-20452380D02*
X30452380Y-19452380D01*
X30357142Y-19595238D01*
X30261904Y-19690476D01*
X30166666Y-19738095D01*
X31166666Y-20357142D02*
X31214285Y-20404761D01*
X31166666Y-20452380D01*
X31119047Y-20404761D01*
X31166666Y-20357142D01*
X31166666Y-20452380D01*
X31833333Y-19452380D02*
X31928571Y-19452380D01*
X32023809Y-19500000D01*
X32071428Y-19547619D01*
X32119047Y-19642857D01*
X32166666Y-19833333D01*
X32166666Y-20071428D01*
X32119047Y-20261904D01*
X32071428Y-20357142D01*
X32023809Y-20404761D01*
X31928571Y-20452380D01*
X31833333Y-20452380D01*
X31738095Y-20404761D01*
X31690476Y-20357142D01*
X31642857Y-20261904D01*
X31595238Y-20071428D01*
X31595238Y-19833333D01*
X31642857Y-19642857D01*
X31690476Y-19547619D01*
X31738095Y-19500000D01*
X31833333Y-19452380D01*
X33214285Y-19785714D02*
X33595238Y-19785714D01*
X33357142Y-20452380D02*
X33357142Y-19595238D01*
X33404761Y-19500000D01*
X33499999Y-19452380D01*
X33595238Y-19452380D01*
X33928571Y-20452380D02*
X33928571Y-19452380D01*
X34357142Y-20452380D02*
X34357142Y-19928571D01*
X34309523Y-19833333D01*
X34214285Y-19785714D01*
X34071428Y-19785714D01*
X33976190Y-19833333D01*
X33928571Y-19880952D01*
X35261904Y-20452380D02*
X35261904Y-19928571D01*
X35214285Y-19833333D01*
X35119047Y-19785714D01*
X34928571Y-19785714D01*
X34833333Y-19833333D01*
X35261904Y-20404761D02*
X35166666Y-20452380D01*
X34928571Y-20452380D01*
X34833333Y-20404761D01*
X34785714Y-20309523D01*
X34785714Y-20214285D01*
X34833333Y-20119047D01*
X34928571Y-20071428D01*
X35166666Y-20071428D01*
X35261904Y-20023809D01*
X35738095Y-20452380D02*
X35738095Y-19785714D01*
X35738095Y-19976190D02*
X35785714Y-19880952D01*
X35833333Y-19833333D01*
X35928571Y-19785714D01*
X36023809Y-19785714D01*
X36499999Y-20452380D02*
X36404761Y-20404761D01*
X36357142Y-20357142D01*
X36309523Y-20261904D01*
X36309523Y-19976190D01*
X36357142Y-19880952D01*
X36404761Y-19833333D01*
X36499999Y-19785714D01*
X36642857Y-19785714D01*
X36738095Y-19833333D01*
X36785714Y-19880952D01*
X36833333Y-19976190D01*
X36833333Y-20261904D01*
X36785714Y-20357142D01*
X36738095Y-20404761D01*
X36642857Y-20452380D01*
X36499999Y-20452380D01*
X37404761Y-20452380D02*
X37309523Y-20404761D01*
X37261904Y-20309523D01*
X37261904Y-19452380D01*
X38214285Y-20452380D02*
X38214285Y-19452380D01*
X38214285Y-20404761D02*
X38119047Y-20452380D01*
X37928571Y-20452380D01*
X37833333Y-20404761D01*
X37785714Y-20357142D01*
X37738095Y-20261904D01*
X37738095Y-19976190D01*
X37785714Y-19880952D01*
X37833333Y-19833333D01*
X37928571Y-19785714D01*
X38119047Y-19785714D01*
X38214285Y-19833333D01*
D11*
%TO.C,U2*%
X38390000Y-14865000D02*
X38390000Y-14390000D01*
X38390000Y-14390000D02*
X38865000Y-14390000D01*
X43610000Y-19135000D02*
X43610000Y-19610000D01*
X43610000Y-19610000D02*
X43135000Y-19610000D01*
X43610000Y-14865000D02*
X43610000Y-14390000D01*
X43610000Y-14390000D02*
X43135000Y-14390000D01*
X38390000Y-19135000D02*
X38390000Y-19610000D01*
%TO.C,C1*%
X18090000Y-16397936D02*
X18090000Y-17602064D01*
X19910000Y-16397936D02*
X19910000Y-17602064D01*
%TO.C,C2*%
X35090000Y-17602064D02*
X35090000Y-16397936D01*
X36910000Y-17602064D02*
X36910000Y-16397936D01*
%TO.C,J1*%
X14050000Y-13550000D02*
X15950000Y-13550000D01*
X15950000Y-13550000D02*
X15950000Y-15450000D01*
X15950000Y-15450000D02*
X14050000Y-15450000D01*
X14050000Y-15450000D02*
X14050000Y-13550000D01*
%TO.C,J2*%
X14050000Y-17950000D02*
X14050000Y-16050000D01*
X15950000Y-17950000D02*
X14050000Y-17950000D01*
X15950000Y-16050000D02*
X15950000Y-17950000D01*
X14050000Y-16050000D02*
X15950000Y-16050000D01*
%TO.C,J3*%
X14050000Y-18550000D02*
X15950000Y-18550000D01*
X15950000Y-18550000D02*
X15950000Y-20450000D01*
X15950000Y-20450000D02*
X14050000Y-20450000D01*
X14050000Y-20450000D02*
X14050000Y-18550000D01*
%TO.C,J4*%
X47840000Y-14700000D02*
X46350000Y-14700000D01*
X46350000Y-14700000D02*
X46350000Y-16040000D01*
X51160000Y-14700000D02*
X52650000Y-14700000D01*
X52650000Y-14700000D02*
X52650000Y-16040000D01*
X46350000Y-18760000D02*
X46350000Y-20500000D01*
X46350000Y-20500000D02*
X52650000Y-20500000D01*
X52650000Y-20500000D02*
X52650000Y-18760000D01*
X47840000Y-14700000D02*
X47840000Y-13500000D01*
%TO.C,U1*%
X21340000Y-15950000D02*
X21340000Y-14640000D01*
X21340000Y-14640000D02*
X24060000Y-14640000D01*
X25200000Y-19130000D02*
X24060000Y-19130000D01*
X21340000Y-19360000D02*
X21340000Y-18050000D01*
X24060000Y-19360000D02*
X21340000Y-19360000D01*
X24060000Y-19360000D02*
X24060000Y-19130000D01*
X24060000Y-14640000D02*
X24060000Y-14870000D01*
%TO.C,U2*%
D10*
X36632380Y-17761904D02*
X37441904Y-17761904D01*
X37537142Y-17714285D01*
X37584761Y-17666666D01*
X37632380Y-17571428D01*
X37632380Y-17380952D01*
X37584761Y-17285714D01*
X37537142Y-17238095D01*
X37441904Y-17190476D01*
X36632380Y-17190476D01*
X36727619Y-16761904D02*
X36680000Y-16714285D01*
X36632380Y-16619047D01*
X36632380Y-16380952D01*
X36680000Y-16285714D01*
X36727619Y-16238095D01*
X36822857Y-16190476D01*
X36918095Y-16190476D01*
X37060952Y-16238095D01*
X37632380Y-16809523D01*
X37632380Y-16190476D01*
%TO.C,C1*%
X18833333Y-14357142D02*
X18785714Y-14404761D01*
X18642857Y-14452380D01*
X18547619Y-14452380D01*
X18404761Y-14404761D01*
X18309523Y-14309523D01*
X18261904Y-14214285D01*
X18214285Y-14023809D01*
X18214285Y-13880952D01*
X18261904Y-13690476D01*
X18309523Y-13595238D01*
X18404761Y-13500000D01*
X18547619Y-13452380D01*
X18642857Y-13452380D01*
X18785714Y-13500000D01*
X18833333Y-13547619D01*
X19785714Y-14452380D02*
X19214285Y-14452380D01*
X19500000Y-14452380D02*
X19500000Y-13452380D01*
X19404761Y-13595238D01*
X19309523Y-13690476D01*
X19214285Y-13738095D01*
%TO.C,C2*%
X35833333Y-14357142D02*
X35785714Y-14404761D01*
X35642857Y-14452380D01*
X35547619Y-14452380D01*
X35404761Y-14404761D01*
X35309523Y-14309523D01*
X35261904Y-14214285D01*
X35214285Y-14023809D01*
X35214285Y-13880952D01*
X35261904Y-13690476D01*
X35309523Y-13595238D01*
X35404761Y-13500000D01*
X35547619Y-13452380D01*
X35642857Y-13452380D01*
X35785714Y-13500000D01*
X35833333Y-13547619D01*
X36214285Y-13547619D02*
X36261904Y-13500000D01*
X36357142Y-13452380D01*
X36595238Y-13452380D01*
X36690476Y-13500000D01*
X36738095Y-13547619D01*
X36785714Y-13642857D01*
X36785714Y-13738095D01*
X36738095Y-13880952D01*
X36166666Y-14452380D01*
X36785714Y-14452380D01*
%TO.C,J1*%
X16666666Y-13952380D02*
X16666666Y-14666666D01*
X16619047Y-14809523D01*
X16523809Y-14904761D01*
X16380952Y-14952380D01*
X16285714Y-14952380D01*
X17666666Y-14952380D02*
X17095238Y-14952380D01*
X17380952Y-14952380D02*
X17380952Y-13952380D01*
X17285714Y-14095238D01*
X17190476Y-14190476D01*
X17095238Y-14238095D01*
%TO.C,J2*%
X16666666Y-16452380D02*
X16666666Y-17166666D01*
X16619047Y-17309523D01*
X16523809Y-17404761D01*
X16380952Y-17452380D01*
X16285714Y-17452380D01*
X17095238Y-16547619D02*
X17142857Y-16500000D01*
X17238095Y-16452380D01*
X17476190Y-16452380D01*
X17571428Y-16500000D01*
X17619047Y-16547619D01*
X17666666Y-16642857D01*
X17666666Y-16738095D01*
X17619047Y-16880952D01*
X17047619Y-17452380D01*
X17666666Y-17452380D01*
%TO.C,J3*%
X16666666Y-18952380D02*
X16666666Y-19666666D01*
X16619047Y-19809523D01*
X16523809Y-19904761D01*
X16380952Y-19952380D01*
X16285714Y-19952380D01*
X17047619Y-18952380D02*
X17666666Y-18952380D01*
X17333333Y-19333333D01*
X17476190Y-19333333D01*
X17571428Y-19380952D01*
X17619047Y-19428571D01*
X17666666Y-19523809D01*
X17666666Y-19761904D01*
X17619047Y-19857142D01*
X17571428Y-19904761D01*
X17476190Y-19952380D01*
X17190476Y-19952380D01*
X17095238Y-19904761D01*
X17047619Y-19857142D01*
%TO.C,J4*%
X49166666Y-11752380D02*
X49166666Y-12466666D01*
X49119047Y-12609523D01*
X49023809Y-12704761D01*
X48880952Y-12752380D01*
X48785714Y-12752380D01*
X50071428Y-12085714D02*
X50071428Y-12752380D01*
X49833333Y-11704761D02*
X49595238Y-12419047D01*
X50214285Y-12419047D01*
%TO.C,U1*%
X24238095Y-13452380D02*
X24238095Y-14261904D01*
X24285714Y-14357142D01*
X24333333Y-14404761D01*
X24428571Y-14452380D01*
X24619047Y-14452380D01*
X24714285Y-14404761D01*
X24761904Y-14357142D01*
X24809523Y-14261904D01*
X24809523Y-13452380D01*
X25809523Y-14452380D02*
X25238095Y-14452380D01*
X25523809Y-14452380D02*
X25523809Y-13452380D01*
X25428571Y-13595238D01*
X25333333Y-13690476D01*
X25238095Y-13738095D01*
%TD*%
M02*
