%TF.GenerationSoftware,KiCad,Pcbnew,(5.1.6-0-10_14)*%
%TF.CreationDate,2021-01-01T01:39:17+01:00*%
%TF.ProjectId,remote,72656d6f-7465-42e6-9b69-6361645f7063,rev?*%
%TF.SameCoordinates,Original*%
%TF.FileFunction,Copper,L1,Top*%
%TF.FilePolarity,Positive*%
%FSLAX46Y46*%
G04 Gerber Fmt 4.6, Leading zero omitted, Abs format (unit mm)*
G04 Created by KiCad (PCBNEW (5.1.6-0-10_14)) date 2021-01-01 01:39:17*
%MOMM*%
%LPD*%
G01*
G04 APERTURE LIST*
%TA.AperFunction,SMDPad,CuDef*%
%ADD10R,3.100000X3.100000*%
%TD*%
%TA.AperFunction,SMDPad,CuDef*%
%ADD11R,1.500000X1.500000*%
%TD*%
%TA.AperFunction,SMDPad,CuDef*%
%ADD12R,1.800000X2.200000*%
%TD*%
%TA.AperFunction,SMDPad,CuDef*%
%ADD13R,0.300000X1.300000*%
%TD*%
%TA.AperFunction,SMDPad,CuDef*%
%ADD14R,1.300000X0.900000*%
%TD*%
%TA.AperFunction,SMDPad,CuDef*%
%ADD15C,0.100000*%
%TD*%
%TA.AperFunction,ViaPad*%
%ADD16C,0.800000*%
%TD*%
%TA.AperFunction,ViaPad*%
%ADD17C,0.600000*%
%TD*%
%TA.AperFunction,Conductor*%
%ADD18C,1.000000*%
%TD*%
%TA.AperFunction,Conductor*%
%ADD19C,0.250000*%
%TD*%
%TA.AperFunction,Conductor*%
%ADD20C,0.130000*%
%TD*%
G04 APERTURE END LIST*
%TO.P,U2,1*%
%TO.N,PWM*%
%TA.AperFunction,SMDPad,CuDef*%
G36*
G01*
X39312500Y-19875000D02*
X39187500Y-19875000D01*
G75*
G02*
X39125000Y-19812500I0J62500D01*
G01*
X39125000Y-19062500D01*
G75*
G02*
X39187500Y-19000000I62500J0D01*
G01*
X39312500Y-19000000D01*
G75*
G02*
X39375000Y-19062500I0J-62500D01*
G01*
X39375000Y-19812500D01*
G75*
G02*
X39312500Y-19875000I-62500J0D01*
G01*
G37*
%TD.AperFunction*%
%TO.P,U2,2*%
%TO.N,Net-(SW2-Pad1)*%
%TA.AperFunction,SMDPad,CuDef*%
G36*
G01*
X39812500Y-19875000D02*
X39687500Y-19875000D01*
G75*
G02*
X39625000Y-19812500I0J62500D01*
G01*
X39625000Y-19062500D01*
G75*
G02*
X39687500Y-19000000I62500J0D01*
G01*
X39812500Y-19000000D01*
G75*
G02*
X39875000Y-19062500I0J-62500D01*
G01*
X39875000Y-19812500D01*
G75*
G02*
X39812500Y-19875000I-62500J0D01*
G01*
G37*
%TD.AperFunction*%
%TO.P,U2,3*%
%TO.N,Net-(U2-Pad3)*%
%TA.AperFunction,SMDPad,CuDef*%
G36*
G01*
X40312500Y-19875000D02*
X40187500Y-19875000D01*
G75*
G02*
X40125000Y-19812500I0J62500D01*
G01*
X40125000Y-19062500D01*
G75*
G02*
X40187500Y-19000000I62500J0D01*
G01*
X40312500Y-19000000D01*
G75*
G02*
X40375000Y-19062500I0J-62500D01*
G01*
X40375000Y-19812500D01*
G75*
G02*
X40312500Y-19875000I-62500J0D01*
G01*
G37*
%TD.AperFunction*%
%TO.P,U2,4*%
%TO.N,5V*%
%TA.AperFunction,SMDPad,CuDef*%
G36*
G01*
X40812500Y-19875000D02*
X40687500Y-19875000D01*
G75*
G02*
X40625000Y-19812500I0J62500D01*
G01*
X40625000Y-19062500D01*
G75*
G02*
X40687500Y-19000000I62500J0D01*
G01*
X40812500Y-19000000D01*
G75*
G02*
X40875000Y-19062500I0J-62500D01*
G01*
X40875000Y-19812500D01*
G75*
G02*
X40812500Y-19875000I-62500J0D01*
G01*
G37*
%TD.AperFunction*%
%TO.P,U2,5*%
%TO.N,GND*%
%TA.AperFunction,SMDPad,CuDef*%
G36*
G01*
X41312500Y-19875000D02*
X41187500Y-19875000D01*
G75*
G02*
X41125000Y-19812500I0J62500D01*
G01*
X41125000Y-19062500D01*
G75*
G02*
X41187500Y-19000000I62500J0D01*
G01*
X41312500Y-19000000D01*
G75*
G02*
X41375000Y-19062500I0J-62500D01*
G01*
X41375000Y-19812500D01*
G75*
G02*
X41312500Y-19875000I-62500J0D01*
G01*
G37*
%TD.AperFunction*%
%TO.P,U2,6*%
%TO.N,Net-(U2-Pad6)*%
%TA.AperFunction,SMDPad,CuDef*%
G36*
G01*
X41812500Y-19875000D02*
X41687500Y-19875000D01*
G75*
G02*
X41625000Y-19812500I0J62500D01*
G01*
X41625000Y-19062500D01*
G75*
G02*
X41687500Y-19000000I62500J0D01*
G01*
X41812500Y-19000000D01*
G75*
G02*
X41875000Y-19062500I0J-62500D01*
G01*
X41875000Y-19812500D01*
G75*
G02*
X41812500Y-19875000I-62500J0D01*
G01*
G37*
%TD.AperFunction*%
%TO.P,U2,7*%
%TO.N,Net-(U2-Pad7)*%
%TA.AperFunction,SMDPad,CuDef*%
G36*
G01*
X42312500Y-19875000D02*
X42187500Y-19875000D01*
G75*
G02*
X42125000Y-19812500I0J62500D01*
G01*
X42125000Y-19062500D01*
G75*
G02*
X42187500Y-19000000I62500J0D01*
G01*
X42312500Y-19000000D01*
G75*
G02*
X42375000Y-19062500I0J-62500D01*
G01*
X42375000Y-19812500D01*
G75*
G02*
X42312500Y-19875000I-62500J0D01*
G01*
G37*
%TD.AperFunction*%
%TO.P,U2,8*%
%TO.N,Net-(U2-Pad8)*%
%TA.AperFunction,SMDPad,CuDef*%
G36*
G01*
X42812500Y-19875000D02*
X42687500Y-19875000D01*
G75*
G02*
X42625000Y-19812500I0J62500D01*
G01*
X42625000Y-19062500D01*
G75*
G02*
X42687500Y-19000000I62500J0D01*
G01*
X42812500Y-19000000D01*
G75*
G02*
X42875000Y-19062500I0J-62500D01*
G01*
X42875000Y-19812500D01*
G75*
G02*
X42812500Y-19875000I-62500J0D01*
G01*
G37*
%TD.AperFunction*%
%TO.P,U2,9*%
%TO.N,Net-(SW1-Pad1)*%
%TA.AperFunction,SMDPad,CuDef*%
G36*
G01*
X43812500Y-18875000D02*
X43062500Y-18875000D01*
G75*
G02*
X43000000Y-18812500I0J62500D01*
G01*
X43000000Y-18687500D01*
G75*
G02*
X43062500Y-18625000I62500J0D01*
G01*
X43812500Y-18625000D01*
G75*
G02*
X43875000Y-18687500I0J-62500D01*
G01*
X43875000Y-18812500D01*
G75*
G02*
X43812500Y-18875000I-62500J0D01*
G01*
G37*
%TD.AperFunction*%
%TO.P,U2,10*%
%TO.N,Net-(R1-Pad1)*%
%TA.AperFunction,SMDPad,CuDef*%
G36*
G01*
X43812500Y-18375000D02*
X43062500Y-18375000D01*
G75*
G02*
X43000000Y-18312500I0J62500D01*
G01*
X43000000Y-18187500D01*
G75*
G02*
X43062500Y-18125000I62500J0D01*
G01*
X43812500Y-18125000D01*
G75*
G02*
X43875000Y-18187500I0J-62500D01*
G01*
X43875000Y-18312500D01*
G75*
G02*
X43812500Y-18375000I-62500J0D01*
G01*
G37*
%TD.AperFunction*%
%TO.P,U2,11*%
%TO.N,Net-(R2-Pad1)*%
%TA.AperFunction,SMDPad,CuDef*%
G36*
G01*
X43812500Y-17875000D02*
X43062500Y-17875000D01*
G75*
G02*
X43000000Y-17812500I0J62500D01*
G01*
X43000000Y-17687500D01*
G75*
G02*
X43062500Y-17625000I62500J0D01*
G01*
X43812500Y-17625000D01*
G75*
G02*
X43875000Y-17687500I0J-62500D01*
G01*
X43875000Y-17812500D01*
G75*
G02*
X43812500Y-17875000I-62500J0D01*
G01*
G37*
%TD.AperFunction*%
%TO.P,U2,12*%
%TO.N,Net-(R3-Pad1)*%
%TA.AperFunction,SMDPad,CuDef*%
G36*
G01*
X43812500Y-17375000D02*
X43062500Y-17375000D01*
G75*
G02*
X43000000Y-17312500I0J62500D01*
G01*
X43000000Y-17187500D01*
G75*
G02*
X43062500Y-17125000I62500J0D01*
G01*
X43812500Y-17125000D01*
G75*
G02*
X43875000Y-17187500I0J-62500D01*
G01*
X43875000Y-17312500D01*
G75*
G02*
X43812500Y-17375000I-62500J0D01*
G01*
G37*
%TD.AperFunction*%
%TO.P,U2,13*%
%TO.N,Net-(R4-Pad1)*%
%TA.AperFunction,SMDPad,CuDef*%
G36*
G01*
X43812500Y-16875000D02*
X43062500Y-16875000D01*
G75*
G02*
X43000000Y-16812500I0J62500D01*
G01*
X43000000Y-16687500D01*
G75*
G02*
X43062500Y-16625000I62500J0D01*
G01*
X43812500Y-16625000D01*
G75*
G02*
X43875000Y-16687500I0J-62500D01*
G01*
X43875000Y-16812500D01*
G75*
G02*
X43812500Y-16875000I-62500J0D01*
G01*
G37*
%TD.AperFunction*%
%TO.P,U2,14*%
%TO.N,Net-(R5-Pad1)*%
%TA.AperFunction,SMDPad,CuDef*%
G36*
G01*
X43812500Y-16375000D02*
X43062500Y-16375000D01*
G75*
G02*
X43000000Y-16312500I0J62500D01*
G01*
X43000000Y-16187500D01*
G75*
G02*
X43062500Y-16125000I62500J0D01*
G01*
X43812500Y-16125000D01*
G75*
G02*
X43875000Y-16187500I0J-62500D01*
G01*
X43875000Y-16312500D01*
G75*
G02*
X43812500Y-16375000I-62500J0D01*
G01*
G37*
%TD.AperFunction*%
%TO.P,U2,15*%
%TO.N,MOSI*%
%TA.AperFunction,SMDPad,CuDef*%
G36*
G01*
X43812500Y-15875000D02*
X43062500Y-15875000D01*
G75*
G02*
X43000000Y-15812500I0J62500D01*
G01*
X43000000Y-15687500D01*
G75*
G02*
X43062500Y-15625000I62500J0D01*
G01*
X43812500Y-15625000D01*
G75*
G02*
X43875000Y-15687500I0J-62500D01*
G01*
X43875000Y-15812500D01*
G75*
G02*
X43812500Y-15875000I-62500J0D01*
G01*
G37*
%TD.AperFunction*%
%TO.P,U2,16*%
%TO.N,MISO*%
%TA.AperFunction,SMDPad,CuDef*%
G36*
G01*
X43812500Y-15375000D02*
X43062500Y-15375000D01*
G75*
G02*
X43000000Y-15312500I0J62500D01*
G01*
X43000000Y-15187500D01*
G75*
G02*
X43062500Y-15125000I62500J0D01*
G01*
X43812500Y-15125000D01*
G75*
G02*
X43875000Y-15187500I0J-62500D01*
G01*
X43875000Y-15312500D01*
G75*
G02*
X43812500Y-15375000I-62500J0D01*
G01*
G37*
%TD.AperFunction*%
%TO.P,U2,17*%
%TO.N,SCK*%
%TA.AperFunction,SMDPad,CuDef*%
G36*
G01*
X42812500Y-15000000D02*
X42687500Y-15000000D01*
G75*
G02*
X42625000Y-14937500I0J62500D01*
G01*
X42625000Y-14187500D01*
G75*
G02*
X42687500Y-14125000I62500J0D01*
G01*
X42812500Y-14125000D01*
G75*
G02*
X42875000Y-14187500I0J-62500D01*
G01*
X42875000Y-14937500D01*
G75*
G02*
X42812500Y-15000000I-62500J0D01*
G01*
G37*
%TD.AperFunction*%
%TO.P,U2,18*%
%TO.N,5V*%
%TA.AperFunction,SMDPad,CuDef*%
G36*
G01*
X42312500Y-15000000D02*
X42187500Y-15000000D01*
G75*
G02*
X42125000Y-14937500I0J62500D01*
G01*
X42125000Y-14187500D01*
G75*
G02*
X42187500Y-14125000I62500J0D01*
G01*
X42312500Y-14125000D01*
G75*
G02*
X42375000Y-14187500I0J-62500D01*
G01*
X42375000Y-14937500D01*
G75*
G02*
X42312500Y-15000000I-62500J0D01*
G01*
G37*
%TD.AperFunction*%
%TO.P,U2,19*%
%TO.N,Net-(U2-Pad19)*%
%TA.AperFunction,SMDPad,CuDef*%
G36*
G01*
X41812500Y-15000000D02*
X41687500Y-15000000D01*
G75*
G02*
X41625000Y-14937500I0J62500D01*
G01*
X41625000Y-14187500D01*
G75*
G02*
X41687500Y-14125000I62500J0D01*
G01*
X41812500Y-14125000D01*
G75*
G02*
X41875000Y-14187500I0J-62500D01*
G01*
X41875000Y-14937500D01*
G75*
G02*
X41812500Y-15000000I-62500J0D01*
G01*
G37*
%TD.AperFunction*%
%TO.P,U2,20*%
%TO.N,Net-(U2-Pad20)*%
%TA.AperFunction,SMDPad,CuDef*%
G36*
G01*
X41312500Y-15000000D02*
X41187500Y-15000000D01*
G75*
G02*
X41125000Y-14937500I0J62500D01*
G01*
X41125000Y-14187500D01*
G75*
G02*
X41187500Y-14125000I62500J0D01*
G01*
X41312500Y-14125000D01*
G75*
G02*
X41375000Y-14187500I0J-62500D01*
G01*
X41375000Y-14937500D01*
G75*
G02*
X41312500Y-15000000I-62500J0D01*
G01*
G37*
%TD.AperFunction*%
%TO.P,U2,21*%
%TO.N,GND*%
%TA.AperFunction,SMDPad,CuDef*%
G36*
G01*
X40812500Y-15000000D02*
X40687500Y-15000000D01*
G75*
G02*
X40625000Y-14937500I0J62500D01*
G01*
X40625000Y-14187500D01*
G75*
G02*
X40687500Y-14125000I62500J0D01*
G01*
X40812500Y-14125000D01*
G75*
G02*
X40875000Y-14187500I0J-62500D01*
G01*
X40875000Y-14937500D01*
G75*
G02*
X40812500Y-15000000I-62500J0D01*
G01*
G37*
%TD.AperFunction*%
%TO.P,U2,22*%
%TO.N,Net-(U2-Pad22)*%
%TA.AperFunction,SMDPad,CuDef*%
G36*
G01*
X40312500Y-15000000D02*
X40187500Y-15000000D01*
G75*
G02*
X40125000Y-14937500I0J62500D01*
G01*
X40125000Y-14187500D01*
G75*
G02*
X40187500Y-14125000I62500J0D01*
G01*
X40312500Y-14125000D01*
G75*
G02*
X40375000Y-14187500I0J-62500D01*
G01*
X40375000Y-14937500D01*
G75*
G02*
X40312500Y-15000000I-62500J0D01*
G01*
G37*
%TD.AperFunction*%
%TO.P,U2,23*%
%TO.N,Net-(U2-Pad23)*%
%TA.AperFunction,SMDPad,CuDef*%
G36*
G01*
X39812500Y-15000000D02*
X39687500Y-15000000D01*
G75*
G02*
X39625000Y-14937500I0J62500D01*
G01*
X39625000Y-14187500D01*
G75*
G02*
X39687500Y-14125000I62500J0D01*
G01*
X39812500Y-14125000D01*
G75*
G02*
X39875000Y-14187500I0J-62500D01*
G01*
X39875000Y-14937500D01*
G75*
G02*
X39812500Y-15000000I-62500J0D01*
G01*
G37*
%TD.AperFunction*%
%TO.P,U2,24*%
%TO.N,Net-(U2-Pad24)*%
%TA.AperFunction,SMDPad,CuDef*%
G36*
G01*
X39312500Y-15000000D02*
X39187500Y-15000000D01*
G75*
G02*
X39125000Y-14937500I0J62500D01*
G01*
X39125000Y-14187500D01*
G75*
G02*
X39187500Y-14125000I62500J0D01*
G01*
X39312500Y-14125000D01*
G75*
G02*
X39375000Y-14187500I0J-62500D01*
G01*
X39375000Y-14937500D01*
G75*
G02*
X39312500Y-15000000I-62500J0D01*
G01*
G37*
%TD.AperFunction*%
%TO.P,U2,25*%
%TO.N,Net-(U2-Pad25)*%
%TA.AperFunction,SMDPad,CuDef*%
G36*
G01*
X38937500Y-15375000D02*
X38187500Y-15375000D01*
G75*
G02*
X38125000Y-15312500I0J62500D01*
G01*
X38125000Y-15187500D01*
G75*
G02*
X38187500Y-15125000I62500J0D01*
G01*
X38937500Y-15125000D01*
G75*
G02*
X39000000Y-15187500I0J-62500D01*
G01*
X39000000Y-15312500D01*
G75*
G02*
X38937500Y-15375000I-62500J0D01*
G01*
G37*
%TD.AperFunction*%
%TO.P,U2,26*%
%TO.N,Net-(U2-Pad26)*%
%TA.AperFunction,SMDPad,CuDef*%
G36*
G01*
X38937500Y-15875000D02*
X38187500Y-15875000D01*
G75*
G02*
X38125000Y-15812500I0J62500D01*
G01*
X38125000Y-15687500D01*
G75*
G02*
X38187500Y-15625000I62500J0D01*
G01*
X38937500Y-15625000D01*
G75*
G02*
X39000000Y-15687500I0J-62500D01*
G01*
X39000000Y-15812500D01*
G75*
G02*
X38937500Y-15875000I-62500J0D01*
G01*
G37*
%TD.AperFunction*%
%TO.P,U2,27*%
%TO.N,Net-(U2-Pad27)*%
%TA.AperFunction,SMDPad,CuDef*%
G36*
G01*
X38937500Y-16375000D02*
X38187500Y-16375000D01*
G75*
G02*
X38125000Y-16312500I0J62500D01*
G01*
X38125000Y-16187500D01*
G75*
G02*
X38187500Y-16125000I62500J0D01*
G01*
X38937500Y-16125000D01*
G75*
G02*
X39000000Y-16187500I0J-62500D01*
G01*
X39000000Y-16312500D01*
G75*
G02*
X38937500Y-16375000I-62500J0D01*
G01*
G37*
%TD.AperFunction*%
%TO.P,U2,28*%
%TO.N,Net-(U2-Pad28)*%
%TA.AperFunction,SMDPad,CuDef*%
G36*
G01*
X38937500Y-16875000D02*
X38187500Y-16875000D01*
G75*
G02*
X38125000Y-16812500I0J62500D01*
G01*
X38125000Y-16687500D01*
G75*
G02*
X38187500Y-16625000I62500J0D01*
G01*
X38937500Y-16625000D01*
G75*
G02*
X39000000Y-16687500I0J-62500D01*
G01*
X39000000Y-16812500D01*
G75*
G02*
X38937500Y-16875000I-62500J0D01*
G01*
G37*
%TD.AperFunction*%
%TO.P,U2,29*%
%TO.N,RESET*%
%TA.AperFunction,SMDPad,CuDef*%
G36*
G01*
X38937500Y-17375000D02*
X38187500Y-17375000D01*
G75*
G02*
X38125000Y-17312500I0J62500D01*
G01*
X38125000Y-17187500D01*
G75*
G02*
X38187500Y-17125000I62500J0D01*
G01*
X38937500Y-17125000D01*
G75*
G02*
X39000000Y-17187500I0J-62500D01*
G01*
X39000000Y-17312500D01*
G75*
G02*
X38937500Y-17375000I-62500J0D01*
G01*
G37*
%TD.AperFunction*%
%TO.P,U2,30*%
%TO.N,Net-(U2-Pad30)*%
%TA.AperFunction,SMDPad,CuDef*%
G36*
G01*
X38937500Y-17875000D02*
X38187500Y-17875000D01*
G75*
G02*
X38125000Y-17812500I0J62500D01*
G01*
X38125000Y-17687500D01*
G75*
G02*
X38187500Y-17625000I62500J0D01*
G01*
X38937500Y-17625000D01*
G75*
G02*
X39000000Y-17687500I0J-62500D01*
G01*
X39000000Y-17812500D01*
G75*
G02*
X38937500Y-17875000I-62500J0D01*
G01*
G37*
%TD.AperFunction*%
%TO.P,U2,31*%
%TO.N,Net-(U2-Pad31)*%
%TA.AperFunction,SMDPad,CuDef*%
G36*
G01*
X38937500Y-18375000D02*
X38187500Y-18375000D01*
G75*
G02*
X38125000Y-18312500I0J62500D01*
G01*
X38125000Y-18187500D01*
G75*
G02*
X38187500Y-18125000I62500J0D01*
G01*
X38937500Y-18125000D01*
G75*
G02*
X39000000Y-18187500I0J-62500D01*
G01*
X39000000Y-18312500D01*
G75*
G02*
X38937500Y-18375000I-62500J0D01*
G01*
G37*
%TD.AperFunction*%
%TO.P,U2,32*%
%TO.N,Net-(U2-Pad32)*%
%TA.AperFunction,SMDPad,CuDef*%
G36*
G01*
X38937500Y-18875000D02*
X38187500Y-18875000D01*
G75*
G02*
X38125000Y-18812500I0J62500D01*
G01*
X38125000Y-18687500D01*
G75*
G02*
X38187500Y-18625000I62500J0D01*
G01*
X38937500Y-18625000D01*
G75*
G02*
X39000000Y-18687500I0J-62500D01*
G01*
X39000000Y-18812500D01*
G75*
G02*
X38937500Y-18875000I-62500J0D01*
G01*
G37*
%TD.AperFunction*%
D10*
%TO.P,U2,33*%
%TO.N,GND*%
X41000000Y-17000000D03*
%TD*%
%TO.P,C1,2*%
%TO.N,GND*%
%TA.AperFunction,SMDPad,CuDef*%
G36*
G01*
X18375000Y-17775000D02*
X19625000Y-17775000D01*
G75*
G02*
X19875000Y-18025000I0J-250000D01*
G01*
X19875000Y-18950000D01*
G75*
G02*
X19625000Y-19200000I-250000J0D01*
G01*
X18375000Y-19200000D01*
G75*
G02*
X18125000Y-18950000I0J250000D01*
G01*
X18125000Y-18025000D01*
G75*
G02*
X18375000Y-17775000I250000J0D01*
G01*
G37*
%TD.AperFunction*%
%TO.P,C1,1*%
%TO.N,Vin*%
%TA.AperFunction,SMDPad,CuDef*%
G36*
G01*
X18375000Y-14800000D02*
X19625000Y-14800000D01*
G75*
G02*
X19875000Y-15050000I0J-250000D01*
G01*
X19875000Y-15975000D01*
G75*
G02*
X19625000Y-16225000I-250000J0D01*
G01*
X18375000Y-16225000D01*
G75*
G02*
X18125000Y-15975000I0J250000D01*
G01*
X18125000Y-15050000D01*
G75*
G02*
X18375000Y-14800000I250000J0D01*
G01*
G37*
%TD.AperFunction*%
%TD*%
%TO.P,C2,1*%
%TO.N,5V*%
%TA.AperFunction,SMDPad,CuDef*%
G36*
G01*
X36625000Y-19200000D02*
X35375000Y-19200000D01*
G75*
G02*
X35125000Y-18950000I0J250000D01*
G01*
X35125000Y-18025000D01*
G75*
G02*
X35375000Y-17775000I250000J0D01*
G01*
X36625000Y-17775000D01*
G75*
G02*
X36875000Y-18025000I0J-250000D01*
G01*
X36875000Y-18950000D01*
G75*
G02*
X36625000Y-19200000I-250000J0D01*
G01*
G37*
%TD.AperFunction*%
%TO.P,C2,2*%
%TO.N,GND*%
%TA.AperFunction,SMDPad,CuDef*%
G36*
G01*
X36625000Y-16225000D02*
X35375000Y-16225000D01*
G75*
G02*
X35125000Y-15975000I0J250000D01*
G01*
X35125000Y-15050000D01*
G75*
G02*
X35375000Y-14800000I250000J0D01*
G01*
X36625000Y-14800000D01*
G75*
G02*
X36875000Y-15050000I0J-250000D01*
G01*
X36875000Y-15975000D01*
G75*
G02*
X36625000Y-16225000I-250000J0D01*
G01*
G37*
%TD.AperFunction*%
%TD*%
D11*
%TO.P,J1,1*%
%TO.N,Vin*%
X15000000Y-14500000D03*
%TD*%
%TO.P,J2,1*%
%TO.N,PWM*%
X15000000Y-17000000D03*
%TD*%
%TO.P,J3,1*%
%TO.N,GND*%
X15000000Y-19500000D03*
%TD*%
D12*
%TO.P,J4,MP*%
%TO.N,N/C*%
X52650000Y-17400000D03*
X46350000Y-17400000D03*
D13*
%TO.P,J4,1*%
%TO.N,5V*%
X48250000Y-14150000D03*
%TO.P,J4,2*%
%TO.N,GND*%
X48750000Y-14150000D03*
%TO.P,J4,3*%
%TO.N,MISO*%
X49250000Y-14150000D03*
%TO.P,J4,4*%
%TO.N,MOSI*%
X49750000Y-14150000D03*
%TO.P,J4,5*%
%TO.N,SCK*%
X50250000Y-14150000D03*
%TO.P,J4,6*%
%TO.N,RESET*%
X50750000Y-14150000D03*
%TD*%
D14*
%TO.P,U1,1*%
%TO.N,5V*%
X24650000Y-18500000D03*
%TO.P,U1,3*%
%TO.N,Vin*%
X24650000Y-15500000D03*
%TA.AperFunction,SMDPad,CuDef*%
D15*
%TO.P,U1,2*%
%TO.N,GND*%
G36*
X20700000Y-16133500D02*
G01*
X23825000Y-16133500D01*
X23825000Y-16550000D01*
X25300000Y-16550000D01*
X25300000Y-17450000D01*
X23825000Y-17450000D01*
X23825000Y-17866500D01*
X20700000Y-17866500D01*
X20700000Y-16133500D01*
G37*
%TD.AperFunction*%
%TD*%
D16*
%TO.N,GND*%
X15000000Y-19000000D03*
D17*
X51500000Y-14500000D03*
X36000000Y-15512500D03*
X41160000Y-17000000D03*
X21250000Y-17000000D03*
X31380000Y-17000000D03*
%TO.N,5V*%
X36000000Y-18487500D03*
X37500000Y-16000000D03*
X43000000Y-20500000D03*
X48169998Y-14150000D03*
X47000000Y-20500000D03*
X44460000Y-20230000D03*
X47030000Y-14480000D03*
D16*
%TO.N,PWM*%
X37512653Y-19899990D03*
D17*
X13500000Y-20500000D03*
%TO.N,Net-(R1-Pad1)*%
X44000000Y-19500000D03*
%TO.N,Net-(R2-Pad1)*%
X45000000Y-19500000D03*
%TO.N,Net-(R3-Pad1)*%
X46500000Y-19500000D03*
%TO.N,Net-(R4-Pad1)*%
X48000000Y-18500000D03*
%TO.N,Net-(R5-Pad1)*%
X45000000Y-16000000D03*
%TO.N,Net-(SW1-Pad1)*%
X45500000Y-20500000D03*
%TO.N,Net-(SW2-Pad1)*%
X39000000Y-20450000D03*
%TO.N,SCK*%
X48000000Y-17565000D03*
X46000000Y-14500000D03*
%TO.N,RESET*%
X36500000Y-17110000D03*
X48036499Y-19505000D03*
%TD*%
D18*
%TO.N,GND*%
X18487500Y-19000000D02*
X19000000Y-18487500D01*
X15000000Y-19000000D02*
X18487500Y-19000000D01*
X33487500Y-15512500D02*
X36000000Y-15512500D01*
X32000000Y-17000000D02*
X33487500Y-15512500D01*
X20487500Y-17000000D02*
X24562500Y-17000000D01*
X19000000Y-18487500D02*
X20487500Y-17000000D01*
D19*
X36000000Y-15512500D02*
X36000000Y-15000000D01*
X36000000Y-15000000D02*
X37500000Y-13500000D01*
X37500000Y-13500000D02*
X40500000Y-13500000D01*
X40750000Y-13750000D02*
X40750000Y-14562500D01*
X40500000Y-13500000D02*
X40750000Y-13750000D01*
X40750000Y-16750000D02*
X41000000Y-17000000D01*
X40750000Y-14562500D02*
X40750000Y-16750000D01*
X48750000Y-15050000D02*
X48674999Y-15125001D01*
X48750000Y-14150000D02*
X48750000Y-15050000D01*
X48674999Y-15125001D02*
X47839999Y-15125001D01*
D20*
X41250000Y-17250000D02*
X41000000Y-17000000D01*
X41250000Y-19437500D02*
X41250000Y-17250000D01*
X48943999Y-13304999D02*
X51304999Y-13304999D01*
X48750000Y-13498998D02*
X48943999Y-13304999D01*
X48750000Y-14150000D02*
X48750000Y-13498998D01*
X51304999Y-13304999D02*
X51500000Y-13500000D01*
X51500000Y-13500000D02*
X51500000Y-14500000D01*
D18*
X31380000Y-17000000D02*
X32000000Y-17000000D01*
X24562500Y-17000000D02*
X31380000Y-17000000D01*
D19*
X40500000Y-13500000D02*
X46910000Y-13500000D01*
X47612499Y-14202499D02*
X47612499Y-14897501D01*
X46910000Y-13500000D02*
X47612499Y-14202499D01*
X47839999Y-15125001D02*
X47612499Y-14897501D01*
D18*
%TO.N,Vin*%
X18487500Y-15000000D02*
X19000000Y-15512500D01*
X15000000Y-15000000D02*
X18487500Y-15000000D01*
X20410044Y-15433490D02*
X24650000Y-15433490D01*
X20331034Y-15512500D02*
X20410044Y-15433490D01*
X19000000Y-15512500D02*
X20331034Y-15512500D01*
%TO.N,5V*%
X35987500Y-18500000D02*
X36000000Y-18487500D01*
X24650000Y-18500000D02*
X35987500Y-18500000D01*
D19*
X36000000Y-17826978D02*
X36000000Y-18487500D01*
X36000000Y-18487500D02*
X36000000Y-19500000D01*
X48250000Y-14150000D02*
X48150000Y-14150000D01*
X42250000Y-14076978D02*
X42250000Y-14562500D01*
D20*
X36000000Y-18487500D02*
X35504999Y-17992499D01*
X37340668Y-16159332D02*
X37500000Y-16000000D01*
X40750000Y-19875000D02*
X41375000Y-20500000D01*
X40750000Y-19437500D02*
X40750000Y-19875000D01*
X41375000Y-20500000D02*
X43000000Y-20500000D01*
X48250000Y-14150000D02*
X48169998Y-14150000D01*
X44500000Y-20000000D02*
X44500000Y-20000000D01*
X46504999Y-20004999D02*
X45135001Y-20004999D01*
X47000000Y-20500000D02*
X46504999Y-20004999D01*
X44910000Y-20230000D02*
X44460000Y-20230000D01*
X45135001Y-20004999D02*
X44910000Y-20230000D01*
D19*
X36000000Y-18487500D02*
X35260000Y-17747500D01*
X37019990Y-16480010D02*
X37500000Y-16000000D01*
X35944999Y-18432499D02*
X35944999Y-16525001D01*
X35989990Y-16480010D02*
X37019990Y-16480010D01*
X35944999Y-16525001D02*
X35989990Y-16480010D01*
X36000000Y-18487500D02*
X35944999Y-18432499D01*
X42250000Y-14040000D02*
X42409990Y-13880010D01*
X42250000Y-14076978D02*
X42250000Y-14040000D01*
X42409990Y-13880010D02*
X42545962Y-13880010D01*
D20*
X42545962Y-13880010D02*
X43070010Y-13880010D01*
X43070010Y-13880010D02*
X43110000Y-13920000D01*
D19*
X43070010Y-13880010D02*
X46430010Y-13880010D01*
X46430010Y-13880010D02*
X47030000Y-14480000D01*
%TO.N,PWM*%
X13375010Y-20375010D02*
X13500000Y-20500000D01*
X13375010Y-17624990D02*
X13375010Y-20375010D01*
X14000000Y-17000000D02*
X13375010Y-17624990D01*
X15000000Y-17000000D02*
X14000000Y-17000000D01*
X37512653Y-19987347D02*
X37512653Y-19899990D01*
X38062500Y-19437500D02*
X37512653Y-19987347D01*
X39250000Y-19437500D02*
X38062500Y-19437500D01*
X13500000Y-20500000D02*
X13624990Y-20624990D01*
D20*
%TO.N,Net-(R1-Pad1)*%
X43782378Y-18250000D02*
X43437500Y-18250000D01*
X44070010Y-18580834D02*
X44070010Y-19429990D01*
X43864176Y-18375000D02*
X44070010Y-18580834D01*
X43562500Y-18375000D02*
X43864176Y-18375000D01*
X43437500Y-18250000D02*
X43562500Y-18375000D01*
X44070010Y-19429990D02*
X44000000Y-19500000D01*
%TO.N,Net-(R2-Pad1)*%
X44250000Y-17750000D02*
X44500000Y-18000000D01*
X43437500Y-17750000D02*
X44250000Y-17750000D01*
X44500000Y-18867709D02*
X45000000Y-19367709D01*
X44500000Y-18000000D02*
X44500000Y-18867709D01*
X45000000Y-19367709D02*
X45000000Y-19500000D01*
%TO.N,Net-(R3-Pad1)*%
X43875000Y-17250000D02*
X43437500Y-17250000D01*
X44957483Y-17799917D02*
X44957483Y-18752193D01*
X44957483Y-18752193D02*
X45500000Y-19294710D01*
X44282566Y-17125000D02*
X44957483Y-17799917D01*
X44032566Y-17375000D02*
X44282566Y-17125000D01*
X43562500Y-17375000D02*
X44032566Y-17375000D01*
X43437500Y-17250000D02*
X43562500Y-17375000D01*
X45500000Y-19500000D02*
X46500000Y-19500000D01*
X45500000Y-19294710D02*
X45500000Y-19500000D01*
%TO.N,Net-(R4-Pad1)*%
X43437500Y-16750000D02*
X43875000Y-16750000D01*
X44275275Y-16750000D02*
X43437500Y-16750000D01*
X45254999Y-17729724D02*
X44275275Y-16750000D01*
X45293999Y-18695001D02*
X45254999Y-18656001D01*
X47804999Y-18695001D02*
X45293999Y-18695001D01*
X45254999Y-18656001D02*
X45254999Y-17729724D01*
X48000000Y-18500000D02*
X47804999Y-18695001D01*
%TO.N,Net-(R5-Pad1)*%
X44750000Y-16250000D02*
X45000000Y-16000000D01*
X43437500Y-16250000D02*
X44750000Y-16250000D01*
%TO.N,Net-(SW1-Pad1)*%
X43437500Y-18750000D02*
X43437500Y-18937500D01*
X45260000Y-20740000D02*
X45500000Y-20500000D01*
X44240000Y-20740000D02*
X45260000Y-20740000D01*
X43437500Y-19937500D02*
X44240000Y-20740000D01*
X43437500Y-18750000D02*
X43437500Y-19937500D01*
D19*
%TO.N,Net-(SW2-Pad1)*%
X39750000Y-19437500D02*
X39750000Y-19923022D01*
X39750000Y-19923022D02*
X39700010Y-19973012D01*
X39700010Y-19973012D02*
X39586511Y-20086511D01*
X39750000Y-19923022D02*
X39173022Y-20500000D01*
X39050000Y-20500000D02*
X39000000Y-20450000D01*
X39173022Y-20500000D02*
X39050000Y-20500000D01*
%TO.N,MISO*%
X49225001Y-14274999D02*
X49225001Y-15274999D01*
X49250000Y-14250000D02*
X49225001Y-14274999D01*
X49250000Y-14150000D02*
X49250000Y-14250000D01*
X48924989Y-15575011D02*
X47438601Y-15575011D01*
X49225001Y-15274999D02*
X48924989Y-15575011D01*
X47438601Y-15575011D02*
X47113590Y-15250000D01*
D20*
X46988590Y-15125000D02*
X43562500Y-15125000D01*
X43562500Y-15125000D02*
X43437500Y-15250000D01*
X47113590Y-15250000D02*
X46988590Y-15125000D01*
%TO.N,MOSI*%
X45271201Y-15434999D02*
X45565001Y-15728799D01*
X44728799Y-15434999D02*
X45271201Y-15434999D01*
X44413798Y-15750000D02*
X44728799Y-15434999D01*
X43437500Y-15750000D02*
X44413798Y-15750000D01*
X47462001Y-16034999D02*
X47515001Y-16087999D01*
X46034999Y-16034999D02*
X47462001Y-16034999D01*
X45728799Y-15728799D02*
X46034999Y-16034999D01*
X45565001Y-15728799D02*
X45728799Y-15728799D01*
X47515001Y-16087999D02*
X47515001Y-16515001D01*
X47515001Y-16515001D02*
X48000000Y-17000000D01*
X48000000Y-17000000D02*
X49500000Y-17000000D01*
X49750000Y-16750000D02*
X49750000Y-14150000D01*
X49500000Y-17000000D02*
X49750000Y-16750000D01*
D19*
%TO.N,SCK*%
X50250000Y-13750000D02*
X50225001Y-13725001D01*
X50250000Y-14150000D02*
X50250000Y-13750000D01*
X42812500Y-14500000D02*
X42750000Y-14562500D01*
X44500000Y-14500000D02*
X42812500Y-14500000D01*
D20*
X50250000Y-16716704D02*
X49466704Y-17500000D01*
X50250000Y-14150000D02*
X50250000Y-16716704D01*
X48065000Y-17500000D02*
X48000000Y-17565000D01*
X49466704Y-17500000D02*
X48065000Y-17500000D01*
X46000000Y-14500000D02*
X44500000Y-14500000D01*
%TO.N,RESET*%
X50750000Y-14150000D02*
X50750000Y-16822998D01*
X50718501Y-16822998D02*
X48036499Y-19505000D01*
X50750000Y-16822998D02*
X50718501Y-16822998D01*
X36640000Y-17250000D02*
X36500000Y-17110000D01*
X38562500Y-17250000D02*
X36640000Y-17250000D01*
%TD*%
M02*
