M48
; DRILL file {KiCad (5.1.6-0-10_14)} date Sunday, December 27, 2020 at 09:17:03 PM
; FORMAT={-:-/ absolute / inch / decimal}
; #@! TF.CreationDate,2020-12-27T21:17:03+01:00
; #@! TF.GenerationSoftware,Kicad,Pcbnew,(5.1.6-0-10_14)
; #@! TF.FileFunction,Plated,1,2,PTH
FMAT,2
INCH
T1C0.0118
T2C0.0157
%
G90
G05
T1
X0.5315Y-0.8071
X0.8366Y-0.6693
X1.2354Y-0.6693
X1.4173Y-0.6107
X1.4173Y-0.7279
X1.437Y-0.6736
X1.4764Y-0.6299
X1.5354Y-0.8051
X1.6205Y-0.6693
X1.6929Y-0.8071
X1.7323Y-0.7677
X1.7504Y-0.7965
X1.7717Y-0.6299
X1.7717Y-0.7677
X1.7913Y-0.8071
X1.811Y-0.5709
X1.8307Y-0.7677
X1.8504Y-0.8071
X1.8516Y-0.5701
X1.8898Y-0.6915
X1.8898Y-0.7283
X1.8912Y-0.7679
X1.8965Y-0.5571
X2.0276Y-0.5709
T2
X0.5906Y-0.748
X1.4769Y-0.7835
T0
M30
