%TF.GenerationSoftware,KiCad,Pcbnew,(5.1.6-0-10_14)*%
%TF.CreationDate,2021-01-01T02:06:57+01:00*%
%TF.ProjectId,lamp10,6c616d70-3130-42e6-9b69-6361645f7063,rev?*%
%TF.SameCoordinates,Original*%
%TF.FileFunction,Copper,L1,Top*%
%TF.FilePolarity,Positive*%
%FSLAX46Y46*%
G04 Gerber Fmt 4.6, Leading zero omitted, Abs format (unit mm)*
G04 Created by KiCad (PCBNEW (5.1.6-0-10_14)) date 2021-01-01 02:06:57*
%MOMM*%
%LPD*%
G01*
G04 APERTURE LIST*
%TA.AperFunction,SMDPad,CuDef*%
%ADD10R,2.200000X2.500000*%
%TD*%
%TA.AperFunction,SMDPad,CuDef*%
%ADD11R,2.200000X1.550000*%
%TD*%
%TA.AperFunction,SMDPad,CuDef*%
%ADD12C,0.100000*%
%TD*%
%TA.AperFunction,SMDPad,CuDef*%
%ADD13R,2.500000X2.200000*%
%TD*%
%TA.AperFunction,SMDPad,CuDef*%
%ADD14R,1.550000X2.200000*%
%TD*%
%TA.AperFunction,ViaPad*%
%ADD15C,0.800000*%
%TD*%
%TA.AperFunction,Conductor*%
%ADD16C,1.000000*%
%TD*%
%TA.AperFunction,NonConductor*%
%ADD17C,0.254000*%
%TD*%
G04 APERTURE END LIST*
D10*
%TO.P,D1,1*%
%TO.N,Net-(D1-Pad1)*%
X37000000Y-28950000D03*
D11*
%TO.P,D1,2*%
%TO.N,LED+*%
X37000000Y-31525000D03*
%TD*%
%TO.P,D2,2*%
%TO.N,Net-(D1-Pad1)*%
X43000000Y-31525000D03*
D10*
%TO.P,D2,1*%
%TO.N,Net-(D2-Pad1)*%
X43000000Y-28950000D03*
%TD*%
%TO.P,D3,1*%
%TO.N,Net-(D3-Pad1)*%
X50000000Y-31050000D03*
D11*
%TO.P,D3,2*%
%TO.N,Net-(D2-Pad1)*%
X50000000Y-28475000D03*
%TD*%
%TA.AperFunction,SMDPad,CuDef*%
D12*
%TO.P,D4,2*%
%TO.N,Net-(D3-Pad1)*%
G36*
X48308148Y-37247487D02*
G01*
X46752513Y-35691852D01*
X47848528Y-34595837D01*
X49404163Y-36151472D01*
X48308148Y-37247487D01*
G37*
%TD.AperFunction*%
%TA.AperFunction,SMDPad,CuDef*%
%TO.P,D4,1*%
%TO.N,Net-(D4-Pad1)*%
G36*
X46151472Y-39404163D02*
G01*
X44595837Y-37848528D01*
X46363604Y-36080761D01*
X47919239Y-37636396D01*
X46151472Y-39404163D01*
G37*
%TD.AperFunction*%
%TD*%
D13*
%TO.P,D5,1*%
%TO.N,Net-(D5-Pad1)*%
X38950000Y-40000000D03*
D14*
%TO.P,D5,2*%
%TO.N,Net-(D4-Pad1)*%
X41525000Y-40000000D03*
%TD*%
%TA.AperFunction,SMDPad,CuDef*%
D12*
%TO.P,D6,2*%
%TO.N,Net-(D5-Pad1)*%
G36*
X32752513Y-38308148D02*
G01*
X34308148Y-36752513D01*
X35404163Y-37848528D01*
X33848528Y-39404163D01*
X32752513Y-38308148D01*
G37*
%TD.AperFunction*%
%TA.AperFunction,SMDPad,CuDef*%
%TO.P,D6,1*%
%TO.N,Net-(D6-Pad1)*%
G36*
X30595837Y-36151472D02*
G01*
X32151472Y-34595837D01*
X33919239Y-36363604D01*
X32363604Y-37919239D01*
X30595837Y-36151472D01*
G37*
%TD.AperFunction*%
%TD*%
D10*
%TO.P,D7,1*%
%TO.N,Net-(D7-Pad1)*%
X30000000Y-28950000D03*
D11*
%TO.P,D7,2*%
%TO.N,Net-(D6-Pad1)*%
X30000000Y-31525000D03*
%TD*%
%TA.AperFunction,SMDPad,CuDef*%
D12*
%TO.P,D8,2*%
%TO.N,Net-(D7-Pad1)*%
G36*
X31691852Y-22752513D02*
G01*
X33247487Y-24308148D01*
X32151472Y-25404163D01*
X30595837Y-23848528D01*
X31691852Y-22752513D01*
G37*
%TD.AperFunction*%
%TA.AperFunction,SMDPad,CuDef*%
%TO.P,D8,1*%
%TO.N,Net-(D8-Pad1)*%
G36*
X33848528Y-20595837D02*
G01*
X35404163Y-22151472D01*
X33636396Y-23919239D01*
X32080761Y-22363604D01*
X33848528Y-20595837D01*
G37*
%TD.AperFunction*%
%TD*%
D13*
%TO.P,D9,1*%
%TO.N,Net-(D10-Pad2)*%
X41575000Y-20000000D03*
D14*
%TO.P,D9,2*%
%TO.N,Net-(D8-Pad1)*%
X39000000Y-20000000D03*
%TD*%
%TA.AperFunction,SMDPad,CuDef*%
D12*
%TO.P,D10,2*%
%TO.N,Net-(D10-Pad2)*%
G36*
X47197487Y-21691852D02*
G01*
X45641852Y-23247487D01*
X44545837Y-22151472D01*
X46101472Y-20595837D01*
X47197487Y-21691852D01*
G37*
%TD.AperFunction*%
%TA.AperFunction,SMDPad,CuDef*%
%TO.P,D10,1*%
%TO.N,LED-*%
G36*
X49354163Y-23848528D02*
G01*
X47798528Y-25404163D01*
X46030761Y-23636396D01*
X47586396Y-22080761D01*
X49354163Y-23848528D01*
G37*
%TD.AperFunction*%
%TD*%
%TO.P,J1,1*%
%TO.N,LED-*%
%TA.AperFunction,SMDPad,CuDef*%
G36*
G01*
X39250000Y-24500000D02*
X40750000Y-24500000D01*
G75*
G02*
X41000000Y-24750000I0J-250000D01*
G01*
X41000000Y-25250000D01*
G75*
G02*
X40750000Y-25500000I-250000J0D01*
G01*
X39250000Y-25500000D01*
G75*
G02*
X39000000Y-25250000I0J250000D01*
G01*
X39000000Y-24750000D01*
G75*
G02*
X39250000Y-24500000I250000J0D01*
G01*
G37*
%TD.AperFunction*%
%TD*%
%TO.P,J2,1*%
%TO.N,LED+*%
%TA.AperFunction,SMDPad,CuDef*%
G36*
G01*
X40750000Y-35500000D02*
X39250000Y-35500000D01*
G75*
G02*
X39000000Y-35250000I0J250000D01*
G01*
X39000000Y-34750000D01*
G75*
G02*
X39250000Y-34500000I250000J0D01*
G01*
X40750000Y-34500000D01*
G75*
G02*
X41000000Y-34750000I0J-250000D01*
G01*
X41000000Y-35250000D01*
G75*
G02*
X40750000Y-35500000I-250000J0D01*
G01*
G37*
%TD.AperFunction*%
%TD*%
D15*
%TO.N,*%
X32000000Y-21000000D03*
X33000000Y-20000000D03*
X34000000Y-19000000D03*
X35000000Y-19000000D03*
X36000000Y-18000000D03*
X37000000Y-18000000D03*
X38000000Y-18000000D03*
X39000000Y-18000000D03*
X40000000Y-18000000D03*
X41000000Y-18000000D03*
X42000000Y-18000000D03*
X43000000Y-18000000D03*
X44000000Y-18000000D03*
X45000000Y-19000000D03*
X46000000Y-19000000D03*
X47000000Y-20000000D03*
X48000000Y-20000000D03*
X48000000Y-21000000D03*
X49000000Y-21000000D03*
X46000000Y-20000000D03*
X44000000Y-19000000D03*
X49000000Y-22000000D03*
X50000000Y-22000000D03*
X50000000Y-23000000D03*
X50000000Y-24000000D03*
X51000000Y-24000000D03*
X51000000Y-25000000D03*
X51000000Y-26000000D03*
X52000000Y-26000000D03*
X52000000Y-27000000D03*
X52000000Y-28000000D03*
X52000000Y-29000000D03*
X52000000Y-30000000D03*
X52000000Y-31000000D03*
X52000000Y-32000000D03*
X52000000Y-33000000D03*
X52000000Y-34000000D03*
X51000000Y-34000000D03*
X51000000Y-35000000D03*
X51000000Y-36000000D03*
X50000000Y-36000000D03*
X50000000Y-37000000D03*
X50000000Y-38000000D03*
X49000000Y-38000000D03*
X49000000Y-39000000D03*
X48000000Y-39000000D03*
X47000000Y-40000000D03*
X46000000Y-41000000D03*
X45000000Y-41000000D03*
X44000000Y-42000000D03*
X43000000Y-42000000D03*
X42000000Y-42000000D03*
X41000000Y-42000000D03*
X40000000Y-42000000D03*
X39000000Y-42000000D03*
X38000000Y-42000000D03*
X37000000Y-42000000D03*
X36000000Y-42000000D03*
X36000000Y-41000000D03*
X35000000Y-41000000D03*
X34000000Y-41000000D03*
X34000000Y-40000000D03*
X33000000Y-40000000D03*
X32000000Y-40000000D03*
X32000000Y-39000000D03*
X31000000Y-39000000D03*
X31000000Y-38000000D03*
X30000000Y-38000000D03*
X30000000Y-37000000D03*
X30000000Y-36000000D03*
X29000000Y-36000000D03*
X29000000Y-35000000D03*
X28000000Y-34000000D03*
X28000000Y-33000000D03*
X28000000Y-33000000D03*
X28000000Y-32000000D03*
X28000000Y-31000000D03*
X28000000Y-30000000D03*
X28000000Y-29000000D03*
X28000000Y-28000000D03*
X28000000Y-28000000D03*
X28000000Y-27000000D03*
X28000000Y-26000000D03*
X28000000Y-25000000D03*
X29000000Y-25000000D03*
X29000000Y-24000000D03*
X30000000Y-23000000D03*
X30000000Y-22000000D03*
X31000000Y-22000000D03*
X31000000Y-21000000D03*
X34000000Y-30000000D03*
X34000000Y-29000000D03*
X34000000Y-28000000D03*
X34000000Y-27000000D03*
X34000000Y-26000000D03*
X35000000Y-25000000D03*
X36000000Y-24000000D03*
X37000000Y-23000000D03*
X38000000Y-23000000D03*
X39000000Y-23000000D03*
X41000000Y-23000000D03*
X40000000Y-23000000D03*
X42000000Y-23000000D03*
X34000000Y-31000000D03*
X34000000Y-32000000D03*
X34000000Y-33000000D03*
X34000000Y-34000000D03*
X35000000Y-35000000D03*
X36000000Y-36000000D03*
X37000000Y-36000000D03*
X38000000Y-36000000D03*
X39000000Y-37000000D03*
X40000000Y-37000000D03*
X41000000Y-37000000D03*
X42000000Y-37000000D03*
X43000000Y-37000000D03*
X44000000Y-36000000D03*
X45000000Y-35000000D03*
X46000000Y-34000000D03*
X46000000Y-33000000D03*
X46000000Y-32000000D03*
X47000000Y-31000000D03*
%TD*%
D16*
%TO.N,Net-(D1-Pad1)*%
X39389998Y-28950000D02*
X37000000Y-28950000D01*
X41964998Y-31525000D02*
X39389998Y-28950000D01*
X43000000Y-31525000D02*
X41964998Y-31525000D01*
%TO.N,LED+*%
X37000000Y-32000000D02*
X40000000Y-35000000D01*
X37000000Y-31525000D02*
X37000000Y-32000000D01*
%TO.N,Net-(D2-Pad1)*%
X43475000Y-28475000D02*
X43000000Y-28950000D01*
X50000000Y-28475000D02*
X43475000Y-28475000D01*
%TO.N,Net-(D3-Pad1)*%
X48078338Y-32971662D02*
X50000000Y-31050000D01*
X48078338Y-35921662D02*
X48078338Y-32971662D01*
%TO.N,Net-(D4-Pad1)*%
X44000000Y-40000000D02*
X46257538Y-37742462D01*
X41525000Y-40000000D02*
X44000000Y-40000000D01*
%TO.N,Net-(D5-Pad1)*%
X37028338Y-38078338D02*
X38950000Y-40000000D01*
X34078338Y-38078338D02*
X37028338Y-38078338D01*
%TO.N,Net-(D6-Pad1)*%
X30000000Y-34000000D02*
X32257538Y-36257538D01*
X30000000Y-31525000D02*
X30000000Y-34000000D01*
%TO.N,Net-(D7-Pad1)*%
X31921662Y-27028338D02*
X30000000Y-28950000D01*
X31921662Y-24078338D02*
X31921662Y-27028338D01*
%TO.N,Net-(D8-Pad1)*%
X36000000Y-20000000D02*
X33742462Y-22257538D01*
X39000000Y-20000000D02*
X36000000Y-20000000D01*
%TO.N,Net-(D10-Pad2)*%
X43496662Y-21921662D02*
X41575000Y-20000000D01*
X45871662Y-21921662D02*
X43496662Y-21921662D01*
%TO.N,LED-*%
X46434924Y-25000000D02*
X47692462Y-23742462D01*
X40000000Y-25000000D02*
X46434924Y-25000000D01*
%TD*%
D17*
G36*
X45022290Y-42165839D02*
G01*
X45035000Y-42101939D01*
X45035000Y-42035000D01*
X45101939Y-42035000D01*
X45268135Y-42001942D01*
X45022290Y-42165839D01*
G37*
X45022290Y-42165839D02*
X45035000Y-42101939D01*
X45035000Y-42035000D01*
X45101939Y-42035000D01*
X45268135Y-42001942D01*
X45022290Y-42165839D01*
G36*
X37061928Y-39717059D02*
G01*
X37061928Y-40965000D01*
X37035000Y-40965000D01*
X37035000Y-40898061D01*
X36995226Y-40698102D01*
X36917205Y-40509744D01*
X36803937Y-40340226D01*
X36659774Y-40196063D01*
X36490256Y-40082795D01*
X36301898Y-40004774D01*
X36101939Y-39965000D01*
X35898061Y-39965000D01*
X35698102Y-40004774D01*
X35509744Y-40082795D01*
X35500000Y-40089306D01*
X35490256Y-40082795D01*
X35301898Y-40004774D01*
X35101939Y-39965000D01*
X35035000Y-39965000D01*
X35035000Y-39898061D01*
X34995226Y-39698102D01*
X34917205Y-39509744D01*
X34808302Y-39346759D01*
X34941723Y-39213338D01*
X36558207Y-39213338D01*
X37061928Y-39717059D01*
G37*
X37061928Y-39717059D02*
X37061928Y-40965000D01*
X37035000Y-40965000D01*
X37035000Y-40898061D01*
X36995226Y-40698102D01*
X36917205Y-40509744D01*
X36803937Y-40340226D01*
X36659774Y-40196063D01*
X36490256Y-40082795D01*
X36301898Y-40004774D01*
X36101939Y-39965000D01*
X35898061Y-39965000D01*
X35698102Y-40004774D01*
X35509744Y-40082795D01*
X35500000Y-40089306D01*
X35490256Y-40082795D01*
X35301898Y-40004774D01*
X35101939Y-39965000D01*
X35035000Y-39965000D01*
X35035000Y-39898061D01*
X34995226Y-39698102D01*
X34917205Y-39509744D01*
X34808302Y-39346759D01*
X34941723Y-39213338D01*
X36558207Y-39213338D01*
X37061928Y-39717059D01*
G36*
X48022290Y-40165839D02*
G01*
X48035000Y-40101939D01*
X48035000Y-40035000D01*
X48101939Y-40035000D01*
X48268135Y-40001942D01*
X48022290Y-40165839D01*
G37*
X48022290Y-40165839D02*
X48035000Y-40101939D01*
X48035000Y-40035000D01*
X48101939Y-40035000D01*
X48268135Y-40001942D01*
X48022290Y-40165839D01*
G36*
X45796978Y-39934700D02*
G01*
X45865705Y-39971436D01*
X45698102Y-40004774D01*
X45531241Y-40073891D01*
X45727473Y-39877659D01*
X45796978Y-39934700D01*
G37*
X45796978Y-39934700D02*
X45865705Y-39971436D01*
X45698102Y-40004774D01*
X45531241Y-40073891D01*
X45727473Y-39877659D01*
X45796978Y-39934700D01*
G36*
X46943338Y-34598657D02*
G01*
X46301328Y-35240667D01*
X46221976Y-35337358D01*
X46163011Y-35447672D01*
X46152866Y-35481114D01*
X46119424Y-35491259D01*
X46009110Y-35550224D01*
X45912419Y-35629576D01*
X44144652Y-37397343D01*
X44065300Y-37494034D01*
X44006335Y-37604348D01*
X43970025Y-37724046D01*
X43957765Y-37848528D01*
X43970025Y-37973010D01*
X44006335Y-38092708D01*
X44065300Y-38203022D01*
X44122341Y-38272527D01*
X43529869Y-38865000D01*
X42934625Y-38865000D01*
X42925812Y-38775518D01*
X42889502Y-38655820D01*
X42830537Y-38545506D01*
X42751185Y-38448815D01*
X42654494Y-38369463D01*
X42544180Y-38310498D01*
X42424482Y-38274188D01*
X42300000Y-38261928D01*
X40750000Y-38261928D01*
X40625518Y-38274188D01*
X40505820Y-38310498D01*
X40475000Y-38326972D01*
X40444180Y-38310498D01*
X40324482Y-38274188D01*
X40200000Y-38261928D01*
X38817060Y-38261928D01*
X38397010Y-37841879D01*
X38509744Y-37917205D01*
X38698102Y-37995226D01*
X38898061Y-38035000D01*
X39101939Y-38035000D01*
X39301898Y-37995226D01*
X39490256Y-37917205D01*
X39500000Y-37910694D01*
X39509744Y-37917205D01*
X39698102Y-37995226D01*
X39898061Y-38035000D01*
X40101939Y-38035000D01*
X40301898Y-37995226D01*
X40490256Y-37917205D01*
X40500000Y-37910694D01*
X40509744Y-37917205D01*
X40698102Y-37995226D01*
X40898061Y-38035000D01*
X41101939Y-38035000D01*
X41301898Y-37995226D01*
X41490256Y-37917205D01*
X41500000Y-37910694D01*
X41509744Y-37917205D01*
X41698102Y-37995226D01*
X41898061Y-38035000D01*
X42101939Y-38035000D01*
X42301898Y-37995226D01*
X42490256Y-37917205D01*
X42500000Y-37910694D01*
X42509744Y-37917205D01*
X42698102Y-37995226D01*
X42898061Y-38035000D01*
X43101939Y-38035000D01*
X43301898Y-37995226D01*
X43490256Y-37917205D01*
X43659774Y-37803937D01*
X43803937Y-37659774D01*
X43917205Y-37490256D01*
X43995226Y-37301898D01*
X44035000Y-37101939D01*
X44035000Y-37035000D01*
X44101939Y-37035000D01*
X44301898Y-36995226D01*
X44490256Y-36917205D01*
X44659774Y-36803937D01*
X44803937Y-36659774D01*
X44917205Y-36490256D01*
X44995226Y-36301898D01*
X45035000Y-36101939D01*
X45035000Y-36035000D01*
X45101939Y-36035000D01*
X45301898Y-35995226D01*
X45490256Y-35917205D01*
X45659774Y-35803937D01*
X45803937Y-35659774D01*
X45917205Y-35490256D01*
X45995226Y-35301898D01*
X46035000Y-35101939D01*
X46035000Y-35035000D01*
X46101939Y-35035000D01*
X46301898Y-34995226D01*
X46490256Y-34917205D01*
X46659774Y-34803937D01*
X46803937Y-34659774D01*
X46917205Y-34490256D01*
X46943339Y-34427165D01*
X46943338Y-34598657D01*
G37*
X46943338Y-34598657D02*
X46301328Y-35240667D01*
X46221976Y-35337358D01*
X46163011Y-35447672D01*
X46152866Y-35481114D01*
X46119424Y-35491259D01*
X46009110Y-35550224D01*
X45912419Y-35629576D01*
X44144652Y-37397343D01*
X44065300Y-37494034D01*
X44006335Y-37604348D01*
X43970025Y-37724046D01*
X43957765Y-37848528D01*
X43970025Y-37973010D01*
X44006335Y-38092708D01*
X44065300Y-38203022D01*
X44122341Y-38272527D01*
X43529869Y-38865000D01*
X42934625Y-38865000D01*
X42925812Y-38775518D01*
X42889502Y-38655820D01*
X42830537Y-38545506D01*
X42751185Y-38448815D01*
X42654494Y-38369463D01*
X42544180Y-38310498D01*
X42424482Y-38274188D01*
X42300000Y-38261928D01*
X40750000Y-38261928D01*
X40625518Y-38274188D01*
X40505820Y-38310498D01*
X40475000Y-38326972D01*
X40444180Y-38310498D01*
X40324482Y-38274188D01*
X40200000Y-38261928D01*
X38817060Y-38261928D01*
X38397010Y-37841879D01*
X38509744Y-37917205D01*
X38698102Y-37995226D01*
X38898061Y-38035000D01*
X39101939Y-38035000D01*
X39301898Y-37995226D01*
X39490256Y-37917205D01*
X39500000Y-37910694D01*
X39509744Y-37917205D01*
X39698102Y-37995226D01*
X39898061Y-38035000D01*
X40101939Y-38035000D01*
X40301898Y-37995226D01*
X40490256Y-37917205D01*
X40500000Y-37910694D01*
X40509744Y-37917205D01*
X40698102Y-37995226D01*
X40898061Y-38035000D01*
X41101939Y-38035000D01*
X41301898Y-37995226D01*
X41490256Y-37917205D01*
X41500000Y-37910694D01*
X41509744Y-37917205D01*
X41698102Y-37995226D01*
X41898061Y-38035000D01*
X42101939Y-38035000D01*
X42301898Y-37995226D01*
X42490256Y-37917205D01*
X42500000Y-37910694D01*
X42509744Y-37917205D01*
X42698102Y-37995226D01*
X42898061Y-38035000D01*
X43101939Y-38035000D01*
X43301898Y-37995226D01*
X43490256Y-37917205D01*
X43659774Y-37803937D01*
X43803937Y-37659774D01*
X43917205Y-37490256D01*
X43995226Y-37301898D01*
X44035000Y-37101939D01*
X44035000Y-37035000D01*
X44101939Y-37035000D01*
X44301898Y-36995226D01*
X44490256Y-36917205D01*
X44659774Y-36803937D01*
X44803937Y-36659774D01*
X44917205Y-36490256D01*
X44995226Y-36301898D01*
X45035000Y-36101939D01*
X45035000Y-36035000D01*
X45101939Y-36035000D01*
X45301898Y-35995226D01*
X45490256Y-35917205D01*
X45659774Y-35803937D01*
X45803937Y-35659774D01*
X45917205Y-35490256D01*
X45995226Y-35301898D01*
X46035000Y-35101939D01*
X46035000Y-35035000D01*
X46101939Y-35035000D01*
X46301898Y-34995226D01*
X46490256Y-34917205D01*
X46659774Y-34803937D01*
X46803937Y-34659774D01*
X46917205Y-34490256D01*
X46943339Y-34427165D01*
X46943338Y-34598657D01*
G36*
X37509744Y-36917205D02*
G01*
X37698102Y-36995226D01*
X37898061Y-37035000D01*
X37965000Y-37035000D01*
X37965000Y-37101939D01*
X38004774Y-37301898D01*
X38082795Y-37490256D01*
X38158121Y-37602990D01*
X37870334Y-37315203D01*
X37834787Y-37271889D01*
X37661961Y-37130054D01*
X37464785Y-37024662D01*
X37329736Y-36983695D01*
X37490256Y-36917205D01*
X37500000Y-36910694D01*
X37509744Y-36917205D01*
G37*
X37509744Y-36917205D02*
X37698102Y-36995226D01*
X37898061Y-37035000D01*
X37965000Y-37035000D01*
X37965000Y-37101939D01*
X38004774Y-37301898D01*
X38082795Y-37490256D01*
X38158121Y-37602990D01*
X37870334Y-37315203D01*
X37834787Y-37271889D01*
X37661961Y-37130054D01*
X37464785Y-37024662D01*
X37329736Y-36983695D01*
X37490256Y-36917205D01*
X37500000Y-36910694D01*
X37509744Y-36917205D01*
G36*
X33082795Y-27490256D02*
G01*
X33089306Y-27500000D01*
X33082795Y-27509744D01*
X33004774Y-27698102D01*
X32965000Y-27898061D01*
X32965000Y-28101939D01*
X33004774Y-28301898D01*
X33082795Y-28490256D01*
X33089306Y-28500000D01*
X33082795Y-28509744D01*
X33004774Y-28698102D01*
X32965000Y-28898061D01*
X32965000Y-29101939D01*
X33004774Y-29301898D01*
X33082795Y-29490256D01*
X33089306Y-29500000D01*
X33082795Y-29509744D01*
X33004774Y-29698102D01*
X32965000Y-29898061D01*
X32965000Y-30101939D01*
X33004774Y-30301898D01*
X33082795Y-30490256D01*
X33089306Y-30500000D01*
X33082795Y-30509744D01*
X33004774Y-30698102D01*
X32965000Y-30898061D01*
X32965000Y-31101939D01*
X33004774Y-31301898D01*
X33082795Y-31490256D01*
X33089306Y-31500000D01*
X33082795Y-31509744D01*
X33004774Y-31698102D01*
X32965000Y-31898061D01*
X32965000Y-32101939D01*
X33004774Y-32301898D01*
X33082795Y-32490256D01*
X33089306Y-32500000D01*
X33082795Y-32509744D01*
X33004774Y-32698102D01*
X32965000Y-32898061D01*
X32965000Y-33101939D01*
X33004774Y-33301898D01*
X33082795Y-33490256D01*
X33089306Y-33500000D01*
X33082795Y-33509744D01*
X33004774Y-33698102D01*
X32965000Y-33898061D01*
X32965000Y-34101939D01*
X33004774Y-34301898D01*
X33082795Y-34490256D01*
X33196063Y-34659774D01*
X33340226Y-34803937D01*
X33509744Y-34917205D01*
X33698102Y-34995226D01*
X33898061Y-35035000D01*
X33965000Y-35035000D01*
X33965000Y-35101939D01*
X34004774Y-35301898D01*
X34082795Y-35490256D01*
X34196063Y-35659774D01*
X34340226Y-35803937D01*
X34509744Y-35917205D01*
X34698102Y-35995226D01*
X34898061Y-36035000D01*
X34965000Y-36035000D01*
X34965000Y-36101939D01*
X35004774Y-36301898D01*
X35082795Y-36490256D01*
X35196063Y-36659774D01*
X35340226Y-36803937D01*
X35509744Y-36917205D01*
X35572834Y-36943338D01*
X35401343Y-36943338D01*
X34759333Y-36301328D01*
X34662642Y-36221976D01*
X34552328Y-36163011D01*
X34518886Y-36152866D01*
X34508741Y-36119424D01*
X34449776Y-36009110D01*
X34370424Y-35912419D01*
X32602657Y-34144652D01*
X32505966Y-34065300D01*
X32395652Y-34006335D01*
X32275954Y-33970025D01*
X32151472Y-33957765D01*
X32026990Y-33970025D01*
X31907292Y-34006335D01*
X31796978Y-34065300D01*
X31727473Y-34122341D01*
X31135000Y-33529869D01*
X31135000Y-32934625D01*
X31224482Y-32925812D01*
X31344180Y-32889502D01*
X31454494Y-32830537D01*
X31551185Y-32751185D01*
X31630537Y-32654494D01*
X31689502Y-32544180D01*
X31725812Y-32424482D01*
X31738072Y-32300000D01*
X31738072Y-30750000D01*
X31725812Y-30625518D01*
X31689502Y-30505820D01*
X31673028Y-30475000D01*
X31689502Y-30444180D01*
X31725812Y-30324482D01*
X31738072Y-30200000D01*
X31738072Y-28817059D01*
X32684803Y-27870329D01*
X32728111Y-27834787D01*
X32869946Y-27661961D01*
X32975338Y-27464785D01*
X33016305Y-27329736D01*
X33082795Y-27490256D01*
G37*
X33082795Y-27490256D02*
X33089306Y-27500000D01*
X33082795Y-27509744D01*
X33004774Y-27698102D01*
X32965000Y-27898061D01*
X32965000Y-28101939D01*
X33004774Y-28301898D01*
X33082795Y-28490256D01*
X33089306Y-28500000D01*
X33082795Y-28509744D01*
X33004774Y-28698102D01*
X32965000Y-28898061D01*
X32965000Y-29101939D01*
X33004774Y-29301898D01*
X33082795Y-29490256D01*
X33089306Y-29500000D01*
X33082795Y-29509744D01*
X33004774Y-29698102D01*
X32965000Y-29898061D01*
X32965000Y-30101939D01*
X33004774Y-30301898D01*
X33082795Y-30490256D01*
X33089306Y-30500000D01*
X33082795Y-30509744D01*
X33004774Y-30698102D01*
X32965000Y-30898061D01*
X32965000Y-31101939D01*
X33004774Y-31301898D01*
X33082795Y-31490256D01*
X33089306Y-31500000D01*
X33082795Y-31509744D01*
X33004774Y-31698102D01*
X32965000Y-31898061D01*
X32965000Y-32101939D01*
X33004774Y-32301898D01*
X33082795Y-32490256D01*
X33089306Y-32500000D01*
X33082795Y-32509744D01*
X33004774Y-32698102D01*
X32965000Y-32898061D01*
X32965000Y-33101939D01*
X33004774Y-33301898D01*
X33082795Y-33490256D01*
X33089306Y-33500000D01*
X33082795Y-33509744D01*
X33004774Y-33698102D01*
X32965000Y-33898061D01*
X32965000Y-34101939D01*
X33004774Y-34301898D01*
X33082795Y-34490256D01*
X33196063Y-34659774D01*
X33340226Y-34803937D01*
X33509744Y-34917205D01*
X33698102Y-34995226D01*
X33898061Y-35035000D01*
X33965000Y-35035000D01*
X33965000Y-35101939D01*
X34004774Y-35301898D01*
X34082795Y-35490256D01*
X34196063Y-35659774D01*
X34340226Y-35803937D01*
X34509744Y-35917205D01*
X34698102Y-35995226D01*
X34898061Y-36035000D01*
X34965000Y-36035000D01*
X34965000Y-36101939D01*
X35004774Y-36301898D01*
X35082795Y-36490256D01*
X35196063Y-36659774D01*
X35340226Y-36803937D01*
X35509744Y-36917205D01*
X35572834Y-36943338D01*
X35401343Y-36943338D01*
X34759333Y-36301328D01*
X34662642Y-36221976D01*
X34552328Y-36163011D01*
X34518886Y-36152866D01*
X34508741Y-36119424D01*
X34449776Y-36009110D01*
X34370424Y-35912419D01*
X32602657Y-34144652D01*
X32505966Y-34065300D01*
X32395652Y-34006335D01*
X32275954Y-33970025D01*
X32151472Y-33957765D01*
X32026990Y-33970025D01*
X31907292Y-34006335D01*
X31796978Y-34065300D01*
X31727473Y-34122341D01*
X31135000Y-33529869D01*
X31135000Y-32934625D01*
X31224482Y-32925812D01*
X31344180Y-32889502D01*
X31454494Y-32830537D01*
X31551185Y-32751185D01*
X31630537Y-32654494D01*
X31689502Y-32544180D01*
X31725812Y-32424482D01*
X31738072Y-32300000D01*
X31738072Y-30750000D01*
X31725812Y-30625518D01*
X31689502Y-30505820D01*
X31673028Y-30475000D01*
X31689502Y-30444180D01*
X31725812Y-30324482D01*
X31738072Y-30200000D01*
X31738072Y-28817059D01*
X32684803Y-27870329D01*
X32728111Y-27834787D01*
X32869946Y-27661961D01*
X32975338Y-27464785D01*
X33016305Y-27329736D01*
X33082795Y-27490256D01*
G36*
X36509744Y-36917205D02*
G01*
X36572834Y-36943338D01*
X36427166Y-36943338D01*
X36490256Y-36917205D01*
X36500000Y-36910694D01*
X36509744Y-36917205D01*
G37*
X36509744Y-36917205D02*
X36572834Y-36943338D01*
X36427166Y-36943338D01*
X36490256Y-36917205D01*
X36500000Y-36910694D01*
X36509744Y-36917205D01*
G36*
X48274188Y-29675518D02*
G01*
X48261928Y-29800000D01*
X48261928Y-31182940D01*
X47841879Y-31602990D01*
X47917205Y-31490256D01*
X47995226Y-31301898D01*
X48035000Y-31101939D01*
X48035000Y-30898061D01*
X47995226Y-30698102D01*
X47917205Y-30509744D01*
X47803937Y-30340226D01*
X47659774Y-30196063D01*
X47490256Y-30082795D01*
X47301898Y-30004774D01*
X47101939Y-29965000D01*
X46898061Y-29965000D01*
X46698102Y-30004774D01*
X46509744Y-30082795D01*
X46340226Y-30196063D01*
X46196063Y-30340226D01*
X46082795Y-30509744D01*
X46004774Y-30698102D01*
X45965000Y-30898061D01*
X45965000Y-30965000D01*
X45898061Y-30965000D01*
X45698102Y-31004774D01*
X45509744Y-31082795D01*
X45340226Y-31196063D01*
X45196063Y-31340226D01*
X45082795Y-31509744D01*
X45004774Y-31698102D01*
X44965000Y-31898061D01*
X44965000Y-32101939D01*
X45004774Y-32301898D01*
X45082795Y-32490256D01*
X45089306Y-32500000D01*
X45082795Y-32509744D01*
X45004774Y-32698102D01*
X44965000Y-32898061D01*
X44965000Y-33101939D01*
X45004774Y-33301898D01*
X45082795Y-33490256D01*
X45089306Y-33500000D01*
X45082795Y-33509744D01*
X45004774Y-33698102D01*
X44965000Y-33898061D01*
X44965000Y-33965000D01*
X44898061Y-33965000D01*
X44698102Y-34004774D01*
X44509744Y-34082795D01*
X44340226Y-34196063D01*
X44196063Y-34340226D01*
X44082795Y-34509744D01*
X44004774Y-34698102D01*
X43965000Y-34898061D01*
X43965000Y-34965000D01*
X43898061Y-34965000D01*
X43698102Y-35004774D01*
X43509744Y-35082795D01*
X43340226Y-35196063D01*
X43196063Y-35340226D01*
X43082795Y-35509744D01*
X43004774Y-35698102D01*
X42965000Y-35898061D01*
X42965000Y-35965000D01*
X42898061Y-35965000D01*
X42698102Y-36004774D01*
X42509744Y-36082795D01*
X42500000Y-36089306D01*
X42490256Y-36082795D01*
X42301898Y-36004774D01*
X42101939Y-35965000D01*
X41898061Y-35965000D01*
X41698102Y-36004774D01*
X41509744Y-36082795D01*
X41500000Y-36089306D01*
X41490256Y-36082795D01*
X41301898Y-36004774D01*
X41236936Y-35991852D01*
X41243386Y-35988405D01*
X41377962Y-35877962D01*
X41488405Y-35743386D01*
X41570472Y-35589850D01*
X41621008Y-35423254D01*
X41638072Y-35250000D01*
X41638072Y-34750000D01*
X41621008Y-34576746D01*
X41570472Y-34410150D01*
X41488405Y-34256614D01*
X41377962Y-34122038D01*
X41243386Y-34011595D01*
X41089850Y-33929528D01*
X40923254Y-33878992D01*
X40750000Y-33861928D01*
X40467061Y-33861928D01*
X38738072Y-32132940D01*
X38738072Y-30750000D01*
X38725812Y-30625518D01*
X38689502Y-30505820D01*
X38673028Y-30475000D01*
X38689502Y-30444180D01*
X38725812Y-30324482D01*
X38738072Y-30200000D01*
X38738072Y-30085000D01*
X38919867Y-30085000D01*
X41123007Y-32288141D01*
X41158549Y-32331449D01*
X41274943Y-32426971D01*
X41310498Y-32544180D01*
X41369463Y-32654494D01*
X41448815Y-32751185D01*
X41545506Y-32830537D01*
X41655820Y-32889502D01*
X41775518Y-32925812D01*
X41900000Y-32938072D01*
X44100000Y-32938072D01*
X44224482Y-32925812D01*
X44344180Y-32889502D01*
X44454494Y-32830537D01*
X44551185Y-32751185D01*
X44630537Y-32654494D01*
X44689502Y-32544180D01*
X44725812Y-32424482D01*
X44738072Y-32300000D01*
X44738072Y-30750000D01*
X44725812Y-30625518D01*
X44689502Y-30505820D01*
X44673028Y-30475000D01*
X44689502Y-30444180D01*
X44725812Y-30324482D01*
X44738072Y-30200000D01*
X44738072Y-29610000D01*
X48294063Y-29610000D01*
X48274188Y-29675518D01*
G37*
X48274188Y-29675518D02*
X48261928Y-29800000D01*
X48261928Y-31182940D01*
X47841879Y-31602990D01*
X47917205Y-31490256D01*
X47995226Y-31301898D01*
X48035000Y-31101939D01*
X48035000Y-30898061D01*
X47995226Y-30698102D01*
X47917205Y-30509744D01*
X47803937Y-30340226D01*
X47659774Y-30196063D01*
X47490256Y-30082795D01*
X47301898Y-30004774D01*
X47101939Y-29965000D01*
X46898061Y-29965000D01*
X46698102Y-30004774D01*
X46509744Y-30082795D01*
X46340226Y-30196063D01*
X46196063Y-30340226D01*
X46082795Y-30509744D01*
X46004774Y-30698102D01*
X45965000Y-30898061D01*
X45965000Y-30965000D01*
X45898061Y-30965000D01*
X45698102Y-31004774D01*
X45509744Y-31082795D01*
X45340226Y-31196063D01*
X45196063Y-31340226D01*
X45082795Y-31509744D01*
X45004774Y-31698102D01*
X44965000Y-31898061D01*
X44965000Y-32101939D01*
X45004774Y-32301898D01*
X45082795Y-32490256D01*
X45089306Y-32500000D01*
X45082795Y-32509744D01*
X45004774Y-32698102D01*
X44965000Y-32898061D01*
X44965000Y-33101939D01*
X45004774Y-33301898D01*
X45082795Y-33490256D01*
X45089306Y-33500000D01*
X45082795Y-33509744D01*
X45004774Y-33698102D01*
X44965000Y-33898061D01*
X44965000Y-33965000D01*
X44898061Y-33965000D01*
X44698102Y-34004774D01*
X44509744Y-34082795D01*
X44340226Y-34196063D01*
X44196063Y-34340226D01*
X44082795Y-34509744D01*
X44004774Y-34698102D01*
X43965000Y-34898061D01*
X43965000Y-34965000D01*
X43898061Y-34965000D01*
X43698102Y-35004774D01*
X43509744Y-35082795D01*
X43340226Y-35196063D01*
X43196063Y-35340226D01*
X43082795Y-35509744D01*
X43004774Y-35698102D01*
X42965000Y-35898061D01*
X42965000Y-35965000D01*
X42898061Y-35965000D01*
X42698102Y-36004774D01*
X42509744Y-36082795D01*
X42500000Y-36089306D01*
X42490256Y-36082795D01*
X42301898Y-36004774D01*
X42101939Y-35965000D01*
X41898061Y-35965000D01*
X41698102Y-36004774D01*
X41509744Y-36082795D01*
X41500000Y-36089306D01*
X41490256Y-36082795D01*
X41301898Y-36004774D01*
X41236936Y-35991852D01*
X41243386Y-35988405D01*
X41377962Y-35877962D01*
X41488405Y-35743386D01*
X41570472Y-35589850D01*
X41621008Y-35423254D01*
X41638072Y-35250000D01*
X41638072Y-34750000D01*
X41621008Y-34576746D01*
X41570472Y-34410150D01*
X41488405Y-34256614D01*
X41377962Y-34122038D01*
X41243386Y-34011595D01*
X41089850Y-33929528D01*
X40923254Y-33878992D01*
X40750000Y-33861928D01*
X40467061Y-33861928D01*
X38738072Y-32132940D01*
X38738072Y-30750000D01*
X38725812Y-30625518D01*
X38689502Y-30505820D01*
X38673028Y-30475000D01*
X38689502Y-30444180D01*
X38725812Y-30324482D01*
X38738072Y-30200000D01*
X38738072Y-30085000D01*
X38919867Y-30085000D01*
X41123007Y-32288141D01*
X41158549Y-32331449D01*
X41274943Y-32426971D01*
X41310498Y-32544180D01*
X41369463Y-32654494D01*
X41448815Y-32751185D01*
X41545506Y-32830537D01*
X41655820Y-32889502D01*
X41775518Y-32925812D01*
X41900000Y-32938072D01*
X44100000Y-32938072D01*
X44224482Y-32925812D01*
X44344180Y-32889502D01*
X44454494Y-32830537D01*
X44551185Y-32751185D01*
X44630537Y-32654494D01*
X44689502Y-32544180D01*
X44725812Y-32424482D01*
X44738072Y-32300000D01*
X44738072Y-30750000D01*
X44725812Y-30625518D01*
X44689502Y-30505820D01*
X44673028Y-30475000D01*
X44689502Y-30444180D01*
X44725812Y-30324482D01*
X44738072Y-30200000D01*
X44738072Y-29610000D01*
X48294063Y-29610000D01*
X48274188Y-29675518D01*
G36*
X27898061Y-35035000D02*
G01*
X27965000Y-35035000D01*
X27965000Y-35101939D01*
X27998058Y-35268135D01*
X27834161Y-35022290D01*
X27898061Y-35035000D01*
G37*
X27898061Y-35035000D02*
X27965000Y-35035000D01*
X27965000Y-35101939D01*
X27998058Y-35268135D01*
X27834161Y-35022290D01*
X27898061Y-35035000D01*
G36*
X50965000Y-32965000D02*
G01*
X50898061Y-32965000D01*
X50698102Y-33004774D01*
X50509744Y-33082795D01*
X50340226Y-33196063D01*
X50196063Y-33340226D01*
X50082795Y-33509744D01*
X50004774Y-33698102D01*
X49965000Y-33898061D01*
X49965000Y-34101939D01*
X50004774Y-34301898D01*
X50082795Y-34490256D01*
X50089306Y-34500000D01*
X50082795Y-34509744D01*
X50004774Y-34698102D01*
X49965000Y-34898061D01*
X49965000Y-34965000D01*
X49898061Y-34965000D01*
X49698102Y-35004774D01*
X49509744Y-35082795D01*
X49346759Y-35191698D01*
X49213338Y-35058277D01*
X49213338Y-33441793D01*
X49717059Y-32938072D01*
X50965000Y-32938072D01*
X50965000Y-32965000D01*
G37*
X50965000Y-32965000D02*
X50898061Y-32965000D01*
X50698102Y-33004774D01*
X50509744Y-33082795D01*
X50340226Y-33196063D01*
X50196063Y-33340226D01*
X50082795Y-33509744D01*
X50004774Y-33698102D01*
X49965000Y-33898061D01*
X49965000Y-34101939D01*
X50004774Y-34301898D01*
X50082795Y-34490256D01*
X50089306Y-34500000D01*
X50082795Y-34509744D01*
X50004774Y-34698102D01*
X49965000Y-34898061D01*
X49965000Y-34965000D01*
X49898061Y-34965000D01*
X49698102Y-35004774D01*
X49509744Y-35082795D01*
X49346759Y-35191698D01*
X49213338Y-35058277D01*
X49213338Y-33441793D01*
X49717059Y-32938072D01*
X50965000Y-32938072D01*
X50965000Y-32965000D01*
G36*
X38509744Y-23917205D02*
G01*
X38698102Y-23995226D01*
X38763064Y-24008148D01*
X38756614Y-24011595D01*
X38622038Y-24122038D01*
X38511595Y-24256614D01*
X38429528Y-24410150D01*
X38378992Y-24576746D01*
X38361928Y-24750000D01*
X38361928Y-25250000D01*
X38378992Y-25423254D01*
X38429528Y-25589850D01*
X38511595Y-25743386D01*
X38622038Y-25877962D01*
X38756614Y-25988405D01*
X38910150Y-26070472D01*
X39076746Y-26121008D01*
X39250000Y-26138072D01*
X40750000Y-26138072D01*
X40781191Y-26135000D01*
X46379173Y-26135000D01*
X46434924Y-26140491D01*
X46490675Y-26135000D01*
X46490676Y-26135000D01*
X46657423Y-26118577D01*
X46871371Y-26053676D01*
X47068547Y-25948284D01*
X47241373Y-25806449D01*
X47267098Y-25775103D01*
X47347343Y-25855348D01*
X47444034Y-25934700D01*
X47554348Y-25993665D01*
X47674046Y-26029975D01*
X47798528Y-26042235D01*
X47923010Y-26029975D01*
X48042708Y-25993665D01*
X48153022Y-25934700D01*
X48249713Y-25855348D01*
X49320675Y-24784386D01*
X49340226Y-24803937D01*
X49509744Y-24917205D01*
X49698102Y-24995226D01*
X49898061Y-25035000D01*
X49965000Y-25035000D01*
X49965000Y-25101939D01*
X50004774Y-25301898D01*
X50082795Y-25490256D01*
X50089306Y-25500000D01*
X50082795Y-25509744D01*
X50004774Y-25698102D01*
X49965000Y-25898061D01*
X49965000Y-26101939D01*
X50004774Y-26301898D01*
X50082795Y-26490256D01*
X50196063Y-26659774D01*
X50340226Y-26803937D01*
X50509744Y-26917205D01*
X50698102Y-26995226D01*
X50898061Y-27035000D01*
X50965000Y-27035000D01*
X50965000Y-27061928D01*
X48900000Y-27061928D01*
X48775518Y-27074188D01*
X48655820Y-27110498D01*
X48545506Y-27169463D01*
X48448815Y-27248815D01*
X48373982Y-27340000D01*
X44626018Y-27340000D01*
X44551185Y-27248815D01*
X44454494Y-27169463D01*
X44344180Y-27110498D01*
X44224482Y-27074188D01*
X44100000Y-27061928D01*
X41900000Y-27061928D01*
X41775518Y-27074188D01*
X41655820Y-27110498D01*
X41545506Y-27169463D01*
X41448815Y-27248815D01*
X41369463Y-27345506D01*
X41310498Y-27455820D01*
X41274188Y-27575518D01*
X41261928Y-27700000D01*
X41261928Y-29216799D01*
X40231994Y-28186865D01*
X40196447Y-28143551D01*
X40023621Y-28001716D01*
X39826445Y-27896324D01*
X39612497Y-27831423D01*
X39445750Y-27815000D01*
X39445749Y-27815000D01*
X39389998Y-27809509D01*
X39334247Y-27815000D01*
X38738072Y-27815000D01*
X38738072Y-27700000D01*
X38725812Y-27575518D01*
X38689502Y-27455820D01*
X38630537Y-27345506D01*
X38551185Y-27248815D01*
X38454494Y-27169463D01*
X38344180Y-27110498D01*
X38224482Y-27074188D01*
X38100000Y-27061928D01*
X35900000Y-27061928D01*
X35775518Y-27074188D01*
X35655820Y-27110498D01*
X35545506Y-27169463D01*
X35448815Y-27248815D01*
X35369463Y-27345506D01*
X35310498Y-27455820D01*
X35274188Y-27575518D01*
X35261928Y-27700000D01*
X35261928Y-30200000D01*
X35274188Y-30324482D01*
X35310498Y-30444180D01*
X35326972Y-30475000D01*
X35310498Y-30505820D01*
X35274188Y-30625518D01*
X35261928Y-30750000D01*
X35261928Y-32300000D01*
X35274188Y-32424482D01*
X35310498Y-32544180D01*
X35369463Y-32654494D01*
X35448815Y-32751185D01*
X35545506Y-32830537D01*
X35655820Y-32889502D01*
X35775518Y-32925812D01*
X35900000Y-32938072D01*
X36332941Y-32938072D01*
X38361928Y-34967060D01*
X38361928Y-35029639D01*
X38301898Y-35004774D01*
X38101939Y-34965000D01*
X37898061Y-34965000D01*
X37698102Y-35004774D01*
X37509744Y-35082795D01*
X37500000Y-35089306D01*
X37490256Y-35082795D01*
X37301898Y-35004774D01*
X37101939Y-34965000D01*
X36898061Y-34965000D01*
X36698102Y-35004774D01*
X36509744Y-35082795D01*
X36500000Y-35089306D01*
X36490256Y-35082795D01*
X36301898Y-35004774D01*
X36101939Y-34965000D01*
X36035000Y-34965000D01*
X36035000Y-34898061D01*
X35995226Y-34698102D01*
X35917205Y-34509744D01*
X35803937Y-34340226D01*
X35659774Y-34196063D01*
X35490256Y-34082795D01*
X35301898Y-34004774D01*
X35101939Y-33965000D01*
X35035000Y-33965000D01*
X35035000Y-33898061D01*
X34995226Y-33698102D01*
X34917205Y-33509744D01*
X34910694Y-33500000D01*
X34917205Y-33490256D01*
X34995226Y-33301898D01*
X35035000Y-33101939D01*
X35035000Y-32898061D01*
X34995226Y-32698102D01*
X34917205Y-32509744D01*
X34910694Y-32500000D01*
X34917205Y-32490256D01*
X34995226Y-32301898D01*
X35035000Y-32101939D01*
X35035000Y-31898061D01*
X34995226Y-31698102D01*
X34917205Y-31509744D01*
X34910694Y-31500000D01*
X34917205Y-31490256D01*
X34995226Y-31301898D01*
X35035000Y-31101939D01*
X35035000Y-30898061D01*
X34995226Y-30698102D01*
X34917205Y-30509744D01*
X34910694Y-30500000D01*
X34917205Y-30490256D01*
X34995226Y-30301898D01*
X35035000Y-30101939D01*
X35035000Y-29898061D01*
X34995226Y-29698102D01*
X34917205Y-29509744D01*
X34910694Y-29500000D01*
X34917205Y-29490256D01*
X34995226Y-29301898D01*
X35035000Y-29101939D01*
X35035000Y-28898061D01*
X34995226Y-28698102D01*
X34917205Y-28509744D01*
X34910694Y-28500000D01*
X34917205Y-28490256D01*
X34995226Y-28301898D01*
X35035000Y-28101939D01*
X35035000Y-27898061D01*
X34995226Y-27698102D01*
X34917205Y-27509744D01*
X34910694Y-27500000D01*
X34917205Y-27490256D01*
X34995226Y-27301898D01*
X35035000Y-27101939D01*
X35035000Y-26898061D01*
X34995226Y-26698102D01*
X34917205Y-26509744D01*
X34910694Y-26500000D01*
X34917205Y-26490256D01*
X34995226Y-26301898D01*
X35035000Y-26101939D01*
X35035000Y-26035000D01*
X35101939Y-26035000D01*
X35301898Y-25995226D01*
X35490256Y-25917205D01*
X35659774Y-25803937D01*
X35803937Y-25659774D01*
X35917205Y-25490256D01*
X35995226Y-25301898D01*
X36035000Y-25101939D01*
X36035000Y-25035000D01*
X36101939Y-25035000D01*
X36301898Y-24995226D01*
X36490256Y-24917205D01*
X36659774Y-24803937D01*
X36803937Y-24659774D01*
X36917205Y-24490256D01*
X36995226Y-24301898D01*
X37035000Y-24101939D01*
X37035000Y-24035000D01*
X37101939Y-24035000D01*
X37301898Y-23995226D01*
X37490256Y-23917205D01*
X37500000Y-23910694D01*
X37509744Y-23917205D01*
X37698102Y-23995226D01*
X37898061Y-24035000D01*
X38101939Y-24035000D01*
X38301898Y-23995226D01*
X38490256Y-23917205D01*
X38500000Y-23910694D01*
X38509744Y-23917205D01*
G37*
X38509744Y-23917205D02*
X38698102Y-23995226D01*
X38763064Y-24008148D01*
X38756614Y-24011595D01*
X38622038Y-24122038D01*
X38511595Y-24256614D01*
X38429528Y-24410150D01*
X38378992Y-24576746D01*
X38361928Y-24750000D01*
X38361928Y-25250000D01*
X38378992Y-25423254D01*
X38429528Y-25589850D01*
X38511595Y-25743386D01*
X38622038Y-25877962D01*
X38756614Y-25988405D01*
X38910150Y-26070472D01*
X39076746Y-26121008D01*
X39250000Y-26138072D01*
X40750000Y-26138072D01*
X40781191Y-26135000D01*
X46379173Y-26135000D01*
X46434924Y-26140491D01*
X46490675Y-26135000D01*
X46490676Y-26135000D01*
X46657423Y-26118577D01*
X46871371Y-26053676D01*
X47068547Y-25948284D01*
X47241373Y-25806449D01*
X47267098Y-25775103D01*
X47347343Y-25855348D01*
X47444034Y-25934700D01*
X47554348Y-25993665D01*
X47674046Y-26029975D01*
X47798528Y-26042235D01*
X47923010Y-26029975D01*
X48042708Y-25993665D01*
X48153022Y-25934700D01*
X48249713Y-25855348D01*
X49320675Y-24784386D01*
X49340226Y-24803937D01*
X49509744Y-24917205D01*
X49698102Y-24995226D01*
X49898061Y-25035000D01*
X49965000Y-25035000D01*
X49965000Y-25101939D01*
X50004774Y-25301898D01*
X50082795Y-25490256D01*
X50089306Y-25500000D01*
X50082795Y-25509744D01*
X50004774Y-25698102D01*
X49965000Y-25898061D01*
X49965000Y-26101939D01*
X50004774Y-26301898D01*
X50082795Y-26490256D01*
X50196063Y-26659774D01*
X50340226Y-26803937D01*
X50509744Y-26917205D01*
X50698102Y-26995226D01*
X50898061Y-27035000D01*
X50965000Y-27035000D01*
X50965000Y-27061928D01*
X48900000Y-27061928D01*
X48775518Y-27074188D01*
X48655820Y-27110498D01*
X48545506Y-27169463D01*
X48448815Y-27248815D01*
X48373982Y-27340000D01*
X44626018Y-27340000D01*
X44551185Y-27248815D01*
X44454494Y-27169463D01*
X44344180Y-27110498D01*
X44224482Y-27074188D01*
X44100000Y-27061928D01*
X41900000Y-27061928D01*
X41775518Y-27074188D01*
X41655820Y-27110498D01*
X41545506Y-27169463D01*
X41448815Y-27248815D01*
X41369463Y-27345506D01*
X41310498Y-27455820D01*
X41274188Y-27575518D01*
X41261928Y-27700000D01*
X41261928Y-29216799D01*
X40231994Y-28186865D01*
X40196447Y-28143551D01*
X40023621Y-28001716D01*
X39826445Y-27896324D01*
X39612497Y-27831423D01*
X39445750Y-27815000D01*
X39445749Y-27815000D01*
X39389998Y-27809509D01*
X39334247Y-27815000D01*
X38738072Y-27815000D01*
X38738072Y-27700000D01*
X38725812Y-27575518D01*
X38689502Y-27455820D01*
X38630537Y-27345506D01*
X38551185Y-27248815D01*
X38454494Y-27169463D01*
X38344180Y-27110498D01*
X38224482Y-27074188D01*
X38100000Y-27061928D01*
X35900000Y-27061928D01*
X35775518Y-27074188D01*
X35655820Y-27110498D01*
X35545506Y-27169463D01*
X35448815Y-27248815D01*
X35369463Y-27345506D01*
X35310498Y-27455820D01*
X35274188Y-27575518D01*
X35261928Y-27700000D01*
X35261928Y-30200000D01*
X35274188Y-30324482D01*
X35310498Y-30444180D01*
X35326972Y-30475000D01*
X35310498Y-30505820D01*
X35274188Y-30625518D01*
X35261928Y-30750000D01*
X35261928Y-32300000D01*
X35274188Y-32424482D01*
X35310498Y-32544180D01*
X35369463Y-32654494D01*
X35448815Y-32751185D01*
X35545506Y-32830537D01*
X35655820Y-32889502D01*
X35775518Y-32925812D01*
X35900000Y-32938072D01*
X36332941Y-32938072D01*
X38361928Y-34967060D01*
X38361928Y-35029639D01*
X38301898Y-35004774D01*
X38101939Y-34965000D01*
X37898061Y-34965000D01*
X37698102Y-35004774D01*
X37509744Y-35082795D01*
X37500000Y-35089306D01*
X37490256Y-35082795D01*
X37301898Y-35004774D01*
X37101939Y-34965000D01*
X36898061Y-34965000D01*
X36698102Y-35004774D01*
X36509744Y-35082795D01*
X36500000Y-35089306D01*
X36490256Y-35082795D01*
X36301898Y-35004774D01*
X36101939Y-34965000D01*
X36035000Y-34965000D01*
X36035000Y-34898061D01*
X35995226Y-34698102D01*
X35917205Y-34509744D01*
X35803937Y-34340226D01*
X35659774Y-34196063D01*
X35490256Y-34082795D01*
X35301898Y-34004774D01*
X35101939Y-33965000D01*
X35035000Y-33965000D01*
X35035000Y-33898061D01*
X34995226Y-33698102D01*
X34917205Y-33509744D01*
X34910694Y-33500000D01*
X34917205Y-33490256D01*
X34995226Y-33301898D01*
X35035000Y-33101939D01*
X35035000Y-32898061D01*
X34995226Y-32698102D01*
X34917205Y-32509744D01*
X34910694Y-32500000D01*
X34917205Y-32490256D01*
X34995226Y-32301898D01*
X35035000Y-32101939D01*
X35035000Y-31898061D01*
X34995226Y-31698102D01*
X34917205Y-31509744D01*
X34910694Y-31500000D01*
X34917205Y-31490256D01*
X34995226Y-31301898D01*
X35035000Y-31101939D01*
X35035000Y-30898061D01*
X34995226Y-30698102D01*
X34917205Y-30509744D01*
X34910694Y-30500000D01*
X34917205Y-30490256D01*
X34995226Y-30301898D01*
X35035000Y-30101939D01*
X35035000Y-29898061D01*
X34995226Y-29698102D01*
X34917205Y-29509744D01*
X34910694Y-29500000D01*
X34917205Y-29490256D01*
X34995226Y-29301898D01*
X35035000Y-29101939D01*
X35035000Y-28898061D01*
X34995226Y-28698102D01*
X34917205Y-28509744D01*
X34910694Y-28500000D01*
X34917205Y-28490256D01*
X34995226Y-28301898D01*
X35035000Y-28101939D01*
X35035000Y-27898061D01*
X34995226Y-27698102D01*
X34917205Y-27509744D01*
X34910694Y-27500000D01*
X34917205Y-27490256D01*
X34995226Y-27301898D01*
X35035000Y-27101939D01*
X35035000Y-26898061D01*
X34995226Y-26698102D01*
X34917205Y-26509744D01*
X34910694Y-26500000D01*
X34917205Y-26490256D01*
X34995226Y-26301898D01*
X35035000Y-26101939D01*
X35035000Y-26035000D01*
X35101939Y-26035000D01*
X35301898Y-25995226D01*
X35490256Y-25917205D01*
X35659774Y-25803937D01*
X35803937Y-25659774D01*
X35917205Y-25490256D01*
X35995226Y-25301898D01*
X36035000Y-25101939D01*
X36035000Y-25035000D01*
X36101939Y-25035000D01*
X36301898Y-24995226D01*
X36490256Y-24917205D01*
X36659774Y-24803937D01*
X36803937Y-24659774D01*
X36917205Y-24490256D01*
X36995226Y-24301898D01*
X37035000Y-24101939D01*
X37035000Y-24035000D01*
X37101939Y-24035000D01*
X37301898Y-23995226D01*
X37490256Y-23917205D01*
X37500000Y-23910694D01*
X37509744Y-23917205D01*
X37698102Y-23995226D01*
X37898061Y-24035000D01*
X38101939Y-24035000D01*
X38301898Y-23995226D01*
X38490256Y-23917205D01*
X38500000Y-23910694D01*
X38509744Y-23917205D01*
G36*
X46943339Y-33572836D02*
G01*
X46917205Y-33509744D01*
X46910694Y-33500000D01*
X46917205Y-33490256D01*
X46943339Y-33427164D01*
X46943339Y-33572836D01*
G37*
X46943339Y-33572836D02*
X46917205Y-33509744D01*
X46910694Y-33500000D01*
X46917205Y-33490256D01*
X46943339Y-33427164D01*
X46943339Y-33572836D01*
G36*
X47315198Y-32129671D02*
G01*
X47271890Y-32165213D01*
X47130055Y-32338039D01*
X47114582Y-32366988D01*
X47024662Y-32535216D01*
X46983695Y-32670264D01*
X46917205Y-32509744D01*
X46910694Y-32500000D01*
X46917205Y-32490256D01*
X46995226Y-32301898D01*
X47035000Y-32101939D01*
X47035000Y-32035000D01*
X47101939Y-32035000D01*
X47301898Y-31995226D01*
X47490256Y-31917205D01*
X47602990Y-31841879D01*
X47315198Y-32129671D01*
G37*
X47315198Y-32129671D02*
X47271890Y-32165213D01*
X47130055Y-32338039D01*
X47114582Y-32366988D01*
X47024662Y-32535216D01*
X46983695Y-32670264D01*
X46917205Y-32509744D01*
X46910694Y-32500000D01*
X46917205Y-32490256D01*
X46995226Y-32301898D01*
X47035000Y-32101939D01*
X47035000Y-32035000D01*
X47101939Y-32035000D01*
X47301898Y-31995226D01*
X47490256Y-31917205D01*
X47602990Y-31841879D01*
X47315198Y-32129671D01*
G36*
X30065300Y-24203022D02*
G01*
X30144652Y-24299713D01*
X30786662Y-24941723D01*
X30786663Y-26558205D01*
X30282940Y-27061928D01*
X29035000Y-27061928D01*
X29035000Y-26898061D01*
X28995226Y-26698102D01*
X28917205Y-26509744D01*
X28910694Y-26500000D01*
X28917205Y-26490256D01*
X28995226Y-26301898D01*
X29035000Y-26101939D01*
X29035000Y-26035000D01*
X29101939Y-26035000D01*
X29301898Y-25995226D01*
X29490256Y-25917205D01*
X29659774Y-25803937D01*
X29803937Y-25659774D01*
X29917205Y-25490256D01*
X29995226Y-25301898D01*
X30035000Y-25101939D01*
X30035000Y-24898061D01*
X29995226Y-24698102D01*
X29917205Y-24509744D01*
X29910694Y-24500000D01*
X29917205Y-24490256D01*
X29995226Y-24301898D01*
X30028564Y-24134295D01*
X30065300Y-24203022D01*
G37*
X30065300Y-24203022D02*
X30144652Y-24299713D01*
X30786662Y-24941723D01*
X30786663Y-26558205D01*
X30282940Y-27061928D01*
X29035000Y-27061928D01*
X29035000Y-26898061D01*
X28995226Y-26698102D01*
X28917205Y-26509744D01*
X28910694Y-26500000D01*
X28917205Y-26490256D01*
X28995226Y-26301898D01*
X29035000Y-26101939D01*
X29035000Y-26035000D01*
X29101939Y-26035000D01*
X29301898Y-25995226D01*
X29490256Y-25917205D01*
X29659774Y-25803937D01*
X29803937Y-25659774D01*
X29917205Y-25490256D01*
X29995226Y-25301898D01*
X30035000Y-25101939D01*
X30035000Y-24898061D01*
X29995226Y-24698102D01*
X29917205Y-24509744D01*
X29910694Y-24500000D01*
X29917205Y-24490256D01*
X29995226Y-24301898D01*
X30028564Y-24134295D01*
X30065300Y-24203022D01*
G36*
X33082795Y-26490256D02*
G01*
X33089306Y-26500000D01*
X33082795Y-26509744D01*
X33056662Y-26572834D01*
X33056662Y-26427166D01*
X33082795Y-26490256D01*
G37*
X33082795Y-26490256D02*
X33089306Y-26500000D01*
X33082795Y-26509744D01*
X33056662Y-26572834D01*
X33056662Y-26427166D01*
X33082795Y-26490256D01*
G36*
X37599188Y-21224482D02*
G01*
X37635498Y-21344180D01*
X37694463Y-21454494D01*
X37773815Y-21551185D01*
X37870506Y-21630537D01*
X37980820Y-21689502D01*
X38100518Y-21725812D01*
X38225000Y-21738072D01*
X39775000Y-21738072D01*
X39899482Y-21725812D01*
X40019180Y-21689502D01*
X40050000Y-21673028D01*
X40080820Y-21689502D01*
X40200518Y-21725812D01*
X40325000Y-21738072D01*
X41707941Y-21738072D01*
X41934868Y-21965000D01*
X41898061Y-21965000D01*
X41698102Y-22004774D01*
X41509744Y-22082795D01*
X41500000Y-22089306D01*
X41490256Y-22082795D01*
X41301898Y-22004774D01*
X41101939Y-21965000D01*
X40898061Y-21965000D01*
X40698102Y-22004774D01*
X40509744Y-22082795D01*
X40500000Y-22089306D01*
X40490256Y-22082795D01*
X40301898Y-22004774D01*
X40101939Y-21965000D01*
X39898061Y-21965000D01*
X39698102Y-22004774D01*
X39509744Y-22082795D01*
X39500000Y-22089306D01*
X39490256Y-22082795D01*
X39301898Y-22004774D01*
X39101939Y-21965000D01*
X38898061Y-21965000D01*
X38698102Y-22004774D01*
X38509744Y-22082795D01*
X38500000Y-22089306D01*
X38490256Y-22082795D01*
X38301898Y-22004774D01*
X38101939Y-21965000D01*
X37898061Y-21965000D01*
X37698102Y-22004774D01*
X37509744Y-22082795D01*
X37500000Y-22089306D01*
X37490256Y-22082795D01*
X37301898Y-22004774D01*
X37101939Y-21965000D01*
X36898061Y-21965000D01*
X36698102Y-22004774D01*
X36509744Y-22082795D01*
X36340226Y-22196063D01*
X36196063Y-22340226D01*
X36082795Y-22509744D01*
X36004774Y-22698102D01*
X35965000Y-22898061D01*
X35965000Y-22965000D01*
X35898061Y-22965000D01*
X35698102Y-23004774D01*
X35509744Y-23082795D01*
X35340226Y-23196063D01*
X35196063Y-23340226D01*
X35082795Y-23509744D01*
X35004774Y-23698102D01*
X34965000Y-23898061D01*
X34965000Y-23965000D01*
X34898061Y-23965000D01*
X34698102Y-24004774D01*
X34509744Y-24082795D01*
X34340226Y-24196063D01*
X34196063Y-24340226D01*
X34082795Y-24509744D01*
X34004774Y-24698102D01*
X33965000Y-24898061D01*
X33965000Y-24965000D01*
X33898061Y-24965000D01*
X33698102Y-25004774D01*
X33509744Y-25082795D01*
X33340226Y-25196063D01*
X33196063Y-25340226D01*
X33082795Y-25509744D01*
X33056662Y-25572834D01*
X33056662Y-25401343D01*
X33698672Y-24759333D01*
X33778024Y-24662642D01*
X33836989Y-24552328D01*
X33847134Y-24518886D01*
X33880576Y-24508741D01*
X33990890Y-24449776D01*
X34087581Y-24370424D01*
X35855348Y-22602657D01*
X35934700Y-22505966D01*
X35993665Y-22395652D01*
X36029975Y-22275954D01*
X36042235Y-22151472D01*
X36029975Y-22026990D01*
X35993665Y-21907292D01*
X35934700Y-21796978D01*
X35877659Y-21727473D01*
X36470132Y-21135000D01*
X37590375Y-21135000D01*
X37599188Y-21224482D01*
G37*
X37599188Y-21224482D02*
X37635498Y-21344180D01*
X37694463Y-21454494D01*
X37773815Y-21551185D01*
X37870506Y-21630537D01*
X37980820Y-21689502D01*
X38100518Y-21725812D01*
X38225000Y-21738072D01*
X39775000Y-21738072D01*
X39899482Y-21725812D01*
X40019180Y-21689502D01*
X40050000Y-21673028D01*
X40080820Y-21689502D01*
X40200518Y-21725812D01*
X40325000Y-21738072D01*
X41707941Y-21738072D01*
X41934868Y-21965000D01*
X41898061Y-21965000D01*
X41698102Y-22004774D01*
X41509744Y-22082795D01*
X41500000Y-22089306D01*
X41490256Y-22082795D01*
X41301898Y-22004774D01*
X41101939Y-21965000D01*
X40898061Y-21965000D01*
X40698102Y-22004774D01*
X40509744Y-22082795D01*
X40500000Y-22089306D01*
X40490256Y-22082795D01*
X40301898Y-22004774D01*
X40101939Y-21965000D01*
X39898061Y-21965000D01*
X39698102Y-22004774D01*
X39509744Y-22082795D01*
X39500000Y-22089306D01*
X39490256Y-22082795D01*
X39301898Y-22004774D01*
X39101939Y-21965000D01*
X38898061Y-21965000D01*
X38698102Y-22004774D01*
X38509744Y-22082795D01*
X38500000Y-22089306D01*
X38490256Y-22082795D01*
X38301898Y-22004774D01*
X38101939Y-21965000D01*
X37898061Y-21965000D01*
X37698102Y-22004774D01*
X37509744Y-22082795D01*
X37500000Y-22089306D01*
X37490256Y-22082795D01*
X37301898Y-22004774D01*
X37101939Y-21965000D01*
X36898061Y-21965000D01*
X36698102Y-22004774D01*
X36509744Y-22082795D01*
X36340226Y-22196063D01*
X36196063Y-22340226D01*
X36082795Y-22509744D01*
X36004774Y-22698102D01*
X35965000Y-22898061D01*
X35965000Y-22965000D01*
X35898061Y-22965000D01*
X35698102Y-23004774D01*
X35509744Y-23082795D01*
X35340226Y-23196063D01*
X35196063Y-23340226D01*
X35082795Y-23509744D01*
X35004774Y-23698102D01*
X34965000Y-23898061D01*
X34965000Y-23965000D01*
X34898061Y-23965000D01*
X34698102Y-24004774D01*
X34509744Y-24082795D01*
X34340226Y-24196063D01*
X34196063Y-24340226D01*
X34082795Y-24509744D01*
X34004774Y-24698102D01*
X33965000Y-24898061D01*
X33965000Y-24965000D01*
X33898061Y-24965000D01*
X33698102Y-25004774D01*
X33509744Y-25082795D01*
X33340226Y-25196063D01*
X33196063Y-25340226D01*
X33082795Y-25509744D01*
X33056662Y-25572834D01*
X33056662Y-25401343D01*
X33698672Y-24759333D01*
X33778024Y-24662642D01*
X33836989Y-24552328D01*
X33847134Y-24518886D01*
X33880576Y-24508741D01*
X33990890Y-24449776D01*
X34087581Y-24370424D01*
X35855348Y-22602657D01*
X35934700Y-22505966D01*
X35993665Y-22395652D01*
X36029975Y-22275954D01*
X36042235Y-22151472D01*
X36029975Y-22026990D01*
X35993665Y-21907292D01*
X35934700Y-21796978D01*
X35877659Y-21727473D01*
X36470132Y-21135000D01*
X37590375Y-21135000D01*
X37599188Y-21224482D01*
G36*
X43060215Y-22975338D02*
G01*
X43274163Y-23040239D01*
X43440910Y-23056662D01*
X43440919Y-23056662D01*
X43496661Y-23062152D01*
X43552403Y-23056662D01*
X44548657Y-23056662D01*
X45190667Y-23698672D01*
X45287358Y-23778024D01*
X45397672Y-23836989D01*
X45431114Y-23847134D01*
X45436534Y-23865000D01*
X42568387Y-23865000D01*
X42659774Y-23803937D01*
X42803937Y-23659774D01*
X42917205Y-23490256D01*
X42995226Y-23301898D01*
X43035000Y-23101939D01*
X43035000Y-22961860D01*
X43060215Y-22975338D01*
G37*
X43060215Y-22975338D02*
X43274163Y-23040239D01*
X43440910Y-23056662D01*
X43440919Y-23056662D01*
X43496661Y-23062152D01*
X43552403Y-23056662D01*
X44548657Y-23056662D01*
X45190667Y-23698672D01*
X45287358Y-23778024D01*
X45397672Y-23836989D01*
X45431114Y-23847134D01*
X45436534Y-23865000D01*
X42568387Y-23865000D01*
X42659774Y-23803937D01*
X42803937Y-23659774D01*
X42917205Y-23490256D01*
X42995226Y-23301898D01*
X43035000Y-23101939D01*
X43035000Y-22961860D01*
X43060215Y-22975338D01*
G36*
X43509744Y-19917205D02*
G01*
X43698102Y-19995226D01*
X43898061Y-20035000D01*
X44101939Y-20035000D01*
X44301898Y-19995226D01*
X44490256Y-19917205D01*
X44500000Y-19910694D01*
X44509744Y-19917205D01*
X44698102Y-19995226D01*
X44898061Y-20035000D01*
X44965000Y-20035000D01*
X44965000Y-20101939D01*
X45004774Y-20301898D01*
X45082795Y-20490256D01*
X45171671Y-20623268D01*
X45008277Y-20786662D01*
X43966794Y-20786662D01*
X43463072Y-20282940D01*
X43463072Y-19886020D01*
X43509744Y-19917205D01*
G37*
X43509744Y-19917205D02*
X43698102Y-19995226D01*
X43898061Y-20035000D01*
X44101939Y-20035000D01*
X44301898Y-19995226D01*
X44490256Y-19917205D01*
X44500000Y-19910694D01*
X44509744Y-19917205D01*
X44698102Y-19995226D01*
X44898061Y-20035000D01*
X44965000Y-20035000D01*
X44965000Y-20101939D01*
X45004774Y-20301898D01*
X45082795Y-20490256D01*
X45171671Y-20623268D01*
X45008277Y-20786662D01*
X43966794Y-20786662D01*
X43463072Y-20282940D01*
X43463072Y-19886020D01*
X43509744Y-19917205D01*
G36*
X34272527Y-20122341D02*
G01*
X34203022Y-20065300D01*
X34134295Y-20028564D01*
X34301898Y-19995226D01*
X34468759Y-19926109D01*
X34272527Y-20122341D01*
G37*
X34272527Y-20122341D02*
X34203022Y-20065300D01*
X34134295Y-20028564D01*
X34301898Y-19995226D01*
X34468759Y-19926109D01*
X34272527Y-20122341D01*
G36*
X31965000Y-19898061D02*
G01*
X31965000Y-19965000D01*
X31898061Y-19965000D01*
X31731865Y-19998058D01*
X31977710Y-19834161D01*
X31965000Y-19898061D01*
G37*
X31965000Y-19898061D02*
X31965000Y-19965000D01*
X31898061Y-19965000D01*
X31731865Y-19998058D01*
X31977710Y-19834161D01*
X31965000Y-19898061D01*
G36*
X45538182Y-18071016D02*
G01*
X45509744Y-18082795D01*
X45500000Y-18089306D01*
X45490256Y-18082795D01*
X45301898Y-18004774D01*
X45101939Y-17965000D01*
X45035000Y-17965000D01*
X45035000Y-17898061D01*
X45005873Y-17751631D01*
X45538182Y-18071016D01*
G37*
X45538182Y-18071016D02*
X45509744Y-18082795D01*
X45500000Y-18089306D01*
X45490256Y-18082795D01*
X45301898Y-18004774D01*
X45101939Y-17965000D01*
X45035000Y-17965000D01*
X45035000Y-17898061D01*
X45005873Y-17751631D01*
X45538182Y-18071016D01*
G36*
X34965000Y-17898061D02*
G01*
X34965000Y-17965000D01*
X34898061Y-17965000D01*
X34731865Y-17998058D01*
X34977710Y-17834161D01*
X34965000Y-17898061D01*
G37*
X34965000Y-17898061D02*
X34965000Y-17965000D01*
X34898061Y-17965000D01*
X34731865Y-17998058D01*
X34977710Y-17834161D01*
X34965000Y-17898061D01*
M02*
