M48
; DRILL file {KiCad (5.1.6-0-10_14)} date Friday, January 01, 2021 at 01:40:24 AM
; FORMAT={-:-/ absolute / inch / decimal}
; #@! TF.CreationDate,2021-01-01T01:40:24+01:00
; #@! TF.GenerationSoftware,Kicad,Pcbnew,(5.1.6-0-10_14)
; #@! TF.FileFunction,Plated,1,2,PTH
FMAT,2
INCH
T1C0.0157
T2C0.0394
%
G90
G05
T1
X0.6543Y-1.363
X0.8268Y-1.2205
X0.8437Y-0.7705
X0.9449Y-1.3386
T2
X0.5512Y-1.063
X0.5512Y-1.163
X0.5512Y-1.263
X0.5512Y-1.363
X0.5512Y-1.463
X0.5512Y-1.563
X0.5512Y-1.663
X0.5512Y-1.763
X0.5512Y-1.863
X0.5512Y-1.963
X0.5512Y-2.063
X0.5512Y-2.163
X0.5512Y-2.263
X0.5512Y-2.363
X0.5512Y-2.463
X1.1512Y-1.063
X1.1512Y-1.163
X1.1512Y-1.263
X1.1512Y-1.363
X1.1512Y-1.463
X1.1512Y-1.563
X1.1512Y-1.663
X1.1512Y-1.763
X1.1512Y-1.863
X1.1512Y-1.963
X1.1512Y-2.063
X1.1512Y-2.163
X1.1512Y-2.263
X1.1512Y-2.363
X1.1512Y-2.463
T0
M30
