%TF.GenerationSoftware,KiCad,Pcbnew,(5.1.6-0-10_14)*%
%TF.CreationDate,2021-01-01T01:40:26+01:00*%
%TF.ProjectId,flash,666c6173-682e-46b6-9963-61645f706362,rev?*%
%TF.SameCoordinates,Original*%
%TF.FileFunction,Legend,Top*%
%TF.FilePolarity,Positive*%
%FSLAX46Y46*%
G04 Gerber Fmt 4.6, Leading zero omitted, Abs format (unit mm)*
G04 Created by KiCad (PCBNEW (5.1.6-0-10_14)) date 2021-01-01 01:40:26*
%MOMM*%
%LPD*%
G01*
G04 APERTURE LIST*
%ADD10C,0.150000*%
%ADD11C,0.120000*%
G04 APERTURE END LIST*
D10*
X20738095Y-65452380D02*
X20738095Y-66261904D01*
X20785714Y-66357142D01*
X20833333Y-66404761D01*
X20928571Y-66452380D01*
X21119047Y-66452380D01*
X21214285Y-66404761D01*
X21261904Y-66357142D01*
X21309523Y-66261904D01*
X21309523Y-65452380D01*
X21738095Y-66404761D02*
X21880952Y-66452380D01*
X22119047Y-66452380D01*
X22214285Y-66404761D01*
X22261904Y-66357142D01*
X22309523Y-66261904D01*
X22309523Y-66166666D01*
X22261904Y-66071428D01*
X22214285Y-66023809D01*
X22119047Y-65976190D01*
X21928571Y-65928571D01*
X21833333Y-65880952D01*
X21785714Y-65833333D01*
X21738095Y-65738095D01*
X21738095Y-65642857D01*
X21785714Y-65547619D01*
X21833333Y-65500000D01*
X21928571Y-65452380D01*
X22166666Y-65452380D01*
X22309523Y-65500000D01*
X23071428Y-65928571D02*
X23214285Y-65976190D01*
X23261904Y-66023809D01*
X23309523Y-66119047D01*
X23309523Y-66261904D01*
X23261904Y-66357142D01*
X23214285Y-66404761D01*
X23119047Y-66452380D01*
X22738095Y-66452380D01*
X22738095Y-65452380D01*
X23071428Y-65452380D01*
X23166666Y-65500000D01*
X23214285Y-65547619D01*
X23261904Y-65642857D01*
X23261904Y-65738095D01*
X23214285Y-65833333D01*
X23166666Y-65880952D01*
X23071428Y-65928571D01*
X22738095Y-65928571D01*
X18452380Y-54452380D02*
X17452380Y-54452380D01*
X17452380Y-54214285D01*
X17500000Y-54071428D01*
X17595238Y-53976190D01*
X17690476Y-53928571D01*
X17880952Y-53880952D01*
X18023809Y-53880952D01*
X18214285Y-53928571D01*
X18309523Y-53976190D01*
X18404761Y-54071428D01*
X18452380Y-54214285D01*
X18452380Y-54452380D01*
X18452380Y-52976190D02*
X18452380Y-53452380D01*
X17452380Y-53452380D01*
X18452380Y-52166666D02*
X18452380Y-52642857D01*
X17452380Y-52642857D01*
X17928571Y-50738095D02*
X17928571Y-51071428D01*
X18452380Y-51071428D02*
X17452380Y-51071428D01*
X17452380Y-50595238D01*
X18452380Y-50071428D02*
X18404761Y-50166666D01*
X18309523Y-50214285D01*
X17452380Y-50214285D01*
X18452380Y-49261904D02*
X17928571Y-49261904D01*
X17833333Y-49309523D01*
X17785714Y-49404761D01*
X17785714Y-49595238D01*
X17833333Y-49690476D01*
X18404761Y-49261904D02*
X18452380Y-49357142D01*
X18452380Y-49595238D01*
X18404761Y-49690476D01*
X18309523Y-49738095D01*
X18214285Y-49738095D01*
X18119047Y-49690476D01*
X18071428Y-49595238D01*
X18071428Y-49357142D01*
X18023809Y-49261904D01*
X18404761Y-48833333D02*
X18452380Y-48738095D01*
X18452380Y-48547619D01*
X18404761Y-48452380D01*
X18309523Y-48404761D01*
X18261904Y-48404761D01*
X18166666Y-48452380D01*
X18119047Y-48547619D01*
X18119047Y-48690476D01*
X18071428Y-48785714D01*
X17976190Y-48833333D01*
X17928571Y-48833333D01*
X17833333Y-48785714D01*
X17785714Y-48690476D01*
X17785714Y-48547619D01*
X17833333Y-48452380D01*
X18452380Y-47976190D02*
X17452380Y-47976190D01*
X18452380Y-47547619D02*
X17928571Y-47547619D01*
X17833333Y-47595238D01*
X17785714Y-47690476D01*
X17785714Y-47833333D01*
X17833333Y-47928571D01*
X17880952Y-47976190D01*
X17785714Y-46404761D02*
X18452380Y-46166666D01*
X17785714Y-45928571D01*
X18452380Y-45023809D02*
X18452380Y-45595238D01*
X18452380Y-45309523D02*
X17452380Y-45309523D01*
X17595238Y-45404761D01*
X17690476Y-45500000D01*
X17738095Y-45595238D01*
X18357142Y-44595238D02*
X18404761Y-44547619D01*
X18452380Y-44595238D01*
X18404761Y-44642857D01*
X18357142Y-44595238D01*
X18452380Y-44595238D01*
X17452380Y-43928571D02*
X17452380Y-43833333D01*
X17500000Y-43738095D01*
X17547619Y-43690476D01*
X17642857Y-43642857D01*
X17833333Y-43595238D01*
X18071428Y-43595238D01*
X18261904Y-43642857D01*
X18357142Y-43690476D01*
X18404761Y-43738095D01*
X18452380Y-43833333D01*
X18452380Y-43928571D01*
X18404761Y-44023809D01*
X18357142Y-44071428D01*
X18261904Y-44119047D01*
X18071428Y-44166666D01*
X17833333Y-44166666D01*
X17642857Y-44119047D01*
X17547619Y-44071428D01*
X17500000Y-44023809D01*
X17452380Y-43928571D01*
X17785714Y-42547619D02*
X17785714Y-42166666D01*
X18452380Y-42404761D02*
X17595238Y-42404761D01*
X17500000Y-42357142D01*
X17452380Y-42261904D01*
X17452380Y-42166666D01*
X18452380Y-41833333D02*
X17452380Y-41833333D01*
X18452380Y-41404761D02*
X17928571Y-41404761D01*
X17833333Y-41452380D01*
X17785714Y-41547619D01*
X17785714Y-41690476D01*
X17833333Y-41785714D01*
X17880952Y-41833333D01*
X18452380Y-40500000D02*
X17928571Y-40500000D01*
X17833333Y-40547619D01*
X17785714Y-40642857D01*
X17785714Y-40833333D01*
X17833333Y-40928571D01*
X18404761Y-40500000D02*
X18452380Y-40595238D01*
X18452380Y-40833333D01*
X18404761Y-40928571D01*
X18309523Y-40976190D01*
X18214285Y-40976190D01*
X18119047Y-40928571D01*
X18071428Y-40833333D01*
X18071428Y-40595238D01*
X18023809Y-40500000D01*
X18452380Y-40023809D02*
X17785714Y-40023809D01*
X17976190Y-40023809D02*
X17880952Y-39976190D01*
X17833333Y-39928571D01*
X17785714Y-39833333D01*
X17785714Y-39738095D01*
X18452380Y-39261904D02*
X18404761Y-39357142D01*
X18357142Y-39404761D01*
X18261904Y-39452380D01*
X17976190Y-39452380D01*
X17880952Y-39404761D01*
X17833333Y-39357142D01*
X17785714Y-39261904D01*
X17785714Y-39119047D01*
X17833333Y-39023809D01*
X17880952Y-38976190D01*
X17976190Y-38928571D01*
X18261904Y-38928571D01*
X18357142Y-38976190D01*
X18404761Y-39023809D01*
X18452380Y-39119047D01*
X18452380Y-39261904D01*
X18452380Y-38357142D02*
X18404761Y-38452380D01*
X18309523Y-38500000D01*
X17452380Y-38500000D01*
X18452380Y-37547619D02*
X17452380Y-37547619D01*
X18404761Y-37547619D02*
X18452380Y-37642857D01*
X18452380Y-37833333D01*
X18404761Y-37928571D01*
X18357142Y-37976190D01*
X18261904Y-38023809D01*
X17976190Y-38023809D01*
X17880952Y-37976190D01*
X17833333Y-37928571D01*
X17785714Y-37833333D01*
X17785714Y-37642857D01*
X17833333Y-37547619D01*
D11*
%TO.C,A1*%
X30640000Y-23060000D02*
X12600000Y-23060000D01*
X30640000Y-66500000D02*
X30640000Y-23060000D01*
X12600000Y-66500000D02*
X30640000Y-66500000D01*
X15270000Y-63830000D02*
X12600000Y-63830000D01*
X15270000Y-28270000D02*
X15270000Y-63830000D01*
X15270000Y-28270000D02*
X12600000Y-28270000D01*
X27970000Y-63830000D02*
X30640000Y-63830000D01*
X27970000Y-25730000D02*
X27970000Y-63830000D01*
X27970000Y-25730000D02*
X30640000Y-25730000D01*
X12600000Y-23060000D02*
X12600000Y-25730000D01*
X12600000Y-28270000D02*
X12600000Y-66500000D01*
X15270000Y-25730000D02*
X12600000Y-25730000D01*
X15270000Y-28270000D02*
X15270000Y-25730000D01*
%TO.C,J1*%
X15700000Y-18660000D02*
X14500000Y-18660000D01*
X21500000Y-13850000D02*
X19760000Y-13850000D01*
X21500000Y-20150000D02*
X21500000Y-13850000D01*
X19760000Y-20150000D02*
X21500000Y-20150000D01*
X15700000Y-13850000D02*
X17040000Y-13850000D01*
X15700000Y-15340000D02*
X15700000Y-13850000D01*
X15700000Y-20150000D02*
X17040000Y-20150000D01*
X15700000Y-18660000D02*
X15700000Y-20150000D01*
%TO.C,A1*%
D10*
X26285714Y-22166666D02*
X26761904Y-22166666D01*
X26190476Y-22452380D02*
X26523809Y-21452380D01*
X26857142Y-22452380D01*
X27714285Y-22452380D02*
X27142857Y-22452380D01*
X27428571Y-22452380D02*
X27428571Y-21452380D01*
X27333333Y-21595238D01*
X27238095Y-21690476D01*
X27142857Y-21738095D01*
%TO.C,J1*%
X12752380Y-17333333D02*
X13466666Y-17333333D01*
X13609523Y-17380952D01*
X13704761Y-17476190D01*
X13752380Y-17619047D01*
X13752380Y-17714285D01*
X13752380Y-16333333D02*
X13752380Y-16904761D01*
X13752380Y-16619047D02*
X12752380Y-16619047D01*
X12895238Y-16714285D01*
X12990476Y-16809523D01*
X13038095Y-16904761D01*
%TD*%
M02*
