%TF.GenerationSoftware,KiCad,Pcbnew,(5.1.6-0-10_14)*%
%TF.CreationDate,2021-01-01T01:39:17+01:00*%
%TF.ProjectId,remote,72656d6f-7465-42e6-9b69-6361645f7063,rev?*%
%TF.SameCoordinates,Original*%
%TF.FileFunction,Copper,L2,Bot*%
%TF.FilePolarity,Positive*%
%FSLAX46Y46*%
G04 Gerber Fmt 4.6, Leading zero omitted, Abs format (unit mm)*
G04 Created by KiCad (PCBNEW (5.1.6-0-10_14)) date 2021-01-01 01:39:17*
%MOMM*%
%LPD*%
G01*
G04 APERTURE LIST*
%TA.AperFunction,SMDPad,CuDef*%
%ADD10R,0.700000X1.450000*%
%TD*%
%TA.AperFunction,ViaPad*%
%ADD11C,0.800000*%
%TD*%
%TA.AperFunction,ViaPad*%
%ADD12C,0.600000*%
%TD*%
%TA.AperFunction,Conductor*%
%ADD13C,0.250000*%
%TD*%
%TA.AperFunction,Conductor*%
%ADD14C,0.130000*%
%TD*%
%TA.AperFunction,Conductor*%
%ADD15C,1.000000*%
%TD*%
%TA.AperFunction,Conductor*%
%ADD16C,0.254000*%
%TD*%
G04 APERTURE END LIST*
%TO.P,D1,1*%
%TO.N,GND*%
%TA.AperFunction,SMDPad,CuDef*%
G36*
G01*
X22100000Y-17237500D02*
X22100000Y-16762500D01*
G75*
G02*
X22337500Y-16525000I237500J0D01*
G01*
X22912500Y-16525000D01*
G75*
G02*
X23150000Y-16762500I0J-237500D01*
G01*
X23150000Y-17237500D01*
G75*
G02*
X22912500Y-17475000I-237500J0D01*
G01*
X22337500Y-17475000D01*
G75*
G02*
X22100000Y-17237500I0J237500D01*
G01*
G37*
%TD.AperFunction*%
%TO.P,D1,2*%
%TO.N,Net-(D1-Pad2)*%
%TA.AperFunction,SMDPad,CuDef*%
G36*
G01*
X23850000Y-17237500D02*
X23850000Y-16762500D01*
G75*
G02*
X24087500Y-16525000I237500J0D01*
G01*
X24662500Y-16525000D01*
G75*
G02*
X24900000Y-16762500I0J-237500D01*
G01*
X24900000Y-17237500D01*
G75*
G02*
X24662500Y-17475000I-237500J0D01*
G01*
X24087500Y-17475000D01*
G75*
G02*
X23850000Y-17237500I0J237500D01*
G01*
G37*
%TD.AperFunction*%
%TD*%
%TO.P,D2,2*%
%TO.N,Net-(D2-Pad2)*%
%TA.AperFunction,SMDPad,CuDef*%
G36*
G01*
X28850000Y-17237500D02*
X28850000Y-16762500D01*
G75*
G02*
X29087500Y-16525000I237500J0D01*
G01*
X29662500Y-16525000D01*
G75*
G02*
X29900000Y-16762500I0J-237500D01*
G01*
X29900000Y-17237500D01*
G75*
G02*
X29662500Y-17475000I-237500J0D01*
G01*
X29087500Y-17475000D01*
G75*
G02*
X28850000Y-17237500I0J237500D01*
G01*
G37*
%TD.AperFunction*%
%TO.P,D2,1*%
%TO.N,GND*%
%TA.AperFunction,SMDPad,CuDef*%
G36*
G01*
X27100000Y-17237500D02*
X27100000Y-16762500D01*
G75*
G02*
X27337500Y-16525000I237500J0D01*
G01*
X27912500Y-16525000D01*
G75*
G02*
X28150000Y-16762500I0J-237500D01*
G01*
X28150000Y-17237500D01*
G75*
G02*
X27912500Y-17475000I-237500J0D01*
G01*
X27337500Y-17475000D01*
G75*
G02*
X27100000Y-17237500I0J237500D01*
G01*
G37*
%TD.AperFunction*%
%TD*%
%TO.P,D3,1*%
%TO.N,GND*%
%TA.AperFunction,SMDPad,CuDef*%
G36*
G01*
X32100000Y-17237500D02*
X32100000Y-16762500D01*
G75*
G02*
X32337500Y-16525000I237500J0D01*
G01*
X32912500Y-16525000D01*
G75*
G02*
X33150000Y-16762500I0J-237500D01*
G01*
X33150000Y-17237500D01*
G75*
G02*
X32912500Y-17475000I-237500J0D01*
G01*
X32337500Y-17475000D01*
G75*
G02*
X32100000Y-17237500I0J237500D01*
G01*
G37*
%TD.AperFunction*%
%TO.P,D3,2*%
%TO.N,Net-(D3-Pad2)*%
%TA.AperFunction,SMDPad,CuDef*%
G36*
G01*
X33850000Y-17237500D02*
X33850000Y-16762500D01*
G75*
G02*
X34087500Y-16525000I237500J0D01*
G01*
X34662500Y-16525000D01*
G75*
G02*
X34900000Y-16762500I0J-237500D01*
G01*
X34900000Y-17237500D01*
G75*
G02*
X34662500Y-17475000I-237500J0D01*
G01*
X34087500Y-17475000D01*
G75*
G02*
X33850000Y-17237500I0J237500D01*
G01*
G37*
%TD.AperFunction*%
%TD*%
%TO.P,D4,2*%
%TO.N,Net-(D4-Pad2)*%
%TA.AperFunction,SMDPad,CuDef*%
G36*
G01*
X38850000Y-17237500D02*
X38850000Y-16762500D01*
G75*
G02*
X39087500Y-16525000I237500J0D01*
G01*
X39662500Y-16525000D01*
G75*
G02*
X39900000Y-16762500I0J-237500D01*
G01*
X39900000Y-17237500D01*
G75*
G02*
X39662500Y-17475000I-237500J0D01*
G01*
X39087500Y-17475000D01*
G75*
G02*
X38850000Y-17237500I0J237500D01*
G01*
G37*
%TD.AperFunction*%
%TO.P,D4,1*%
%TO.N,GND*%
%TA.AperFunction,SMDPad,CuDef*%
G36*
G01*
X37100000Y-17237500D02*
X37100000Y-16762500D01*
G75*
G02*
X37337500Y-16525000I237500J0D01*
G01*
X37912500Y-16525000D01*
G75*
G02*
X38150000Y-16762500I0J-237500D01*
G01*
X38150000Y-17237500D01*
G75*
G02*
X37912500Y-17475000I-237500J0D01*
G01*
X37337500Y-17475000D01*
G75*
G02*
X37100000Y-17237500I0J237500D01*
G01*
G37*
%TD.AperFunction*%
%TD*%
%TO.P,D5,1*%
%TO.N,GND*%
%TA.AperFunction,SMDPad,CuDef*%
G36*
G01*
X42100000Y-17237500D02*
X42100000Y-16762500D01*
G75*
G02*
X42337500Y-16525000I237500J0D01*
G01*
X42912500Y-16525000D01*
G75*
G02*
X43150000Y-16762500I0J-237500D01*
G01*
X43150000Y-17237500D01*
G75*
G02*
X42912500Y-17475000I-237500J0D01*
G01*
X42337500Y-17475000D01*
G75*
G02*
X42100000Y-17237500I0J237500D01*
G01*
G37*
%TD.AperFunction*%
%TO.P,D5,2*%
%TO.N,Net-(D5-Pad2)*%
%TA.AperFunction,SMDPad,CuDef*%
G36*
G01*
X43850000Y-17237500D02*
X43850000Y-16762500D01*
G75*
G02*
X44087500Y-16525000I237500J0D01*
G01*
X44662500Y-16525000D01*
G75*
G02*
X44900000Y-16762500I0J-237500D01*
G01*
X44900000Y-17237500D01*
G75*
G02*
X44662500Y-17475000I-237500J0D01*
G01*
X44087500Y-17475000D01*
G75*
G02*
X43850000Y-17237500I0J237500D01*
G01*
G37*
%TD.AperFunction*%
%TD*%
%TO.P,R1,1*%
%TO.N,Net-(R1-Pad1)*%
%TA.AperFunction,SMDPad,CuDef*%
G36*
G01*
X22100000Y-15237500D02*
X22100000Y-14762500D01*
G75*
G02*
X22337500Y-14525000I237500J0D01*
G01*
X22912500Y-14525000D01*
G75*
G02*
X23150000Y-14762500I0J-237500D01*
G01*
X23150000Y-15237500D01*
G75*
G02*
X22912500Y-15475000I-237500J0D01*
G01*
X22337500Y-15475000D01*
G75*
G02*
X22100000Y-15237500I0J237500D01*
G01*
G37*
%TD.AperFunction*%
%TO.P,R1,2*%
%TO.N,Net-(D1-Pad2)*%
%TA.AperFunction,SMDPad,CuDef*%
G36*
G01*
X23850000Y-15237500D02*
X23850000Y-14762500D01*
G75*
G02*
X24087500Y-14525000I237500J0D01*
G01*
X24662500Y-14525000D01*
G75*
G02*
X24900000Y-14762500I0J-237500D01*
G01*
X24900000Y-15237500D01*
G75*
G02*
X24662500Y-15475000I-237500J0D01*
G01*
X24087500Y-15475000D01*
G75*
G02*
X23850000Y-15237500I0J237500D01*
G01*
G37*
%TD.AperFunction*%
%TD*%
%TO.P,R2,2*%
%TO.N,Net-(D2-Pad2)*%
%TA.AperFunction,SMDPad,CuDef*%
G36*
G01*
X28850000Y-15237500D02*
X28850000Y-14762500D01*
G75*
G02*
X29087500Y-14525000I237500J0D01*
G01*
X29662500Y-14525000D01*
G75*
G02*
X29900000Y-14762500I0J-237500D01*
G01*
X29900000Y-15237500D01*
G75*
G02*
X29662500Y-15475000I-237500J0D01*
G01*
X29087500Y-15475000D01*
G75*
G02*
X28850000Y-15237500I0J237500D01*
G01*
G37*
%TD.AperFunction*%
%TO.P,R2,1*%
%TO.N,Net-(R2-Pad1)*%
%TA.AperFunction,SMDPad,CuDef*%
G36*
G01*
X27100000Y-15237500D02*
X27100000Y-14762500D01*
G75*
G02*
X27337500Y-14525000I237500J0D01*
G01*
X27912500Y-14525000D01*
G75*
G02*
X28150000Y-14762500I0J-237500D01*
G01*
X28150000Y-15237500D01*
G75*
G02*
X27912500Y-15475000I-237500J0D01*
G01*
X27337500Y-15475000D01*
G75*
G02*
X27100000Y-15237500I0J237500D01*
G01*
G37*
%TD.AperFunction*%
%TD*%
%TO.P,R3,1*%
%TO.N,Net-(R3-Pad1)*%
%TA.AperFunction,SMDPad,CuDef*%
G36*
G01*
X32100000Y-15237500D02*
X32100000Y-14762500D01*
G75*
G02*
X32337500Y-14525000I237500J0D01*
G01*
X32912500Y-14525000D01*
G75*
G02*
X33150000Y-14762500I0J-237500D01*
G01*
X33150000Y-15237500D01*
G75*
G02*
X32912500Y-15475000I-237500J0D01*
G01*
X32337500Y-15475000D01*
G75*
G02*
X32100000Y-15237500I0J237500D01*
G01*
G37*
%TD.AperFunction*%
%TO.P,R3,2*%
%TO.N,Net-(D3-Pad2)*%
%TA.AperFunction,SMDPad,CuDef*%
G36*
G01*
X33850000Y-15237500D02*
X33850000Y-14762500D01*
G75*
G02*
X34087500Y-14525000I237500J0D01*
G01*
X34662500Y-14525000D01*
G75*
G02*
X34900000Y-14762500I0J-237500D01*
G01*
X34900000Y-15237500D01*
G75*
G02*
X34662500Y-15475000I-237500J0D01*
G01*
X34087500Y-15475000D01*
G75*
G02*
X33850000Y-15237500I0J237500D01*
G01*
G37*
%TD.AperFunction*%
%TD*%
%TO.P,R4,2*%
%TO.N,Net-(D4-Pad2)*%
%TA.AperFunction,SMDPad,CuDef*%
G36*
G01*
X38850000Y-15237500D02*
X38850000Y-14762500D01*
G75*
G02*
X39087500Y-14525000I237500J0D01*
G01*
X39662500Y-14525000D01*
G75*
G02*
X39900000Y-14762500I0J-237500D01*
G01*
X39900000Y-15237500D01*
G75*
G02*
X39662500Y-15475000I-237500J0D01*
G01*
X39087500Y-15475000D01*
G75*
G02*
X38850000Y-15237500I0J237500D01*
G01*
G37*
%TD.AperFunction*%
%TO.P,R4,1*%
%TO.N,Net-(R4-Pad1)*%
%TA.AperFunction,SMDPad,CuDef*%
G36*
G01*
X37100000Y-15237500D02*
X37100000Y-14762500D01*
G75*
G02*
X37337500Y-14525000I237500J0D01*
G01*
X37912500Y-14525000D01*
G75*
G02*
X38150000Y-14762500I0J-237500D01*
G01*
X38150000Y-15237500D01*
G75*
G02*
X37912500Y-15475000I-237500J0D01*
G01*
X37337500Y-15475000D01*
G75*
G02*
X37100000Y-15237500I0J237500D01*
G01*
G37*
%TD.AperFunction*%
%TD*%
%TO.P,R5,1*%
%TO.N,Net-(R5-Pad1)*%
%TA.AperFunction,SMDPad,CuDef*%
G36*
G01*
X42100000Y-15237500D02*
X42100000Y-14762500D01*
G75*
G02*
X42337500Y-14525000I237500J0D01*
G01*
X42912500Y-14525000D01*
G75*
G02*
X43150000Y-14762500I0J-237500D01*
G01*
X43150000Y-15237500D01*
G75*
G02*
X42912500Y-15475000I-237500J0D01*
G01*
X42337500Y-15475000D01*
G75*
G02*
X42100000Y-15237500I0J237500D01*
G01*
G37*
%TD.AperFunction*%
%TO.P,R5,2*%
%TO.N,Net-(D5-Pad2)*%
%TA.AperFunction,SMDPad,CuDef*%
G36*
G01*
X43850000Y-15237500D02*
X43850000Y-14762500D01*
G75*
G02*
X44087500Y-14525000I237500J0D01*
G01*
X44662500Y-14525000D01*
G75*
G02*
X44900000Y-14762500I0J-237500D01*
G01*
X44900000Y-15237500D01*
G75*
G02*
X44662500Y-15475000I-237500J0D01*
G01*
X44087500Y-15475000D01*
G75*
G02*
X43850000Y-15237500I0J237500D01*
G01*
G37*
%TD.AperFunction*%
%TD*%
D10*
%TO.P,SW1,1*%
%TO.N,Net-(SW1-Pad1)*%
X49000000Y-19580000D03*
X49000000Y-14420000D03*
%TO.P,SW1,2*%
%TO.N,GND*%
X51000000Y-14420000D03*
X51000000Y-19580000D03*
%TD*%
%TO.P,SW2,2*%
%TO.N,GND*%
X16000000Y-14420000D03*
X16000000Y-19580000D03*
%TO.P,SW2,1*%
%TO.N,Net-(SW2-Pad1)*%
X18000000Y-19580000D03*
X18000000Y-14420000D03*
%TD*%
D11*
%TO.N,GND*%
X15000000Y-19000000D03*
D12*
X51500000Y-14500000D03*
X36000000Y-15512500D03*
X41160000Y-17000000D03*
X21250000Y-17000000D03*
X31380000Y-17000000D03*
%TO.N,5V*%
X36000000Y-18487500D03*
X37500000Y-16000000D03*
X43000000Y-20500000D03*
X48169998Y-14150000D03*
X47000000Y-20500000D03*
X44460000Y-20230000D03*
X47030000Y-14480000D03*
D11*
%TO.N,PWM*%
X37512653Y-19899990D03*
D12*
X13500000Y-20500000D03*
%TO.N,Net-(R1-Pad1)*%
X44000000Y-19500000D03*
%TO.N,Net-(R2-Pad1)*%
X45000000Y-19500000D03*
%TO.N,Net-(R3-Pad1)*%
X46500000Y-19500000D03*
%TO.N,Net-(R4-Pad1)*%
X48000000Y-18500000D03*
%TO.N,Net-(R5-Pad1)*%
X45000000Y-16000000D03*
%TO.N,Net-(SW1-Pad1)*%
X45500000Y-20500000D03*
%TO.N,Net-(SW2-Pad1)*%
X39000000Y-20450000D03*
%TO.N,SCK*%
X48000000Y-17565000D03*
X46000000Y-14500000D03*
%TO.N,RESET*%
X36500000Y-17110000D03*
X48036499Y-19505000D03*
%TD*%
D13*
%TO.N,GND*%
X16000000Y-14420000D02*
X16000000Y-19580000D01*
X15580000Y-19580000D02*
X15000000Y-19000000D01*
X16000000Y-19580000D02*
X15580000Y-19580000D01*
X37625000Y-17000000D02*
X37487500Y-17000000D01*
X51000000Y-14420000D02*
X51000000Y-19580000D01*
D14*
X51080000Y-14500000D02*
X51000000Y-14420000D01*
X51500000Y-14500000D02*
X51080000Y-14500000D01*
D13*
X37625000Y-17000000D02*
X37390000Y-17000000D01*
X36000000Y-15610000D02*
X36000000Y-15512500D01*
X37390000Y-17000000D02*
X36000000Y-15610000D01*
X42625000Y-17000000D02*
X41160000Y-17000000D01*
D15*
X22625000Y-17000000D02*
X21250000Y-17000000D01*
X32625000Y-17000000D02*
X31380000Y-17000000D01*
D13*
%TO.N,5V*%
X36012500Y-18500000D02*
X36000000Y-18487500D01*
D14*
X37500000Y-16000000D02*
X37488336Y-16000000D01*
X49545001Y-20461001D02*
X49506002Y-20500000D01*
X49545001Y-13538999D02*
X49545001Y-20461001D01*
X48395735Y-13499999D02*
X49506001Y-13499999D01*
X49506001Y-13499999D02*
X49545001Y-13538999D01*
X48169998Y-13725736D02*
X48395735Y-13499999D01*
X48169998Y-14150000D02*
X48169998Y-13725736D01*
X49506002Y-20500000D02*
X47000000Y-20500000D01*
X43270000Y-20230000D02*
X43000000Y-20500000D01*
X44460000Y-20230000D02*
X43270000Y-20230000D01*
D13*
X37075736Y-16000000D02*
X37500000Y-16000000D01*
X36844990Y-14155010D02*
X36844990Y-15769254D01*
X37320030Y-13679970D02*
X36844990Y-14155010D01*
X47699968Y-13679970D02*
X37320030Y-13679970D01*
X36844990Y-15769254D02*
X37075736Y-16000000D01*
X48169998Y-14150000D02*
X47699968Y-13679970D01*
X47839998Y-14480000D02*
X48169998Y-14150000D01*
X47030000Y-14480000D02*
X47839998Y-14480000D01*
%TO.N,Net-(D1-Pad2)*%
X24375000Y-17000000D02*
X24375000Y-15000000D01*
%TO.N,Net-(D2-Pad2)*%
X29375000Y-15000000D02*
X29375000Y-17000000D01*
%TO.N,Net-(D3-Pad2)*%
X34375000Y-15000000D02*
X34375000Y-17000000D01*
%TO.N,Net-(D4-Pad2)*%
X39375000Y-15000000D02*
X39375000Y-17000000D01*
%TO.N,Net-(D5-Pad2)*%
X44375000Y-15000000D02*
X44375000Y-17000000D01*
%TO.N,PWM*%
X37512653Y-19899990D02*
X36787653Y-20624990D01*
X36787653Y-20624990D02*
X13624990Y-20624990D01*
X13624990Y-20624990D02*
X13650000Y-20599980D01*
%TO.N,Net-(R1-Pad1)*%
X23425010Y-14199990D02*
X25199990Y-14199990D01*
X22625000Y-15000000D02*
X23425010Y-14199990D01*
D14*
X25199990Y-14199990D02*
X25199990Y-18199990D01*
X32719343Y-18199990D02*
X33519353Y-19000000D01*
X25199990Y-18199990D02*
X32719343Y-18199990D01*
X37065700Y-18924979D02*
X38424979Y-18924979D01*
X36990679Y-19000000D02*
X37065700Y-18924979D01*
X33519353Y-19000000D02*
X36990679Y-19000000D01*
X38424979Y-18924979D02*
X40000000Y-20500000D01*
X40000000Y-20500000D02*
X41000000Y-20500000D01*
X41000000Y-20500000D02*
X42500000Y-20500000D01*
X42475988Y-20500000D02*
X42455988Y-20520000D01*
X42500000Y-20500000D02*
X42475988Y-20500000D01*
X42500000Y-20500000D02*
X42500000Y-20267398D01*
X43267398Y-19500000D02*
X43133699Y-19633699D01*
X44000000Y-19500000D02*
X43267398Y-19500000D01*
X42500000Y-20267398D02*
X43133699Y-19633699D01*
%TO.N,Net-(R2-Pad1)*%
X44950043Y-19450043D02*
X45000000Y-19500000D01*
X44388896Y-18488810D02*
X44950043Y-19049957D01*
X43910880Y-18488810D02*
X44388896Y-18488810D01*
X40000000Y-20132292D02*
X40107698Y-20239990D01*
X38664969Y-18664969D02*
X40000000Y-20000000D01*
X36910071Y-18664969D02*
X38664969Y-18664969D01*
X40107698Y-20239990D02*
X42159700Y-20239990D01*
X29178316Y-17939980D02*
X36185082Y-17939980D01*
X28654990Y-17416654D02*
X29178316Y-17939980D01*
X44950043Y-19049957D02*
X44950043Y-19450043D01*
X28654990Y-16029990D02*
X28654990Y-17416654D01*
X42159700Y-20239990D02*
X43910880Y-18488810D01*
X36185082Y-17939980D02*
X36910071Y-18664969D01*
X40000000Y-20000000D02*
X40000000Y-20132292D01*
X27625000Y-15000000D02*
X28654990Y-16029990D01*
%TO.N,Net-(R3-Pad1)*%
X36632311Y-18000020D02*
X38367728Y-18000020D01*
X35762399Y-17495001D02*
X36127293Y-17495001D01*
X35504999Y-17237601D02*
X35762399Y-17495001D01*
X34509998Y-13500000D02*
X35504999Y-14495001D01*
X35504999Y-14495001D02*
X35504999Y-17237601D01*
X33650000Y-13500000D02*
X34509998Y-13500000D01*
X36127293Y-17495001D02*
X36632311Y-18000020D01*
X32625000Y-14525000D02*
X33650000Y-13500000D01*
X32625000Y-15000000D02*
X32625000Y-14525000D01*
X40000000Y-19500000D02*
X40000000Y-19632292D01*
X38500020Y-18000020D02*
X40000000Y-19500000D01*
X38367728Y-18000020D02*
X38500020Y-18000020D01*
X40000000Y-19632292D02*
X40347688Y-19979980D01*
X42020020Y-19979980D02*
X43500000Y-18500000D01*
X40347688Y-19979980D02*
X42020020Y-19979980D01*
X43500000Y-18500000D02*
X43500000Y-18000000D01*
X43500000Y-18000000D02*
X44264980Y-18000000D01*
X44264980Y-18000000D02*
X44500000Y-18000000D01*
X44500000Y-18000000D02*
X45000000Y-18000000D01*
X45000000Y-18000000D02*
X45500000Y-18000000D01*
X45500000Y-18000000D02*
X46500000Y-19000000D01*
X46500000Y-19000000D02*
X46500000Y-19500000D01*
%TO.N,Net-(R4-Pad1)*%
X38625020Y-13999980D02*
X37625000Y-15000000D01*
X46232582Y-13999980D02*
X38625020Y-13999980D01*
X46495001Y-14262399D02*
X46232582Y-13999980D01*
X46495001Y-14737601D02*
X46495001Y-14262399D01*
X48495001Y-16737601D02*
X46495001Y-14737601D01*
X48495001Y-18004999D02*
X48495001Y-16737601D01*
X48000000Y-18500000D02*
X48495001Y-18004999D01*
%TO.N,Net-(R5-Pad1)*%
X45165010Y-14554352D02*
X45165010Y-15834990D01*
X44870648Y-14259990D02*
X45165010Y-14554352D01*
X43365010Y-14259990D02*
X44870648Y-14259990D01*
X42625000Y-15000000D02*
X43365010Y-14259990D01*
X45165010Y-15834990D02*
X45000000Y-16000000D01*
D13*
%TO.N,Net-(SW1-Pad1)*%
X49000000Y-14420000D02*
X49000000Y-19580000D01*
D14*
X49000000Y-19580000D02*
X48920000Y-19580000D01*
X48920000Y-19500000D02*
X49000000Y-19580000D01*
X48580000Y-20000000D02*
X49000000Y-19580000D01*
X46500000Y-20000000D02*
X46000000Y-20000000D01*
X46000000Y-20000000D02*
X45500000Y-20500000D01*
X46500000Y-20000000D02*
X48580000Y-20000000D01*
D13*
%TO.N,Net-(SW2-Pad1)*%
X18000000Y-18500000D02*
X18000000Y-19580000D01*
X18000000Y-14420000D02*
X18000000Y-18500000D01*
X38500000Y-19950000D02*
X39000000Y-20450000D01*
X38500000Y-19814335D02*
X38500000Y-19950000D01*
X18000000Y-18500000D02*
X19000000Y-19500000D01*
X37930654Y-19244989D02*
X38500000Y-19814335D01*
X37198252Y-19244989D02*
X37930654Y-19244989D01*
X36943241Y-19500000D02*
X37198252Y-19244989D01*
X19000000Y-19500000D02*
X36943241Y-19500000D01*
D14*
%TO.N,SCK*%
X48000000Y-17565000D02*
X46000000Y-15565000D01*
X46000000Y-15565000D02*
X46000000Y-14500000D01*
%TO.N,RESET*%
X47505000Y-19505000D02*
X48036499Y-19505000D01*
X43392301Y-17739990D02*
X45739990Y-17739990D01*
X43392281Y-17740010D02*
X43392301Y-17739990D01*
X36740010Y-17740010D02*
X43392281Y-17740010D01*
X45739990Y-17739990D02*
X47505000Y-19505000D01*
X36740010Y-17350010D02*
X36500000Y-17110000D01*
X36740010Y-17740010D02*
X36740010Y-17350010D01*
%TD*%
D16*
%TO.N,GND*%
G36*
X53315000Y-19033646D02*
G01*
X53315001Y-19033656D01*
X53315000Y-20315000D01*
X51987087Y-20315000D01*
X51988072Y-20305000D01*
X51985000Y-19865750D01*
X51826250Y-19707000D01*
X51127000Y-19707000D01*
X51127000Y-19727000D01*
X50873000Y-19727000D01*
X50873000Y-19707000D01*
X50853000Y-19707000D01*
X50853000Y-19453000D01*
X50873000Y-19453000D01*
X50873000Y-18378750D01*
X51127000Y-18378750D01*
X51127000Y-19453000D01*
X51826250Y-19453000D01*
X51985000Y-19294250D01*
X51988072Y-18855000D01*
X51975812Y-18730518D01*
X51939502Y-18610820D01*
X51880537Y-18500506D01*
X51801185Y-18403815D01*
X51704494Y-18324463D01*
X51594180Y-18265498D01*
X51474482Y-18229188D01*
X51350000Y-18216928D01*
X51285750Y-18220000D01*
X51127000Y-18378750D01*
X50873000Y-18378750D01*
X50714250Y-18220000D01*
X50650000Y-18216928D01*
X50525518Y-18229188D01*
X50405820Y-18265498D01*
X50295506Y-18324463D01*
X50245001Y-18365911D01*
X50245001Y-15634089D01*
X50295506Y-15675537D01*
X50405820Y-15734502D01*
X50525518Y-15770812D01*
X50650000Y-15783072D01*
X50714250Y-15780000D01*
X50873000Y-15621250D01*
X50873000Y-14547000D01*
X51127000Y-14547000D01*
X51127000Y-15621250D01*
X51285750Y-15780000D01*
X51350000Y-15783072D01*
X51474482Y-15770812D01*
X51594180Y-15734502D01*
X51704494Y-15675537D01*
X51801185Y-15596185D01*
X51880537Y-15499494D01*
X51939502Y-15389180D01*
X51975812Y-15269482D01*
X51988072Y-15145000D01*
X51985000Y-14705750D01*
X51826250Y-14547000D01*
X51127000Y-14547000D01*
X50873000Y-14547000D01*
X50853000Y-14547000D01*
X50853000Y-14293000D01*
X50873000Y-14293000D01*
X50873000Y-14273000D01*
X51127000Y-14273000D01*
X51127000Y-14293000D01*
X51826250Y-14293000D01*
X51985000Y-14134250D01*
X51988072Y-13695000D01*
X51987087Y-13685000D01*
X53315001Y-13685000D01*
X53315000Y-19033646D01*
G37*
X53315000Y-19033646D02*
X53315001Y-19033656D01*
X53315000Y-20315000D01*
X51987087Y-20315000D01*
X51988072Y-20305000D01*
X51985000Y-19865750D01*
X51826250Y-19707000D01*
X51127000Y-19707000D01*
X51127000Y-19727000D01*
X50873000Y-19727000D01*
X50873000Y-19707000D01*
X50853000Y-19707000D01*
X50853000Y-19453000D01*
X50873000Y-19453000D01*
X50873000Y-18378750D01*
X51127000Y-18378750D01*
X51127000Y-19453000D01*
X51826250Y-19453000D01*
X51985000Y-19294250D01*
X51988072Y-18855000D01*
X51975812Y-18730518D01*
X51939502Y-18610820D01*
X51880537Y-18500506D01*
X51801185Y-18403815D01*
X51704494Y-18324463D01*
X51594180Y-18265498D01*
X51474482Y-18229188D01*
X51350000Y-18216928D01*
X51285750Y-18220000D01*
X51127000Y-18378750D01*
X50873000Y-18378750D01*
X50714250Y-18220000D01*
X50650000Y-18216928D01*
X50525518Y-18229188D01*
X50405820Y-18265498D01*
X50295506Y-18324463D01*
X50245001Y-18365911D01*
X50245001Y-15634089D01*
X50295506Y-15675537D01*
X50405820Y-15734502D01*
X50525518Y-15770812D01*
X50650000Y-15783072D01*
X50714250Y-15780000D01*
X50873000Y-15621250D01*
X50873000Y-14547000D01*
X51127000Y-14547000D01*
X51127000Y-15621250D01*
X51285750Y-15780000D01*
X51350000Y-15783072D01*
X51474482Y-15770812D01*
X51594180Y-15734502D01*
X51704494Y-15675537D01*
X51801185Y-15596185D01*
X51880537Y-15499494D01*
X51939502Y-15389180D01*
X51975812Y-15269482D01*
X51988072Y-15145000D01*
X51985000Y-14705750D01*
X51826250Y-14547000D01*
X51127000Y-14547000D01*
X50873000Y-14547000D01*
X50853000Y-14547000D01*
X50853000Y-14293000D01*
X50873000Y-14293000D01*
X50873000Y-14273000D01*
X51127000Y-14273000D01*
X51127000Y-14293000D01*
X51826250Y-14293000D01*
X51985000Y-14134250D01*
X51988072Y-13695000D01*
X51987087Y-13685000D01*
X53315001Y-13685000D01*
X53315000Y-19033646D01*
G36*
X15011928Y-13695000D02*
G01*
X15015000Y-14134250D01*
X15173750Y-14293000D01*
X15873000Y-14293000D01*
X15873000Y-14273000D01*
X16127000Y-14273000D01*
X16127000Y-14293000D01*
X16826250Y-14293000D01*
X16985000Y-14134250D01*
X16988072Y-13695000D01*
X16987087Y-13685000D01*
X17012913Y-13685000D01*
X17011928Y-13695000D01*
X17011928Y-15145000D01*
X17024188Y-15269482D01*
X17060498Y-15389180D01*
X17119463Y-15499494D01*
X17198815Y-15596185D01*
X17240000Y-15629985D01*
X17240001Y-18370015D01*
X17198815Y-18403815D01*
X17119463Y-18500506D01*
X17060498Y-18610820D01*
X17024188Y-18730518D01*
X17011928Y-18855000D01*
X17011928Y-19864990D01*
X16984240Y-19864990D01*
X16826250Y-19707000D01*
X16127000Y-19707000D01*
X16127000Y-19727000D01*
X15873000Y-19727000D01*
X15873000Y-19707000D01*
X15173750Y-19707000D01*
X15015760Y-19864990D01*
X14187280Y-19864990D01*
X14096028Y-19773738D01*
X13942889Y-19671414D01*
X13772729Y-19600932D01*
X13685000Y-19583481D01*
X13685000Y-18855000D01*
X15011928Y-18855000D01*
X15015000Y-19294250D01*
X15173750Y-19453000D01*
X15873000Y-19453000D01*
X15873000Y-18378750D01*
X16127000Y-18378750D01*
X16127000Y-19453000D01*
X16826250Y-19453000D01*
X16985000Y-19294250D01*
X16988072Y-18855000D01*
X16975812Y-18730518D01*
X16939502Y-18610820D01*
X16880537Y-18500506D01*
X16801185Y-18403815D01*
X16704494Y-18324463D01*
X16594180Y-18265498D01*
X16474482Y-18229188D01*
X16350000Y-18216928D01*
X16285750Y-18220000D01*
X16127000Y-18378750D01*
X15873000Y-18378750D01*
X15714250Y-18220000D01*
X15650000Y-18216928D01*
X15525518Y-18229188D01*
X15405820Y-18265498D01*
X15295506Y-18324463D01*
X15198815Y-18403815D01*
X15119463Y-18500506D01*
X15060498Y-18610820D01*
X15024188Y-18730518D01*
X15011928Y-18855000D01*
X13685000Y-18855000D01*
X13685000Y-15145000D01*
X15011928Y-15145000D01*
X15024188Y-15269482D01*
X15060498Y-15389180D01*
X15119463Y-15499494D01*
X15198815Y-15596185D01*
X15295506Y-15675537D01*
X15405820Y-15734502D01*
X15525518Y-15770812D01*
X15650000Y-15783072D01*
X15714250Y-15780000D01*
X15873000Y-15621250D01*
X15873000Y-14547000D01*
X16127000Y-14547000D01*
X16127000Y-15621250D01*
X16285750Y-15780000D01*
X16350000Y-15783072D01*
X16474482Y-15770812D01*
X16594180Y-15734502D01*
X16704494Y-15675537D01*
X16801185Y-15596185D01*
X16880537Y-15499494D01*
X16939502Y-15389180D01*
X16975812Y-15269482D01*
X16988072Y-15145000D01*
X16985000Y-14705750D01*
X16826250Y-14547000D01*
X16127000Y-14547000D01*
X15873000Y-14547000D01*
X15173750Y-14547000D01*
X15015000Y-14705750D01*
X15011928Y-15145000D01*
X13685000Y-15145000D01*
X13685000Y-13685000D01*
X15012913Y-13685000D01*
X15011928Y-13695000D01*
G37*
X15011928Y-13695000D02*
X15015000Y-14134250D01*
X15173750Y-14293000D01*
X15873000Y-14293000D01*
X15873000Y-14273000D01*
X16127000Y-14273000D01*
X16127000Y-14293000D01*
X16826250Y-14293000D01*
X16985000Y-14134250D01*
X16988072Y-13695000D01*
X16987087Y-13685000D01*
X17012913Y-13685000D01*
X17011928Y-13695000D01*
X17011928Y-15145000D01*
X17024188Y-15269482D01*
X17060498Y-15389180D01*
X17119463Y-15499494D01*
X17198815Y-15596185D01*
X17240000Y-15629985D01*
X17240001Y-18370015D01*
X17198815Y-18403815D01*
X17119463Y-18500506D01*
X17060498Y-18610820D01*
X17024188Y-18730518D01*
X17011928Y-18855000D01*
X17011928Y-19864990D01*
X16984240Y-19864990D01*
X16826250Y-19707000D01*
X16127000Y-19707000D01*
X16127000Y-19727000D01*
X15873000Y-19727000D01*
X15873000Y-19707000D01*
X15173750Y-19707000D01*
X15015760Y-19864990D01*
X14187280Y-19864990D01*
X14096028Y-19773738D01*
X13942889Y-19671414D01*
X13772729Y-19600932D01*
X13685000Y-19583481D01*
X13685000Y-18855000D01*
X15011928Y-18855000D01*
X15015000Y-19294250D01*
X15173750Y-19453000D01*
X15873000Y-19453000D01*
X15873000Y-18378750D01*
X16127000Y-18378750D01*
X16127000Y-19453000D01*
X16826250Y-19453000D01*
X16985000Y-19294250D01*
X16988072Y-18855000D01*
X16975812Y-18730518D01*
X16939502Y-18610820D01*
X16880537Y-18500506D01*
X16801185Y-18403815D01*
X16704494Y-18324463D01*
X16594180Y-18265498D01*
X16474482Y-18229188D01*
X16350000Y-18216928D01*
X16285750Y-18220000D01*
X16127000Y-18378750D01*
X15873000Y-18378750D01*
X15714250Y-18220000D01*
X15650000Y-18216928D01*
X15525518Y-18229188D01*
X15405820Y-18265498D01*
X15295506Y-18324463D01*
X15198815Y-18403815D01*
X15119463Y-18500506D01*
X15060498Y-18610820D01*
X15024188Y-18730518D01*
X15011928Y-18855000D01*
X13685000Y-18855000D01*
X13685000Y-15145000D01*
X15011928Y-15145000D01*
X15024188Y-15269482D01*
X15060498Y-15389180D01*
X15119463Y-15499494D01*
X15198815Y-15596185D01*
X15295506Y-15675537D01*
X15405820Y-15734502D01*
X15525518Y-15770812D01*
X15650000Y-15783072D01*
X15714250Y-15780000D01*
X15873000Y-15621250D01*
X15873000Y-14547000D01*
X16127000Y-14547000D01*
X16127000Y-15621250D01*
X16285750Y-15780000D01*
X16350000Y-15783072D01*
X16474482Y-15770812D01*
X16594180Y-15734502D01*
X16704494Y-15675537D01*
X16801185Y-15596185D01*
X16880537Y-15499494D01*
X16939502Y-15389180D01*
X16975812Y-15269482D01*
X16988072Y-15145000D01*
X16985000Y-14705750D01*
X16826250Y-14547000D01*
X16127000Y-14547000D01*
X15873000Y-14547000D01*
X15173750Y-14547000D01*
X15015000Y-14705750D01*
X15011928Y-15145000D01*
X13685000Y-15145000D01*
X13685000Y-13685000D01*
X15012913Y-13685000D01*
X15011928Y-13695000D01*
G36*
X22861211Y-13688988D02*
G01*
X22663270Y-13886928D01*
X22337500Y-13886928D01*
X22166684Y-13903752D01*
X22002433Y-13953577D01*
X21851058Y-14034488D01*
X21718377Y-14143377D01*
X21609488Y-14276058D01*
X21528577Y-14427433D01*
X21478752Y-14591684D01*
X21461928Y-14762500D01*
X21461928Y-15237500D01*
X21478752Y-15408316D01*
X21528577Y-15572567D01*
X21609488Y-15723942D01*
X21718377Y-15856623D01*
X21830789Y-15948878D01*
X21745506Y-15994463D01*
X21648815Y-16073815D01*
X21569463Y-16170506D01*
X21510498Y-16280820D01*
X21474188Y-16400518D01*
X21461928Y-16525000D01*
X21465000Y-16714250D01*
X21623750Y-16873000D01*
X22498000Y-16873000D01*
X22498000Y-16853000D01*
X22752000Y-16853000D01*
X22752000Y-16873000D01*
X22772000Y-16873000D01*
X22772000Y-17127000D01*
X22752000Y-17127000D01*
X22752000Y-17951250D01*
X22910750Y-18110000D01*
X23150000Y-18113072D01*
X23274482Y-18100812D01*
X23394180Y-18064502D01*
X23504494Y-18005537D01*
X23577161Y-17945901D01*
X23601058Y-17965512D01*
X23752433Y-18046423D01*
X23916684Y-18096248D01*
X24087500Y-18113072D01*
X24499991Y-18113072D01*
X24499991Y-18165590D01*
X24496603Y-18199990D01*
X24510118Y-18337214D01*
X24550145Y-18469165D01*
X24615145Y-18590771D01*
X24702620Y-18697360D01*
X24754577Y-18740000D01*
X19314802Y-18740000D01*
X18760000Y-18185199D01*
X18760000Y-17475000D01*
X21461928Y-17475000D01*
X21474188Y-17599482D01*
X21510498Y-17719180D01*
X21569463Y-17829494D01*
X21648815Y-17926185D01*
X21745506Y-18005537D01*
X21855820Y-18064502D01*
X21975518Y-18100812D01*
X22100000Y-18113072D01*
X22339250Y-18110000D01*
X22498000Y-17951250D01*
X22498000Y-17127000D01*
X21623750Y-17127000D01*
X21465000Y-17285750D01*
X21461928Y-17475000D01*
X18760000Y-17475000D01*
X18760000Y-15629985D01*
X18801185Y-15596185D01*
X18880537Y-15499494D01*
X18939502Y-15389180D01*
X18975812Y-15269482D01*
X18988072Y-15145000D01*
X18988072Y-13695000D01*
X18987087Y-13685000D01*
X22864483Y-13685000D01*
X22861211Y-13688988D01*
G37*
X22861211Y-13688988D02*
X22663270Y-13886928D01*
X22337500Y-13886928D01*
X22166684Y-13903752D01*
X22002433Y-13953577D01*
X21851058Y-14034488D01*
X21718377Y-14143377D01*
X21609488Y-14276058D01*
X21528577Y-14427433D01*
X21478752Y-14591684D01*
X21461928Y-14762500D01*
X21461928Y-15237500D01*
X21478752Y-15408316D01*
X21528577Y-15572567D01*
X21609488Y-15723942D01*
X21718377Y-15856623D01*
X21830789Y-15948878D01*
X21745506Y-15994463D01*
X21648815Y-16073815D01*
X21569463Y-16170506D01*
X21510498Y-16280820D01*
X21474188Y-16400518D01*
X21461928Y-16525000D01*
X21465000Y-16714250D01*
X21623750Y-16873000D01*
X22498000Y-16873000D01*
X22498000Y-16853000D01*
X22752000Y-16853000D01*
X22752000Y-16873000D01*
X22772000Y-16873000D01*
X22772000Y-17127000D01*
X22752000Y-17127000D01*
X22752000Y-17951250D01*
X22910750Y-18110000D01*
X23150000Y-18113072D01*
X23274482Y-18100812D01*
X23394180Y-18064502D01*
X23504494Y-18005537D01*
X23577161Y-17945901D01*
X23601058Y-17965512D01*
X23752433Y-18046423D01*
X23916684Y-18096248D01*
X24087500Y-18113072D01*
X24499991Y-18113072D01*
X24499991Y-18165590D01*
X24496603Y-18199990D01*
X24510118Y-18337214D01*
X24550145Y-18469165D01*
X24615145Y-18590771D01*
X24702620Y-18697360D01*
X24754577Y-18740000D01*
X19314802Y-18740000D01*
X18760000Y-18185199D01*
X18760000Y-17475000D01*
X21461928Y-17475000D01*
X21474188Y-17599482D01*
X21510498Y-17719180D01*
X21569463Y-17829494D01*
X21648815Y-17926185D01*
X21745506Y-18005537D01*
X21855820Y-18064502D01*
X21975518Y-18100812D01*
X22100000Y-18113072D01*
X22339250Y-18110000D01*
X22498000Y-17951250D01*
X22498000Y-17127000D01*
X21623750Y-17127000D01*
X21465000Y-17285750D01*
X21461928Y-17475000D01*
X18760000Y-17475000D01*
X18760000Y-15629985D01*
X18801185Y-15596185D01*
X18880537Y-15499494D01*
X18939502Y-15389180D01*
X18975812Y-15269482D01*
X18988072Y-15145000D01*
X18988072Y-13695000D01*
X18987087Y-13685000D01*
X22864483Y-13685000D01*
X22861211Y-13688988D01*
G36*
X32266089Y-13893961D02*
G01*
X32166684Y-13903752D01*
X32002433Y-13953577D01*
X31851058Y-14034488D01*
X31718377Y-14143377D01*
X31609488Y-14276058D01*
X31528577Y-14427433D01*
X31478752Y-14591684D01*
X31461928Y-14762500D01*
X31461928Y-15237500D01*
X31478752Y-15408316D01*
X31528577Y-15572567D01*
X31609488Y-15723942D01*
X31718377Y-15856623D01*
X31830789Y-15948878D01*
X31745506Y-15994463D01*
X31648815Y-16073815D01*
X31569463Y-16170506D01*
X31510498Y-16280820D01*
X31474188Y-16400518D01*
X31461928Y-16525000D01*
X31465000Y-16714250D01*
X31623750Y-16873000D01*
X32498000Y-16873000D01*
X32498000Y-16853000D01*
X32752000Y-16853000D01*
X32752000Y-16873000D01*
X32772000Y-16873000D01*
X32772000Y-17127000D01*
X32752000Y-17127000D01*
X32752000Y-17147000D01*
X32498000Y-17147000D01*
X32498000Y-17127000D01*
X31623750Y-17127000D01*
X31510770Y-17239980D01*
X30537828Y-17239980D01*
X30538072Y-17237500D01*
X30538072Y-16762500D01*
X30521248Y-16591684D01*
X30471423Y-16427433D01*
X30390512Y-16276058D01*
X30281623Y-16143377D01*
X30148942Y-16034488D01*
X30135000Y-16027036D01*
X30135000Y-15972964D01*
X30148942Y-15965512D01*
X30281623Y-15856623D01*
X30390512Y-15723942D01*
X30471423Y-15572567D01*
X30521248Y-15408316D01*
X30538072Y-15237500D01*
X30538072Y-14762500D01*
X30521248Y-14591684D01*
X30471423Y-14427433D01*
X30390512Y-14276058D01*
X30281623Y-14143377D01*
X30148942Y-14034488D01*
X29997567Y-13953577D01*
X29833316Y-13903752D01*
X29662500Y-13886928D01*
X29087500Y-13886928D01*
X28916684Y-13903752D01*
X28752433Y-13953577D01*
X28601058Y-14034488D01*
X28500000Y-14117425D01*
X28398942Y-14034488D01*
X28247567Y-13953577D01*
X28083316Y-13903752D01*
X27912500Y-13886928D01*
X27337500Y-13886928D01*
X27166684Y-13903752D01*
X27002433Y-13953577D01*
X26851058Y-14034488D01*
X26718377Y-14143377D01*
X26609488Y-14276058D01*
X26528577Y-14427433D01*
X26478752Y-14591684D01*
X26461928Y-14762500D01*
X26461928Y-15237500D01*
X26478752Y-15408316D01*
X26528577Y-15572567D01*
X26609488Y-15723942D01*
X26718377Y-15856623D01*
X26830789Y-15948878D01*
X26745506Y-15994463D01*
X26648815Y-16073815D01*
X26569463Y-16170506D01*
X26510498Y-16280820D01*
X26474188Y-16400518D01*
X26461928Y-16525000D01*
X26465000Y-16714250D01*
X26623750Y-16873000D01*
X27498000Y-16873000D01*
X27498000Y-16853000D01*
X27752000Y-16853000D01*
X27752000Y-16873000D01*
X27772000Y-16873000D01*
X27772000Y-17127000D01*
X27752000Y-17127000D01*
X27752000Y-17147000D01*
X27498000Y-17147000D01*
X27498000Y-17127000D01*
X26623750Y-17127000D01*
X26465000Y-17285750D01*
X26461928Y-17475000D01*
X26464389Y-17499990D01*
X25899990Y-17499990D01*
X25899990Y-14502613D01*
X25905536Y-14492237D01*
X25948993Y-14348976D01*
X25963667Y-14199990D01*
X25948993Y-14051004D01*
X25905536Y-13907743D01*
X25834964Y-13775714D01*
X25760517Y-13685000D01*
X32475051Y-13685000D01*
X32266089Y-13893961D01*
G37*
X32266089Y-13893961D02*
X32166684Y-13903752D01*
X32002433Y-13953577D01*
X31851058Y-14034488D01*
X31718377Y-14143377D01*
X31609488Y-14276058D01*
X31528577Y-14427433D01*
X31478752Y-14591684D01*
X31461928Y-14762500D01*
X31461928Y-15237500D01*
X31478752Y-15408316D01*
X31528577Y-15572567D01*
X31609488Y-15723942D01*
X31718377Y-15856623D01*
X31830789Y-15948878D01*
X31745506Y-15994463D01*
X31648815Y-16073815D01*
X31569463Y-16170506D01*
X31510498Y-16280820D01*
X31474188Y-16400518D01*
X31461928Y-16525000D01*
X31465000Y-16714250D01*
X31623750Y-16873000D01*
X32498000Y-16873000D01*
X32498000Y-16853000D01*
X32752000Y-16853000D01*
X32752000Y-16873000D01*
X32772000Y-16873000D01*
X32772000Y-17127000D01*
X32752000Y-17127000D01*
X32752000Y-17147000D01*
X32498000Y-17147000D01*
X32498000Y-17127000D01*
X31623750Y-17127000D01*
X31510770Y-17239980D01*
X30537828Y-17239980D01*
X30538072Y-17237500D01*
X30538072Y-16762500D01*
X30521248Y-16591684D01*
X30471423Y-16427433D01*
X30390512Y-16276058D01*
X30281623Y-16143377D01*
X30148942Y-16034488D01*
X30135000Y-16027036D01*
X30135000Y-15972964D01*
X30148942Y-15965512D01*
X30281623Y-15856623D01*
X30390512Y-15723942D01*
X30471423Y-15572567D01*
X30521248Y-15408316D01*
X30538072Y-15237500D01*
X30538072Y-14762500D01*
X30521248Y-14591684D01*
X30471423Y-14427433D01*
X30390512Y-14276058D01*
X30281623Y-14143377D01*
X30148942Y-14034488D01*
X29997567Y-13953577D01*
X29833316Y-13903752D01*
X29662500Y-13886928D01*
X29087500Y-13886928D01*
X28916684Y-13903752D01*
X28752433Y-13953577D01*
X28601058Y-14034488D01*
X28500000Y-14117425D01*
X28398942Y-14034488D01*
X28247567Y-13953577D01*
X28083316Y-13903752D01*
X27912500Y-13886928D01*
X27337500Y-13886928D01*
X27166684Y-13903752D01*
X27002433Y-13953577D01*
X26851058Y-14034488D01*
X26718377Y-14143377D01*
X26609488Y-14276058D01*
X26528577Y-14427433D01*
X26478752Y-14591684D01*
X26461928Y-14762500D01*
X26461928Y-15237500D01*
X26478752Y-15408316D01*
X26528577Y-15572567D01*
X26609488Y-15723942D01*
X26718377Y-15856623D01*
X26830789Y-15948878D01*
X26745506Y-15994463D01*
X26648815Y-16073815D01*
X26569463Y-16170506D01*
X26510498Y-16280820D01*
X26474188Y-16400518D01*
X26461928Y-16525000D01*
X26465000Y-16714250D01*
X26623750Y-16873000D01*
X27498000Y-16873000D01*
X27498000Y-16853000D01*
X27752000Y-16853000D01*
X27752000Y-16873000D01*
X27772000Y-16873000D01*
X27772000Y-17127000D01*
X27752000Y-17127000D01*
X27752000Y-17147000D01*
X27498000Y-17147000D01*
X27498000Y-17127000D01*
X26623750Y-17127000D01*
X26465000Y-17285750D01*
X26461928Y-17475000D01*
X26464389Y-17499990D01*
X25899990Y-17499990D01*
X25899990Y-14502613D01*
X25905536Y-14492237D01*
X25948993Y-14348976D01*
X25963667Y-14199990D01*
X25948993Y-14051004D01*
X25905536Y-13907743D01*
X25834964Y-13775714D01*
X25760517Y-13685000D01*
X32475051Y-13685000D01*
X32266089Y-13893961D01*
G36*
X41461928Y-14762500D02*
G01*
X41461928Y-15237500D01*
X41478752Y-15408316D01*
X41528577Y-15572567D01*
X41609488Y-15723942D01*
X41718377Y-15856623D01*
X41830789Y-15948878D01*
X41745506Y-15994463D01*
X41648815Y-16073815D01*
X41569463Y-16170506D01*
X41510498Y-16280820D01*
X41474188Y-16400518D01*
X41461928Y-16525000D01*
X41465000Y-16714250D01*
X41623750Y-16873000D01*
X42498000Y-16873000D01*
X42498000Y-16853000D01*
X42752000Y-16853000D01*
X42752000Y-16873000D01*
X42772000Y-16873000D01*
X42772000Y-17040010D01*
X40538072Y-17040010D01*
X40538072Y-16762500D01*
X40521248Y-16591684D01*
X40471423Y-16427433D01*
X40390512Y-16276058D01*
X40281623Y-16143377D01*
X40148942Y-16034488D01*
X40135000Y-16027036D01*
X40135000Y-15972964D01*
X40148942Y-15965512D01*
X40281623Y-15856623D01*
X40390512Y-15723942D01*
X40471423Y-15572567D01*
X40521248Y-15408316D01*
X40538072Y-15237500D01*
X40538072Y-14762500D01*
X40531914Y-14699980D01*
X41468086Y-14699980D01*
X41461928Y-14762500D01*
G37*
X41461928Y-14762500D02*
X41461928Y-15237500D01*
X41478752Y-15408316D01*
X41528577Y-15572567D01*
X41609488Y-15723942D01*
X41718377Y-15856623D01*
X41830789Y-15948878D01*
X41745506Y-15994463D01*
X41648815Y-16073815D01*
X41569463Y-16170506D01*
X41510498Y-16280820D01*
X41474188Y-16400518D01*
X41461928Y-16525000D01*
X41465000Y-16714250D01*
X41623750Y-16873000D01*
X42498000Y-16873000D01*
X42498000Y-16853000D01*
X42752000Y-16853000D01*
X42752000Y-16873000D01*
X42772000Y-16873000D01*
X42772000Y-17040010D01*
X40538072Y-17040010D01*
X40538072Y-16762500D01*
X40521248Y-16591684D01*
X40471423Y-16427433D01*
X40390512Y-16276058D01*
X40281623Y-16143377D01*
X40148942Y-16034488D01*
X40135000Y-16027036D01*
X40135000Y-15972964D01*
X40148942Y-15965512D01*
X40281623Y-15856623D01*
X40390512Y-15723942D01*
X40471423Y-15572567D01*
X40521248Y-15408316D01*
X40538072Y-15237500D01*
X40538072Y-14762500D01*
X40531914Y-14699980D01*
X41468086Y-14699980D01*
X41461928Y-14762500D01*
G36*
X37772000Y-17040010D02*
G01*
X37478000Y-17040010D01*
X37478000Y-16935000D01*
X37592089Y-16935000D01*
X37772000Y-16899213D01*
X37772000Y-17040010D01*
G37*
X37772000Y-17040010D02*
X37478000Y-17040010D01*
X37478000Y-16935000D01*
X37592089Y-16935000D01*
X37772000Y-16899213D01*
X37772000Y-17040010D01*
%TD*%
M02*
