%TF.GenerationSoftware,KiCad,Pcbnew,(5.1.6-0-10_14)*%
%TF.CreationDate,2021-01-01T01:39:17+01:00*%
%TF.ProjectId,remote,72656d6f-7465-42e6-9b69-6361645f7063,rev?*%
%TF.SameCoordinates,Original*%
%TF.FileFunction,Soldermask,Top*%
%TF.FilePolarity,Negative*%
%FSLAX46Y46*%
G04 Gerber Fmt 4.6, Leading zero omitted, Abs format (unit mm)*
G04 Created by KiCad (PCBNEW (5.1.6-0-10_14)) date 2021-01-01 01:39:17*
%MOMM*%
%LPD*%
G01*
G04 APERTURE LIST*
%ADD10R,3.100000X3.100000*%
%ADD11R,1.500000X1.500000*%
%ADD12R,1.800000X2.200000*%
%ADD13R,0.300000X1.300000*%
%ADD14R,1.300000X0.900000*%
%ADD15C,0.100000*%
G04 APERTURE END LIST*
%TO.C,U2*%
G36*
G01*
X39312500Y-19875000D02*
X39187500Y-19875000D01*
G75*
G02*
X39125000Y-19812500I0J62500D01*
G01*
X39125000Y-19062500D01*
G75*
G02*
X39187500Y-19000000I62500J0D01*
G01*
X39312500Y-19000000D01*
G75*
G02*
X39375000Y-19062500I0J-62500D01*
G01*
X39375000Y-19812500D01*
G75*
G02*
X39312500Y-19875000I-62500J0D01*
G01*
G37*
G36*
G01*
X39812500Y-19875000D02*
X39687500Y-19875000D01*
G75*
G02*
X39625000Y-19812500I0J62500D01*
G01*
X39625000Y-19062500D01*
G75*
G02*
X39687500Y-19000000I62500J0D01*
G01*
X39812500Y-19000000D01*
G75*
G02*
X39875000Y-19062500I0J-62500D01*
G01*
X39875000Y-19812500D01*
G75*
G02*
X39812500Y-19875000I-62500J0D01*
G01*
G37*
G36*
G01*
X40312500Y-19875000D02*
X40187500Y-19875000D01*
G75*
G02*
X40125000Y-19812500I0J62500D01*
G01*
X40125000Y-19062500D01*
G75*
G02*
X40187500Y-19000000I62500J0D01*
G01*
X40312500Y-19000000D01*
G75*
G02*
X40375000Y-19062500I0J-62500D01*
G01*
X40375000Y-19812500D01*
G75*
G02*
X40312500Y-19875000I-62500J0D01*
G01*
G37*
G36*
G01*
X40812500Y-19875000D02*
X40687500Y-19875000D01*
G75*
G02*
X40625000Y-19812500I0J62500D01*
G01*
X40625000Y-19062500D01*
G75*
G02*
X40687500Y-19000000I62500J0D01*
G01*
X40812500Y-19000000D01*
G75*
G02*
X40875000Y-19062500I0J-62500D01*
G01*
X40875000Y-19812500D01*
G75*
G02*
X40812500Y-19875000I-62500J0D01*
G01*
G37*
G36*
G01*
X41312500Y-19875000D02*
X41187500Y-19875000D01*
G75*
G02*
X41125000Y-19812500I0J62500D01*
G01*
X41125000Y-19062500D01*
G75*
G02*
X41187500Y-19000000I62500J0D01*
G01*
X41312500Y-19000000D01*
G75*
G02*
X41375000Y-19062500I0J-62500D01*
G01*
X41375000Y-19812500D01*
G75*
G02*
X41312500Y-19875000I-62500J0D01*
G01*
G37*
G36*
G01*
X41812500Y-19875000D02*
X41687500Y-19875000D01*
G75*
G02*
X41625000Y-19812500I0J62500D01*
G01*
X41625000Y-19062500D01*
G75*
G02*
X41687500Y-19000000I62500J0D01*
G01*
X41812500Y-19000000D01*
G75*
G02*
X41875000Y-19062500I0J-62500D01*
G01*
X41875000Y-19812500D01*
G75*
G02*
X41812500Y-19875000I-62500J0D01*
G01*
G37*
G36*
G01*
X42312500Y-19875000D02*
X42187500Y-19875000D01*
G75*
G02*
X42125000Y-19812500I0J62500D01*
G01*
X42125000Y-19062500D01*
G75*
G02*
X42187500Y-19000000I62500J0D01*
G01*
X42312500Y-19000000D01*
G75*
G02*
X42375000Y-19062500I0J-62500D01*
G01*
X42375000Y-19812500D01*
G75*
G02*
X42312500Y-19875000I-62500J0D01*
G01*
G37*
G36*
G01*
X42812500Y-19875000D02*
X42687500Y-19875000D01*
G75*
G02*
X42625000Y-19812500I0J62500D01*
G01*
X42625000Y-19062500D01*
G75*
G02*
X42687500Y-19000000I62500J0D01*
G01*
X42812500Y-19000000D01*
G75*
G02*
X42875000Y-19062500I0J-62500D01*
G01*
X42875000Y-19812500D01*
G75*
G02*
X42812500Y-19875000I-62500J0D01*
G01*
G37*
G36*
G01*
X43812500Y-18875000D02*
X43062500Y-18875000D01*
G75*
G02*
X43000000Y-18812500I0J62500D01*
G01*
X43000000Y-18687500D01*
G75*
G02*
X43062500Y-18625000I62500J0D01*
G01*
X43812500Y-18625000D01*
G75*
G02*
X43875000Y-18687500I0J-62500D01*
G01*
X43875000Y-18812500D01*
G75*
G02*
X43812500Y-18875000I-62500J0D01*
G01*
G37*
G36*
G01*
X43812500Y-18375000D02*
X43062500Y-18375000D01*
G75*
G02*
X43000000Y-18312500I0J62500D01*
G01*
X43000000Y-18187500D01*
G75*
G02*
X43062500Y-18125000I62500J0D01*
G01*
X43812500Y-18125000D01*
G75*
G02*
X43875000Y-18187500I0J-62500D01*
G01*
X43875000Y-18312500D01*
G75*
G02*
X43812500Y-18375000I-62500J0D01*
G01*
G37*
G36*
G01*
X43812500Y-17875000D02*
X43062500Y-17875000D01*
G75*
G02*
X43000000Y-17812500I0J62500D01*
G01*
X43000000Y-17687500D01*
G75*
G02*
X43062500Y-17625000I62500J0D01*
G01*
X43812500Y-17625000D01*
G75*
G02*
X43875000Y-17687500I0J-62500D01*
G01*
X43875000Y-17812500D01*
G75*
G02*
X43812500Y-17875000I-62500J0D01*
G01*
G37*
G36*
G01*
X43812500Y-17375000D02*
X43062500Y-17375000D01*
G75*
G02*
X43000000Y-17312500I0J62500D01*
G01*
X43000000Y-17187500D01*
G75*
G02*
X43062500Y-17125000I62500J0D01*
G01*
X43812500Y-17125000D01*
G75*
G02*
X43875000Y-17187500I0J-62500D01*
G01*
X43875000Y-17312500D01*
G75*
G02*
X43812500Y-17375000I-62500J0D01*
G01*
G37*
G36*
G01*
X43812500Y-16875000D02*
X43062500Y-16875000D01*
G75*
G02*
X43000000Y-16812500I0J62500D01*
G01*
X43000000Y-16687500D01*
G75*
G02*
X43062500Y-16625000I62500J0D01*
G01*
X43812500Y-16625000D01*
G75*
G02*
X43875000Y-16687500I0J-62500D01*
G01*
X43875000Y-16812500D01*
G75*
G02*
X43812500Y-16875000I-62500J0D01*
G01*
G37*
G36*
G01*
X43812500Y-16375000D02*
X43062500Y-16375000D01*
G75*
G02*
X43000000Y-16312500I0J62500D01*
G01*
X43000000Y-16187500D01*
G75*
G02*
X43062500Y-16125000I62500J0D01*
G01*
X43812500Y-16125000D01*
G75*
G02*
X43875000Y-16187500I0J-62500D01*
G01*
X43875000Y-16312500D01*
G75*
G02*
X43812500Y-16375000I-62500J0D01*
G01*
G37*
G36*
G01*
X43812500Y-15875000D02*
X43062500Y-15875000D01*
G75*
G02*
X43000000Y-15812500I0J62500D01*
G01*
X43000000Y-15687500D01*
G75*
G02*
X43062500Y-15625000I62500J0D01*
G01*
X43812500Y-15625000D01*
G75*
G02*
X43875000Y-15687500I0J-62500D01*
G01*
X43875000Y-15812500D01*
G75*
G02*
X43812500Y-15875000I-62500J0D01*
G01*
G37*
G36*
G01*
X43812500Y-15375000D02*
X43062500Y-15375000D01*
G75*
G02*
X43000000Y-15312500I0J62500D01*
G01*
X43000000Y-15187500D01*
G75*
G02*
X43062500Y-15125000I62500J0D01*
G01*
X43812500Y-15125000D01*
G75*
G02*
X43875000Y-15187500I0J-62500D01*
G01*
X43875000Y-15312500D01*
G75*
G02*
X43812500Y-15375000I-62500J0D01*
G01*
G37*
G36*
G01*
X42812500Y-15000000D02*
X42687500Y-15000000D01*
G75*
G02*
X42625000Y-14937500I0J62500D01*
G01*
X42625000Y-14187500D01*
G75*
G02*
X42687500Y-14125000I62500J0D01*
G01*
X42812500Y-14125000D01*
G75*
G02*
X42875000Y-14187500I0J-62500D01*
G01*
X42875000Y-14937500D01*
G75*
G02*
X42812500Y-15000000I-62500J0D01*
G01*
G37*
G36*
G01*
X42312500Y-15000000D02*
X42187500Y-15000000D01*
G75*
G02*
X42125000Y-14937500I0J62500D01*
G01*
X42125000Y-14187500D01*
G75*
G02*
X42187500Y-14125000I62500J0D01*
G01*
X42312500Y-14125000D01*
G75*
G02*
X42375000Y-14187500I0J-62500D01*
G01*
X42375000Y-14937500D01*
G75*
G02*
X42312500Y-15000000I-62500J0D01*
G01*
G37*
G36*
G01*
X41812500Y-15000000D02*
X41687500Y-15000000D01*
G75*
G02*
X41625000Y-14937500I0J62500D01*
G01*
X41625000Y-14187500D01*
G75*
G02*
X41687500Y-14125000I62500J0D01*
G01*
X41812500Y-14125000D01*
G75*
G02*
X41875000Y-14187500I0J-62500D01*
G01*
X41875000Y-14937500D01*
G75*
G02*
X41812500Y-15000000I-62500J0D01*
G01*
G37*
G36*
G01*
X41312500Y-15000000D02*
X41187500Y-15000000D01*
G75*
G02*
X41125000Y-14937500I0J62500D01*
G01*
X41125000Y-14187500D01*
G75*
G02*
X41187500Y-14125000I62500J0D01*
G01*
X41312500Y-14125000D01*
G75*
G02*
X41375000Y-14187500I0J-62500D01*
G01*
X41375000Y-14937500D01*
G75*
G02*
X41312500Y-15000000I-62500J0D01*
G01*
G37*
G36*
G01*
X40812500Y-15000000D02*
X40687500Y-15000000D01*
G75*
G02*
X40625000Y-14937500I0J62500D01*
G01*
X40625000Y-14187500D01*
G75*
G02*
X40687500Y-14125000I62500J0D01*
G01*
X40812500Y-14125000D01*
G75*
G02*
X40875000Y-14187500I0J-62500D01*
G01*
X40875000Y-14937500D01*
G75*
G02*
X40812500Y-15000000I-62500J0D01*
G01*
G37*
G36*
G01*
X40312500Y-15000000D02*
X40187500Y-15000000D01*
G75*
G02*
X40125000Y-14937500I0J62500D01*
G01*
X40125000Y-14187500D01*
G75*
G02*
X40187500Y-14125000I62500J0D01*
G01*
X40312500Y-14125000D01*
G75*
G02*
X40375000Y-14187500I0J-62500D01*
G01*
X40375000Y-14937500D01*
G75*
G02*
X40312500Y-15000000I-62500J0D01*
G01*
G37*
G36*
G01*
X39812500Y-15000000D02*
X39687500Y-15000000D01*
G75*
G02*
X39625000Y-14937500I0J62500D01*
G01*
X39625000Y-14187500D01*
G75*
G02*
X39687500Y-14125000I62500J0D01*
G01*
X39812500Y-14125000D01*
G75*
G02*
X39875000Y-14187500I0J-62500D01*
G01*
X39875000Y-14937500D01*
G75*
G02*
X39812500Y-15000000I-62500J0D01*
G01*
G37*
G36*
G01*
X39312500Y-15000000D02*
X39187500Y-15000000D01*
G75*
G02*
X39125000Y-14937500I0J62500D01*
G01*
X39125000Y-14187500D01*
G75*
G02*
X39187500Y-14125000I62500J0D01*
G01*
X39312500Y-14125000D01*
G75*
G02*
X39375000Y-14187500I0J-62500D01*
G01*
X39375000Y-14937500D01*
G75*
G02*
X39312500Y-15000000I-62500J0D01*
G01*
G37*
G36*
G01*
X38937500Y-15375000D02*
X38187500Y-15375000D01*
G75*
G02*
X38125000Y-15312500I0J62500D01*
G01*
X38125000Y-15187500D01*
G75*
G02*
X38187500Y-15125000I62500J0D01*
G01*
X38937500Y-15125000D01*
G75*
G02*
X39000000Y-15187500I0J-62500D01*
G01*
X39000000Y-15312500D01*
G75*
G02*
X38937500Y-15375000I-62500J0D01*
G01*
G37*
G36*
G01*
X38937500Y-15875000D02*
X38187500Y-15875000D01*
G75*
G02*
X38125000Y-15812500I0J62500D01*
G01*
X38125000Y-15687500D01*
G75*
G02*
X38187500Y-15625000I62500J0D01*
G01*
X38937500Y-15625000D01*
G75*
G02*
X39000000Y-15687500I0J-62500D01*
G01*
X39000000Y-15812500D01*
G75*
G02*
X38937500Y-15875000I-62500J0D01*
G01*
G37*
G36*
G01*
X38937500Y-16375000D02*
X38187500Y-16375000D01*
G75*
G02*
X38125000Y-16312500I0J62500D01*
G01*
X38125000Y-16187500D01*
G75*
G02*
X38187500Y-16125000I62500J0D01*
G01*
X38937500Y-16125000D01*
G75*
G02*
X39000000Y-16187500I0J-62500D01*
G01*
X39000000Y-16312500D01*
G75*
G02*
X38937500Y-16375000I-62500J0D01*
G01*
G37*
G36*
G01*
X38937500Y-16875000D02*
X38187500Y-16875000D01*
G75*
G02*
X38125000Y-16812500I0J62500D01*
G01*
X38125000Y-16687500D01*
G75*
G02*
X38187500Y-16625000I62500J0D01*
G01*
X38937500Y-16625000D01*
G75*
G02*
X39000000Y-16687500I0J-62500D01*
G01*
X39000000Y-16812500D01*
G75*
G02*
X38937500Y-16875000I-62500J0D01*
G01*
G37*
G36*
G01*
X38937500Y-17375000D02*
X38187500Y-17375000D01*
G75*
G02*
X38125000Y-17312500I0J62500D01*
G01*
X38125000Y-17187500D01*
G75*
G02*
X38187500Y-17125000I62500J0D01*
G01*
X38937500Y-17125000D01*
G75*
G02*
X39000000Y-17187500I0J-62500D01*
G01*
X39000000Y-17312500D01*
G75*
G02*
X38937500Y-17375000I-62500J0D01*
G01*
G37*
G36*
G01*
X38937500Y-17875000D02*
X38187500Y-17875000D01*
G75*
G02*
X38125000Y-17812500I0J62500D01*
G01*
X38125000Y-17687500D01*
G75*
G02*
X38187500Y-17625000I62500J0D01*
G01*
X38937500Y-17625000D01*
G75*
G02*
X39000000Y-17687500I0J-62500D01*
G01*
X39000000Y-17812500D01*
G75*
G02*
X38937500Y-17875000I-62500J0D01*
G01*
G37*
G36*
G01*
X38937500Y-18375000D02*
X38187500Y-18375000D01*
G75*
G02*
X38125000Y-18312500I0J62500D01*
G01*
X38125000Y-18187500D01*
G75*
G02*
X38187500Y-18125000I62500J0D01*
G01*
X38937500Y-18125000D01*
G75*
G02*
X39000000Y-18187500I0J-62500D01*
G01*
X39000000Y-18312500D01*
G75*
G02*
X38937500Y-18375000I-62500J0D01*
G01*
G37*
G36*
G01*
X38937500Y-18875000D02*
X38187500Y-18875000D01*
G75*
G02*
X38125000Y-18812500I0J62500D01*
G01*
X38125000Y-18687500D01*
G75*
G02*
X38187500Y-18625000I62500J0D01*
G01*
X38937500Y-18625000D01*
G75*
G02*
X39000000Y-18687500I0J-62500D01*
G01*
X39000000Y-18812500D01*
G75*
G02*
X38937500Y-18875000I-62500J0D01*
G01*
G37*
D10*
X41000000Y-17000000D03*
%TD*%
%TO.C,C1*%
G36*
G01*
X18375000Y-17775000D02*
X19625000Y-17775000D01*
G75*
G02*
X19875000Y-18025000I0J-250000D01*
G01*
X19875000Y-18950000D01*
G75*
G02*
X19625000Y-19200000I-250000J0D01*
G01*
X18375000Y-19200000D01*
G75*
G02*
X18125000Y-18950000I0J250000D01*
G01*
X18125000Y-18025000D01*
G75*
G02*
X18375000Y-17775000I250000J0D01*
G01*
G37*
G36*
G01*
X18375000Y-14800000D02*
X19625000Y-14800000D01*
G75*
G02*
X19875000Y-15050000I0J-250000D01*
G01*
X19875000Y-15975000D01*
G75*
G02*
X19625000Y-16225000I-250000J0D01*
G01*
X18375000Y-16225000D01*
G75*
G02*
X18125000Y-15975000I0J250000D01*
G01*
X18125000Y-15050000D01*
G75*
G02*
X18375000Y-14800000I250000J0D01*
G01*
G37*
%TD*%
%TO.C,C2*%
G36*
G01*
X36625000Y-19200000D02*
X35375000Y-19200000D01*
G75*
G02*
X35125000Y-18950000I0J250000D01*
G01*
X35125000Y-18025000D01*
G75*
G02*
X35375000Y-17775000I250000J0D01*
G01*
X36625000Y-17775000D01*
G75*
G02*
X36875000Y-18025000I0J-250000D01*
G01*
X36875000Y-18950000D01*
G75*
G02*
X36625000Y-19200000I-250000J0D01*
G01*
G37*
G36*
G01*
X36625000Y-16225000D02*
X35375000Y-16225000D01*
G75*
G02*
X35125000Y-15975000I0J250000D01*
G01*
X35125000Y-15050000D01*
G75*
G02*
X35375000Y-14800000I250000J0D01*
G01*
X36625000Y-14800000D01*
G75*
G02*
X36875000Y-15050000I0J-250000D01*
G01*
X36875000Y-15975000D01*
G75*
G02*
X36625000Y-16225000I-250000J0D01*
G01*
G37*
%TD*%
D11*
%TO.C,J1*%
X15000000Y-14500000D03*
%TD*%
%TO.C,J2*%
X15000000Y-17000000D03*
%TD*%
%TO.C,J3*%
X15000000Y-19500000D03*
%TD*%
D12*
%TO.C,J4*%
X52650000Y-17400000D03*
X46350000Y-17400000D03*
D13*
X48250000Y-14150000D03*
X48750000Y-14150000D03*
X49250000Y-14150000D03*
X49750000Y-14150000D03*
X50250000Y-14150000D03*
X50750000Y-14150000D03*
%TD*%
D14*
%TO.C,U1*%
X24650000Y-18500000D03*
X24650000Y-15500000D03*
D15*
G36*
X20700000Y-16133500D02*
G01*
X23825000Y-16133500D01*
X23825000Y-16550000D01*
X25300000Y-16550000D01*
X25300000Y-17450000D01*
X23825000Y-17450000D01*
X23825000Y-17866500D01*
X20700000Y-17866500D01*
X20700000Y-16133500D01*
G37*
%TD*%
M02*
